<svg width="32" height="32" viewBox="0 0 32 32" fill="none" xmlns="http://www.w3.org/2000/svg">
<path d="M17.4142 2C17.149 2 16.8946 2.10538 16.7071 2.29294L13 6V10H25C26.1046 10 27 9.10456 27 8H28V2H17.4142Z" fill="#F0915A"/>
<path d="M22 24H10C9.44769 24 9 23.5523 9 23V13.8333C9 13.281 9.44769 12.8333 10 12.8333H22C22.5523 12.8333 23 13.281 23 13.8333V23C23 23.5523 22.5522 24 22 24Z" fill="#CD3232"/>
<path d="M18 24H10C9.44769 24 9 23.5523 9 23V13.8333C9 13.281 9.44769 12.8333 10 12.8333H18C18.5523 12.8333 19 13.281 19 13.8333V23C19 23.5523 18.5522 24 18 24Z" fill="#FF4646"/>
<path d="M22.5 11H9.5C9.22387 11 9 10.7761 9 10.5V4.5C9 4.22387 9.22387 4 9.5 4H22.5C22.7761 4 23 4.22387 23 4.5V10.5C23 10.7761 22.7761 11 22.5 11Z" fill="#78AF41"/>
<path d="M21 5H11C11 5.55231 10.5523 6 10 6V9C10.5523 9 11 9.44769 11 10H21C21 9.44769 21.4477 9 22 9V6C21.4477 6 21 5.55231 21 5Z" fill="#466932"/>
<path d="M16 9.5C17.1046 9.5 18 8.60457 18 7.5C18 6.39543 17.1046 5.5 16 5.5C14.8954 5.5 14 6.39543 14 7.5C14 8.60457 14.8954 9.5 16 9.5Z" fill="#78AF41"/>
<path d="M14.5 24H10.2426C9.447 24 8.68394 24.3161 8.12131 24.8787L7 26L9.5 28.5L10.7071 27.2929C10.8947 27.1053 11.149 27 11.4143 27H14.5C15.3284 27 16 26.3284 16 25.5C16 24.6716 15.3284 24 14.5 24Z" fill="#FAB991"/>
<path d="M21.7071 23.2929C21.3166 22.9023 20.6834 22.9023 20.2929 23.2929L16.5858 27H11.4143C11.1491 27 10.8947 27.1054 10.7071 27.2929L9.5 28.5L11 30L12 29H16.7929C17.1936 29 17.5703 28.8439 17.8536 28.5606L21.7071 24.707C22.0976 24.3165 22.0976 23.6834 21.7071 23.2929Z" fill="#F0915A"/>
<path d="M14.4993 26.3333H14.166C13.8899 26.3333 13.666 26.1094 13.666 25.8333V25.1666C13.666 24.8905 13.8899 24.6666 14.166 24.6666H14.4993C14.9596 24.6666 15.3326 25.0397 15.3326 25.4999C15.3326 25.9602 14.9596 26.3333 14.4993 26.3333Z" fill="#F0915A"/>
<path d="M6.85356 25.8536L9.5 28.5L7 31H1L6.14644 25.8536C6.34169 25.6583 6.65831 25.6583 6.85356 25.8536Z" fill="#463C4B"/>
<path d="M9.5 28.5L11.1464 30.1464C11.3417 30.3417 11.3417 30.6583 11.1464 30.8536L11 31H7L9.5 28.5Z" fill="#32283C"/>
<path d="M17.3535 6.35356L17.4089 6.409C18.2876 7.28769 19.7122 7.28769 20.5909 6.409L21.4999 5.5H23.9999C25.6568 5.5 26.9999 4.15688 26.9999 2.5V2H21.4141C21.1489 2 20.8945 2.10538 20.707 2.29288L17.3534 5.64644C17.1582 5.84169 17.1582 6.15831 17.3535 6.35356Z" fill="#FAB991"/>
<path d="M17.5 5.5L17.5429 5.54288C17.9334 5.93338 18.5666 5.93338 18.9571 5.54288L19.2399 5.26006C19.3375 5.16244 19.3375 5.00413 19.2399 4.9065L18.6666 4.33325L17.5 5.5Z" fill="#F0915A"/>
<path d="M29 9H31V1H29C28.4477 1 28 1.44769 28 2V8C28 8.55231 28.4477 9 29 9Z" fill="#463C4B"/>
<path d="M29.5 5H31V9H29V5.5C29 5.22387 29.2239 5 29.5 5Z" fill="#32283C"/>
<path d="M15 14.5H13C12.7239 14.5 12.5 14.2761 12.5 14V12.8333H15.5V14C15.5 14.2761 15.2761 14.5 15 14.5Z" fill="#FAA037"/>
<path d="M17.25 22.5H15.75C15.6119 22.5 15.5 22.3881 15.5 22.25V21.25C15.5 21.1119 15.6119 21 15.75 21H17.25C17.3881 21 17.5 21.1119 17.5 21.25V22.25C17.5 22.3881 17.3881 22.5 17.25 22.5Z" fill="#CD3232"/>
</svg>
