<svg width="80" height="32" viewBox="0 0 80 32" fill="none" xmlns="http://www.w3.org/2000/svg">
<path d="M30 0H4C1.79086 0 0 1.79086 0 4V20C0 22.2091 1.79086 24 4 24H30C32.2091 24 34 22.2091 34 20V4C34 1.79086 32.2091 0 30 0Z" fill="white"/>
<path fill-rule="evenodd" clip-rule="evenodd" d="M52.6473 4.15101L44.9629 11.66L45.5021 15.8763L46.9178 12.9783L51.2984 18.4462L57.432 0L37.0078 8.30035L42.5353 11.133L52.6473 4.15101Z" fill="#8C3494"/>
<path d="M45.974 17.3271H37.8838C31.7212 18.249 31.0758 27.0111 37.8172 28.2024H45.974V20.2903C48.6926 20.3789 49.254 23.6951 47.2545 24.903C47.6585 25.3632 49.2762 27.0781 49.2762 27.0781C53.5217 23.4977 51.0959 17.6048 45.974 17.3271ZM43.0093 25.2326H38.4932C35.696 25.4 34.7854 20.8825 38.2228 20.2903H43.0161L43.0093 25.2326Z" fill="#8C3494"/>
<path fill-rule="evenodd" clip-rule="evenodd" d="M62.8895 21.2854H59.923L58.6425 24.185H62.4171C63.1753 24.1514 63.2098 25.239 62.4171 25.3042H55.8795V20.2898H65.9281V17.3268H64.4388C64.0006 11.1998 56.5026 11.0174 54.5305 14.362C54.9191 14.6748 56.756 16.2727 56.756 16.2727C57.8841 14.5426 61.0184 14.6246 61.4739 17.3268H52.918V28.202H62.5575C64.7468 28.1702 65.7587 26.5891 65.9949 25.239C66.1249 23.0571 64.776 21.6082 62.8895 21.2854Z" fill="#8C3494"/>
<path fill-rule="evenodd" clip-rule="evenodd" d="M34.041 17.3271H30.1312C28.885 18.8094 26.728 24.7994 31.0077 29.3168C31.0077 29.3168 32.8616 27.7691 33.233 27.4763C31.9183 26.2199 29.7272 21.1184 34.041 17.3271Z" fill="#8C3494"/>
<path fill-rule="evenodd" clip-rule="evenodd" d="M24.0876 29.4199C24.088 29.8937 23.9445 30.3571 23.6754 30.7512C23.4063 31.1454 23.0236 31.4528 22.5758 31.6344C22.1279 31.8158 21.635 31.8635 21.1595 31.7714C20.6839 31.679 20.247 31.451 19.904 31.116C19.5611 30.781 19.3275 30.3543 19.2328 29.8895C19.1381 29.4247 19.1865 28.943 19.372 28.5052C19.5574 28.0673 19.8716 27.6931 20.2747 27.4297C20.6778 27.1665 21.1518 27.0259 21.6366 27.0259C22.2863 27.0259 22.9095 27.2781 23.3691 27.7271C23.8288 28.1758 24.0872 28.7848 24.0876 29.4199Z" fill="#8C3494"/>
<path fill-rule="evenodd" clip-rule="evenodd" d="M18.8735 17.3271C12.7107 18.249 12.0671 27.0111 18.8067 28.2024H18.8529C19.0944 27.6775 19.4859 27.2321 19.9803 26.9195C20.4747 26.6069 21.051 26.4407 21.6398 26.4407C22.2287 26.4407 22.8049 26.6069 23.2994 26.9195C23.7938 27.2321 24.1853 27.6775 24.4268 28.2024H26.9655V17.3271H18.8735ZM23.9971 25.2326H19.4812C16.684 25.4 15.7733 20.8825 19.2107 20.2903H24.0039L23.9971 25.2326Z" fill="#8C3494"/>
<path fill-rule="evenodd" clip-rule="evenodd" d="M21.774 14.7603C22.7668 14.5929 23.2563 12.6023 21.6388 12.1589H19.0098V15.9464H20.0881V14.7603L21.3016 15.9464H22.9876L21.774 14.7603ZM21.6457 13.422C21.6457 13.488 21.6188 13.5514 21.571 13.5982C21.5231 13.645 21.4583 13.6712 21.3906 13.6712H20.1018V13.1442H21.3906C21.4583 13.1442 21.5231 13.1704 21.571 13.2172C21.6188 13.264 21.6457 13.3274 21.6457 13.3934V13.422Z" fill="#8C3494"/>
<path fill-rule="evenodd" clip-rule="evenodd" d="M24.8614 12.0955C24.4727 12.0955 24.0928 12.208 23.7696 12.4192C23.4464 12.6302 23.1946 12.9304 23.0459 13.2814C22.8972 13.6323 22.8584 14.0185 22.9344 14.3911C23.0103 14.7636 23.1976 15.106 23.4726 15.3744C23.7476 15.643 24.0979 15.8258 24.4792 15.8997C24.8604 15.9735 25.2555 15.9353 25.6146 15.7898C25.9736 15.644 26.2804 15.3976 26.496 15.0816C26.7118 14.7656 26.8268 14.3941 26.8264 14.0141C26.826 13.5051 26.6186 13.0172 26.2502 12.6572C25.8818 12.2974 25.3823 12.0955 24.8614 12.0955ZM24.8614 14.8572C24.6922 14.8572 24.5267 14.8082 24.386 14.7164C24.2452 14.6245 24.1355 14.4939 24.0708 14.3411C24.006 14.1881 23.9891 14.0199 24.0221 13.8577C24.0551 13.6955 24.1366 13.5463 24.2563 13.4294C24.376 13.3124 24.5285 13.2328 24.6945 13.2006C24.8605 13.1682 25.0326 13.1848 25.1889 13.2482C25.3453 13.3114 25.479 13.4185 25.573 13.5561C25.6671 13.6937 25.7173 13.8555 25.7173 14.0209C25.7173 14.2427 25.6271 14.4555 25.4666 14.6123C25.3061 14.7692 25.0884 14.8572 24.8614 14.8572Z" fill="#8C3494"/>
<path fill-rule="evenodd" clip-rule="evenodd" d="M36.0047 13.1854H37.7693V12.0729H36.2769C35.1025 12.0729 34.1406 12.9394 34.1406 13.9967C34.1406 15.054 35.1025 15.9306 36.2769 15.9306H37.7693V14.8099H36.0047C35.8813 14.8095 35.7595 14.7817 35.6489 14.7283C35.5381 14.6749 35.4415 14.5975 35.3661 14.5021H37.7625V13.4982H35.3661C35.4411 13.402 35.5377 13.3238 35.6483 13.2694C35.7589 13.2152 35.8809 13.1866 36.0047 13.1854Z" fill="#8C3494"/>
<path fill-rule="evenodd" clip-rule="evenodd" d="M28.9886 14.8099C28.7746 14.8089 28.5697 14.7255 28.4183 14.5775C28.2669 14.4297 28.1815 14.2293 28.1807 14.0201V13.9749C28.1811 13.7657 28.2663 13.5652 28.4179 13.4172C28.5693 13.2692 28.7744 13.1858 28.9886 13.1854H30.6643V12.0729H29.1596C27.9855 12.0729 27.0254 12.9394 27.0254 13.9967C27.0254 15.054 27.9873 15.9306 29.1614 15.9306H30.6643V14.8099H28.9886Z" fill="#8C3494"/>
<path fill-rule="evenodd" clip-rule="evenodd" d="M41.8695 12.1453H38.0664V13.1422H39.4579V15.864H40.4764V13.1422H41.8695V12.1453Z" fill="#8C3494"/>
<path d="M32.8147 13.9903L34.6871 12.1453H33.1706L32.1181 13.184V12.1453H31.0996V15.864H32.1181V14.7985L33.1998 15.864H34.7145L32.8147 13.9903Z" fill="#8C3494"/>
<path d="M48.1337 30.039C47.9506 30.0824 47.7918 30.1932 47.6904 30.3484C47.5752 30.492 47.5104 30.668 47.5056 30.8504C47.5058 30.9524 47.528 31.0534 47.5706 31.1464C47.6254 31.2685 47.7006 31.3287 47.7932 31.3287C47.8608 31.3213 47.9248 31.2951 47.978 31.2535L48.0841 31.5295C48.001 31.5827 47.9044 31.6123 47.805 31.6149C47.6746 31.6119 47.5492 31.5647 47.4508 31.4809C47.365 31.3985 47.301 31.2969 47.2642 31.185C47.23 31.0814 47.2148 30.9726 47.2196 30.8638V30.7616C47.2196 30.5386 47.3424 30.2848 47.5876 30.0004C47.6694 29.9131 47.757 29.8309 47.8496 29.7547H48.2329V30.0272L48.1337 30.039Z" fill="#8C3494"/>
<path d="M49.839 30.0309V31.5952H49.5189V31.3928C49.4995 31.2872 49.4417 31.1922 49.3563 31.125C49.2787 31.045 49.1927 30.9732 49.0997 30.9108C49.0045 30.8454 48.8907 30.8102 48.7743 30.8104C48.7205 30.8078 48.6669 30.8206 48.6203 30.8474C48.5737 30.874 48.5363 30.9136 48.5125 30.961C48.5057 30.974 48.5027 30.9884 48.5039 31.0028C48.5049 31.0252 48.5109 31.047 48.5215 31.0666C48.5321 31.0864 48.5473 31.1034 48.5655 31.1166C48.6003 31.1476 48.6453 31.1652 48.6921 31.1668C48.7767 31.1526 48.8589 31.1278 48.9369 31.0932L49.0311 31.3776C48.9225 31.4396 48.8007 31.4762 48.6751 31.4848C48.5707 31.4854 48.4688 31.4552 48.3824 31.3978C48.2954 31.3414 48.2274 31.261 48.1874 31.1668C48.1682 31.1184 48.1588 31.0666 48.16 31.0146C48.1566 30.9334 48.1758 30.8528 48.2156 30.7816C48.2554 30.7102 48.3142 30.6508 48.3858 30.6098C48.4843 30.5442 48.6005 30.5086 48.7195 30.5076H48.7505C48.7405 30.439 48.7095 30.3748 48.6613 30.3237C48.6423 30.2955 48.6171 30.2715 48.5875 30.2539C48.5579 30.2363 48.5247 30.2253 48.4903 30.2217H48.136V30.0309H47.9922V29.7565H50.0462V30.0309H49.839ZM49.5189 30.0309H48.7659C48.8625 30.0845 48.9437 30.1611 49.0021 30.2535C49.0603 30.3459 49.0939 30.451 49.0997 30.5596C49.2615 30.6306 49.4047 30.7364 49.5189 30.869V30.0309Z" fill="#8C3494"/>
<path d="M50.4585 30.0309V31.5952H50.1385V30.0309H49.9023V29.7565H50.6725V30.0309H50.4585Z" fill="#8C3494"/>
<path d="M52.0036 30.0309H50.5625V29.7565H52.5581V30.0309H52.3374V31.5952H52.0618C52.0344 31.5148 51.8906 31.391 51.6476 31.222C51.5158 31.1378 51.3738 31.0698 51.2248 31.0196C51.0795 30.9606 50.9251 30.9256 50.7679 30.9158L50.6823 30.6048C50.8787 30.4854 51.0861 30.3846 51.3018 30.3037C51.4354 30.2417 51.6732 30.1531 52.0036 30.0309ZM52.0224 30.3655C51.9626 30.3857 51.8992 30.4072 51.8308 30.434L51.283 30.6682L51.2214 30.6934C51.482 30.784 51.7268 30.9132 51.9472 31.0764L52.0224 31.1318V30.3655Z" fill="#8C3494"/>
<path d="M52.9624 30.0309V31.5952H52.6424V30.0309H52.4062V29.7565H53.1748V30.0309H52.9624Z" fill="#8C3494"/>
<path d="M53.0625 30.031V29.7566H54.0072C54.0086 29.749 54.0086 29.741 54.0072 29.7332C54.0118 29.6698 53.9938 29.6066 53.956 29.5546C53.9182 29.5028 53.863 29.4654 53.8002 29.4488C53.7796 29.4468 53.759 29.4468 53.7386 29.4488C53.6962 29.4496 53.6543 29.4558 53.6137 29.4672L53.4905 29.4974C53.4401 29.5046 53.3917 29.5216 53.3483 29.5476C53.2943 29.5842 53.2369 29.6162 53.1771 29.6428L53.0745 29.4104C53.2239 29.317 53.3865 29.2454 53.5571 29.1978C53.6345 29.1754 53.7144 29.1636 53.795 29.1628C53.8904 29.1676 53.983 29.1964 54.0638 29.2464C54.151 29.3014 54.2216 29.3782 54.2682 29.4688C54.3148 29.5594 54.3358 29.6604 54.329 29.7616H54.514V30.036L53.0625 30.031ZM54.175 31.8578C54.0436 31.7426 53.9054 31.6354 53.7608 31.5366C53.6503 31.4713 53.5327 31.4187 53.4099 31.3793C53.3367 31.3491 53.2603 31.3261 53.1823 31.3109V30.9445H53.3055H53.4305C53.5505 30.9483 53.6703 30.9297 53.783 30.8891C53.9542 30.8189 54.0414 30.7353 54.0414 30.6399C54.0416 30.6047 54.0326 30.5701 54.0156 30.5393C53.9986 30.5083 53.974 30.4819 53.944 30.4625C53.88 30.4257 53.815 30.3907 53.7488 30.3571C53.7324 30.3489 53.7142 30.3443 53.6958 30.3437C53.6521 30.3453 53.6091 30.3549 53.5691 30.3723C53.5127 30.3991 53.4869 30.4275 53.4905 30.4593C53.5023 30.5413 53.5897 30.5747 53.7522 30.5629L53.5811 30.8223C53.5045 30.8239 53.4293 30.8009 53.3671 30.7571C53.3091 30.7253 53.2603 30.6793 53.2259 30.6235C53.1913 30.5677 53.1721 30.5043 53.1703 30.4391C53.1709 30.3765 53.1901 30.3155 53.2257 30.2636C53.2613 30.2116 53.3117 30.171 53.3705 30.1464C53.4859 30.0866 53.6149 30.0566 53.7454 30.0594C53.7994 30.0578 53.853 30.0674 53.9028 30.088L54.0364 30.1532C54.135 30.1938 54.219 30.2622 54.2772 30.3499C54.3356 30.4375 54.3656 30.5403 54.3634 30.6449C54.3648 30.7199 54.3474 30.7943 54.3124 30.8611C54.2774 30.9279 54.2262 30.9853 54.163 31.0281C54.0314 31.1133 53.8814 31.1677 53.7248 31.1869C53.7814 31.2137 53.8618 31.2573 53.9696 31.3191C54.1234 31.4303 54.2698 31.551 54.4078 31.6804L54.175 31.8578Z" fill="#8C3494"/>
<path d="M56.4238 30.0306V31.5947H56.1039V30.9742C56.1005 30.9122 56.0757 30.8532 56.0337 30.8068C56.0163 30.7822 55.9935 30.7616 55.9667 30.7468C55.9401 30.732 55.9103 30.7234 55.8797 30.7216C55.8503 30.7246 55.8221 30.7344 55.7975 30.75C55.7727 30.7658 55.7523 30.787 55.7375 30.8118C55.6927 30.8714 55.6691 30.9438 55.6707 31.0176H55.3285C55.3305 30.9378 55.3065 30.8592 55.2599 30.7934C55.2437 30.7662 55.2209 30.7434 55.1933 30.7272C55.1659 30.7108 55.1347 30.7014 55.1025 30.6998C55.0499 30.7006 54.9992 30.7188 54.9588 30.7516C54.9386 30.7658 54.9216 30.7838 54.9086 30.8044C54.8956 30.825 54.8872 30.8482 54.8834 30.8722L54.8732 30.954V30.9892C54.8732 31.1498 54.9742 31.2302 55.1761 31.2302C55.2335 31.2278 55.2909 31.2212 55.3473 31.21L55.2359 31.5261C55.1693 31.5345 55.1299 31.5379 55.1161 31.5379C54.9612 31.5341 54.813 31.4747 54.7004 31.3705C54.644 31.3187 54.6022 31.2537 54.5788 31.1816C54.5506 31.1106 54.5354 31.0352 54.5342 30.9592C54.5304 30.8836 54.5426 30.8084 54.5704 30.7378C54.598 30.6672 54.6404 30.6032 54.6948 30.5496C54.7494 30.496 54.8146 30.4542 54.8866 30.4268C54.9586 30.3994 55.0355 30.387 55.1127 30.3902C55.1943 30.3914 55.2743 30.4128 55.3453 30.4522C55.4161 30.4918 55.4757 30.5482 55.5185 30.6162C55.5593 30.5518 55.6151 30.4976 55.6815 30.4584C55.7479 30.4192 55.8229 30.3958 55.9001 30.3902C55.9413 30.3922 55.9819 30.402 56.0191 30.4192C56.0565 30.4364 56.0899 30.4606 56.1175 30.4906V30.029H54.375V29.7547H56.6002V30.029L56.4238 30.0306Z" fill="#8C3494"/>
<path d="M58.8239 30.0309H57.3828V29.7565H59.3785V30.0309H59.1561V31.5952H58.8737C58.8463 31.5148 58.7025 31.391 58.4577 31.222C58.3265 31.1376 58.1851 31.0696 58.0366 31.0196C57.8912 30.9606 57.7368 30.9256 57.5796 30.9158L57.494 30.6048C57.6902 30.485 57.8976 30.3842 58.1136 30.3037C58.2557 30.2417 58.4937 30.1531 58.8239 30.0309ZM58.8429 30.3655C58.7829 30.3857 58.7195 30.4072 58.6511 30.434L58.1034 30.6682L58.0418 30.6934C58.3023 30.784 58.5471 30.9132 58.7675 31.0764L58.8429 31.1318V30.3655Z" fill="#8C3494"/>
<path d="M59.9165 30.0305C59.8335 30.1249 59.7809 30.2415 59.7659 30.365C59.8027 30.5362 59.8543 30.7042 59.9199 30.867C59.9681 30.982 59.9959 31.1042 60.0021 31.2284C60.0025 31.3174 59.9717 31.4038 59.9147 31.4734C59.8577 31.5427 59.7779 31.5909 59.689 31.6097C59.5778 31.6431 59.4628 31.6629 59.3466 31.6683L59.3912 31.399C59.5794 31.3588 59.6736 31.2936 59.6736 31.2032C59.6592 31.0668 59.6192 30.934 59.5554 30.8118C59.4922 30.6906 59.452 30.559 59.4374 30.4236C59.449 30.2846 59.496 30.1507 59.5742 30.0339H59.2422V29.7595H60.1339V30.0339L59.9165 30.0305Z" fill="#8C3494"/>
<path d="M60.5993 30.0309V31.5952H60.2774V30.0309H60.043V29.7565H60.8115V30.0309H60.5993Z" fill="#8C3494"/>
<path d="M61.3405 30.7718C61.2738 30.7744 61.2072 30.7634 61.145 30.7394C61.0828 30.7156 61.0264 30.6792 60.9794 30.6328C60.9338 30.5852 60.8984 30.5292 60.8752 30.468C60.852 30.4068 60.8414 30.3416 60.8442 30.2766C60.8428 30.2144 60.8544 30.1528 60.8782 30.0952C60.902 30.0378 60.9376 29.9856 60.9828 29.9418C61.0278 29.898 61.0812 29.8635 61.14 29.8403C61.1988 29.8171 61.2618 29.8055 61.3251 29.8065C61.4143 29.8047 61.5019 29.8303 61.5753 29.8799C61.6487 29.9294 61.7043 30.0002 61.7343 30.0824C61.7685 30.1548 61.7865 30.2336 61.7873 30.3134C61.7945 30.4354 61.7527 30.5554 61.6709 30.648C61.6277 30.6898 61.5759 30.7226 61.5191 30.7438C61.4621 30.7652 61.4013 30.7746 61.3405 30.7718ZM61.6915 31.7755C61.4369 31.5489 61.16 31.3477 60.8648 31.1749V30.7416C61.2724 31.0016 61.6411 31.3157 61.9601 31.6751V31.9979L61.6915 31.7755ZM61.4073 30.131C61.3937 30.1208 61.3783 30.1132 61.3619 30.109C61.3455 30.1046 61.3284 30.1036 61.3114 30.1058C61.19 30.1242 61.13 30.1828 61.13 30.2816C61.1314 30.333 61.1528 30.382 61.19 30.4188C61.2066 30.4382 61.2272 30.4538 61.2506 30.4648C61.2738 30.4758 61.2994 30.4818 61.3251 30.4822H61.3695C61.4089 30.4744 61.4441 30.4534 61.4691 30.4228C61.4941 30.3924 61.5073 30.3542 61.5065 30.315C61.5069 30.2792 61.4981 30.2438 61.4807 30.2122C61.4633 30.1806 61.4381 30.1538 61.4073 30.1342V30.131Z" fill="#8C3494"/>
<path d="M63.9745 29.5724C63.7052 29.3836 63.389 29.2682 63.0588 29.2378C62.942 29.2288 62.8246 29.2476 62.7171 29.2928C62.6095 29.338 62.5147 29.4082 62.4409 29.4972C62.3901 29.5774 62.3645 29.6706 62.3673 29.7648H62.5917V30.0392H62.3673V31.6034H62.0405V30.0392H61.8281V29.7648H62.0405C62.0395 29.6646 62.0591 29.5652 62.0979 29.4726C62.1367 29.3798 62.1939 29.2954 62.2663 29.2244C62.4251 29.078 62.6293 28.988 62.8466 28.9686L62.9904 28.9518H63.0588C63.2596 28.9534 63.4576 28.9954 63.6408 29.0756C63.8168 29.1618 63.9881 29.2568 64.1543 29.36L63.9745 29.5724Z" fill="#8C3494"/>
<path d="M63.7041 30.0311V30.0411C63.8511 30.0505 63.9941 30.0929 64.1216 30.1648C64.2102 30.203 64.286 30.2648 64.3404 30.3432C64.3946 30.4218 64.425 30.5136 64.428 30.6082C64.4302 30.711 64.3936 30.811 64.3254 30.8892C64.2568 30.9692 64.1628 31.0246 64.0582 31.0466C63.9663 31.0708 63.8699 31.0748 63.7759 31.0582V30.7622C63.8101 30.7644 63.8445 30.7644 63.8787 30.7622C64.0395 30.7622 64.1182 30.7052 64.1182 30.5948C64.1182 30.4844 63.9797 30.3756 63.7041 30.3406V31.5901H63.4199C63.3841 31.5171 63.3387 31.4491 63.2847 31.3877C63.2699 31.3709 63.2287 31.3191 63.1615 31.2322C63.1283 31.1928 63.0909 31.157 63.0501 31.1252C63.0077 31.0946 62.9697 31.0586 62.9371 31.018C62.9159 30.9984 62.8901 30.984 62.8619 30.9762C62.7526 30.9344 62.637 30.9102 62.5196 30.9044L62.4358 30.5932C62.506 30.543 62.6652 30.451 62.9115 30.3138L63.1375 30.185L63.3789 30.0479V30.0261H62.3672V29.7517H64.577V30.0261L63.7041 30.0311ZM63.3839 30.3924C63.3309 30.4308 63.2521 30.4828 63.1443 30.548C63.1089 30.5642 63.0769 30.587 63.0501 30.6148C63.0159 30.6484 62.9817 30.6784 62.9509 30.7068C62.9851 30.737 63.0381 30.7788 63.1135 30.834C63.1889 30.8892 63.2745 31.0014 63.3839 31.1234V30.3924Z" fill="#8C3494"/>
<path d="M65.0515 30.7718C64.9847 30.7746 64.9179 30.7636 64.8557 30.7398C64.7935 30.7158 64.7371 30.6794 64.6903 30.6328C64.6447 30.5852 64.6093 30.5292 64.5861 30.468C64.5629 30.4068 64.5523 30.3416 64.5551 30.2764C64.5537 30.2144 64.5653 30.1528 64.5891 30.0952C64.6129 30.0378 64.6485 29.9856 64.6937 29.9418C64.7385 29.898 64.7919 29.8635 64.8507 29.8401C64.9095 29.8169 64.9725 29.8055 65.0361 29.8065C65.1251 29.8047 65.2123 29.8305 65.2855 29.88C65.3587 29.9294 65.4139 30.0004 65.4435 30.0824C65.479 30.1544 65.4976 30.2334 65.4982 30.3132C65.5044 30.4352 65.4629 30.555 65.3819 30.648C65.3385 30.6898 65.2869 30.7226 65.2299 30.7438C65.1731 30.7652 65.1123 30.7746 65.0515 30.7718ZM65.3939 31.7755C65.1393 31.5495 64.8631 31.3485 64.5687 31.1749V30.7416C65.1251 31.1329 65.4912 31.4441 65.6624 31.6751V31.9979L65.3939 31.7755ZM65.1113 30.131C65.0979 30.1208 65.0825 30.1132 65.0661 30.109C65.0495 30.1046 65.0323 30.1036 65.0155 30.1058C64.8939 30.1242 64.8341 30.1828 64.8341 30.2816C64.8355 30.333 64.8569 30.382 64.8939 30.4188C64.9105 30.4382 64.9313 30.4538 64.9545 30.4648C64.9779 30.4758 65.0033 30.4818 65.0293 30.4822H65.0737C65.1129 30.4744 65.1481 30.4534 65.1731 30.4228C65.1981 30.3922 65.2115 30.3542 65.2107 30.315C65.2117 30.2798 65.2039 30.2448 65.1879 30.2132C65.1717 30.1816 65.1477 30.1546 65.1183 30.1342L65.1113 30.131Z" fill="#8C3494"/>
<path d="M29.6621 31.7293L30.2595 31.9267L30.4972 31.7293L29.9017 31.5251L29.6621 31.7293Z" fill="#8C3494"/>
<path d="M29.8607 30.1114V29.7585H25.1777V30.1114H25.9651V30.8994H26.6497C26.6497 30.8994 26.8415 30.8392 26.8877 30.7438V31.0549C26.8905 31.1199 26.8671 31.1835 26.8227 31.2319C26.7783 31.2805 26.7161 31.3099 26.6497 31.3143H25.6553C25.5954 31.3143 25.5355 31.2891 25.5355 31.0549V30.3206H25.1932V31.2623C25.1932 31.3411 25.2428 31.6153 25.4944 31.6153H26.8415C26.9403 31.6027 27.0315 31.5565 27.0993 31.4851C27.1673 31.4137 27.2073 31.3213 27.2129 31.2239V30.3206H26.8945C26.8619 30.4594 26.8807 30.5532 26.7353 30.5882H26.3382V30.1114H27.4919V31.6171H27.889V30.1114H28.1662V31.6171H29.4671C29.5743 31.6141 29.6761 31.5699 29.7505 31.4941C29.8247 31.4183 29.8657 31.3171 29.8643 31.2121V30.3206H29.5459C29.5459 30.4076 29.5339 30.5364 29.3883 30.5364H28.5138V30.1114H29.8607ZM29.3473 30.8476C29.4071 30.8644 29.4877 30.7706 29.5459 30.692V31.0549C29.5459 31.1937 29.4345 31.3143 29.3473 31.3143H28.5138V30.8476H29.3473Z" fill="#8C3494"/>
<path d="M31.0948 30.5359H30.2988V30.9507H31.0948V30.5359Z" fill="#8C3494"/>
<path d="M31.5352 29.7583V30.1113H32.8445V30.3203H31.5352V31.1568C31.5626 31.4296 31.7063 31.6135 31.9785 31.6135H33.1628V30.1079H33.4418V31.6135H33.7996V29.7565L31.5352 29.7583ZM32.8445 31.366H32.0503C31.9305 31.3492 31.8517 31.2104 31.8517 31.0548V30.6398H32.8445V31.366Z" fill="#8C3494"/>
<path d="M35.5151 30.1114H37.1378V30.3206H36.6568C36.6568 30.3618 36.64 30.4014 36.6102 30.4306C36.5804 30.4598 36.5398 30.4762 36.4976 30.4762C36.4554 30.4762 36.415 30.4598 36.385 30.4306C36.3552 30.4014 36.3385 30.3618 36.3385 30.3206H35.5117V31.2105C35.5117 31.2975 35.5255 31.5803 35.7685 31.6153H36.419V31.3143H35.9807C35.9331 31.3045 35.8907 31.2781 35.8617 31.2399C35.8325 31.2015 35.8189 31.1543 35.8233 31.1067V30.6402H36.2599V30.8994H36.6568V30.692C36.6312 30.5966 37.0746 30.605 37.095 30.692V31.6153H37.4528V30.1098H37.6907V31.6153H38.0485V29.7585H35.5151V30.1114Z" fill="#8C3494"/>
<path d="M34.944 29.8621H34.1055V30.3488C34.1151 30.448 34.1623 30.54 34.2375 30.607C34.3129 30.6742 34.4108 30.7114 34.5128 30.7118H35.1888V30.1113C35.181 30.0495 35.1528 29.9919 35.1088 29.9471C35.0646 29.9021 35.0068 29.8723 34.944 29.8621ZM34.6874 30.3822C34.535 30.3822 34.4118 30.3271 34.4118 30.2603C34.4118 30.1933 34.535 30.1381 34.6874 30.1381C34.8396 30.1381 34.963 30.1933 34.963 30.2603C34.963 30.3271 34.8448 30.3822 34.6924 30.3822H34.6874Z" fill="#8C3494"/>
<path d="M34.1641 30.8963V31.2023L35.1842 31.6157V31.2911L34.1641 30.8963Z" fill="#8C3494"/>
<path d="M43.5174 29.8621H42.6719V30.3488C42.6821 30.4478 42.7293 30.5396 42.8045 30.6066C42.8797 30.6736 42.9774 30.7112 43.0792 30.7118H43.764V30.1113C43.7562 30.0493 43.7278 29.9913 43.6834 29.9463C43.639 29.9013 43.5806 29.8717 43.5174 29.8621ZM43.2606 30.3822C43.1066 30.3822 42.9834 30.3271 42.9834 30.2603C42.9834 30.1933 43.1066 30.1381 43.2606 30.1381C43.4148 30.1381 43.5362 30.1933 43.5362 30.2603C43.5362 30.3271 43.413 30.3822 43.2606 30.3822Z" fill="#8C3494"/>
<path d="M42.7305 30.8963V31.2023L43.7524 31.6157V31.2911L42.7305 30.8963Z" fill="#8C3494"/>
<path d="M45.6863 30.3206V30.1114H46.3452V29.7585H44.0586V30.1114H45.3679V30.3206H44.0586V31.1569C44.0876 31.4297 44.2298 31.6137 44.5018 31.6137H45.6863V30.6904H46.0046C46.0576 30.6904 46.0714 30.6652 46.0834 30.7422V30.8978C46.0646 30.9764 46.0576 31.0281 46.0046 31.0533H45.8866V31.3645H46.1244C46.18 31.3553 46.232 31.3309 46.274 31.2943C46.316 31.2575 46.3468 31.2099 46.3624 31.1569V30.3206H45.6863ZM45.3679 31.3661H44.5738C44.454 31.3493 44.3752 31.2105 44.3752 31.0549V30.6402H45.3629V30.692L45.3679 31.3661Z" fill="#8C3494"/>
<path d="M39.125 29.7583V30.1113H40.4345V30.3203H39.125V31.1568C39.1524 31.4296 39.2962 31.6135 39.5684 31.6135H40.7529V30.1079H41.167L41.0164 30.4022V30.6098H41.2936C41.4426 30.6264 41.494 30.7218 41.494 30.9728C41.494 31.14 41.4528 31.2706 41.3228 31.284H41.0626V31.5952H41.3416C41.4204 31.5952 41.785 31.6301 41.8174 31.284C41.8568 30.5846 41.891 30.4022 41.381 30.3505L41.4546 30.1079H42.016V31.6135H42.3737V29.7565L39.125 29.7583ZM40.4345 31.366H39.6386C39.5206 31.3492 39.44 31.2104 39.44 31.0548V30.6398H40.4345V31.366Z" fill="#8C3494"/>
</svg>
