<svg width="80" height="80" viewBox="0 0 80 80" fill="none" xmlns="http://www.w3.org/2000/svg">
<g clip-path="url(#clip0_146_321)">
<path d="M62.8125 47.9167L64.7417 31.1111H59.6623L52.6562 60.4688L77.5736 59.0477L79.6152 51.4286L62.8125 47.9167Z" fill="#57CC99"/>
<path d="M59.2976 51.4286H54.2183L51.4962 61.5873H74.3534C75.7561 61.5873 77.1978 60.4503 77.5736 59.0477H59.7957C58.3931 59.0477 57.5608 57.9106 57.9365 56.508L59.2976 51.4286Z" fill="#38A3A5"/>
<path d="M79.261 48.1491L74.9674 45.0794L70.0783 41.8945L74.9249 36.1905L74.9096 32.9825C74.9043 31.8777 74.1061 31.1111 72.9608 31.1111H64.7419L59.2979 51.4286H79.6153L79.9105 50.3269C80.1494 49.4347 79.9028 48.608 79.261 48.1491Z" fill="#80ED99"/>
<path d="M50.6182 28.5714H61.6127C62.3139 28.5714 62.7302 29.14 62.5422 29.8413L54.7164 59.0477L18.0728 61.198C17.3716 61.198 17.1036 60.8577 17.2916 60.1563L24.2969 33.8281L50.6182 28.5714Z" fill="#80ED99"/>
<path d="M20.4308 59.0477C19.7294 59.0477 19.3133 58.4791 19.5013 57.7778L21.3563 50.855C21.5499 50.1325 22.3277 49.7197 23.0225 49.9966C25.3295 50.9158 27.8406 51.4288 30.4763 51.4288C41.6972 51.4288 50.7938 42.3323 50.7938 31.1113C50.7938 30.2492 50.7225 29.4053 50.6183 28.5716H26.0574C25.3559 28.5716 24.6352 29.14 24.4472 29.8414L16.2811 60.3177C16.0931 61.0189 16.5094 61.5875 17.2106 61.5875H54.0359L54.7164 59.0478H20.4308V59.0477Z" fill="#57CC99"/>
<path d="M70.9923 64.9242C73.4066 62.8113 74.0525 59.6002 72.435 57.752C70.8175 55.9038 67.5491 56.1183 65.1348 58.2312C62.7206 60.3441 62.0747 63.5552 63.6922 65.4034C65.3097 67.2516 68.578 67.0371 70.9923 64.9242Z" fill="#22577A"/>
<path d="M69.528 63.251C70.7351 62.1946 71.058 60.589 70.2493 59.6648C69.4405 58.7407 67.8063 58.8479 66.5992 59.9044C65.392 60.9608 65.0691 62.5664 65.8779 63.4905C66.6866 64.4147 68.3209 64.3074 69.528 63.251Z" fill="#EBEBEB"/>
<path d="M31.6112 64.9443C34.0255 62.8314 34.6714 59.6203 33.0539 57.7721C31.4364 55.9239 28.168 56.1384 25.7537 58.2513C23.3395 60.3642 22.6936 63.5753 24.3111 65.4235C25.9286 67.2717 29.1969 67.0572 31.6112 64.9443Z" fill="#22577A"/>
<path d="M30.1469 63.2711C31.354 62.2147 31.6769 60.6091 30.8682 59.6849C30.0594 58.7608 28.4252 58.8681 27.218 59.9245C26.0109 60.9809 25.688 62.5865 26.4968 63.5106C27.3055 64.4348 28.9398 64.3275 30.1469 63.2711Z" fill="#EBEBEB"/>
<path d="M74.9247 36.1905H68.4602L66.2109 38.7301L67.0898 44.2578L74.9672 42.5397L74.9247 36.1905Z" fill="#DBEAFF"/>
<path d="M69.2985 42.5397C67.8958 42.5397 67.0635 41.4026 67.4393 40L68.4601 36.1905C67.0574 36.1905 65.6157 37.3275 65.2399 38.7301L64.2191 42.5397C63.8433 43.9423 64.6757 45.0794 66.0783 45.0794H74.9673L74.9551 42.5397H69.2985Z" fill="#22577A"/>
<path d="M30.4763 48.8889C40.2947 48.8889 48.2541 40.9295 48.2541 31.1111C48.2541 21.2927 40.2947 13.3333 30.4763 13.3333C20.6579 13.3333 12.6985 21.2927 12.6985 31.1111C12.6985 40.9295 20.6579 48.8889 30.4763 48.8889Z" fill="#80ED99"/>
<path d="M30.4763 46.3492C38.8921 46.3492 45.7144 39.5269 45.7144 31.1111C45.7144 22.6953 38.8921 15.873 30.4763 15.873C22.0605 15.873 15.2382 22.6953 15.2382 31.1111C15.2382 39.5269 22.0605 46.3492 30.4763 46.3492Z" fill="white"/>
<path d="M30.4763 20.9523C29.7744 20.9523 29.2064 20.3837 29.2064 19.6825V18.4127C29.2064 17.7114 29.7744 17.1428 30.4763 17.1428C31.1781 17.1428 31.7461 17.7114 31.7461 18.4127V19.6825C31.7461 20.3837 31.1781 20.9523 30.4763 20.9523Z" fill="#C8C5C9"/>
<path d="M30.4763 45.0794C29.7744 45.0794 29.2064 44.5108 29.2064 43.8095V42.5397C29.2064 41.8384 29.7744 41.2698 30.4763 41.2698C31.1781 41.2698 31.7461 41.8384 31.7461 42.5397V43.8095C31.7461 44.5108 31.1781 45.0794 30.4763 45.0794Z" fill="#C8C5C9"/>
<path d="M43.1745 32.3809H41.9046C41.2027 32.3809 40.6348 31.8123 40.6348 31.1111C40.6348 30.4098 41.2027 29.8412 41.9046 29.8412H43.1745C43.8763 29.8412 44.4443 30.4098 44.4443 31.1111C44.4443 31.8123 43.8765 32.3809 43.1745 32.3809Z" fill="#C8C5C9"/>
<path d="M19.0476 32.3809H17.7778C17.0759 32.3809 16.5079 31.8123 16.5079 31.1111C16.5079 30.4098 17.0759 29.8412 17.7778 29.8412H19.0476C19.7495 29.8412 20.3175 30.4098 20.3175 31.1111C20.3175 31.8123 19.7495 32.3809 19.0476 32.3809Z" fill="#C8C5C9"/>
<path d="M13.9683 48.8889H1.26984C0.567969 48.8889 0 48.3203 0 47.6191C0 46.9178 0.567969 46.3492 1.26984 46.3492H13.9683C14.6702 46.3492 15.2381 46.9178 15.2381 47.6191C15.2381 48.3203 14.6702 48.8889 13.9683 48.8889Z" fill="#80ED99"/>
<path d="M12.6985 53.9683H5.07941C4.37754 53.9683 3.80957 53.3997 3.80957 52.6984C3.80957 51.9972 4.37754 51.4286 5.07941 51.4286H12.6985C13.4004 51.4286 13.9683 51.9972 13.9683 52.6984C13.9683 53.3997 13.4004 53.9683 12.6985 53.9683Z" fill="#80ED99"/>
<path d="M11.4285 59.0477H8.88886C8.18699 59.0477 7.61902 58.4791 7.61902 57.7778C7.61902 57.0766 8.18699 56.508 8.88886 56.508H11.4285C12.1304 56.508 12.6984 57.0766 12.6984 57.7778C12.6984 58.4791 12.1304 59.0477 11.4285 59.0477Z" fill="#80ED99"/>
<path d="M26.6667 36.1905C26.3419 36.1905 26.0169 36.0664 25.7689 35.8184C25.2728 35.3224 25.2728 34.5189 25.7689 34.0228L37.8324 21.9594C38.3285 21.4633 39.1319 21.4633 39.628 21.9594C40.1241 22.4555 40.1241 23.2589 39.628 23.755L27.5645 35.8184C27.3164 36.0664 26.9916 36.1905 26.6667 36.1905Z" fill="#E5646E"/>
<path d="M30.4762 33.6508C31.8788 33.6508 33.0159 32.5137 33.0159 31.1111C33.0159 29.7085 31.8788 28.5714 30.4762 28.5714C29.0736 28.5714 27.9365 29.7085 27.9365 31.1111C27.9365 32.5137 29.0736 33.6508 30.4762 33.6508Z" fill="#5D5360"/>
</g>
<defs>
<clipPath id="clip0_146_321">
<rect width="80" height="80" fill="white"/>
</clipPath>
</defs>
</svg>
