<svg width="80" height="80" viewBox="0 0 80 80" fill="none" xmlns="http://www.w3.org/2000/svg">
<path d="M36.504 7.36179C38.5588 5.86899 41.3413 5.86899 43.3959 7.36179C46.0166 9.26584 49.1746 11.5602 49.1746 11.5602H56.317C58.8568 11.5602 61.1078 13.1955 61.8928 15.6112C62.8937 18.6917 64.1 22.404 64.1 22.404C64.1 22.404 67.258 24.6986 69.8784 26.6025C71.9332 28.0953 72.793 30.7416 72.0081 33.1571C71.0072 36.2375 69.8009 39.9501 69.8009 39.9501C69.8009 39.9501 71.0072 43.6625 72.0081 46.7429C72.793 49.1586 71.9332 51.8047 69.8784 53.2977C67.258 55.2016 64.1 57.4959 64.1 57.4959C64.1 57.4959 62.8937 61.2083 61.8928 64.289C61.1078 66.7045 58.8568 68.34 56.317 68.34C53.0779 68.34 49.1746 68.34 49.1746 68.34C49.1746 68.34 46.0166 70.6344 43.3959 72.5382C41.3413 74.0312 38.5588 74.0312 36.504 72.5382C33.8836 70.6344 30.7256 68.34 30.7256 68.34C30.7256 68.34 26.8222 68.34 23.5831 68.34C21.0431 68.34 18.7921 66.7045 18.0074 64.289C17.0065 61.2083 15.8002 57.4959 15.8002 57.4959C15.8002 57.4959 12.6422 55.2016 10.0218 53.2977C7.96693 51.8047 7.10716 49.1586 7.89188 46.7429C8.89278 43.6625 10.0991 39.9501 10.0991 39.9501C10.0991 39.9501 8.89278 36.2375 7.89188 33.1571C7.10716 30.7416 7.96693 28.0953 10.0218 26.6025C12.6422 24.6986 15.8002 22.404 15.8002 22.404C15.8002 22.404 17.0065 18.6917 18.0074 15.6112C18.7921 13.1955 21.0431 11.5602 23.5831 11.5602H30.7256C30.7256 11.5602 33.8836 9.26584 36.504 7.36179Z" fill="#80ED99"/>
<path d="M64.2357 22.5027L69.8784 26.6025C71.9333 28.0953 72.793 30.7416 72.0081 33.1571C71.0072 36.2375 69.8009 39.9501 69.8009 39.9501C69.8009 39.9501 71.0072 43.6625 72.0081 46.7429C72.793 49.1586 71.9333 51.8047 69.8784 53.2977C67.258 55.2016 64.1 57.4959 64.1 57.4959C64.1 57.4959 62.8937 61.2083 61.8928 64.289C61.1079 66.7045 58.8569 68.34 56.3171 68.34C53.078 68.34 49.1746 68.34 49.1746 68.34C49.1746 68.34 46.0166 70.6344 43.396 72.5382C41.3414 74.0312 38.5589 74.0312 36.5041 72.5382C33.8836 70.6344 30.7256 68.34 30.7256 68.34C30.7256 68.34 26.8223 68.34 23.5832 68.34C21.0432 68.34 18.7921 66.7045 18.0074 64.289C17.0065 61.2083 15.8002 57.4959 15.8002 57.4959L15.1796 57.0452C18.7198 58.14 22.4798 58.7294 26.3762 58.7294C46.733 58.7294 63.3625 42.6436 64.2357 22.5027Z" fill="#57CC99"/>
<path d="M31.4527 31.153C30.5476 28.4189 32.6959 22.9072 37.7442 22.0856C42.6992 21.2793 46.95 24.2717 52.7406 21.2647C52.7406 21.2647 51.4354 34.5245 41.879 36.9744C36.9523 38.2373 32.8518 35.3784 31.4527 31.153Z" fill="#57CC99"/>
<path d="M23.015 30.7858C26.1556 32.0007 29.0453 32.5721 31.6657 32.7079C38.1563 33.0436 43.0213 30.7119 46.0213 28.6609C46.7323 28.1748 46.9147 27.2029 46.4287 26.4919C45.9426 25.7809 44.9707 25.5984 44.2597 26.0845C41.6615 27.8607 37.4484 29.8816 31.8271 29.5908C29.4983 29.4703 26.932 28.9544 24.1408 27.8748C23.3377 27.5643 22.4332 27.964 22.1224 28.7674C21.8118 29.5708 22.2116 30.4751 23.015 30.7858Z" fill="#38A3A5"/>
<path d="M19.4047 48.5883L21.1946 47.6557V56.7452C21.1946 57.6065 21.8939 58.3058 22.755 58.3058C23.6164 58.3058 24.3157 57.6065 24.3157 56.7452V45.0831C24.3157 44.5377 24.0307 44.0319 23.5644 43.749C23.0982 43.4661 22.5179 43.4472 22.0341 43.6991L17.9626 45.8204C17.1988 46.2182 16.9018 47.1616 17.2997 47.9254C17.6977 48.6892 18.6409 48.9863 19.4047 48.5883Z" fill="#FBFCFC"/>
<path d="M58.458 44.6258L49.982 55.2674C49.4454 55.9411 49.5566 56.9236 50.2303 57.4602C50.9041 57.9968 51.8868 57.8856 52.4234 57.2119L60.8993 46.5703C61.436 45.8966 61.3245 44.9139 60.6508 44.3773C59.9771 43.8407 58.9946 43.9521 58.458 44.6258Z" fill="#FBFCFC"/>
<path d="M51.8366 48.9881C53.3621 48.9881 54.5988 47.7514 54.5988 46.2258C54.5988 44.7003 53.3621 43.4636 51.8366 43.4636C50.311 43.4636 49.0743 44.7003 49.0743 46.2258C49.0743 47.7514 50.311 48.9881 51.8366 48.9881Z" fill="#FBFCFC"/>
<path d="M58.8417 58.18C60.3673 58.18 61.604 56.9433 61.604 55.4177C61.604 53.8922 60.3673 52.6555 58.8417 52.6555C57.3162 52.6555 56.0795 53.8922 56.0795 55.4177C56.0795 56.9433 57.3162 58.18 58.8417 58.18Z" fill="#FBFCFC"/>
<path d="M35.6838 53.3184V48.5099C35.6838 45.7555 33.4508 43.5227 30.6964 43.5227C30.6964 43.5227 30.6964 43.5227 30.6962 43.5227C27.9418 43.5227 25.709 45.7555 25.709 48.5099V53.3184C25.709 56.0728 27.9418 58.3058 30.6962 58.3058H30.6964C33.4508 58.3058 35.6838 56.0728 35.6838 53.3184ZM32.5627 48.5099V53.3184C32.5627 54.3492 31.7272 55.1847 30.6964 55.1847H30.6962C29.6656 55.1847 28.8301 54.3492 28.8301 53.3186C28.8301 53.3184 28.8301 48.5099 28.8301 48.5099C28.8301 47.4791 29.6656 46.6438 30.6962 46.6438H30.6964C31.7272 46.6438 32.5627 47.4791 32.5627 48.5099Z" fill="#FBFCFC"/>
<path d="M47.0516 53.3184V48.5099C47.0516 45.7555 44.8188 43.5227 42.0644 43.5227H42.0642C39.3098 43.5227 37.077 45.7555 37.077 48.5099V53.3184C37.077 56.0728 39.3098 58.3058 42.0642 58.3058H42.0644C44.8188 58.3058 47.0516 56.0728 47.0516 53.3184ZM43.9305 48.5099V53.3184C43.9305 54.3492 43.095 55.1847 42.0644 55.1847H42.0642C41.0337 55.1847 40.1982 54.3492 40.1982 53.3186C40.1982 53.3184 40.1982 48.5099 40.1982 48.5099C40.1982 47.4791 41.0337 46.6438 42.0642 46.6438H42.0644C43.095 46.6438 43.9305 47.4791 43.9305 48.5099Z" fill="#FBFCFC"/>
</svg>
