<svg width="80" height="80" viewBox="0 0 80 80" fill="none" xmlns="http://www.w3.org/2000/svg">
<path d="M3.75 20V52.5H53.75V32.5V20H3.75Z" fill="#80ED99"/>
<path d="M70 35V45H62.5V32.5H67.5C68.1624 32.502 68.7972 32.766 69.2656 33.2344C69.734 33.7028 69.998 34.3376 70 35Z" fill="#E6E7E8"/>
<path d="M3.75 52.5H53.75V62.5H3.75V52.5Z" fill="#57CC99"/>
<path d="M76.25 48.75V62.5H53.75V52.5V32.5H62.5V45H70V45.175L76.25 48.75Z" fill="#57CC99"/>
<path d="M13.75 67.5C16.5114 67.5 18.75 65.2614 18.75 62.5C18.75 59.7386 16.5114 57.5 13.75 57.5C10.9886 57.5 8.75 59.7386 8.75 62.5C8.75 65.2614 10.9886 67.5 13.75 67.5Z" fill="#22577A"/>
<path d="M25 67.5C27.7614 67.5 30 65.2614 30 62.5C30 59.7386 27.7614 57.5 25 57.5C22.2386 57.5 20 59.7386 20 62.5C20 65.2614 22.2386 67.5 25 67.5Z" fill="#22577A"/>
<path d="M66.25 67.5C69.0114 67.5 71.25 65.2614 71.25 62.5C71.25 59.7386 69.0114 57.5 66.25 57.5C63.4886 57.5 61.25 59.7386 61.25 62.5C61.25 65.2614 63.4886 67.5 66.25 67.5Z" fill="#22577A"/>
<path d="M71.25 51.25H76.25V56.25H71.25V51.25Z" fill="#80ED99"/>
<path d="M62.5 48.75H67.5V51.25H62.5V48.75Z" fill="#80ED99"/>
<path opacity="0.2" d="M2.5 67.5H77.5V70H2.5V67.5Z" fill="#383838"/>
<path d="M25 13.75H40V16.25H25V13.75Z" fill="#80ED99"/>
<path d="M20 8.75H35V11.25H20V8.75Z" fill="#80ED99"/>
<path d="M15 8.75H17.5V11.25H15V8.75Z" fill="#80ED99"/>
<path d="M28.75 42.5H27.5C26.5054 42.5 25.5516 42.1049 24.8483 41.4016C24.1451 40.6984 23.75 39.7446 23.75 38.75V33.75C23.75 32.7554 24.1451 31.8016 24.8483 31.0983C25.5516 30.3951 26.5054 30 27.5 30H28.75C29.7446 30 30.6984 30.3951 31.4017 31.0983C32.1049 31.8016 32.5 32.7554 32.5 33.75V38.75C32.5 39.7446 32.1049 40.6984 31.4017 41.4016C30.6984 42.1049 29.7446 42.5 28.75 42.5ZM27.5 32.5C27.1685 32.5 26.8505 32.6317 26.6161 32.8661C26.3817 33.1005 26.25 33.4185 26.25 33.75V38.75C26.25 39.0815 26.3817 39.3995 26.6161 39.6339C26.8505 39.8683 27.1685 40 27.5 40H28.75C29.0815 40 29.3995 39.8683 29.6339 39.6339C29.8683 39.3995 30 39.0815 30 38.75V33.75C30 33.4185 29.8683 33.1005 29.6339 32.8661C29.3995 32.6317 29.0815 32.5 28.75 32.5H27.5Z" fill="#22577A"/>
<path d="M40 42.5H36.25C35.9185 42.5 35.6005 42.3683 35.3661 42.1339C35.1317 41.8995 35 41.5815 35 41.25V31.25C35 30.9185 35.1317 30.6005 35.3661 30.3661C35.6005 30.1317 35.9185 30 36.25 30H40C40.9946 30 41.9484 30.3951 42.6516 31.0983C43.3549 31.8016 43.75 32.7554 43.75 33.75V38.75C43.75 39.7446 43.3549 40.6984 42.6516 41.4016C41.9484 42.1049 40.9946 42.5 40 42.5ZM37.5 40H40C40.3315 40 40.6495 39.8683 40.8839 39.6339C41.1183 39.3995 41.25 39.0815 41.25 38.75V33.75C41.25 33.4185 41.1183 33.1005 40.8839 32.8661C40.6495 32.6317 40.3315 32.5 40 32.5H37.5V40Z" fill="#22577A"/>
<path d="M17.5 42.5H16.25C15.2554 42.5 14.3016 42.1049 13.5983 41.4016C12.8951 40.6984 12.5 39.7446 12.5 38.75V33.75C12.5 32.7554 12.8951 31.8016 13.5983 31.0983C14.3016 30.3951 15.2554 30 16.25 30H17.5C18.4946 30 19.4484 30.3951 20.1517 31.0983C20.8549 31.8016 21.25 32.7554 21.25 33.75H18.75C18.75 33.4185 18.6183 33.1005 18.3839 32.8661C18.1495 32.6317 17.8315 32.5 17.5 32.5H16.25C15.9185 32.5 15.6005 32.6317 15.3661 32.8661C15.1317 33.1005 15 33.4185 15 33.75V38.75C15 39.0815 15.1317 39.3995 15.3661 39.6339C15.6005 39.8683 15.9185 40 16.25 40H17.5C17.8315 40 18.1495 39.8683 18.3839 39.6339C18.6183 39.3995 18.75 39.0815 18.75 38.75H21.25C21.25 39.7446 20.8549 40.6984 20.1517 41.4016C19.4484 42.1049 18.4946 42.5 17.5 42.5Z" fill="#22577A"/>
<path d="M12.5 61.25H15V63.75H12.5V61.25Z" fill="#E4EAEF"/>
<path d="M23.75 61.25H26.25V63.75H23.75V61.25Z" fill="#E4EAEF"/>
<path d="M65 61.25H67.5V63.75H65V61.25Z" fill="#E4EAEF"/>
</svg>
