<svg width="104" height="104" viewBox="0 0 104 104" fill="none" xmlns="http://www.w3.org/2000/svg">
<path d="M0 17.9312V87.8622C0 88.8525 0.8028 89.6553 1.7931 89.6553H86.069V17.9312H0Z" fill="#ECF0F1"/>
<path d="M47.8041 43.5005L43.3949 59.6385C43.1822 60.4188 42.4734 60.9602 41.6646 60.96H15.7076C14.905 60.9601 14.2016 60.4234 13.9898 59.6492L9.57518 43.5005C9.42977 42.9605 9.54463 42.3836 9.88577 41.9405C10.2269 41.4974 10.7553 41.2388 11.3145 41.2412H46.0648C46.6241 41.2388 47.1524 41.4974 47.4935 41.9405C47.8347 42.3836 47.9495 42.9605 47.8041 43.5005Z" fill="#3B97D3"/>
<path d="M28.6897 50.2067C26.709 50.2067 25.1034 48.6011 25.1034 46.6205V32.2757C25.1034 30.2951 26.709 28.6895 28.6897 28.6895C30.6703 28.6895 32.2759 30.2951 32.2759 32.2757V46.6205C32.2759 48.6011 30.6703 50.2067 28.6897 50.2067Z" fill="#F0C419"/>
<path d="M43.0345 80.6898H16.1379C13.167 80.6898 10.7586 78.2814 10.7586 75.3105C10.7586 72.3396 13.167 69.9312 16.1379 69.9312H43.0345V80.6898Z" fill="#65DDB9"/>
<path d="M77.1035 34.0691H57.3793C56.389 34.0691 55.5862 33.2663 55.5862 32.276C55.5862 31.2857 56.389 30.4829 57.3793 30.4829H77.1035C78.0938 30.4829 78.8966 31.2857 78.8966 32.276C78.8966 33.2663 78.0938 34.0691 77.1035 34.0691Z" fill="#BDC3C7"/>
<path d="M77.1035 41.2415H57.3793C56.389 41.2415 55.5862 40.4387 55.5862 39.4484C55.5862 38.4581 56.389 37.6553 57.3793 37.6553H77.1035C78.0938 37.6553 78.8966 38.4581 78.8966 39.4484C78.8966 40.4387 78.0938 41.2415 77.1035 41.2415Z" fill="#BDC3C7"/>
<path d="M77.1035 48.4138H57.3793C56.389 48.4138 55.5862 47.611 55.5862 46.6207C55.5862 45.6304 56.389 44.8276 57.3793 44.8276H77.1035C78.0938 44.8276 78.8966 45.6304 78.8966 46.6207C78.8966 47.611 78.0938 48.4138 77.1035 48.4138Z" fill="#BDC3C7"/>
<path d="M104 66.3448V87.862H41.2414V66.3448C41.2414 62.3836 44.4526 59.1724 48.4138 59.1724H96.8276C100.789 59.1724 104 62.3836 104 66.3448Z" fill="#F3D55B"/>
<path d="M104 91.4482V96.8276C104 100.789 100.789 104 96.8276 104H48.4138C44.4526 104 41.2414 100.789 41.2414 96.8276V91.4482H104Z" fill="#F3D55B"/>
<path d="M41.2414 84.2759H104V95.0345H41.2414V84.2759Z" fill="#464F5D"/>
<path d="M68.1379 71.7241C68.1393 74.0974 66.5851 76.1912 64.3129 76.877C62.0408 77.5627 59.5878 76.6784 58.2759 74.7006C59.4711 72.8962 59.4711 70.5519 58.2759 68.7475C59.5878 66.7697 62.0408 65.8854 64.3129 66.5712C66.5851 67.2569 68.1393 69.3507 68.1379 71.7241Z" fill="#E64C3C"/>
<path d="M59.1724 71.724C59.1669 72.7819 58.8555 73.8156 58.2759 74.7005C56.9633 76.6764 54.5114 77.5593 52.2405 76.8737C49.9696 76.1882 48.4158 74.0961 48.4158 71.724C48.4158 69.3519 49.9696 67.2597 52.2405 66.5742C54.5114 65.8887 56.9633 66.7715 58.2759 68.7474C58.8555 69.6324 59.1669 70.6661 59.1724 71.724Z" fill="#F29C1F"/>
<path d="M86.069 7.17241V21.5172H0V7.17241C0 3.2112 3.2112 0 7.17241 0H78.8966C82.8578 0 86.069 3.2112 86.069 7.17241Z" fill="#464F5D"/>
<path d="M10.7586 14.3448C12.7392 14.3448 14.3448 12.7392 14.3448 10.7586C14.3448 8.77796 12.7392 7.17236 10.7586 7.17236C8.77802 7.17236 7.17242 8.77796 7.17242 10.7586C7.17242 12.7392 8.77802 14.3448 10.7586 14.3448Z" fill="#FF5364"/>
<path d="M25.1034 14.3448C27.0841 14.3448 28.6897 12.7392 28.6897 10.7586C28.6897 8.77796 27.0841 7.17236 25.1034 7.17236C23.1228 7.17236 21.5172 8.77796 21.5172 10.7586C21.5172 12.7392 23.1228 14.3448 25.1034 14.3448Z" fill="#F3D55B"/>
<path d="M39.4483 14.3448C41.4289 14.3448 43.0345 12.7392 43.0345 10.7586C43.0345 8.77796 41.4289 7.17236 39.4483 7.17236C37.4677 7.17236 35.8621 8.77796 35.8621 10.7586C35.8621 12.7392 37.4677 14.3448 39.4483 14.3448Z" fill="#65DDB9"/>
</svg>
