<svg width="104" height="104" viewBox="0 0 104 104" fill="none" xmlns="http://www.w3.org/2000/svg">
<path d="M90.3712 61.8961H13.6288C8.81113 61.8961 4.90564 57.9906 4.90564 53.173V13.6294C4.90564 8.81174 8.81113 4.90625 13.6288 4.90625H90.3712C95.1888 4.90625 99.0943 8.81174 99.0943 13.6294V53.173C99.0943 57.9906 95.1888 61.8961 90.3712 61.8961Z" fill="#383838"/>
<path d="M17.7088 61.8894H13.6272C8.81965 61.8894 4.91476 57.9845 4.91476 53.1771V13.6374C4.91476 8.81016 8.81965 4.90527 13.6272 4.90527H17.7088C12.9012 4.90527 8.99631 8.81016 8.99631 13.6374V53.1771C8.99631 57.9845 12.9012 61.8894 17.7088 61.8894Z" fill="#F55353"/>
<path d="M14.5809 54.0472C13.5739 54.0472 12.7547 53.228 12.7547 52.2201V14.5816C12.7547 13.5746 13.5739 12.7554 14.5809 12.7554H84.0516C85.0586 12.7554 85.8778 13.5746 85.8778 14.5816V52.2201C85.8778 53.228 85.0586 54.0472 84.0516 54.0472H14.5809Z" fill="#DEDDFF"/>
<path d="M92.2044 42.0675C91.3919 42.0675 90.7327 41.4083 90.7327 40.5958V26.2056C90.7327 25.3931 91.3919 24.7339 92.2044 24.7339C93.0169 24.7339 93.6761 25.3931 93.6761 26.2056V40.5958C93.6761 41.4083 93.0169 42.0675 92.2044 42.0675Z" fill="#E4EAEF"/>
<g clip-path="url(#clip0_94_114)">
<path d="M49.3534 25.6892C48.5936 25.6892 47.8672 25.8322 47.1995 26.0924C46.3923 25.7174 45.4927 25.5078 44.544 25.5078C43.5953 25.5078 42.6958 25.7175 41.8885 26.0924C41.2207 25.8322 40.4944 25.6892 39.7346 25.6892C36.457 25.6892 33.8 28.3462 33.8 31.6237C33.8 36.9886 36.682 43.5104 44.5439 43.5104C52.9637 43.5104 55.288 36.9886 55.288 31.6237C55.288 28.3462 52.631 25.6892 49.3534 25.6892Z" fill="#FB4A59"/>
<path d="M55.2881 31.6242C55.2881 35.9349 53.7875 40.9928 48.8288 42.8139C45.818 40.835 44.585 37.149 44.5446 33.901C44.5073 30.9294 46.8782 28.4519 49.8498 28.4822C50.1672 28.4854 50.4777 28.5163 50.7793 28.5738C51.4016 28.6917 52.0414 28.6558 52.6548 28.498C53.1016 28.3825 53.5698 28.3213 54.0532 28.3213C54.1314 28.3213 54.2097 28.3232 54.2879 28.3263C54.9196 29.2691 55.2881 30.4038 55.2881 31.6242Z" fill="#F82F40"/>
<path d="M53.3559 27.2425C53.33 27.3359 53.2991 27.3915 53.2643 27.4003C52.1095 27.6899 50.4215 27.7796 48.2361 27.0191C48.2879 27.0539 49.9362 28.1758 49.9816 30.8735C49.9873 31.1878 49.5563 31.2787 49.437 30.9877C49.0458 30.0311 48.2583 28.8636 46.6762 28.1941C44.7149 27.3643 44.075 26.5843 44.075 26.5843C44.075 26.5843 43.0073 27.8389 42.5416 31.557C42.5056 31.8448 42.1106 31.8991 41.9996 31.6309C41.5288 30.4931 40.9564 28.4945 41.8096 26.8274C41.8096 26.8274 39.7347 28.8972 35.5989 27.9601C35.4518 27.9266 35.3357 27.849 35.2455 27.7423C36.3334 26.4846 37.9413 25.6889 39.7347 25.6889C40.4945 25.6889 41.2209 25.8322 41.8885 26.0921C42.6956 25.7173 43.5955 25.5078 44.544 25.5078C45.4925 25.5078 46.3924 25.7173 47.1995 26.0921C47.8671 25.8321 48.5935 25.6889 49.3532 25.6889C50.8954 25.6889 52.3007 26.2777 53.3559 27.2425Z" fill="#F82F40"/>
<path d="M55.2878 31.6236C55.2878 36.9885 52.9639 43.5105 44.544 43.5105C43.9221 43.5105 43.3314 43.4697 42.7706 43.3917C50.8402 43.1733 53.085 36.7831 53.085 31.5104C53.085 28.7157 51.1532 26.372 48.5519 25.7427C48.8139 25.7071 49.0816 25.689 49.3532 25.689C52.6311 25.689 55.2878 28.3462 55.2878 31.6236Z" fill="#F82F40"/>
<path d="M43.1229 23.188C43.7612 23.2999 44.4146 23.2874 45.0495 23.158C45.8279 22.9994 47.2198 23.1273 49.4382 24.6327C50.6005 25.4215 52.0456 25.5689 53.1837 25.5238C53.5232 25.5104 53.5942 25.9977 53.2647 26.0805C52.1103 26.3704 50.4215 26.4603 48.2351 25.6991C48.2351 25.6991 49.9355 26.8132 49.9818 29.5537C49.9871 29.8664 49.554 29.9529 49.4353 29.6636C49.0432 28.7077 48.2554 27.543 46.6765 26.8749C45.6322 26.433 44.9624 26.0054 44.5644 25.702C44.2722 25.4794 43.8517 25.5782 43.6878 25.9069C43.3347 26.6153 42.8258 27.967 42.5414 30.2372C42.5053 30.5257 42.1109 30.5803 41.9997 30.3116C41.5975 29.3396 41.1207 27.7381 41.523 26.2522C41.579 26.0456 41.3517 25.8773 41.1698 25.9902C40.2649 26.5519 38.4028 27.3209 35.602 26.6416C35.2937 26.5668 35.3203 26.1199 35.6356 26.0851C36.8502 25.9514 38.5383 25.6001 39.7586 24.6874C41.4051 23.456 42.0826 23.0056 43.1229 23.188Z" fill="#A3E440"/>
<path d="M48.8049 26.0033C48.7068 26.0033 48.6079 25.9728 48.5234 25.9095C47.9644 25.4916 47.4044 25.1793 47.0331 24.9909C46.8013 24.8732 46.7087 24.5899 46.8264 24.358C46.944 24.1261 47.2273 24.0334 47.4593 24.1512C47.8636 24.3565 48.4744 24.6972 49.0872 25.1554C49.2954 25.3111 49.338 25.6062 49.1823 25.8144C49.0899 25.938 48.9483 26.0033 48.8049 26.0033Z" fill="#99D53B"/>
<path d="M41.1872 26.297C41.1048 26.297 41.0215 26.2754 40.9457 26.23C40.7228 26.0965 40.6501 25.8076 40.7836 25.5845C40.7924 25.5698 41.0037 25.218 41.3449 24.7707C41.5027 24.5639 41.7981 24.5243 42.0048 24.682C42.2115 24.8397 42.2513 25.1352 42.0936 25.3419C41.7865 25.7443 41.5934 26.065 41.5914 26.0682C41.5032 26.2154 41.3471 26.297 41.1872 26.297Z" fill="#99D53B"/>
<path d="M43.464 23.8009H44.8149C45.0461 21.5471 44.6355 19.6407 44.4452 18.8876C44.3746 18.6082 44.0826 18.4471 43.8086 18.5364L42.6732 18.9067C42.3711 19.0053 42.2391 19.3572 42.3989 19.6318C43.3382 21.246 43.4655 22.9699 43.464 23.8009Z" fill="#A3E440"/>
<path d="M59.7244 28.1157C59.3918 28.1171 59.0665 28.1495 58.7513 28.2101C58.1335 28.3288 57.4975 28.2887 56.8884 28.1316C56.4417 28.0164 55.9733 27.9551 55.4906 27.9551C55.0078 27.9551 54.5393 28.0164 54.0925 28.1317C53.4791 28.2899 52.8392 28.3255 52.2169 28.2075C51.9155 28.1504 51.6049 28.1191 51.2876 28.1159C48.3161 28.086 45.9449 30.5634 45.9821 33.5348C46.0411 38.2505 48.613 43.8893 55.4906 43.8893C62.8655 43.8893 64.9567 38.2361 64.9994 33.5167C65.0261 30.5707 62.6705 28.1031 59.7244 28.1157Z" fill="#FB6672"/>
<path d="M65 33.3685C65 38.117 62.943 43.8896 55.4906 43.8896C54.9401 43.8896 54.4173 43.8536 53.9209 43.7845C61.0634 43.5911 63.0502 37.9352 63.0502 33.2684C63.0502 30.7947 61.3404 28.7202 59.038 28.1633C59.2699 28.1317 59.5068 28.1157 59.7472 28.1157C62.6485 28.1157 65 30.4677 65 33.3685Z" fill="#FB4A59"/>
<path d="M54.508 39.1608C54.8989 40.6074 53.2793 41.7763 52.0504 40.9189C51.4112 40.4729 50.8663 39.9055 50.4102 39.2136C49.3955 37.6743 48.8574 35.5464 48.914 33.3283C48.9544 31.743 50.3178 30.5012 51.8972 30.6446C52.1062 30.6635 52.3121 30.6932 52.5108 30.7297C53.5746 30.9253 54.3053 31.9165 54.1887 32.9918C54.0189 34.5582 53.9187 36.9798 54.508 39.1608Z" fill="#F82F40"/>
<path d="M52.2251 41.026C52.8492 40.6991 53.2637 39.974 53.0442 39.1612C52.4548 36.9804 52.5551 34.5584 52.7249 32.9921C52.8416 31.9168 52.1109 30.9254 51.0469 30.7298C51.0242 30.7254 51.0008 30.7216 50.9781 30.7178C51.2696 30.6433 51.5789 30.6156 51.8969 30.6446C52.1064 30.6636 52.3121 30.6932 52.5109 30.7298C53.5749 30.9254 54.3056 31.9168 54.1889 32.9921C54.0191 34.5584 53.9188 36.9804 54.5082 39.1612C54.8805 40.5401 53.4266 41.6671 52.2251 41.026Z" fill="#E22334"/>
<path d="M51.2034 33.3493C50.9433 33.3493 50.7326 33.1386 50.7326 32.8785V32.6998C50.7326 32.4398 50.9434 32.229 51.2034 32.229C51.4634 32.229 51.6742 32.4398 51.6742 32.6998V32.8785C51.6742 33.1385 51.4634 33.3493 51.2034 33.3493Z" fill="#FCC16D"/>
<path d="M50.7155 35.2561C50.4554 35.2561 50.2447 35.0453 50.2447 34.7853V34.6065C50.2447 34.3465 50.4555 34.1357 50.7155 34.1357C50.9755 34.1357 51.1863 34.3465 51.1863 34.6065V34.7853C51.1863 35.0453 50.9755 35.2561 50.7155 35.2561Z" fill="#FCC16D"/>
<path d="M51.2034 37.3054C50.9433 37.3054 50.7326 37.0946 50.7326 36.8346V36.6559C50.7326 36.3958 50.9434 36.1851 51.2034 36.1851C51.4634 36.1851 51.6742 36.3958 51.6742 36.6559V36.8346C51.6742 37.0945 51.4634 37.3054 51.2034 37.3054Z" fill="#FCC16D"/>
<path d="M52.1961 39.1018C51.936 39.1018 51.7253 38.891 51.7253 38.631V38.4522C51.7253 38.1922 51.9361 37.9814 52.1961 37.9814C52.4561 37.9814 52.6669 38.1922 52.6669 38.4522V38.631C52.667 38.891 52.4562 39.1018 52.1961 39.1018Z" fill="#FCC16D"/>
<path d="M56.357 39.1608C55.9661 40.6074 57.5857 41.7763 58.8146 40.9189C59.4538 40.4729 59.9987 39.9055 60.4548 39.2136C61.4694 37.6743 62.0076 35.5464 61.951 33.3283C61.9106 31.743 60.5472 30.5012 58.9678 30.6446C58.7588 30.6635 58.5529 30.6932 58.3542 30.7297C57.2904 30.9253 56.5597 31.9165 56.6763 32.9918C56.8461 34.5582 56.9464 36.9798 56.357 39.1608Z" fill="#F82F40"/>
<path d="M60.4545 39.2135C59.9989 39.9058 59.4537 40.4731 58.8145 40.9192C58.2762 41.2947 57.6628 41.2814 57.1763 41.0259C57.235 40.995 57.2936 40.9596 57.351 40.9192C57.9903 40.4731 58.5349 39.9058 58.9911 39.2135C60.0058 37.6744 60.5441 35.5465 60.4873 33.3284C60.4551 32.0631 59.5786 31.0156 58.4232 30.7177C58.5999 30.6862 58.7829 30.6616 58.9678 30.6446C60.5473 30.5013 61.9103 31.7432 61.9507 33.3284C62.0075 35.5465 61.4693 37.6744 60.4545 39.2135Z" fill="#E22334"/>
<path d="M59.6616 33.3493C59.4015 33.3493 59.1908 33.1386 59.1908 32.8785V32.6998C59.1908 32.4398 59.4016 32.229 59.6616 32.229C59.9217 32.229 60.1324 32.4398 60.1324 32.6998V32.8785C60.1325 33.1385 59.9217 33.3493 59.6616 33.3493Z" fill="#FCC16D"/>
<path d="M60.1495 35.2561C59.8895 35.2561 59.6787 35.0453 59.6787 34.7853V34.6065C59.6787 34.3465 59.8895 34.1357 60.1495 34.1357C60.4096 34.1357 60.6203 34.3465 60.6203 34.6065V34.7853C60.6204 35.0453 60.4096 35.2561 60.1495 35.2561Z" fill="#FCC16D"/>
<path d="M59.6616 37.3054C59.4015 37.3054 59.1908 37.0946 59.1908 36.8346V36.6559C59.1908 36.3958 59.4016 36.1851 59.6616 36.1851C59.9217 36.1851 60.1324 36.3958 60.1324 36.6559V36.8346C60.1325 37.0945 59.9217 37.3054 59.6616 37.3054Z" fill="#FCC16D"/>
<path d="M58.669 39.1018C58.4089 39.1018 58.1982 38.891 58.1982 38.631V38.4522C58.1982 38.1922 58.4089 37.9814 58.669 37.9814C58.929 37.9814 59.1398 38.1922 59.1398 38.4522V38.631C59.1398 38.891 58.929 39.1018 58.669 39.1018Z" fill="#FCC16D"/>
</g>
<path d="M26.4532 37.5603L21.3423 34.4807C20.5292 33.9908 20.5292 32.8119 21.3423 32.322L26.4532 29.2423C27.2931 28.7362 28.3637 29.3411 28.3637 30.3217V36.481C28.3637 37.4615 27.2931 38.0664 26.4532 37.5603Z" fill="#5B5E8B"/>
<path d="M72.1793 37.5603L77.2903 34.4807C78.1033 33.9908 78.1033 32.8119 77.2903 32.322L72.1793 29.2423C71.3394 28.7362 70.2688 29.3411 70.2688 30.3217V36.481C70.2688 37.4615 71.3394 38.0664 72.1793 37.5603Z" fill="#5B5E8B"/>
<path d="M74.3013 61.4603L74.3571 79.6354C74.3616 81.1054 73.9049 82.4895 73.1236 83.6505C72.6523 84.3247 72.0811 84.9243 71.3974 85.3998C70.4154 86.1004 69.821 87.2359 69.8247 88.4442L69.8495 96.5415C69.8537 97.9117 68.7485 99.0363 67.3657 99.0406L49.7014 99.0948C48.3311 99.099 47.2065 97.9813 47.2023 96.611L47.1795 89.1989C47.177 88.3892 46.9254 87.5927 46.4127 86.9465C40.8352 79.9376 35.6465 65.665 34.1633 61.3593C33.8993 60.5877 34.3203 59.7394 35.0919 59.5128C41.5762 57.562 45.1962 68.0524 45.1962 68.0524L45.1214 43.6861C45.1152 41.668 46.742 40.0311 48.7476 40.0249C50.7445 40.0188 52.3902 41.6552 52.3963 43.6637L52.4267 53.5548C52.4231 52.3838 52.9681 51.3481 53.8381 50.6852C54.447 50.1975 55.2184 49.9086 56.0655 49.906C58.0798 49.8998 59.7082 51.5527 59.7142 53.5324L59.7299 58.6274C59.7263 57.4564 60.2836 56.4083 61.1411 55.7454C61.7501 55.2701 62.5216 54.9813 63.3562 54.9787C65.3549 54.9726 66.9987 56.6073 67.0049 58.605L67.0137 61.4827C67.0101 60.2992 67.5675 59.2511 68.4375 58.5882C69.0464 58.1254 69.8179 57.8365 70.64 57.834C72.6426 57.8278 74.2951 59.4583 74.3013 61.4603Z" fill="#FFAF93"/>
<path d="M60.1508 98.6773L68.6627 98.6511C68.2862 98.8882 67.8386 99.031 67.367 99.0325L49.6831 99.0868C48.3158 99.091 47.2039 97.9859 47.1997 96.6186L47.1769 89.1913C47.1745 88.3896 46.9361 87.5887 46.4155 86.9536C40.8294 79.9443 35.6454 65.6715 34.1703 61.361C33.9085 60.5837 34.3303 59.7336 35.0841 59.5192C36.0029 59.2569 36.8516 59.2072 37.6538 59.3697C37.2069 59.7248 37.0202 60.362 37.2107 60.9509C38.6858 65.2612 43.8698 79.5342 49.4559 86.5435C49.9767 87.1786 50.2148 87.9794 50.2174 88.8046V88.8046C50.2341 94.2513 54.7041 98.694 60.1508 98.6773Z" fill="#EE8778"/>
<path d="M53.8381 50.6855L53.9016 71.3646C53.9027 71.7507 53.5798 72.0756 53.1937 72.0768C52.795 72.078 52.4701 71.7551 52.469 71.369L52.405 50.5404C52.4048 50.4657 52.4045 50.3909 52.4168 50.3286L52.4267 53.5551C52.4231 52.3841 52.9681 51.3484 53.8381 50.6855Z" fill="#EE8778"/>
<path d="M61.1411 55.7456L61.182 69.0624C61.1832 69.461 60.8604 69.7859 60.4742 69.7871C60.0756 69.7883 59.7632 69.4654 59.7619 69.0668L59.7299 58.6276C59.7263 57.4566 60.2836 56.4085 61.1411 55.7456Z" fill="#EE8778"/>
<path d="M68.4375 58.5879L68.4706 69.3759C68.4717 69.7496 68.1364 70.087 67.7627 70.0882C67.3516 70.0894 67.0391 69.754 67.038 69.3803L67.0137 61.4824C67.0101 60.2989 67.5675 59.2508 68.4375 58.5879Z" fill="#EE8778"/>
<defs>
<clipPath id="clip0_94_114">
<rect width="31.2" height="31.2" fill="white" transform="translate(33.8 15.6001)"/>
</clipPath>
</defs>
</svg>
