<svg width="104" height="104" viewBox="0 0 104 104" fill="none" xmlns="http://www.w3.org/2000/svg">
<path d="M71.5 14.625V73.125C71.5077 75.04 70.9417 76.9134 69.875 78.5038C68.9887 79.8483 67.7822 80.9516 66.364 81.7145C64.9459 82.4775 63.3604 82.8763 61.75 82.875H29.25C27.9693 82.8763 26.7008 82.625 25.5173 82.1354C24.3338 81.6459 23.2585 80.9278 22.3528 80.0221C21.4472 79.1165 20.7291 78.0412 20.2396 76.8577C19.75 75.6742 19.4987 74.4057 19.5 73.125V14.625C19.5 12.0391 20.5272 9.55919 22.3557 7.73071C24.1842 5.90223 26.6641 4.875 29.25 4.875H61.75C64.3359 4.875 66.8158 5.90223 68.6443 7.73071C70.4728 9.55919 71.5 12.0391 71.5 14.625Z" fill="#5AAAE7"/>
<path d="M40.4625 69.404C40.4625 70.2593 40.2384 71.0997 39.8125 71.8415L33.4425 82.8752H30.225L29.25 81.2502L36.5625 68.5915C36.9884 67.8497 37.2125 67.0093 37.2125 66.154C37.2164 65.6746 37.1451 65.1975 37.0013 64.7402C37.361 64.8388 37.7055 64.9864 38.025 65.179C38.7686 65.6048 39.3859 66.2202 39.8141 66.9624C40.2423 67.7046 40.466 68.5471 40.4625 69.404Z" fill="#3D9AE2"/>
<path d="M69.875 61.75V78.5037C68.9887 79.8483 67.7822 80.9516 66.364 81.7145C64.9459 82.4775 63.3604 82.8763 61.75 82.875H60.125V61.75C60.125 60.4571 60.6386 59.2171 61.5529 58.3029C62.4671 57.3886 63.7071 56.875 65 56.875C66.2929 56.875 67.5329 57.3886 68.4471 58.3029C69.3614 59.2171 69.875 60.4571 69.875 61.75Z" fill="#3D9AE2"/>
<path d="M40.3325 70.5088C40.2292 70.9772 40.0538 71.4267 39.8125 71.8413L39 73.2388V73.125C38.9977 72.6983 39.0815 72.2755 39.2462 71.8818C39.4109 71.4882 39.6532 71.1317 39.9588 70.8338C40.0757 70.7169 40.2006 70.6084 40.3325 70.5088Z" fill="#D8D7DA"/>
<path d="M37.2125 66.154C37.2137 65.0798 36.8601 64.0353 36.2066 63.1828C35.5532 62.3303 34.6364 61.7175 33.5988 61.4395C32.5613 61.1616 31.4609 61.2342 30.4688 61.6459C29.4767 62.0576 28.6484 62.7855 28.1125 63.7165L20.3612 77.139C19.7916 75.8776 19.498 74.5092 19.5 73.1252V47.1577C18.9612 47.2324 18.4497 47.4411 18.0125 47.7648C17.5753 48.0884 17.2263 48.5167 16.9975 49.0102L9.62 65.0165C8.63274 67.1447 8.1225 69.4629 8.125 71.809V100.75L34.125 100.734V92.0565C34.1215 90.2872 33.6385 88.5519 32.7275 87.0352L30.225 82.8752L29.25 81.2502L36.5625 68.5915C36.9884 67.8497 37.2125 67.0093 37.2125 66.154Z" fill="#FFC477"/>
<path d="M48.75 69.875C49.6112 69.8776 50.4363 70.2208 51.0453 70.8297C51.6542 71.4387 51.9974 72.2638 52 73.125C51.9936 73.985 51.6492 74.8079 51.041 75.416C50.4329 76.0242 49.61 76.3686 48.75 76.375H42.25C41.3888 76.3724 40.5637 76.0292 39.9547 75.4203C39.3458 74.8113 39.0026 73.9862 39 73.125C39.0064 72.265 39.3508 71.4421 39.959 70.834C40.5671 70.2258 41.39 69.8814 42.25 69.875H48.75Z" fill="#E6E7E8"/>
<path d="M86.125 81.25C86.125 79.9571 86.6386 78.7171 87.5529 77.8029C88.4671 76.8886 89.7071 76.375 91 76.375C92.2929 76.375 93.5329 76.8886 94.4471 77.8029C95.3614 78.7171 95.875 79.9571 95.875 81.25V100.75H52.1788L45.175 88.6275C44.747 87.8862 44.5217 87.0452 44.5219 86.1892C44.522 85.3332 44.7475 84.4923 45.1758 83.7511C45.604 83.01 46.2199 82.3946 46.9614 81.9669C47.7029 81.5393 48.544 81.3145 49.4 81.315C50.2569 81.3115 51.0993 81.5352 51.8416 81.9634C52.5838 82.3916 53.1992 83.0089 53.625 83.7525L56.875 89.375V58.5C56.875 57.2071 57.3886 55.9671 58.3029 55.0529C59.2171 54.1386 60.4571 53.625 61.75 53.625C63.0429 53.625 64.2829 54.1386 65.1971 55.0529C66.1114 55.9671 66.625 57.2071 66.625 58.5V78C66.625 76.7071 67.1386 75.4671 68.0529 74.5529C68.9671 73.6386 70.2071 73.125 71.5 73.125C72.7929 73.125 74.0329 73.6386 74.9471 74.5529C75.8614 75.4671 76.375 76.7071 76.375 78V79.625C76.375 78.3321 76.8886 77.0921 77.8029 76.1779C78.7171 75.2636 79.9571 74.75 81.25 74.75C82.5429 74.75 83.7829 75.2636 84.6971 76.1779C85.6114 77.0921 86.125 78.3321 86.125 79.625V81.25Z" fill="#FFC477"/>
<path d="M48.75 56.875C56.8272 56.875 63.375 50.3272 63.375 42.25C63.375 34.1728 56.8272 27.625 48.75 27.625C40.6728 27.625 34.125 34.1728 34.125 42.25C34.125 50.3272 40.6728 56.875 48.75 56.875Z" fill="#3D9AE2"/>
<path d="M45.5 53.625C53.5772 53.625 60.125 47.0772 60.125 39C60.125 30.9228 53.5772 24.375 45.5 24.375C37.4228 24.375 30.875 30.9228 30.875 39C30.875 47.0772 37.4228 53.625 45.5 53.625Z" fill="#FFD422"/>
<g clip-path="url(#clip0_99_217)">
<path d="M45.9333 26.6426C38.7604 26.6426 32.9333 32.3322 32.9333 39.3212C32.9333 46.3101 38.7604 51.9998 45.9333 51.9998C53.1062 51.9998 58.9333 46.3101 58.9333 39.3212C58.9333 32.3185 53.0924 26.6426 45.9333 26.6426Z" fill="#E5A100"/>
<path d="M45.9333 26C38.9408 26 33.2386 31.6076 33.2386 38.5145C33.2386 45.4214 38.9269 51.0289 45.9333 51.0289C52.9397 51.0289 58.6281 45.4214 58.6281 38.5145C58.6142 31.6076 52.9259 26 45.9333 26Z" fill="#FFCF00"/>
<path d="M45.9333 28.1201C40.1201 28.1201 35.389 32.784 35.389 38.5146C35.389 44.2453 40.1201 48.9092 45.9333 48.9092C51.7466 48.9092 56.4776 44.2453 56.4776 38.5146C56.4776 32.784 51.7466 28.1201 45.9333 28.1201ZM45.9333 47.8697C40.7028 47.8697 36.4435 43.6709 36.4435 38.5146C36.4435 33.3584 40.7028 29.1596 45.9333 29.1596C51.1639 29.1596 55.4232 33.3584 55.4232 38.5146C55.4232 43.6709 51.1639 47.8697 45.9333 47.8697Z" fill="#E5A100"/>
<path d="M45.6281 50.9879C45.5726 50.9879 45.5171 50.9605 45.4894 50.9332C45.4616 50.8921 45.4339 50.8511 45.4477 50.7964L45.531 49.1962C45.5449 49.1005 45.6004 49.0457 45.6975 49.0457C45.7391 49.0457 45.7807 49.0594 45.8085 49.1005C45.8362 49.1278 45.8501 49.1688 45.8501 49.1962L45.8223 50.8101C45.8223 50.9058 45.7391 50.9879 45.6281 50.9879ZM48.3752 50.7417C48.3058 50.7417 48.2364 50.687 48.2226 50.6049L47.9312 48.991C47.9312 48.95 47.9312 48.9227 47.9451 48.8953C47.9589 48.8679 48.0006 48.8543 48.0283 48.8406H48.0561C48.1254 48.8406 48.1671 48.8816 48.1809 48.9363L48.5555 50.5365C48.5694 50.5912 48.5555 50.6323 48.5278 50.6733C48.5 50.7143 48.4584 50.7417 48.4168 50.7554H48.389C48.4029 50.7417 48.389 50.7417 48.3752 50.7417ZM42.8672 50.6186C42.8533 50.6186 42.8394 50.6186 42.8255 50.6186C42.77 50.6049 42.7284 50.5776 42.7007 50.5229C42.6729 50.4818 42.6729 50.4271 42.6868 50.3998L43.1308 48.8132C43.1446 48.7585 43.214 48.7175 43.2695 48.7175H43.2973C43.3666 48.7312 43.4083 48.7996 43.3944 48.8816L43.0475 50.4682C43.0337 50.5502 42.9504 50.6186 42.8672 50.6186ZM51.039 49.9074C50.9835 49.9074 50.928 49.8664 50.9002 49.8117L50.2482 48.3072C50.2204 48.2388 50.2482 48.1704 50.3175 48.1294H50.373C50.4285 48.1294 50.4702 48.1567 50.4979 48.1978L51.2194 49.6612C51.2471 49.7159 51.2471 49.757 51.2332 49.8117C51.2193 49.8527 51.1916 49.88 51.1639 49.8937L51.1222 49.9074C51.0806 49.8937 51.0667 49.9074 51.039 49.9074ZM40.245 49.6339C40.2172 49.6339 40.1895 49.6339 40.1617 49.6202C40.1201 49.5928 40.0924 49.5655 40.0646 49.5108C40.0507 49.4561 40.0507 49.415 40.0785 49.374L40.8832 47.9379C40.9109 47.8695 40.9803 47.8695 40.9942 47.8695C41.0219 47.8695 41.0497 47.8695 41.0635 47.8832C41.1052 47.8969 41.119 47.9242 41.1329 47.9653C41.1468 47.9926 41.1329 48.02 41.1329 48.0473L40.4115 49.5244C40.3837 49.5928 40.3143 49.6339 40.245 49.6339ZM53.4808 48.5123C53.4115 48.5123 53.356 48.485 53.3143 48.4303L52.357 47.1036C52.3154 47.0489 52.3293 46.9668 52.3848 46.9258C52.4125 46.8985 52.4403 46.8985 52.468 46.8985C52.5096 46.8985 52.5513 46.9121 52.579 46.9532L53.6057 48.2251C53.6334 48.2662 53.6473 48.3072 53.6473 48.3619C53.6473 48.4166 53.6196 48.4576 53.5779 48.485L53.5641 48.4987C53.5224 48.5123 53.4947 48.5123 53.4808 48.5123ZM37.9141 48.1157C37.8725 48.1157 37.8309 48.102 37.8031 48.0747C37.7199 48.0063 37.706 47.8832 37.7754 47.8011L38.8714 46.5839C38.8992 46.5565 38.9408 46.5429 38.9824 46.5429C39.0102 46.5429 39.0518 46.5565 39.0657 46.5702C39.1212 46.6112 39.1489 46.6933 39.0934 46.7617L38.0667 48.0337C38.0251 48.0884 37.9696 48.1157 37.9141 48.1157ZM55.4926 46.5976C55.4509 46.5976 55.4093 46.5839 55.3677 46.5429L54.1329 45.4624C54.0774 45.4077 54.0774 45.3256 54.119 45.2709C54.1468 45.2435 54.1884 45.2299 54.23 45.2299C54.2578 45.2299 54.2855 45.2435 54.3133 45.2572L55.6036 46.2693C55.6452 46.2967 55.6729 46.3514 55.6729 46.3924C55.6729 46.4198 55.6729 46.4745 55.6313 46.5155L55.6174 46.5292V46.5429C55.5758 46.5839 55.5342 46.5976 55.4926 46.5976ZM36.0134 46.1189C35.9579 46.1189 35.9024 46.0915 35.8608 46.0505C35.833 46.0095 35.8191 45.9547 35.833 45.9C35.833 45.8727 35.8608 45.8317 35.9024 45.8043L37.262 44.8469C37.2759 44.8332 37.3175 44.8196 37.3453 44.8196C37.3869 44.8196 37.4424 44.8332 37.4702 44.8743C37.5256 44.9426 37.4979 45.011 37.4424 45.0657L36.1521 46.0778C36.0966 46.1052 36.055 46.1189 36.0134 46.1189ZM57.0326 44.3135C57.0048 44.3135 56.9771 44.2998 56.9493 44.2998L55.4926 43.5066C55.4093 43.4655 55.4093 43.3835 55.4371 43.3151L55.4509 43.2877V43.274C55.4787 43.2467 55.5203 43.2193 55.5619 43.2193C55.5758 43.2193 55.5897 43.2193 55.6174 43.233L57.1158 43.9442C57.1575 43.9716 57.1991 44.0126 57.2129 44.0536C57.2268 44.0947 57.2268 44.1357 57.1991 44.1767L57.1852 44.2041V44.2178C57.1436 44.2861 57.0881 44.3135 57.0326 44.3135ZM34.5566 43.7527C34.4872 43.7527 34.4317 43.7117 34.404 43.6433C34.3762 43.6023 34.3762 43.5613 34.3901 43.5066C34.404 43.4655 34.4456 43.4245 34.4872 43.3971L36.0134 42.7543C36.0272 42.7543 36.055 42.7406 36.0689 42.7406C36.1244 42.7406 36.166 42.768 36.1937 42.8227C36.2215 42.8774 36.1937 42.9732 36.1382 42.9868L34.6537 43.698C34.6121 43.7391 34.5843 43.7527 34.5566 43.7527ZM58.0315 41.7285C58.0176 41.7285 58.0038 41.7285 57.9899 41.7285L56.3944 41.2772C56.325 41.2635 56.2834 41.1815 56.2973 41.1131V41.0994C56.325 41.0447 56.3666 41.0037 56.436 41.0037H56.4637L58.0731 41.3729C58.1286 41.3866 58.1703 41.414 58.198 41.455C58.2258 41.496 58.2258 41.5371 58.2258 41.5781C58.1841 41.6738 58.1148 41.7285 58.0315 41.7285ZM33.7103 41.1404C33.627 41.1404 33.5577 41.0857 33.5299 41.0173V40.99V40.9763C33.516 40.9216 33.5299 40.8806 33.5577 40.8532C33.5854 40.8122 33.627 40.7848 33.6825 40.7712L35.3335 40.4839H35.3613C35.4168 40.4839 35.4584 40.525 35.4723 40.566V40.5934V40.607C35.4862 40.6754 35.4445 40.7438 35.3752 40.7575L33.7658 41.1268C33.7519 41.1404 33.7242 41.1404 33.7103 41.1404ZM56.769 38.9248C56.6719 38.9111 56.6164 38.8564 56.6164 38.7606C56.6164 38.6649 56.6857 38.5965 56.7829 38.5965H58.4061C58.4616 38.5965 58.5032 38.6239 58.5449 38.6512C58.5726 38.6923 58.5865 38.7333 58.5865 38.7743V38.8427C58.5865 38.8974 58.5726 38.9248 58.5587 38.9384C58.5171 38.9795 58.4616 39.0068 58.4061 39.0068L56.769 38.9248ZM33.4467 38.3914C33.3634 38.3914 33.2941 38.3093 33.2941 38.2136C33.2802 38.1041 33.3496 38.0358 33.4467 38.0358L35.1254 38.1178C35.1809 38.1178 35.2364 38.1725 35.2364 38.2546C35.2364 38.3093 35.1671 38.3777 35.1116 38.3777L33.4467 38.3914ZM56.5609 36.5176C56.4915 36.5176 56.4221 36.4766 56.4083 36.3945C56.3944 36.3535 56.4083 36.3125 56.4221 36.2851C56.436 36.2577 56.4637 36.2441 56.5054 36.2304L58.1286 35.8611H58.1703C58.2535 35.8611 58.3229 35.9158 58.3367 35.9842V36.0116C58.3645 36.121 58.2813 36.203 58.1841 36.2304L56.5609 36.5176ZM35.4445 36.0252C35.4307 36.0252 35.4168 36.0252 35.4168 36.0252L33.7935 35.656C33.6964 35.6286 33.6409 35.5329 33.6687 35.4371V35.4234V35.3961C33.6964 35.3277 33.7658 35.2867 33.8351 35.2867C33.849 35.2867 33.8629 35.2867 33.8768 35.3004L35.5 35.7517C35.5278 35.7654 35.5555 35.779 35.5694 35.8064C35.5833 35.8201 35.5972 35.8611 35.5833 35.8885V35.9021V35.9295C35.5555 35.9979 35.5139 36.0252 35.4445 36.0252ZM55.77 34.2199C55.7284 34.2199 55.6868 34.1925 55.6591 34.1378C55.6452 34.1105 55.6452 34.0694 55.6452 34.0284C55.6591 33.9874 55.6868 33.96 55.7145 33.9463L57.1991 33.2214C57.2268 33.2078 57.2546 33.1941 57.2823 33.1941C57.3517 33.1941 57.4072 33.2351 57.4349 33.2898C57.4488 33.3309 57.4627 33.3856 57.4349 33.4403C57.4211 33.4813 57.3794 33.5223 57.3378 33.536L55.8117 34.2062L55.7978 34.2199C55.7978 34.2199 55.7839 34.2199 55.77 34.2199ZM36.2909 33.7959C36.277 33.7959 36.2492 33.7959 36.2354 33.7822L34.7508 33.071C34.7092 33.0436 34.6676 33.0026 34.6537 32.9616C34.6398 32.9206 34.6398 32.8658 34.6676 32.8248L34.6815 32.7975V32.7838C34.7231 32.7291 34.7786 32.7154 34.8341 32.7154C34.8618 32.7154 34.8896 32.7291 34.9173 32.7428L36.3741 33.5497C36.4157 33.577 36.4296 33.6044 36.4435 33.6318C36.4573 33.6728 36.4435 33.7001 36.4296 33.7412C36.4018 33.7685 36.3464 33.7959 36.2909 33.7959ZM54.5491 32.182C54.5075 32.182 54.4659 32.1546 54.4381 32.1273C54.3826 32.0589 54.3965 31.9905 54.452 31.9358L55.7423 30.91C55.77 30.8827 55.8117 30.869 55.8672 30.869C55.8949 30.869 55.9643 30.8827 56.0059 30.9374C56.0337 30.9784 56.0475 31.0194 56.0475 31.0742C56.0475 31.1289 56.0198 31.1699 55.9643 31.1972L54.6324 32.141C54.6046 32.1683 54.5769 32.182 54.5491 32.182ZM37.6366 31.8127C37.6089 31.8127 37.5811 31.8127 37.5534 31.7854L36.2631 30.7596C36.1799 30.6912 36.166 30.5818 36.2354 30.4997C36.2631 30.4587 36.3186 30.445 36.3741 30.445C36.4157 30.445 36.4573 30.4587 36.4851 30.486L37.7338 31.5802C37.7615 31.6076 37.7754 31.6349 37.7754 31.6759C37.7754 31.717 37.7615 31.7443 37.7476 31.7717C37.7199 31.799 37.6783 31.8127 37.6366 31.8127ZM52.8704 30.445C52.8426 30.445 52.8149 30.4313 52.7871 30.4177C52.7178 30.363 52.7177 30.2946 52.7594 30.2262L53.7861 28.9542C53.8277 28.9132 53.8832 28.8858 53.9387 28.8858C53.9664 28.8858 54.008 28.8858 54.0497 28.9269C54.0913 28.9542 54.1052 28.9952 54.1052 29.05C54.1052 29.1047 54.0913 29.1457 54.0635 29.1731L52.9675 30.404C52.9536 30.4313 52.912 30.445 52.8704 30.445ZM39.3848 30.1578C39.3432 30.1578 39.3015 30.1441 39.2738 30.1168L38.2471 28.8448C38.2194 28.8038 38.2055 28.7491 38.2055 28.708C38.2055 28.6807 38.2194 28.626 38.2748 28.5986C38.3165 28.5713 38.3581 28.5576 38.372 28.5576C38.4275 28.5576 38.4968 28.5849 38.5385 28.6396L39.4958 29.9526C39.5374 30.0073 39.5235 30.0894 39.468 30.1441C39.4541 30.1441 39.4264 30.1578 39.3848 30.1578ZM50.8586 29.1457C50.8448 29.1457 50.817 29.1457 50.8031 29.132C50.7754 29.1183 50.7476 29.091 50.7338 29.05C50.7199 29.0089 50.7199 28.9816 50.7476 28.9405L51.4691 27.4771C51.4968 27.4087 51.5662 27.3677 51.6356 27.3677C51.6633 27.3677 51.6911 27.3677 51.7188 27.3814C51.7604 27.4087 51.7882 27.4361 51.8159 27.4908C51.8298 27.5455 51.8298 27.5865 51.8021 27.6275L51.0251 29.05C50.9557 29.1047 50.9002 29.1457 50.8586 29.1457ZM41.452 28.9269C41.3965 28.9269 41.3549 28.8995 41.3271 28.8448L40.5918 27.3814C40.5641 27.3403 40.5641 27.2856 40.5779 27.2446C40.5918 27.2036 40.6334 27.1625 40.6751 27.1352C40.6889 27.1352 40.7167 27.1215 40.7444 27.1215C40.8138 27.1215 40.8832 27.1625 40.9109 27.2309L41.563 28.7354C41.5907 28.8038 41.563 28.8722 41.4936 28.9132C41.4936 28.9269 41.4798 28.9269 41.452 28.9269ZM48.5972 28.2977C48.5833 28.2977 48.5694 28.2977 48.5555 28.2977C48.5139 28.284 48.4862 28.2567 48.4584 28.2293C48.4445 28.202 48.4307 28.1746 48.4445 28.1336L48.8053 26.5334C48.8191 26.4513 48.9024 26.3829 48.9856 26.3829H49.0272C49.1244 26.4103 49.1799 26.506 49.166 26.6155L48.7081 28.1883C48.6943 28.2704 48.6388 28.2977 48.5972 28.2977ZM43.7829 28.1883C43.7135 28.1883 43.6441 28.1473 43.6441 28.0926L43.2695 26.506C43.2556 26.4513 43.2695 26.3966 43.2973 26.3556C43.325 26.3146 43.3666 26.3009 43.4083 26.2872H43.4499C43.5331 26.2872 43.6164 26.3556 43.6302 26.4513L43.9216 28.0515C43.9216 28.0926 43.9216 28.1199 43.9077 28.1473C43.8938 28.1746 43.8522 28.1883 43.8245 28.202C43.7967 28.1883 43.7829 28.1883 43.7829 28.1883ZM46.1831 27.9832C46.0859 27.9832 46.0443 27.9148 46.0443 27.8464V26.2188C46.0443 26.1094 46.1414 26.041 46.2247 26.041H46.2386C46.3357 26.041 46.4189 26.1231 46.4189 26.2325L46.3357 27.8601C46.3357 27.9148 46.2663 27.9832 46.1831 27.9832Z" fill="#FFE500"/>
<path d="M49.5961 48.2523C48.4029 48.7036 47.0988 48.9361 45.7946 48.9361C42.5758 48.9361 39.2599 47.5137 37.151 44.2996C36.6655 43.5748 36.499 43.1781 36.499 43.1781L37.1233 42.0429C37.1233 42.0293 37.1233 42.0156 37.1372 42.0156C38.5385 45.4485 41.9653 47.8693 45.9333 47.8693C51.1639 47.8693 55.4232 43.6705 55.4232 38.5143C55.4232 37.5295 55.2706 36.5721 54.9792 35.6694V35.6558C55.2428 35.7105 55.7423 35.8609 56.1585 35.984C57.7263 41.8514 54.2855 46.5427 49.5961 48.2523Z" fill="#FFE500"/>
<path d="M45.9333 29.1592C40.7028 29.1592 36.4435 33.358 36.4435 38.5143C36.4435 39.7452 36.6932 40.9214 37.1372 42.0019C38.4136 38.7741 42.1318 36.6815 45.1703 35.519C47.6953 34.5616 52.2599 34.3017 54.9654 35.6421C53.7306 31.8946 50.151 29.1592 45.9333 29.1592Z" fill="#FFC500"/>
<path d="M52.5929 35.7652H46.5577C46.7796 31.4159 38.8298 31.539 39.2599 35.9567H41.563V38.4322H43.2001C43.2001 39.6358 43.0891 41.3454 43.4499 42.2071C44.4904 45.2023 49.3186 45.4485 51.4691 43.5337C53.3837 41.7694 52.6761 39.2939 50.6505 38.4459H52.5929V35.7652ZM49.5961 41.4959C49.3186 41.1129 48.8469 40.4701 49.7764 40.73C49.8319 40.7573 49.9707 40.8394 49.8597 41.1676C49.4435 42.1387 48.611 42.1797 47.8757 42.166L49.5961 41.4959ZM46.7103 39.9914C46.516 40.5795 46.5577 41.195 46.8074 41.701C46.3079 41.0445 46.5577 39.417 46.5299 38.4185H48.3335C47.5843 38.6374 46.9739 39.2118 46.7103 39.9914ZM42.2567 35.6011C42.3399 34.6847 43.2556 35.0266 43.2279 35.7652H42.229L42.2567 35.6011Z" fill="#FFE500"/>
<path d="M52.1767 36.0389V37.8853H46.0998C46.1969 38.8701 45.8362 40.9079 46.4189 41.7696C47.3485 42.8774 49.8319 42.6312 50.262 41.1541C50.7338 39.6907 48.1116 39.8685 48.9718 41.1678L47.4179 41.7696C46.5299 40.7164 47.1543 39.0068 48.5 38.6786C51.3858 37.6802 53.4808 41.0721 51.1916 43.0826C49.1799 44.8195 44.8512 44.6691 43.8383 41.92C43.4637 41.0173 43.658 38.8701 43.6164 37.8853H41.9792V36.0389H43.6025C43.9077 34.384 42.0625 33.8643 41.8405 35.4098H39.69C39.8426 31.6212 46.8768 32.1136 46.0859 36.0389H52.1767Z" fill="#C78C00"/>
</g>
<path d="M32.5 9.75H35.75V13H32.5V9.75Z" fill="#3D9AE2"/>
<path d="M39 9.75H52V13H39V9.75Z" fill="#3D9AE2"/>
<path d="M6.97613 21.6013L2.10113 26.4763L4.39888 28.774L6.5 26.6729V45.5001H9.75V26.6729L11.8511 28.774L14.1489 26.4763L9.27388 21.6013C8.96914 21.2966 8.55589 21.1255 8.125 21.1255C7.69411 21.1255 7.28086 21.2966 6.97613 21.6013Z" fill="#FF9811"/>
<path d="M88.8989 26.4763L84.0239 21.6013C83.7191 21.2966 83.3059 21.1255 82.875 21.1255C82.4441 21.1255 82.0309 21.2966 81.7261 21.6013L76.8511 26.4763L79.1489 28.774L81.25 26.6729V45.5001H84.5V26.6729L86.6011 28.774L88.8989 26.4763Z" fill="#FF9811"/>
<path d="M81.25 48.75H84.5V52H81.25V48.75Z" fill="#FF9811"/>
<path d="M81.25 55.25H84.5V58.5H81.25V55.25Z" fill="#FF9811"/>
<path d="M6.5 48.75H9.75V52H6.5V48.75Z" fill="#FF9811"/>
<path d="M35.75 100.734H32.5V92.0644C32.5002 90.5876 32.098 89.1388 31.3365 87.8735L27.8574 82.0885C27.7077 81.84 27.6273 81.5561 27.6244 81.266C27.6216 80.976 27.6964 80.6905 27.8411 80.4391L35.0431 67.9656C35.2761 67.5766 35.4291 67.1451 35.4934 66.6963C35.5577 66.2475 35.5319 65.7904 35.4175 65.3516C35.3032 64.9129 35.1025 64.5014 34.8273 64.1411C34.5521 63.7808 34.2078 63.4789 33.8146 63.2531C33.0728 62.8758 32.2146 62.7975 31.4167 63.0342C30.6189 63.2709 29.9422 63.8047 29.5263 64.5255L20.5888 80.0053C20.482 80.1909 20.3397 80.3537 20.1699 80.4841C20.0001 80.6146 19.8062 80.7102 19.5993 80.7655C19.3924 80.8207 19.1766 80.8346 18.9644 80.8062C18.7521 80.7778 18.5476 80.7077 18.3625 80.6C18.1775 80.4933 18.0153 80.3512 17.8853 80.1817C17.7552 80.0123 17.6599 79.8189 17.6046 79.6126C17.5494 79.4063 17.5354 79.1911 17.5634 78.9794C17.5913 78.7676 17.6608 78.5635 17.7678 78.3786L26.7053 62.9005C27.1911 62.0621 27.8579 61.3427 28.657 60.7946C29.4561 60.2465 30.3674 59.8836 31.3245 59.7323C32.2816 59.581 33.2604 59.645 34.1896 59.9199C35.1188 60.1947 35.975 60.6734 36.6958 61.321C37.8058 62.3485 38.5293 63.7261 38.7449 65.2232C38.9606 66.7204 38.6554 68.2461 37.8804 69.5451L31.1301 81.2354L34.125 86.1981C35.1892 87.9691 35.751 89.9966 35.75 92.0627V100.734Z" fill="#FFB655"/>
<path d="M68.25 78C68.25 77.1025 67.5225 76.375 66.625 76.375C65.7275 76.375 65 77.1025 65 78V84.5C65 85.3975 65.7275 86.125 66.625 86.125C67.5225 86.125 68.25 85.3975 68.25 84.5V78Z" fill="#FFB655"/>
<path d="M78 78C78 77.1025 77.2725 76.375 76.375 76.375C75.4775 76.375 74.75 77.1025 74.75 78V84.5C74.75 85.3975 75.4775 86.125 76.375 86.125C77.2725 86.125 78 85.3975 78 84.5V78Z" fill="#FFB655"/>
<path d="M87.75 79.625C87.75 78.7275 87.0225 78 86.125 78C85.2275 78 84.5 78.7275 84.5 79.625V84.5C84.5 85.3975 85.2275 86.125 86.125 86.125C87.0225 86.125 87.75 85.3975 87.75 84.5V79.625Z" fill="#FFB655"/>
<defs>
<clipPath id="clip0_99_217">
<rect width="26" height="26" fill="white" transform="translate(32.9333 26)"/>
</clipPath>
</defs>
</svg>
