<svg width="104" height="104" viewBox="0 0 104 104" fill="none" xmlns="http://www.w3.org/2000/svg">
<g clip-path="url(#clip0_101_255)">
<path d="M45.9062 0C40.8659 0 36.7656 4.10028 36.7656 9.14062V12.3906L42.8594 15.4375H45.9062H48.9531L55.0469 12.3906V9.14062C55.0469 4.10028 50.9466 0 45.9062 0Z" fill="#FF6A4D"/>
<path d="M55.0469 12.3906V9.14062C55.0469 4.10028 50.9466 0 45.9062 0V15.4375H48.9531L55.0469 12.3906Z" fill="#E64D2E"/>
<path d="M0 91.8125C1.41192 98.7659 7.86419 104 15.2344 104C22.6046 104 29.26 98.7659 30.6719 91.8125L24.0524 88.7656H4.22988L0 91.8125Z" fill="#474F54"/>
<path d="M15.2344 97.9062C10.194 97.9062 6.09375 93.806 6.09375 88.7656C6.09375 83.7253 10.194 79.625 15.2344 79.625C20.2747 79.625 24.5781 83.7253 24.5781 88.7656C24.5781 93.806 20.2747 97.9062 15.2344 97.9062Z" fill="#F2F9FF"/>
<path d="M30.6719 36.9688H12.1875L6.09375 43.0625V61.3438L12.1875 64.3906H30.6719L39.8125 61.3438V44.8906L36.7656 43.0625L30.6719 36.9688Z" fill="#FF9100"/>
<path d="M6.09375 30.875V43.0625H36.7656L39.8125 41.4852L36.7656 40.0156V30.875H6.09375Z" fill="#FABE2C"/>
<path d="M48.9531 91.8125H0V88.7656C0 76.9864 9.75203 67.4375 21.5312 67.4375L26.6094 64.3906H55.0469V86.7344L48.9531 91.8125Z" fill="#FF6A4D"/>
<path d="M0 61.3438H42.8594V67.4375H0V61.3438Z" fill="#32393F"/>
<path d="M64.1875 76.7607V88.217L61.1406 91.8125H48.9531V67.4375H42.8594C39.5078 67.4375 36.7656 64.6953 36.7656 61.3438V46.1094H55.0469V55.25C58.3984 55.25 61.1406 57.9922 61.1406 61.3438V73.5312L64.1875 76.7607Z" fill="#575F64"/>
<path d="M64.1875 76.7607V88.217L61.1406 91.8125H48.9531V67.4375H45.9062V46.1094H55.0469V55.25C58.3984 55.25 61.1406 57.9922 61.1406 61.3438V73.5312L64.1875 76.7607Z" fill="#474F54"/>
<path d="M55.0469 43.0625V40.0156C55.0469 34.9753 50.9466 30.875 45.9062 30.875C40.8659 30.875 36.7656 34.9753 36.7656 40.0156V46.1094C36.7656 51.1576 40.858 55.25 45.9062 55.25H70.4844C75.5326 55.25 79.625 51.1576 79.625 46.1094V43.0625H55.0469Z" fill="#FF6A4D"/>
<path d="M79.625 46.1094V43.0625H55.0469V40.0156C55.0469 34.9753 50.9466 30.875 45.9062 30.875V55.25H70.4844C75.5326 55.25 79.625 51.1576 79.625 46.1094Z" fill="#E64D2E"/>
<path d="M48.9531 15.4375H45.9062H42.8594L36.7656 18.4844V21.5312C36.7656 26.5716 40.8659 30.875 45.9062 30.875C50.9466 30.875 55.0469 26.5716 55.0469 21.5312V18.4844L48.9531 15.4375Z" fill="#FFE1BA"/>
<path d="M55.0469 21.5312V18.4844L48.9531 15.4375H45.9062V30.875C50.9466 30.875 55.0469 26.5716 55.0469 21.5312Z" fill="#FFBFAB"/>
<path d="M45.9062 12.3906H36.7656V18.4844H45.9062H61.1406V12.3906H45.9062Z" fill="#474F54"/>
<path d="M45.9062 12.3906H61.1406V18.4844H45.9062V12.3906Z" fill="#32393F"/>
<path d="M88.0218 62.025C87.6856 59.6535 87.019 54.9821 85.6891 45.6777L73.5312 40.0156V64.3906C73.5312 69.1972 69.3905 73.5312 64.1875 73.5312H61.1406V91.8125H67.2344H97.9062L104 88.7656V82.6719C104 72.9243 97.2756 64.4264 88.0218 62.025Z" fill="#E64D2E"/>
<path d="M91.8125 49.1562H82.6719C77.6315 49.1562 73.5312 45.056 73.5312 40.0156C73.5312 34.9753 77.6315 30.875 82.6719 30.875H91.8125V49.1562Z" fill="#FF6A4D"/>
<path d="M89.6813 73.624L88.7953 77.0097L83.6459 74.4802C77.7695 76.5949 73.5312 82.1703 73.5312 88.7658C73.5312 97.1656 80.3658 104 88.7656 104C97.1655 104 104 97.1656 104 88.7658C104 80.6796 97.6477 74.1083 89.6813 73.624Z" fill="#32393F"/>
<path d="M88.7656 79.625C83.7253 79.625 79.625 83.7253 79.625 88.7656C79.625 93.806 83.7253 97.9062 88.7656 97.9062C93.806 97.9062 97.9062 93.806 97.9062 88.7656C97.9062 83.7253 93.806 79.625 88.7656 79.625Z" fill="#DFE7F4"/>
<path d="M91.7828 88.3342L89.6815 73.6239C89.3722 73.6052 89.0792 73.5312 88.7656 73.5312C86.9615 73.5312 85.2534 73.9017 83.6461 74.48L85.7486 89.1971L91.7828 88.3342Z" fill="#C7CFE1"/>
</g>
<defs>
<clipPath id="clip0_101_255">
<rect width="104" height="104" fill="white"/>
</clipPath>
</defs>
</svg>
