<svg width="88" height="88" viewBox="0 0 88 88" fill="none" xmlns="http://www.w3.org/2000/svg">
<path fill-rule="evenodd" clip-rule="evenodd" d="M71.2938 8.04268L74.9625 5.93866L77.7724 8.08117L74.1027 10.2577L71.2938 8.04268Z" fill="#22577A"/>
<path fill-rule="evenodd" clip-rule="evenodd" d="M63.7356 2.63067L67.7101 0L70.754 2.67852L66.7795 5.39877L63.7356 2.63067Z" fill="#22577A"/>
<path fill-rule="evenodd" clip-rule="evenodd" d="M58.8767 9.62103L64.6856 5.93866L69.1344 9.68822L63.3245 13.4969L58.8767 9.62103Z" fill="#22577A"/>
<path fill-rule="evenodd" clip-rule="evenodd" d="M54.5576 2.9069L58.2263 0.539871L61.0361 2.95019L57.3665 5.39877L54.5576 2.9069Z" fill="#22577A"/>
<path fill-rule="evenodd" clip-rule="evenodd" d="M77.2325 2.36754L80.9012 0L83.7111 2.41083L80.0414 4.8589L77.2325 2.36754Z" fill="#22577A"/>
<path fill-rule="evenodd" clip-rule="evenodd" d="M51.8897 3.77913C49.7344 5.00363 47.4188 6.29797 45.037 7.6765H4.88892V80.4417L16.9141 73.7452H11.9307V14.6849H33.9178C25.3934 20.7031 17.8017 28.12 15.3633 37.6443C11.1409 54.1129 33.8919 58.9928 44.2991 52.0533C16.4352 45.4945 42.3289 26.5415 57.2685 17.6313L53.7562 14.6179L47.2394 18.6358L42.9268 14.9355L49.4436 11.041L53.7533 14.6179L59.9564 10.9109L51.8897 3.77913Z" fill="#22577A"/>
<path fill-rule="evenodd" clip-rule="evenodd" d="M17.3941 80.168L13.8024 82.4203L11.0531 80.1267L14.6439 77.7958L17.3941 80.168ZM24.8455 85.5196L20.8999 87.9952L17.879 85.4746L21.8246 82.9147L24.8455 85.5196ZM29.5102 78.5623L23.9016 82.0802L19.6079 78.4971L25.2155 74.8565L29.5102 78.5623ZM33.9942 85.1987L30.4033 87.451L27.654 85.1575L31.2449 82.8275L33.9942 85.1987ZM4.88892 85.6231L8.47974 83.3707L11.23 85.67L7.63821 88L4.88892 85.6231ZM36.8735 84.3106C39.0213 83.0852 41.3288 81.789 43.7023 80.4084H83.711V7.55829L71.9211 14.2455H76.6938V73.3888H54.7827C63.2773 67.3617 70.8424 59.933 73.2723 50.3956C77.4799 33.9028 54.8085 29.0157 44.4377 35.9645C72.2041 42.53 46.4009 61.5109 31.5145 70.4332L35.0136 73.4511L41.5086 69.4273L45.8023 73.1301L39.3082 77.0313L35.0136 73.4482L28.8303 77.1683L36.8735 84.3106Z" fill="#57CC99"/>
</svg>