<svg width="152" height="40" viewBox="0 0 152 40" fill="none" xmlns="http://www.w3.org/2000/svg">
<path fill-rule="evenodd" clip-rule="evenodd" d="M32.4062 3.65578L34.0738 2.6994L35.351 3.67327L33.683 4.66259L32.4062 3.65578Z" fill="#22577A"/>
<path fill-rule="evenodd" clip-rule="evenodd" d="M28.9707 1.19576L30.7773 0L32.1609 1.21751L30.3543 2.45399L28.9707 1.19576Z" fill="#22577A"/>
<path fill-rule="evenodd" clip-rule="evenodd" d="M26.7622 4.37321L29.4026 2.6994L31.4248 4.40375L28.7839 6.13498L26.7622 4.37321Z" fill="#22577A"/>
<path fill-rule="evenodd" clip-rule="evenodd" d="M24.7988 1.32131L26.4664 0.245392L27.7436 1.34099L26.0756 2.45398L24.7988 1.32131Z" fill="#22577A"/>
<path fill-rule="evenodd" clip-rule="evenodd" d="M35.1055 1.07616L36.773 0L38.0503 1.09583L36.3822 2.20859L35.1055 1.07616Z" fill="#22577A"/>
<path fill-rule="evenodd" clip-rule="evenodd" d="M23.5862 1.71777C22.6065 2.27437 21.5539 2.8627 20.4713 3.4893H2.22217V36.5644L7.68814 33.5205H5.42298V6.67493H15.4171C11.5424 9.41049 8.09162 12.7818 6.98325 17.111C5.06399 24.5968 15.4053 26.8149 20.1359 23.6606C7.47048 20.6793 19.2404 12.0643 26.0311 8.01423L24.4346 6.64449L21.4724 8.47081L19.5121 6.78886L22.4743 5.01863L24.4333 6.64449L27.2528 4.95949L23.5862 1.71777Z" fill="#22577A"/>
<path fill-rule="evenodd" clip-rule="evenodd" d="M7.90636 36.44L6.27374 37.4638L5.02406 36.4212L6.65625 35.3617L7.90636 36.44ZM11.2933 38.8725L9.49987 39.9978L8.12674 38.8521L9.9202 37.6885L11.2933 38.8725ZM13.4136 35.7101L10.8643 37.3092L8.91263 35.6805L11.4615 34.0257L13.4136 35.7101ZM15.4518 38.7267L13.8196 39.7505L12.57 38.7079L14.2021 37.6488L15.4518 38.7267ZM2.22217 38.9196L3.85436 37.8958L5.10447 38.9409L3.47185 40L2.22217 38.9196ZM16.7606 38.323C17.7369 37.766 18.7858 37.1768 19.8646 36.5493H38.0504V3.43558L32.6913 6.47521H34.8608V33.3585H24.9011C28.7623 30.6189 32.201 27.2422 33.3055 22.9071C35.2181 15.4103 24.9129 13.189 20.1989 16.3475C32.82 19.3318 21.0913 27.9595 14.3247 32.0151L15.9152 33.3868L18.8675 31.5578L20.8191 33.2409L17.8673 35.0142L15.9152 33.3855L13.1046 35.0765L16.7606 38.323Z" fill="#57CC99"/>
<path d="M50.9374 15.2838C50.9374 15.0635 50.9035 14.8659 50.8358 14.6908C50.7736 14.5101 50.6551 14.3464 50.48 14.1995C50.3049 14.0471 50.0593 13.8974 49.7431 13.7506C49.4268 13.6038 49.0174 13.4513 48.5148 13.2932C47.9558 13.1125 47.4249 12.9092 46.9224 12.6833C46.4254 12.4574 45.9849 12.1948 45.6009 11.8955C45.2226 11.5906 44.9233 11.2376 44.7031 10.8367C44.4885 10.4358 44.3812 9.96988 44.3812 9.43906C44.3812 8.92518 44.4941 8.45929 44.72 8.04141C44.9459 7.61788 45.2621 7.25647 45.6687 6.95718C46.0753 6.65224 46.5553 6.41788 47.1087 6.25412C47.6678 6.09035 48.2805 6.00847 48.9468 6.00847C49.856 6.00847 50.6494 6.17224 51.3271 6.49976C52.0047 6.82729 52.5299 7.27624 52.9026 7.84659C53.2809 8.41694 53.4701 9.06918 53.4701 9.80329H50.9459C50.9459 9.44188 50.8696 9.12565 50.7172 8.85459C50.5704 8.57788 50.3445 8.36047 50.0395 8.20235C49.7402 8.04424 49.3619 7.96518 48.9045 7.96518C48.464 7.96518 48.0969 8.03294 47.8033 8.16847C47.5096 8.29835 47.2894 8.47624 47.1426 8.70212C46.9958 8.92235 46.9224 9.17082 46.9224 9.44753C46.9224 9.65647 46.9732 9.84565 47.0748 10.0151C47.1821 10.1845 47.3402 10.3426 47.5492 10.4894C47.7581 10.6362 48.0151 10.7746 48.32 10.9045C48.6249 11.0344 48.9779 11.1614 49.3788 11.2856C50.0508 11.4889 50.6409 11.7176 51.1492 11.9718C51.6631 12.2259 52.0922 12.5111 52.4367 12.8273C52.7812 13.1435 53.0409 13.5021 53.216 13.9031C53.3911 14.304 53.4786 14.7586 53.4786 15.2668C53.4786 15.8033 53.3741 16.2833 53.1652 16.7068C52.9562 17.1304 52.6541 17.4889 52.2588 17.7826C51.8635 18.0762 51.392 18.2993 50.8442 18.4518C50.2965 18.6042 49.6838 18.6805 49.0061 18.6805C48.3962 18.6805 47.7948 18.6014 47.2019 18.4433C46.6089 18.2795 46.0696 18.0339 45.584 17.7064C45.104 17.3788 44.72 16.9609 44.432 16.4527C44.144 15.9445 44 15.3431 44 14.6485H46.5496C46.5496 15.0325 46.6089 15.3572 46.7275 15.6226C46.8461 15.888 47.0127 16.1026 47.2273 16.2664C47.4475 16.4301 47.7073 16.5487 48.0066 16.6221C48.3115 16.6955 48.6447 16.7322 49.0061 16.7322C49.4466 16.7322 49.808 16.6701 50.0904 16.5459C50.3784 16.4216 50.5901 16.2494 50.7256 16.0292C50.8668 15.8089 50.9374 15.5605 50.9374 15.2838Z" fill="#22577A"/>
<path d="M65.3374 12.0565V12.6409C65.3374 13.5784 65.2104 14.4198 64.9562 15.1652C64.7021 15.9106 64.3435 16.5459 63.8805 17.0711C63.4174 17.5906 62.864 17.9887 62.2202 18.2654C61.5821 18.5421 60.8734 18.6805 60.0941 18.6805C59.3205 18.6805 58.6118 18.5421 57.968 18.2654C57.3299 17.9887 56.7765 17.5906 56.3078 17.0711C55.8391 16.5459 55.4748 15.9106 55.2151 15.1652C54.9609 14.4198 54.8339 13.5784 54.8339 12.6409V12.0565C54.8339 11.1134 54.9609 10.272 55.2151 9.53224C55.4692 8.78682 55.8278 8.15153 56.2908 7.62635C56.7595 7.10118 57.3129 6.70024 57.9511 6.42353C58.5948 6.14682 59.3035 6.00847 60.0772 6.00847C60.8565 6.00847 61.5652 6.14682 62.2033 6.42353C62.8471 6.70024 63.4005 7.10118 63.8635 7.62635C64.3322 8.15153 64.6936 8.78682 64.9478 9.53224C65.2075 10.272 65.3374 11.1134 65.3374 12.0565ZM62.7708 12.6409V12.0395C62.7708 11.3845 62.7115 10.8085 62.5929 10.3115C62.4744 9.81459 62.2993 9.39671 62.0678 9.05788C61.8362 8.71906 61.5539 8.46494 61.2207 8.29553C60.8875 8.12047 60.5064 8.03294 60.0772 8.03294C59.648 8.03294 59.2668 8.12047 58.9336 8.29553C58.6061 8.46494 58.3266 8.71906 58.0951 9.05788C57.8692 9.39671 57.6969 9.81459 57.5784 10.3115C57.4598 10.8085 57.4005 11.3845 57.4005 12.0395V12.6409C57.4005 13.2904 57.4598 13.8664 57.5784 14.3689C57.6969 14.8659 57.872 15.2866 58.1035 15.6311C58.3351 15.9699 58.6174 16.2268 58.9506 16.4019C59.2838 16.5769 59.6649 16.6645 60.0941 16.6645C60.5233 16.6645 60.9045 16.5769 61.2376 16.4019C61.5708 16.2268 61.8504 15.9699 62.0762 15.6311C62.3021 15.2866 62.4744 14.8659 62.5929 14.3689C62.7115 13.8664 62.7708 13.2904 62.7708 12.6409Z" fill="#22577A"/>
<path d="M70.9534 18.5111H68.2682L68.2852 16.5289H70.9534C71.6198 16.5289 72.1816 16.3793 72.6391 16.08C73.0965 15.7751 73.4409 15.3318 73.6725 14.7501C73.9096 14.1685 74.0282 13.4654 74.0282 12.6409V12.0395C74.0282 11.4071 73.9605 10.8508 73.8249 10.3708C73.6951 9.89082 73.5002 9.48706 73.2405 9.15953C72.9807 8.832 72.6616 8.58635 72.2833 8.42259C71.9049 8.25318 71.4701 8.16847 70.9788 8.16847H68.2174V6.17788H70.9788C71.8033 6.17788 72.5572 6.31906 73.2405 6.60141C73.9294 6.87812 74.5252 7.27624 75.0278 7.79576C75.5304 8.31529 75.9172 8.93647 76.1882 9.65929C76.4649 10.3765 76.6033 11.1755 76.6033 12.0565V12.6409C76.6033 13.5162 76.4649 14.3153 76.1882 15.0381C75.9172 15.7609 75.5304 16.3821 75.0278 16.9016C74.5308 17.4155 73.9351 17.8136 73.2405 18.096C72.5515 18.3727 71.7892 18.5111 70.9534 18.5111ZM69.7082 6.17788V18.5111H67.1671V6.17788H69.7082Z" fill="#22577A"/>
<path d="M83.2781 8.28706L79.9238 18.5111H77.2216L81.8042 6.17788H83.5238L83.2781 8.28706ZM86.0649 18.5111L82.7021 8.28706L82.4311 6.17788H84.1675L88.7755 18.5111H86.0649ZM85.9125 13.92V15.9106H79.3986V13.92H85.9125Z" fill="#22577A"/>
<path d="M92.6212 6.17788V18.5111H90.0885V6.17788H92.6212Z" fill="#22577A"/>
<path d="M105.039 6.17788V18.5111H102.498L97.5426 10.2438V18.5111H95.0014V6.17788H97.5426L102.506 14.4536V6.17788H105.039Z" fill="#22577A"/>
<path d="M112.417 8.28706L109.063 18.5111H106.36L110.943 6.17788H112.663L112.417 8.28706ZM115.204 18.5111L111.841 8.28706L111.57 6.17788H113.306L117.914 18.5111H115.204ZM115.051 13.92V15.9106H108.537V13.92H115.051Z" fill="#22577A"/>
<path d="M128.68 12.0649V16.9525C128.488 17.184 128.192 17.4353 127.791 17.7064C127.39 17.9718 126.873 18.2005 126.241 18.3925C125.608 18.5845 124.843 18.6805 123.945 18.6805C123.149 18.6805 122.424 18.5506 121.768 18.2908C121.113 18.0254 120.549 17.6386 120.074 17.1304C119.606 16.6221 119.244 16.0009 118.99 15.2668C118.736 14.5271 118.609 13.6828 118.609 12.7341V11.9633C118.609 11.0146 118.73 10.1704 118.973 9.43059C119.222 8.69082 119.575 8.06682 120.032 7.55859C120.489 7.05035 121.034 6.66353 121.667 6.39812C122.299 6.13271 123.002 6 123.776 6C124.849 6 125.73 6.17506 126.419 6.52518C127.108 6.86965 127.633 7.34965 127.994 7.96518C128.361 8.57506 128.587 9.27529 128.672 10.0659H126.207C126.145 9.648 126.026 9.28377 125.851 8.97318C125.676 8.66259 125.425 8.41976 125.097 8.24471C124.776 8.06965 124.358 7.98212 123.844 7.98212C123.42 7.98212 123.042 8.06965 122.709 8.24471C122.381 8.41412 122.104 8.66541 121.879 8.99859C121.653 9.33176 121.48 9.744 121.362 10.2353C121.243 10.7266 121.184 11.2969 121.184 11.9464V12.7341C121.184 13.3779 121.246 13.9482 121.37 14.4452C121.495 14.9365 121.678 15.3515 121.921 15.6904C122.169 16.0235 122.474 16.2748 122.836 16.4442C123.197 16.6136 123.618 16.6984 124.098 16.6984C124.499 16.6984 124.832 16.6645 125.097 16.5967C125.368 16.5289 125.586 16.4471 125.75 16.3511C125.919 16.2494 126.049 16.1534 126.139 16.0631V13.8776H123.818V12.0649H128.68Z" fill="#22577A"/>
<path d="M135.745 8.28706L132.391 18.5111H129.688L134.271 6.17788H135.991L135.745 8.28706ZM138.532 18.5111L135.169 8.28706L134.898 6.17788H136.634L141.242 18.5111H138.532ZM138.379 13.92V15.9106H131.865V13.92H138.379Z" fill="#22577A"/>
<path d="M142.386 6.17788H146.985C147.928 6.17788 148.739 6.31906 149.416 6.60141C150.1 6.88376 150.625 7.30165 150.992 7.85506C151.359 8.40847 151.543 9.08894 151.543 9.89647C151.543 10.5572 151.43 11.1247 151.204 11.5991C150.984 12.0678 150.67 12.4602 150.264 12.7765C149.863 13.0871 149.391 13.3355 148.849 13.5219L148.044 13.9454H144.046L144.029 11.9633H147.002C147.448 11.9633 147.818 11.8842 148.112 11.7261C148.406 11.568 148.626 11.3478 148.773 11.0654C148.925 10.7831 149.001 10.4555 149.001 10.0828C149.001 9.68753 148.928 9.34588 148.781 9.05788C148.634 8.76988 148.411 8.54965 148.112 8.39718C147.813 8.24471 147.437 8.16847 146.985 8.16847H144.927V18.5111H142.386V6.17788ZM149.281 18.5111L146.469 13.0136L149.154 12.9967L152 18.3925V18.5111H149.281Z" fill="#22577A"/>
<path d="M50.8593 26.9282C50.8593 27.5042 50.7864 28.0281 50.6407 28.4999C50.495 28.9648 50.2764 29.3673 49.985 29.7073C49.7005 30.0473 49.3431 30.3076 48.9129 30.488C48.4896 30.6684 47.9969 30.7586 47.4349 30.7586C46.852 30.7586 46.3454 30.6684 45.9152 30.488C45.485 30.3006 45.1276 30.0404 44.8431 29.7073C44.5586 29.3673 44.347 28.9614 44.2082 28.4895C44.0694 28.0176 44 27.4937 44 26.9178C44 26.1545 44.1249 25.4883 44.3747 24.9193C44.6245 24.3503 45.0027 23.9062 45.5093 23.587C46.0227 23.2678 46.6681 23.1082 47.4453 23.1082C48.1878 23.1082 48.8123 23.2678 49.3188 23.587C49.8254 23.8993 50.207 24.3434 50.4638 24.9193C50.7275 25.4883 50.8593 26.158 50.8593 26.9282ZM44.9888 26.9282C44.9888 27.5527 45.0756 28.0905 45.249 28.5416C45.4225 28.9926 45.6897 29.3395 46.0505 29.5824C46.4183 29.8253 46.8797 29.9467 47.4349 29.9467C47.9969 29.9467 48.4549 29.8253 48.8088 29.5824C49.1696 29.3395 49.4368 28.9926 49.6103 28.5416C49.7837 28.0905 49.8705 27.5527 49.8705 26.9282C49.8705 25.9914 49.6762 25.2594 49.2876 24.732C48.899 24.1977 48.2849 23.9305 47.4453 23.9305C46.8832 23.9305 46.4183 24.0519 46.0505 24.2948C45.6897 24.5307 45.4225 24.8742 45.249 25.3253C45.0756 25.7694 44.9888 26.3037 44.9888 26.9282Z" fill="#57CC99"/>
<path d="M56.9406 24.9714C57.6067 24.9714 58.1098 25.1344 58.4498 25.4606C58.7898 25.7798 58.9598 26.3002 58.9598 27.0219V30.6545H58.0543V27.0843C58.0543 26.6333 57.9537 26.2967 57.7524 26.0747C57.5512 25.8526 57.2355 25.7416 56.8053 25.7416C56.1877 25.7416 55.7609 25.9151 55.525 26.2621C55.2891 26.609 55.1711 27.1086 55.1711 27.7609V30.6545H54.2551V25.0755H54.9941L55.1295 25.8353H55.1815C55.3064 25.641 55.4591 25.4814 55.6395 25.3565C55.8268 25.2247 56.0315 25.1275 56.2536 25.0651C56.4756 25.0026 56.7046 24.9714 56.9406 24.9714Z" fill="#57CC99"/>
<path d="M63.4789 30.6545H62.5629V22.7439H63.4789V30.6545Z" fill="#57CC99"/>
<path d="M68.036 25.0755V30.6545H67.12V25.0755H68.036ZM67.5884 22.9833C67.7272 22.9833 67.8486 23.0319 67.9527 23.129C68.0637 23.2193 68.1192 23.365 68.1192 23.5662C68.1192 23.7605 68.0637 23.9062 67.9527 24.0034C67.8486 24.1005 67.7272 24.1491 67.5884 24.1491C67.4357 24.1491 67.3073 24.1005 67.2033 24.0034C67.0992 23.9062 67.0471 23.7605 67.0471 23.5662C67.0471 23.365 67.0992 23.2193 67.2033 23.129C67.3073 23.0319 67.4357 22.9833 67.5884 22.9833Z" fill="#57CC99"/>
<path d="M74.3625 24.9714C75.0286 24.9714 75.5317 25.1344 75.8717 25.4606C76.2117 25.7798 76.3817 26.3002 76.3817 27.0219V30.6545H75.4762V27.0843C75.4762 26.6333 75.3756 26.2967 75.1743 26.0747C74.9731 25.8526 74.6574 25.7416 74.2272 25.7416C73.6096 25.7416 73.1828 25.9151 72.9469 26.2621C72.711 26.609 72.593 27.1086 72.593 27.7609V30.6545H71.677V25.0755H72.416L72.5514 25.8353H72.6034C72.7283 25.641 72.881 25.4814 73.0614 25.3565C73.2487 25.2247 73.4534 25.1275 73.6755 25.0651C73.8975 25.0026 74.1265 24.9714 74.3625 24.9714Z" fill="#57CC99"/>
<path d="M82.1394 24.9714C82.6182 24.9714 83.0276 25.0755 83.3677 25.2836C83.7146 25.4918 83.9783 25.7867 84.1587 26.1684C84.3461 26.5431 84.4398 26.9837 84.4398 27.4903V28.0419H80.6198C80.6337 28.6734 80.7933 29.1557 81.0986 29.4887C81.4108 29.8149 81.8445 29.9779 82.3997 29.9779C82.7536 29.9779 83.0658 29.9467 83.3364 29.8843C83.614 29.8149 83.8985 29.7177 84.1899 29.5928V30.3943C83.9054 30.5192 83.6244 30.6094 83.3468 30.6649C83.0693 30.7274 82.7397 30.7586 82.358 30.7586C81.8307 30.7586 81.3623 30.651 80.9529 30.4359C80.5504 30.2208 80.2347 29.9016 80.0057 29.4783C79.7836 29.0481 79.6726 28.5242 79.6726 27.9066C79.6726 27.296 79.7732 26.7721 79.9744 26.3349C80.1826 25.8978 80.4706 25.5612 80.8384 25.3253C81.2131 25.0893 81.6468 24.9714 82.1394 24.9714ZM82.129 25.7208C81.6919 25.7208 81.3449 25.8631 81.0882 26.1476C80.8384 26.4251 80.6892 26.8137 80.6406 27.3133H83.4822C83.4822 26.9941 83.4336 26.7166 83.3364 26.4806C83.2393 26.2447 83.0901 26.0608 82.8889 25.929C82.6946 25.7902 82.4413 25.7208 82.129 25.7208Z" fill="#57CC99"/>
<path d="M95.9436 29.114C95.9436 29.4749 95.8534 29.7767 95.673 30.0196C95.4926 30.2624 95.2358 30.4463 94.9027 30.5712C94.5697 30.6961 94.1741 30.7586 93.7161 30.7586C93.3276 30.7586 92.991 30.7274 92.7065 30.6649C92.4289 30.6025 92.1826 30.5157 91.9675 30.4047V29.572C92.1895 29.683 92.4567 29.7871 92.769 29.8843C93.0882 29.9745 93.4108 30.0196 93.737 30.0196C94.2019 30.0196 94.5384 29.9467 94.7466 29.801C94.9548 29.6483 95.0589 29.4471 95.0589 29.1973C95.0589 29.0585 95.0207 28.9336 94.9444 28.8226C94.868 28.7116 94.7293 28.6005 94.528 28.4895C94.3337 28.3785 94.0527 28.2536 93.6849 28.1148C93.3241 27.976 93.0153 27.8372 92.7585 27.6984C92.5018 27.5597 92.304 27.3931 92.1653 27.1988C92.0265 27.0045 91.9571 26.7547 91.9571 26.4494C91.9571 25.9776 92.1479 25.6132 92.5296 25.3565C92.9181 25.0998 93.4247 24.9714 94.0492 24.9714C94.3892 24.9714 94.705 25.0061 94.9964 25.0755C95.2948 25.1379 95.5724 25.2281 95.8291 25.3461L95.5168 26.0747C95.3642 26.0053 95.2011 25.9463 95.0276 25.8978C94.8611 25.8422 94.6911 25.8006 94.5176 25.7728C94.3441 25.7382 94.1672 25.7208 93.9868 25.7208C93.6121 25.7208 93.3241 25.7833 93.1229 25.9082C92.9286 26.0261 92.8314 26.1892 92.8314 26.3974C92.8314 26.55 92.8765 26.6819 92.9667 26.7929C93.0569 26.897 93.2061 27.0011 93.4143 27.1052C93.6294 27.2023 93.9139 27.3203 94.2678 27.459C94.6217 27.5909 94.9235 27.7262 95.1734 27.865C95.4232 28.0038 95.614 28.1738 95.7458 28.375C95.8777 28.5693 95.9436 28.8156 95.9436 29.114Z" fill="#57CC99"/>
<path d="M100.081 25.0651C100.081 25.1969 100.074 25.3322 100.06 25.471C100.053 25.6098 100.043 25.7347 100.029 25.8457H100.092C100.21 25.6514 100.359 25.4918 100.539 25.3669C100.72 25.242 100.921 25.1483 101.143 25.0859C101.365 25.0165 101.594 24.9818 101.83 24.9818C102.281 24.9818 102.656 25.0546 102.954 25.2004C103.259 25.3392 103.488 25.5577 103.641 25.8561C103.794 26.1545 103.87 26.5431 103.87 27.0219V30.6545H102.964V27.0843C102.964 26.6333 102.864 26.2967 102.663 26.0747C102.461 25.8526 102.146 25.7416 101.715 25.7416C101.299 25.7416 100.973 25.8214 100.737 25.981C100.501 26.1337 100.331 26.3627 100.227 26.668C100.13 26.9664 100.081 27.3341 100.081 27.7713V30.6545H99.1652V22.7439H100.081V25.0651Z" fill="#57CC99"/>
<path d="M112.323 27.8546C112.323 28.3195 112.261 28.7324 112.136 29.0932C112.018 29.4471 111.845 29.749 111.616 29.9988C111.394 30.2486 111.12 30.4394 110.793 30.5712C110.474 30.6961 110.117 30.7586 109.721 30.7586C109.354 30.7586 109.014 30.6961 108.701 30.5712C108.389 30.4394 108.118 30.2486 107.889 29.9988C107.66 29.749 107.48 29.4471 107.348 29.0932C107.223 28.7324 107.161 28.3195 107.161 27.8546C107.161 27.237 107.265 26.7166 107.473 26.2933C107.681 25.8631 107.98 25.5369 108.368 25.3149C108.757 25.0859 109.218 24.9714 109.753 24.9714C110.259 24.9714 110.703 25.0859 111.085 25.3149C111.473 25.5369 111.775 25.8631 111.99 26.2933C112.212 26.7166 112.323 27.237 112.323 27.8546ZM108.108 27.8546C108.108 28.2917 108.163 28.6734 108.275 28.9995C108.392 29.3187 108.573 29.5651 108.816 29.7385C109.059 29.912 109.367 29.9988 109.742 29.9988C110.117 29.9988 110.426 29.912 110.669 29.7385C110.911 29.5651 111.088 29.3187 111.199 28.9995C111.317 28.6734 111.376 28.2917 111.376 27.8546C111.376 27.4105 111.317 27.0323 111.199 26.72C111.081 26.4078 110.901 26.1684 110.658 26.0018C110.422 25.8284 110.113 25.7416 109.732 25.7416C109.163 25.7416 108.75 25.929 108.493 26.3037C108.236 26.6784 108.108 27.1954 108.108 27.8546Z" fill="#57CC99"/>
<path d="M118.303 24.9714C118.99 24.9714 119.542 25.2108 119.958 25.6896C120.381 26.1684 120.593 26.89 120.593 27.8546C120.593 28.486 120.496 29.0203 120.301 29.4575C120.114 29.8877 119.847 30.2139 119.5 30.4359C119.16 30.651 118.757 30.7586 118.293 30.7586C118.008 30.7586 117.755 30.7204 117.533 30.6441C117.311 30.5678 117.12 30.4706 116.96 30.3527C116.808 30.2278 116.676 30.0924 116.565 29.9467H116.502C116.516 30.0647 116.53 30.2139 116.544 30.3943C116.558 30.5747 116.565 30.7308 116.565 30.8627V33.1526H115.649V25.0755H116.398L116.523 25.8353H116.565C116.676 25.6757 116.808 25.53 116.96 25.3981C117.12 25.2663 117.307 25.1622 117.522 25.0859C117.744 25.0095 118.005 24.9714 118.303 24.9714ZM118.136 25.7416C117.762 25.7416 117.46 25.8145 117.231 25.9602C117.002 26.099 116.835 26.3106 116.731 26.5951C116.627 26.8796 116.572 27.2405 116.565 27.6776V27.8546C116.565 28.3126 116.613 28.7011 116.71 29.0203C116.808 29.3395 116.971 29.5824 117.2 29.749C117.436 29.9155 117.755 29.9988 118.157 29.9988C118.497 29.9988 118.775 29.9051 118.99 29.7177C119.212 29.5304 119.375 29.2771 119.479 28.9579C119.59 28.6318 119.646 28.2605 119.646 27.8442C119.646 27.2058 119.521 26.6957 119.271 26.3141C119.028 25.9324 118.65 25.7416 118.136 25.7416Z" fill="#57CC99"/>
<path d="M126.58 24.9714C127.267 24.9714 127.819 25.2108 128.235 25.6896C128.659 26.1684 128.87 26.89 128.87 27.8546C128.87 28.486 128.773 29.0203 128.579 29.4575C128.391 29.8877 128.124 30.2139 127.777 30.4359C127.437 30.651 127.035 30.7586 126.57 30.7586C126.285 30.7586 126.032 30.7204 125.81 30.6441C125.588 30.5678 125.397 30.4706 125.238 30.3527C125.085 30.2278 124.953 30.0924 124.842 29.9467H124.78C124.793 30.0647 124.807 30.2139 124.821 30.3943C124.835 30.5747 124.842 30.7308 124.842 30.8627V33.1526H123.926V25.0755H124.675L124.8 25.8353H124.842C124.953 25.6757 125.085 25.53 125.238 25.3981C125.397 25.2663 125.585 25.1622 125.8 25.0859C126.022 25.0095 126.282 24.9714 126.58 24.9714ZM126.414 25.7416C126.039 25.7416 125.737 25.8145 125.508 25.9602C125.279 26.099 125.113 26.3106 125.009 26.5951C124.904 26.8796 124.849 27.2405 124.842 27.6776V27.8546C124.842 28.3126 124.891 28.7011 124.988 29.0203C125.085 29.3395 125.248 29.5824 125.477 29.749C125.713 29.9155 126.032 29.9988 126.435 29.9988C126.775 29.9988 127.052 29.9051 127.267 29.7177C127.489 29.5304 127.652 29.2771 127.756 28.9579C127.867 28.6318 127.923 28.2605 127.923 27.8442C127.923 27.2058 127.798 26.6957 127.548 26.3141C127.305 25.9324 126.927 25.7416 126.414 25.7416Z" fill="#57CC99"/>
<path d="M133.119 25.0755V30.6545H132.203V25.0755H133.119ZM132.672 22.9833C132.811 22.9833 132.932 23.0319 133.036 23.129C133.147 23.2193 133.203 23.365 133.203 23.5662C133.203 23.7605 133.147 23.9062 133.036 24.0034C132.932 24.1005 132.811 24.1491 132.672 24.1491C132.519 24.1491 132.391 24.1005 132.287 24.0034C132.183 23.9062 132.131 23.7605 132.131 23.5662C132.131 23.365 132.183 23.2193 132.287 23.129C132.391 23.0319 132.519 22.9833 132.672 22.9833Z" fill="#57CC99"/>
<path d="M139.446 24.9714C140.112 24.9714 140.615 25.1344 140.955 25.4606C141.295 25.7798 141.465 26.3002 141.465 27.0219V30.6545H140.56V27.0843C140.56 26.6333 140.459 26.2967 140.258 26.0747C140.057 25.8526 139.741 25.7416 139.311 25.7416C138.693 25.7416 138.266 25.9151 138.03 26.2621C137.794 26.609 137.676 27.1086 137.676 27.7609V30.6545H136.76V25.0755H137.499L137.635 25.8353H137.687C137.812 25.641 137.964 25.4814 138.145 25.3565C138.332 25.2247 138.537 25.1275 138.759 25.0651C138.981 25.0026 139.21 24.9714 139.446 24.9714Z" fill="#57CC99"/>
<path d="M147.046 24.9714C147.414 24.9714 147.743 25.0408 148.035 25.1796C148.333 25.3183 148.586 25.53 148.795 25.8145H148.847L148.971 25.0755H149.7V30.7482C149.7 31.2756 149.61 31.7162 149.429 32.0701C149.249 32.4309 148.975 32.7015 148.607 32.882C148.239 33.0624 147.771 33.1526 147.202 33.1526C146.8 33.1526 146.428 33.1214 146.088 33.0589C145.755 33.0034 145.457 32.9167 145.193 32.7987V31.9556C145.374 32.0458 145.571 32.1221 145.786 32.1846C146.002 32.254 146.234 32.306 146.484 32.3407C146.734 32.3754 146.99 32.3928 147.254 32.3928C147.733 32.3928 148.108 32.2505 148.378 31.966C148.656 31.6884 148.795 31.3068 148.795 30.821V30.6025C148.795 30.5192 148.798 30.4012 148.805 30.2486C148.812 30.089 148.819 29.9779 148.826 29.9155H148.784C148.59 30.2 148.347 30.4116 148.056 30.5504C147.771 30.6892 147.438 30.7586 147.056 30.7586C146.335 30.7586 145.769 30.5053 145.36 29.9988C144.957 29.4922 144.756 28.7844 144.756 27.8754C144.756 27.2786 144.846 26.7651 145.027 26.3349C145.214 25.8978 145.478 25.5612 145.818 25.3253C146.158 25.0893 146.567 24.9714 147.046 24.9714ZM147.171 25.7416C146.859 25.7416 146.591 25.8249 146.369 25.9914C146.154 26.158 145.988 26.4008 145.87 26.72C145.759 27.0392 145.703 27.4278 145.703 27.8858C145.703 28.5728 145.828 29.1001 146.078 29.4679C146.335 29.8288 146.706 30.0092 147.192 30.0092C147.476 30.0092 147.719 29.9745 147.92 29.9051C148.121 29.8288 148.288 29.7143 148.42 29.5616C148.552 29.402 148.649 29.2008 148.711 28.9579C148.774 28.715 148.805 28.4271 148.805 28.094V27.8754C148.805 27.3688 148.746 26.9594 148.628 26.6472C148.517 26.3349 148.34 26.1059 148.097 25.9602C147.854 25.8145 147.546 25.7416 147.171 25.7416Z" fill="#57CC99"/>
</svg>
