<svg width="162" height="36" viewBox="0 0 162 36" fill="none" xmlns="http://www.w3.org/2000/svg">
<g clip-path="url(#clip0_13_33)">
<path fill-rule="evenodd" clip-rule="evenodd" d="M23.3835 31.6671H11.4017C11.0463 31.6671 10.7054 31.8091 10.4541 32.0617C10.2027 32.3143 10.0615 32.657 10.0615 33.0142C10.0615 33.3715 10.2027 33.7142 10.4541 33.9668C10.7054 34.2194 11.0463 34.3613 11.4017 34.3613H31.7223C31.9217 34.3615 32.116 34.2981 32.2773 34.1802C32.4386 34.0624 32.5585 33.8961 32.6199 33.7054L37.3056 15.5018H26.0839C23.6511 15.3787 22.3334 17.9045 24.1061 19.2993C24.7102 19.7303 25.3643 20.0857 26.0539 20.3574L26.804 20.6992C27.7419 21.098 28.5917 21.6797 29.3044 22.4108C29.9245 23.081 30.2345 24.0025 30.2345 25.1754C30.2345 27.5211 29.5886 29.1891 28.2967 30.1793C26.9723 31.1773 25.3536 31.7011 23.6986 31.6671C23.5961 31.6671 23.491 31.6671 23.3835 31.6671Z" fill="#22577A"/>
<path fill-rule="evenodd" clip-rule="evenodd" d="M16.3224 8.85171H14.1471L14.3397 8.32393C15.9974 3.7699 20.8031 0 25.7113 0C30.5596 0 33.6125 3.74727 32.7999 8.52499L32.7449 8.85171H30.6121L30.6821 8.39933C31.2272 4.82546 28.9618 2.13124 25.3513 2.13124C21.5357 2.13124 17.7627 5.06926 16.4175 8.59788L16.3224 8.84921V8.85171ZM5.55083 28.9729H23.391C24.0409 28.99 24.6834 28.8312 25.2513 28.513C25.9864 28.0832 26.9465 26.1731 25.4213 24.9768C24.8125 24.5602 24.1582 24.2153 23.471 23.9489C22.9809 23.7378 22.6134 23.5702 22.3683 23.4462C21.4958 23.04 20.7225 22.4464 20.103 21.7071C19.5529 21.0235 19.2779 20.0751 19.2779 18.862C19.2779 16.7392 19.9447 15.1985 21.2782 14.2401C22.6117 13.2818 24.2136 12.8076 26.0839 12.8176H38.0107L38.4383 11.1589C38.4383 11.1313 38.4383 11.1011 38.4383 11.0709C38.4376 10.8194 38.3377 10.5784 38.1605 10.4008C37.9834 10.2232 37.7433 10.1234 37.4931 10.1234H12.1843C11.8289 10.1234 11.488 10.2654 11.2367 10.518C10.9853 10.7706 10.8441 11.1133 10.8441 11.4705C10.8441 11.8278 10.9853 12.1705 11.2367 12.4231C11.488 12.6757 11.8289 12.8176 12.1843 12.8176H12.4844C12.8398 12.8176 13.1807 12.9596 13.432 13.2122C13.6834 13.4648 13.8246 13.8075 13.8246 14.1648C13.8246 14.522 13.6834 14.8647 13.432 15.1173C13.1807 15.3699 12.8398 15.5119 12.4844 15.5119H7.67615C7.32071 15.5119 6.97982 15.6538 6.72848 15.9064C6.47715 16.1591 6.33595 16.5017 6.33595 16.859C6.33595 17.2163 6.47715 17.5589 6.72848 17.8115C6.97982 18.0642 7.32071 18.2061 7.67615 18.2061H13.5645C13.92 18.2061 14.2609 18.348 14.5122 18.6006C14.7635 18.8533 14.9047 19.1959 14.9047 19.5532C14.9047 19.9105 14.7635 20.2531 14.5122 20.5057C14.2609 20.7584 13.92 20.9003 13.5645 20.9003H10.4366C10.0811 20.9003 9.74023 21.0422 9.48889 21.2949C9.23755 21.5475 9.09636 21.8901 9.09636 22.2474C9.09636 22.6047 9.23755 22.9473 9.48889 23.2C9.74023 23.4526 10.0811 23.5945 10.4366 23.5945H10.9366C11.2921 23.5945 11.633 23.7364 11.8843 23.9891C12.1356 24.2417 12.2768 24.5844 12.2768 24.9416C12.2768 25.2989 12.1356 25.6416 11.8843 25.8942C11.633 26.1468 11.2921 26.2887 10.9366 26.2887H5.55083C5.19539 26.2887 4.8545 26.4307 4.60317 26.6833C4.35183 26.9359 4.21064 27.2786 4.21064 27.6359C4.21064 27.9931 4.35183 28.3358 4.60317 28.5884C4.8545 28.841 5.19539 28.983 5.55083 28.983V28.9729ZM5.73336 11.4605C5.73468 11.8173 5.8763 12.1592 6.12735 12.4116C6.3784 12.6639 6.71852 12.8063 7.07356 12.8076H8.41376C8.76921 12.8076 9.11009 12.6657 9.36143 12.413C9.61277 12.1604 9.75396 11.8178 9.75396 11.4605C9.75396 11.1032 9.61277 10.7606 9.36143 10.5079C9.11009 10.2553 8.76921 10.1134 8.41376 10.1134H7.07356C6.71832 10.114 6.37782 10.2562 6.12662 10.5087C5.87543 10.7612 5.73402 11.1034 5.73336 11.4605ZM6.38345 23.5845C6.7389 23.5845 7.07978 23.4425 7.33112 23.1899C7.58246 22.9373 7.72366 22.5946 7.72366 22.2374C7.72366 21.8801 7.58246 21.5374 7.33112 21.2848C7.07978 21.0322 6.7389 20.8903 6.38345 20.8903H1.3402C0.984761 20.8903 0.643874 21.0322 0.392538 21.2848C0.141201 21.5374 0 21.8801 0 22.2374C0 22.5946 0.141201 22.9373 0.392538 23.1899C0.643874 23.4425 0.984761 23.5845 1.3402 23.5845H6.38345ZM17.0851 26.2787H15.1573C14.8527 26.2786 14.5572 26.1742 14.3195 25.9827C14.0818 25.7912 13.9161 25.524 13.8498 25.2252C13.7834 24.9264 13.8202 24.6137 13.9543 24.3388C14.0883 24.0638 14.3116 23.843 14.5872 23.7126C14.7653 23.6275 14.9601 23.5837 15.1573 23.5845H17.0851C17.4405 23.5845 17.7814 23.7264 18.0327 23.979C18.2841 24.2317 18.4253 24.5743 18.4253 24.9316C18.4253 25.2889 18.2841 25.6315 18.0327 25.8841C17.7814 26.1368 17.4405 26.2787 17.0851 26.2787Z" fill="#57CC99"/>
<path d="M49.7848 16.6327C49.7848 16.7016 49.7848 16.7956 49.7661 16.9209C49.7474 17.0462 49.738 17.181 49.7131 17.3282C49.6881 17.4754 49.657 17.6415 49.6196 17.7825C49.5847 17.9267 49.5388 18.0681 49.4824 18.2054C49.4374 18.3173 49.3776 18.4226 49.3048 18.5187C49.2811 18.5539 49.2497 18.5833 49.2129 18.6045C49.1762 18.6257 49.1351 18.6381 49.0929 18.6408C48.9386 18.6283 48.7903 18.5754 48.6627 18.4873C48.4882 18.384 48.2763 18.2712 48.0394 18.1521C47.7527 18.0191 47.4569 17.9071 47.1542 17.8169C46.7817 17.708 46.3952 17.6553 46.0073 17.6603C45.6217 17.6499 45.2377 17.7137 44.8759 17.8482C44.5921 17.9559 44.334 18.1224 44.1185 18.337C43.9257 18.5308 43.7759 18.7636 43.6791 19.0199C43.5874 19.2643 43.5399 19.5231 43.5388 19.7843C43.5322 20.0628 43.6093 20.3369 43.7601 20.5706C43.9218 20.8109 44.1218 21.0226 44.3523 21.1972C44.6201 21.4052 44.9023 21.5936 45.1969 21.7611C45.5086 21.9428 45.8358 22.1339 46.16 22.3313C46.4841 22.5287 46.8114 22.7667 47.1231 22.9954C47.4387 23.2312 47.7226 23.5071 47.9677 23.8162C48.2211 24.1368 48.4211 24.4965 48.5599 24.8814C48.7152 25.326 48.7902 25.795 48.7812 26.2661C48.7874 27.0147 48.6277 27.7552 48.3137 28.434C47.9988 29.1008 47.5462 29.6925 46.9859 30.1696C46.3734 30.6856 45.669 31.08 44.9102 31.3319C44.0412 31.6222 43.1299 31.7641 42.2142 31.7517C41.7167 31.7562 41.22 31.7132 40.7306 31.6232C40.3227 31.5478 39.9206 31.4431 39.5276 31.3099C39.2216 31.2059 38.9254 31.0748 38.6424 30.9183C38.4481 30.8139 38.2697 30.682 38.1126 30.5267C37.9864 30.3698 37.925 30.1702 37.9411 29.9691C37.9423 29.8643 37.9496 29.7597 37.963 29.6558C37.9817 29.5242 38.0035 29.3801 38.0315 29.2266C38.0596 29.0731 38.097 28.9133 38.1375 28.7567C38.1741 28.6052 38.2242 28.4574 38.2871 28.315C38.3342 28.2014 38.3983 28.0957 38.4772 28.0017C38.504 27.9656 38.5381 27.9357 38.5774 27.9141C38.6167 27.8925 38.6601 27.8796 38.7047 27.8764C38.887 27.8919 39.061 27.9593 39.2065 28.0706C39.3998 28.1991 39.6398 28.3369 39.9296 28.4904C40.258 28.6616 40.5999 28.8052 40.9519 28.9196C41.4121 29.0617 41.8918 29.1294 42.3732 29.1201C42.8065 29.1282 43.2382 29.0647 43.651 28.9321C43.9872 28.8241 44.2994 28.6518 44.5705 28.4246C44.8114 28.2189 45.0041 27.9621 45.1346 27.6727C45.2643 27.3768 45.3291 27.0562 45.3247 26.7329C45.3302 26.4476 45.2534 26.1669 45.1034 25.9246C44.9418 25.6854 44.7429 25.4738 44.5144 25.2981C44.2573 25.0892 43.9831 24.9027 43.6947 24.7404C43.383 24.565 43.0713 24.3802 42.7596 24.1797C42.448 23.9792 42.1363 23.7661 41.8246 23.5343C41.514 23.3015 41.2353 23.0287 40.9956 22.7229C40.7451 22.398 40.5474 22.0353 40.4096 21.6483C40.2546 21.1939 40.1797 20.7158 40.1883 20.2354C40.1806 19.5237 40.3318 18.8193 40.6309 18.1741C40.9269 17.5511 41.352 16.9988 41.8776 16.5544C42.4347 16.0851 43.0757 15.7268 43.7663 15.4986C44.5459 15.2379 45.3634 15.1098 46.1849 15.1196C46.5785 15.118 46.9716 15.1494 47.3599 15.2135C47.7023 15.2697 48.0407 15.3482 48.3729 15.4485C48.6413 15.5268 48.9012 15.6318 49.149 15.7618C49.3088 15.8403 49.4585 15.9381 49.5946 16.0531C49.6701 16.1233 49.7314 16.2073 49.7754 16.3006C49.799 16.4098 49.8021 16.5224 49.7848 16.6327Z" fill="#22577A"/>
<path d="M62.3577 23.7066C62.356 24.3224 62.2996 24.9367 62.1894 25.5424C62.0796 26.1742 61.9041 26.7927 61.6658 27.3877C61.4271 27.9852 61.1184 28.552 60.7464 29.0762C60.3688 29.6037 59.915 30.0714 59.3999 30.4641C58.8555 30.8739 58.248 31.1914 57.6016 31.4039C56.1571 31.8446 54.6178 31.8631 53.1633 31.4572C52.6026 31.2883 52.0862 30.9962 51.6517 30.6019C51.2427 30.2187 50.9325 29.7414 50.7478 29.211C50.5375 28.607 50.432 27.9712 50.4362 27.3313C50.4379 26.7155 50.4942 26.1011 50.6044 25.4954C50.7149 24.8658 50.8904 24.2495 51.1281 23.6565C51.3744 23.0575 51.6881 22.4888 52.0631 21.9616C52.8354 20.8636 53.9376 20.0434 55.2079 19.6214C56.6517 19.1765 58.1922 19.158 59.6461 19.5681C60.2075 19.7377 60.7247 20.0298 61.1609 20.4234C61.5678 20.8077 61.8768 21.2848 62.0616 21.8144C62.2681 22.4233 62.3683 23.0634 62.3577 23.7066ZM59.1475 23.9165C59.1507 23.6052 59.1151 23.2947 59.0415 22.9923C58.9813 22.7405 58.8628 22.5064 58.6955 22.3094C58.5267 22.1169 58.3123 21.9704 58.0722 21.8833C57.7778 21.7756 57.4659 21.7246 57.1527 21.7329C56.7684 21.7275 56.388 21.81 56.0401 21.9741C55.7101 22.1373 55.4115 22.358 55.158 22.6258C54.892 22.9067 54.6655 23.2229 54.4848 23.5656C54.2937 23.9295 54.1362 24.3101 54.0142 24.7028C53.8929 25.0983 53.8023 25.5026 53.743 25.9121C53.6874 26.3012 53.6583 26.6938 53.6558 27.0869C53.652 27.4034 53.6876 27.7191 53.7617 28.0267C53.8238 28.2798 53.9421 28.5154 54.1077 28.716C54.2776 28.9071 54.4917 29.0534 54.731 29.142C55.0303 29.2517 55.3477 29.3028 55.666 29.2924C56.0503 29.2979 56.4308 29.2154 56.7787 29.0512C57.1099 28.8873 57.4088 28.6644 57.6608 28.3933C57.926 28.1117 58.1524 27.7956 58.334 27.4535C58.5256 27.0877 58.6832 26.7049 58.8046 26.31C58.9249 25.9142 59.0155 25.51 59.0758 25.1007C59.1274 24.705 59.1514 24.3062 59.1475 23.9071V23.9165Z" fill="#22577A"/>
<path d="M73.7806 31.0593C73.757 31.1516 73.7079 31.2354 73.639 31.3008C73.57 31.3662 73.484 31.4107 73.391 31.429C73.0347 31.5196 72.6673 31.5575 72.3001 31.5418C72.0445 31.5418 71.8357 31.5418 71.6768 31.5167C71.545 31.5067 71.415 31.4793 71.2903 31.4353C71.2499 31.4249 71.212 31.4066 71.1788 31.3813C71.1457 31.356 71.1178 31.3243 71.097 31.288C71.068 31.2154 71.0615 31.1357 71.0783 31.0593L71.4118 29.283C71.2597 29.5916 71.0598 29.8739 70.8197 30.1195C70.5326 30.4273 70.2092 30.6988 69.8566 30.9277C69.4747 31.183 69.0621 31.3883 68.6286 31.5386C68.1809 31.6914 67.7112 31.7686 67.2385 31.7673C66.8222 31.7755 66.4074 31.7151 66.0105 31.5888C65.6822 31.4831 65.3767 31.3163 65.1098 31.0969C64.8603 30.893 64.6491 30.6458 64.4864 30.367C64.3222 30.0842 64.1905 29.7836 64.0937 29.471C63.9927 29.1537 63.9217 28.8274 63.8818 28.4967C63.8413 28.1693 63.8204 27.8398 63.8195 27.5098C63.8339 26.2944 64.0444 25.0893 64.4428 23.9416C64.6518 23.3328 64.918 22.7454 65.2376 22.1872C65.5487 21.6362 65.9382 21.1338 66.3939 20.696C66.8493 20.2634 67.3768 19.9145 67.9523 19.6653C68.5707 19.4005 69.2375 19.2692 69.9096 19.2799C70.5061 19.2787 71.0952 19.4125 71.6331 19.6715C72.0866 19.8934 72.4849 20.2146 72.7988 20.6114L73.9738 14.7656C73.9901 14.6831 74.0277 14.6064 74.0829 14.5431C74.1605 14.4651 74.2556 14.4071 74.3603 14.374C74.5216 14.3229 74.6876 14.2883 74.8558 14.2706C75.1073 14.2429 75.3602 14.2304 75.6132 14.233C75.8631 14.23 76.1129 14.2425 76.3612 14.2706C76.5155 14.2865 76.6672 14.3212 76.8132 14.374C76.9002 14.4042 76.9741 14.464 77.022 14.5431C77.0556 14.6121 77.0645 14.6907 77.0469 14.7656L73.7806 31.0593ZM72.2378 23.2993C71.9936 22.8926 71.6677 22.5416 71.2809 22.2686C70.9179 22.0341 70.4938 21.9131 70.0623 21.9209C69.7346 21.9176 69.4119 22.0019 69.1273 22.1653C68.8357 22.3318 68.5769 22.5505 68.3637 22.8106C68.1248 23.0961 67.9246 23.4121 67.7684 23.7505C67.5978 24.1161 67.4581 24.4954 67.3507 24.8845C67.2403 25.2765 67.1549 25.6752 67.0952 26.0781C67.0407 26.4516 67.0126 26.8285 67.011 27.206C66.9802 27.7 67.0882 28.1929 67.3227 28.6283C67.4283 28.788 67.5744 28.9165 67.7458 29.0008C67.9173 29.085 68.1079 29.1219 68.2982 29.1076C68.6891 29.1036 69.072 28.9955 69.4078 28.7943C69.8067 28.5587 70.1655 28.2604 70.4706 27.9108C70.8181 27.5182 71.1107 27.0798 71.3402 26.6076C71.5951 26.0992 71.7806 25.5587 71.8918 25.0005L72.2378 23.2993Z" fill="#22577A"/>
<path d="M87.1171 31.0593C87.0945 31.1516 87.0461 31.2354 86.9776 31.3009C86.9091 31.3664 86.8234 31.4108 86.7307 31.429C86.3733 31.5193 86.0048 31.5573 85.6367 31.5418C85.3811 31.5418 85.1723 31.5418 85.0133 31.5167C84.8805 31.5066 84.7495 31.4792 84.6237 31.4352C84.5839 31.4245 84.5466 31.406 84.514 31.3808C84.4814 31.3555 84.4541 31.324 84.4336 31.288C84.4016 31.2162 84.395 31.1354 84.4149 31.0593L84.7609 29.283C84.6075 29.5916 84.4066 29.8739 84.1656 30.1195C83.8791 30.4262 83.5556 30.6956 83.2025 30.9215C82.8185 31.1688 82.4062 31.3687 81.9745 31.5167C81.5276 31.6729 81.0576 31.7523 80.5844 31.7517C80.0173 31.771 79.454 31.6528 78.9419 31.4071C78.5192 31.1881 78.1589 30.8647 77.8947 30.4672C77.6234 30.0593 77.4319 29.6032 77.3305 29.1232C77.2193 28.6002 77.164 28.0667 77.1654 27.5318C77.1702 26.9597 77.2192 26.3888 77.3118 25.8244C77.4144 25.1988 77.5677 24.5828 77.77 23.9823C77.9761 23.3683 78.2401 22.7756 78.5585 22.2122C78.8728 21.6586 79.262 21.1515 79.7149 20.7054C80.1634 20.2667 80.6858 19.9114 81.2577 19.6559C81.8793 19.3868 82.5507 19.2534 83.2274 19.2643C83.8593 19.2524 84.484 19.4 85.0445 19.6935C85.5937 19.9999 86.066 20.4285 86.4252 20.9466L86.6247 19.966C86.6481 19.8733 86.697 19.7891 86.766 19.7231C86.8349 19.6572 86.921 19.6121 87.0143 19.5932C87.371 19.5057 87.7382 19.4688 88.1051 19.4836C88.3134 19.4804 88.5216 19.4909 88.7285 19.5149C88.8612 19.5278 88.9919 19.5562 89.1181 19.5995C89.1983 19.6248 89.2668 19.6782 89.3113 19.7499C89.3435 19.817 89.3523 19.8932 89.3362 19.966L87.1171 31.0593ZM85.5868 23.2868C85.3435 22.8811 85.0174 22.532 84.63 22.2624C84.2667 22.0317 83.8441 21.913 83.4144 21.9209C83.081 21.9178 82.7528 22.0043 82.4638 22.1715C82.1676 22.3405 81.9071 22.5661 81.6971 22.8357C81.4631 23.1308 81.2663 23.4538 81.1112 23.7974C80.9405 24.1634 80.7998 24.5427 80.6904 24.9315C80.5791 25.3227 80.4968 25.7217 80.4442 26.1251C80.3915 26.4924 80.3645 26.863 80.3632 27.2341C80.3622 27.4713 80.381 27.7081 80.4193 27.9422C80.4507 28.1512 80.5193 28.3528 80.6218 28.5374C80.7167 28.7076 80.8528 28.851 81.0177 28.9541C81.2069 29.0636 81.4228 29.1179 81.641 29.1107C82.0328 29.1063 82.4166 28.9982 82.7537 28.7974C83.1533 28.559 83.5113 28.2563 83.8134 27.9014C84.1589 27.502 84.4522 27.0598 84.6861 26.5857C84.9423 26.071 85.1289 25.5242 85.2408 24.9597L85.5868 23.2868Z" fill="#22577A"/>
<path d="M93.3412 31.0468C93.3245 31.1286 93.2845 31.2037 93.2259 31.263C93.1438 31.3352 93.047 31.3886 92.9423 31.4196C92.7787 31.4675 92.6105 31.4979 92.4405 31.5105C92.1898 31.5338 91.938 31.5443 91.6862 31.5418C91.4376 31.5448 91.1889 31.5343 90.9414 31.5105C90.7856 31.4988 90.6317 31.4683 90.4832 31.4196C90.395 31.3953 90.3185 31.3397 90.2681 31.263C90.2344 31.1962 90.2255 31.1195 90.2432 31.0468L92.4249 19.9974C92.4416 19.9149 92.4829 19.8394 92.5433 19.7812C92.6253 19.7072 92.722 19.6517 92.827 19.6183C92.9873 19.5675 93.1523 19.5329 93.3194 19.5149C93.5719 19.4872 93.8259 19.4746 94.0799 19.4773C94.3298 19.4743 94.5796 19.4869 94.8279 19.5149C94.9832 19.5309 95.136 19.5656 95.283 19.6183C95.3716 19.6468 95.4483 19.7041 95.5011 19.7812C95.5334 19.8484 95.5422 19.9245 95.5261 19.9974L93.3412 31.0468ZM96.5297 16.2505C96.4828 16.5173 96.4033 16.7772 96.2928 17.0243C96.2047 17.2247 96.0687 17.4001 95.897 17.535C95.7186 17.6707 95.5118 17.7639 95.2923 17.8075C95 17.8667 94.7022 17.894 94.4041 17.889C94.1203 17.8948 93.8369 17.8674 93.5594 17.8075C93.3702 17.7702 93.1971 17.675 93.0639 17.535C92.9459 17.3906 92.8791 17.211 92.8737 17.0243C92.8598 16.7642 92.8839 16.5035 92.9454 16.2505C92.9926 15.9888 93.0721 15.7342 93.1823 15.4924C93.2738 15.2941 93.4092 15.1194 93.5781 14.9817C93.7564 14.8432 93.9628 14.7459 94.1828 14.6966C94.4747 14.6347 94.7727 14.6063 95.071 14.612C95.355 14.6055 95.6386 14.6339 95.9157 14.6966C96.1057 14.7391 96.2785 14.8385 96.4112 14.9817C96.5265 15.1271 96.5911 15.3065 96.5951 15.4924C96.6038 15.7468 96.5818 16.0014 96.5297 16.2505Z" fill="#22577A"/>
<path d="M109.879 30.3262C109.849 30.5069 109.784 30.6796 109.686 30.8337C109.597 30.9768 109.484 31.103 109.352 31.2065C109.228 31.3053 109.086 31.3787 108.934 31.4227C108.78 31.4695 108.619 31.4927 108.458 31.4916H107.074C106.829 31.498 106.584 31.4696 106.347 31.4071C106.159 31.3489 105.99 31.2407 105.858 31.0938C105.702 30.9145 105.578 30.7087 105.494 30.486C105.364 30.1656 105.253 29.8382 105.16 29.5054L102.801 22.3313C102.62 21.7778 102.454 21.2191 102.302 20.6552C102.149 20.0945 101.99 19.5337 101.862 18.9792H101.838C101.757 19.6339 101.66 20.2762 101.554 20.909C101.448 21.5418 101.33 22.1621 101.196 22.8169L99.5654 31.0217C99.5481 31.1051 99.5082 31.1821 99.4501 31.2441C99.3706 31.3197 99.2745 31.3755 99.1696 31.4071C99.015 31.4541 98.8564 31.4866 98.6959 31.5042C98.4558 31.5318 98.2144 31.5444 97.9728 31.5418C97.7354 31.5445 97.498 31.532 97.2622 31.5042C97.1175 31.4892 96.9751 31.4566 96.8383 31.4071C96.7558 31.3791 96.6868 31.3209 96.6451 31.2441C96.618 31.1725 96.618 31.0934 96.6451 31.0217L99.5218 16.5732C99.5715 16.2256 99.7537 15.9111 100.03 15.696C100.286 15.5036 100.598 15.4012 100.918 15.4046H102.601C102.837 15.3996 103.073 15.4313 103.299 15.4986C103.487 15.5601 103.656 15.6678 103.792 15.8119C103.94 15.966 104.061 16.1439 104.15 16.3382C104.268 16.5952 104.365 16.8613 104.44 17.134L106.824 24.3707C106.98 24.8344 107.136 25.2949 107.251 25.7492C107.367 26.2034 107.513 26.6577 107.653 27.1151H107.675C107.767 26.5157 107.871 25.9006 107.987 25.2699C108.103 24.6391 108.215 24.0251 108.323 23.4278L109.844 15.8558C109.859 15.7737 109.898 15.6982 109.957 15.6396C110.03 15.5665 110.121 15.5146 110.222 15.4892C110.372 15.4457 110.527 15.4164 110.683 15.4015C110.873 15.3827 111.113 15.3702 111.4 15.3702C111.686 15.3702 111.926 15.3702 112.117 15.4015C112.264 15.414 112.409 15.4434 112.55 15.4892C112.631 15.5144 112.7 15.5677 112.746 15.6396C112.78 15.7063 112.789 15.783 112.771 15.8558L109.879 30.3262Z" fill="#22577A"/>
<path d="M123.278 31.0593C123.254 31.1516 123.205 31.2353 123.136 31.3008C123.067 31.3662 122.981 31.4107 122.888 31.429C122.531 31.5193 122.162 31.5573 121.794 31.5418C121.538 31.5418 121.333 31.5418 121.171 31.5167C121.038 31.5064 120.907 31.479 120.781 31.4352C120.741 31.4245 120.704 31.406 120.671 31.3808C120.639 31.3555 120.611 31.324 120.591 31.288C120.562 31.2154 120.555 31.1357 120.572 31.0593L120.918 29.283C120.765 29.5909 120.565 29.873 120.326 30.1195C120.04 30.4262 119.716 30.6956 119.363 30.9215C118.979 31.1682 118.566 31.368 118.135 31.5167C117.688 31.6729 117.218 31.7523 116.745 31.7517C116.178 31.7713 115.614 31.6531 115.102 31.4071C114.68 31.1869 114.319 30.8638 114.052 30.4672C113.78 30.0598 113.59 29.6034 113.491 29.1232C113.377 28.6005 113.321 28.0668 113.323 27.5318C113.327 26.9595 113.377 26.3886 113.472 25.8244C113.572 25.1986 113.725 24.5824 113.927 23.9823C114.135 23.3683 114.4 22.7755 114.719 22.2122C115.031 21.6581 115.419 21.1508 115.872 20.7054C116.325 20.2651 116.853 19.9098 117.431 19.6559C118.052 19.3868 118.724 19.2534 119.4 19.2643C120.031 19.2524 120.655 19.4 121.214 19.6935C121.764 20.0007 122.237 20.4291 122.598 20.9466L122.795 19.966C122.818 19.8735 122.867 19.7894 122.936 19.7235C123.005 19.6576 123.091 19.6125 123.184 19.5932C123.542 19.5059 123.91 19.469 124.278 19.4836C124.486 19.4806 124.695 19.4911 124.901 19.5149C125.034 19.5282 125.165 19.5566 125.291 19.5995C125.37 19.6247 125.438 19.6782 125.481 19.7499C125.515 19.8166 125.524 19.8933 125.506 19.966L123.278 31.0593ZM121.747 23.2868C121.504 22.8803 121.176 22.531 120.787 22.2624C120.424 22.0317 120.001 21.913 119.572 21.9209C119.238 21.9177 118.91 22.0043 118.621 22.1715C118.326 22.3421 118.066 22.5675 117.854 22.8357C117.62 23.1308 117.424 23.4538 117.269 23.7974C117.099 24.1639 116.959 24.5431 116.848 24.9315C116.738 25.3231 116.656 25.7219 116.602 26.1251C116.55 26.4926 116.523 26.8631 116.521 27.2341C116.52 27.4713 116.538 27.7081 116.577 27.9422C116.609 28.1514 116.679 28.353 116.782 28.5374C116.876 28.7075 117.011 28.8509 117.175 28.9541C117.364 29.0632 117.58 29.1174 117.798 29.1107C118.189 29.1068 118.572 28.9987 118.908 28.7974C119.309 28.5592 119.668 28.2565 119.971 27.9014C120.316 27.5027 120.609 27.0604 120.84 26.5856C121.095 26.0773 121.281 25.5367 121.392 24.9785L121.747 23.2868Z" fill="#22577A"/>
<path d="M136.527 31.4916C136.404 32.1807 136.17 32.8452 135.835 33.4591C135.527 34.0128 135.101 34.4919 134.588 34.8625C134.025 35.2638 133.39 35.5521 132.718 35.7115C131.884 35.9154 131.027 36.0122 130.169 35.9998C129.541 36.005 128.915 35.9483 128.299 35.8306C127.821 35.743 127.356 35.5989 126.912 35.4014C126.802 35.3548 126.708 35.2776 126.641 35.179C126.585 35.072 126.559 34.9518 126.566 34.8312C126.566 34.7811 126.566 34.6996 126.566 34.5837C126.574 34.454 126.593 34.3251 126.622 34.1984C126.651 34.0564 126.685 33.9091 126.725 33.7567C126.761 33.6154 126.814 33.4788 126.881 33.3494C126.934 33.2409 127.002 33.1407 127.083 33.0518C127.115 33.0143 127.155 32.9843 127.2 32.9637C127.244 32.9432 127.293 32.9326 127.342 32.9327C127.47 32.9401 127.595 32.9765 127.707 33.0392C127.85 33.1082 128.043 33.1834 128.28 33.268C128.572 33.364 128.87 33.4404 129.171 33.4966C129.603 33.575 130.042 33.6107 130.48 33.6032C130.859 33.6063 131.237 33.5727 131.609 33.5029C131.915 33.4501 132.211 33.3441 132.481 33.1896C132.721 33.0478 132.926 32.8528 133.08 32.6195C133.239 32.3567 133.345 32.065 133.391 31.7611C133.497 31.2254 133.603 30.7742 133.703 30.4108C133.803 30.0474 133.909 29.7467 133.999 29.5148C133.832 29.8152 133.622 30.0896 133.376 30.3294C133.092 30.6053 132.778 30.849 132.441 31.0562C132.081 31.272 131.697 31.4445 131.297 31.57C130.9 31.6963 130.486 31.7607 130.069 31.7611C129.519 31.7817 128.972 31.6745 128.47 31.4478C128.049 31.2446 127.685 30.9375 127.414 30.5549C127.131 30.1516 126.932 29.6958 126.828 29.2141C126.704 28.6683 126.644 28.1102 126.647 27.5506C126.662 26.329 126.872 25.1178 127.27 23.9635C127.479 23.3525 127.745 22.7629 128.065 22.2029C128.378 21.651 128.767 21.1467 129.221 20.7054C129.67 20.2703 130.193 19.9192 130.764 19.6684C131.382 19.4036 132.049 19.2723 132.721 19.2831C133.352 19.2712 133.976 19.4188 134.535 19.7123C135.085 20.0195 135.558 20.4479 135.919 20.9654L136.119 19.9848C136.142 19.8925 136.19 19.8086 136.259 19.7426C136.327 19.6767 136.412 19.6315 136.505 19.612C136.863 19.5247 137.231 19.4878 137.599 19.5024C137.807 19.4994 138.016 19.5099 138.222 19.5337C138.355 19.5466 138.486 19.575 138.612 19.6183C138.691 19.6435 138.759 19.697 138.802 19.7687C138.836 19.8354 138.845 19.9121 138.827 19.9848L136.527 31.4916ZM135.096 23.2743C134.853 22.8686 134.527 22.5195 134.14 22.2498C133.775 22.0196 133.351 21.9009 132.921 21.9084C132.593 21.9067 132.27 21.9932 131.986 22.159C131.692 22.3305 131.433 22.5558 131.222 22.8231C130.984 23.1171 130.784 23.4403 130.627 23.7849C130.456 24.1527 130.317 24.5341 130.209 24.9253C130.099 25.317 130.016 25.7158 129.96 26.1189C129.909 26.4926 129.883 26.8694 129.882 27.2467C129.88 27.5053 129.904 27.7635 129.954 28.0174C129.995 28.2259 130.073 28.4253 130.184 28.6063C130.282 28.7633 130.418 28.8918 130.58 28.9791C130.761 29.0719 130.963 29.1172 131.166 29.1107C131.557 29.1068 131.94 28.9987 132.276 28.7974C132.676 28.5592 133.035 28.2565 133.339 27.9014C133.685 27.501 133.977 27.0565 134.208 26.5794C134.463 26.0686 134.648 25.5261 134.76 24.966L135.096 23.2743Z" fill="#22577A"/>
<path d="M149.976 31.0593C149.953 31.152 149.904 31.2361 149.835 31.3016C149.766 31.3672 149.679 31.4114 149.586 31.429C149.23 31.5195 148.862 31.5575 148.495 31.5418C148.24 31.5418 148.031 31.5418 147.872 31.5167C147.739 31.5066 147.608 31.4792 147.482 31.4352C147.442 31.4249 147.404 31.4066 147.371 31.3813C147.338 31.356 147.31 31.3243 147.289 31.288C147.265 31.2137 147.265 31.1336 147.289 31.0593L147.632 29.283C147.48 29.5916 147.28 29.8739 147.04 30.1195C146.753 30.4262 146.43 30.6956 146.077 30.9215C145.693 31.1688 145.28 31.3687 144.849 31.5167C144.402 31.6729 143.932 31.7524 143.459 31.7517C142.891 31.771 142.328 31.6528 141.816 31.4071C141.393 31.1869 141.032 30.8638 140.766 30.4672C140.497 30.0585 140.306 29.6026 140.205 29.1232C140.092 28.6004 140.036 28.0667 140.039 27.5318C140.044 26.9597 140.093 26.3889 140.186 25.8244C140.289 25.1988 140.442 24.5828 140.644 23.9823C140.85 23.3683 141.114 22.7756 141.433 22.2122C141.746 21.658 142.135 21.1507 142.589 20.7054C143.042 20.2652 143.57 19.9098 144.147 19.6559C144.769 19.3868 145.44 19.2534 146.117 19.2643C146.749 19.2527 147.374 19.4002 147.934 19.6935C148.483 19.9999 148.956 20.4285 149.315 20.9466L149.514 19.966C149.538 19.8733 149.587 19.7891 149.656 19.7231C149.725 19.6572 149.811 19.6121 149.904 19.5932C150.261 19.5057 150.628 19.4688 150.995 19.4836C151.203 19.4806 151.411 19.4911 151.618 19.5149C151.751 19.5279 151.882 19.5562 152.008 19.5995C152.088 19.6248 152.157 19.6782 152.201 19.7499C152.234 19.817 152.241 19.8937 152.223 19.966L149.976 31.0593ZM148.445 23.2868C148.202 22.8811 147.876 22.532 147.489 22.2624C147.125 22.032 146.703 21.9133 146.273 21.9209C145.939 21.9184 145.61 22.0049 145.319 22.1715C145.025 22.3414 144.765 22.5669 144.556 22.8357C144.321 23.13 144.124 23.4532 143.97 23.7974C143.799 24.1634 143.658 24.5427 143.549 24.9315C143.438 25.3227 143.355 25.7217 143.303 26.1251C143.25 26.4924 143.223 26.863 143.222 27.2342C143.221 27.4713 143.24 27.7081 143.278 27.9422C143.309 28.1512 143.378 28.3528 143.48 28.5374C143.575 28.7076 143.711 28.851 143.876 28.9541C144.065 29.0636 144.281 29.1179 144.5 29.1107C144.891 29.1063 145.275 28.9982 145.612 28.7974C146.012 28.559 146.37 28.2564 146.672 27.9014C147.017 27.502 147.311 27.0598 147.545 26.5857C147.803 26.0713 147.992 25.5245 148.106 24.9597L148.445 23.2868Z" fill="#22577A"/>
<path d="M162.24 19.8C162.24 19.8564 162.24 19.9598 162.215 20.1133C162.19 20.2668 162.175 20.4266 162.14 20.6333C162.106 20.8401 162.066 21.0375 162.016 21.2599C161.972 21.4603 161.917 21.658 161.85 21.852C161.8 22.0087 161.73 22.1583 161.642 22.2968C161.617 22.3448 161.58 22.3859 161.536 22.4165C161.491 22.4471 161.44 22.4662 161.386 22.4723C161.31 22.4713 161.235 22.4564 161.165 22.4284C161.09 22.4002 161.009 22.3689 160.919 22.3407L160.607 22.253C160.485 22.2238 160.361 22.2101 160.236 22.2123C159.913 22.2237 159.601 22.3329 159.341 22.5255C158.999 22.7629 158.692 23.0489 158.431 23.3745C158.127 23.7518 157.869 24.164 157.662 24.6026C157.435 25.0696 157.27 25.5647 157.172 26.075L156.209 31.0468C156.192 31.1286 156.152 31.2037 156.094 31.263C156.011 31.3358 155.913 31.3893 155.807 31.4196C155.645 31.4675 155.477 31.4979 155.308 31.5105C155.058 31.5338 154.806 31.5443 154.554 31.5418C154.305 31.5448 154.057 31.5343 153.809 31.5105C153.653 31.4992 153.5 31.4687 153.351 31.4196C153.263 31.3953 153.186 31.3397 153.136 31.263C153.102 31.1962 153.093 31.1195 153.111 31.0468L155.308 19.9598C155.324 19.8783 155.363 19.8031 155.421 19.7436C155.491 19.6725 155.577 19.6208 155.673 19.5932C155.813 19.5515 155.957 19.5232 156.103 19.5086C156.31 19.486 156.518 19.4756 156.727 19.4773C156.935 19.4744 157.143 19.4848 157.35 19.5086C157.477 19.5216 157.603 19.5501 157.724 19.5932C157.801 19.6178 157.866 19.6717 157.905 19.7436C157.933 19.8119 157.94 19.8875 157.923 19.9598L157.577 21.7235C157.771 21.373 158 21.0443 158.263 20.743C158.511 20.456 158.788 20.1956 159.089 19.966C159.368 19.754 159.674 19.5811 159.999 19.4522C160.296 19.3297 160.613 19.2659 160.934 19.2643C161.06 19.265 161.186 19.2734 161.311 19.2894C161.439 19.3081 161.557 19.3269 161.67 19.352C161.776 19.3735 161.881 19.405 161.981 19.446C162.054 19.4755 162.123 19.5157 162.184 19.565C162.208 19.5985 162.226 19.6365 162.235 19.6769C162.245 19.7172 162.247 19.7591 162.24 19.8Z" fill="#22577A"/>
</g>
<defs>
<clipPath id="clip0_13_33">
<rect width="162" height="36" fill="white"/>
</clipPath>
</defs>
</svg>
