<svg width="72" height="72" viewBox="0 0 72 72" fill="none" xmlns="http://www.w3.org/2000/svg">
<g clip-path="url(#clip0_437_6276)">
<path d="M71.9832 66.8933L66.3266 35.7292C66.2703 35.4182 66.0773 35.1487 65.8008 34.995L51.5637 27.0764C51.3789 26.9735 51.1717 26.9326 50.9683 26.9483L53.5584 60.362L53.4717 60.4008L70.5104 68.0448C70.649 68.1068 70.7964 68.1374 70.9431 68.1374C71.1753 68.1374 71.4053 68.0611 71.5945 67.913C71.9036 67.6717 72.0531 67.2791 71.9832 66.8933Z" fill="#44C868"/>
<path d="M36.0001 34.6466L21.439 27.0625C21.2645 26.9715 21.071 26.9344 20.8805 26.9472C20.931 26.9441 20.9817 26.9444 21.0321 26.9483L18.4419 60.362L35.5674 68.0449C35.7056 68.1068 35.8531 68.1376 36.0001 68.1376V34.6466Z" fill="#44C868"/>
<path d="M21.0319 26.9484C20.8284 26.9327 20.6213 26.9736 20.4365 27.0764L6.19917 34.995C5.9227 35.1487 5.72976 35.418 5.67337 35.7292L0.0169984 66.8933C-0.0530329 67.2789 0.0965923 67.6716 0.405546 67.9132C0.594968 68.0612 0.824891 68.1376 1.05692 68.1376C1.20359 68.1376 1.35111 68.1071 1.48963 68.0449L18.4355 60.4426L21.0319 26.9484Z" fill="#4CE166"/>
<path d="M50.968 26.9477C50.8279 26.9586 50.6894 26.9958 50.561 27.0628L36 34.6467V68.1377C36 68.1377 36 68.1377 36.0001 68.1377C36.1471 68.1377 36.2948 68.1071 36.4328 68.0451L53.5583 60.3621L50.968 26.9477Z" fill="#4CE166"/>
<path d="M3.95911 45.1735L2.81006 51.5043L19.8249 42.5175L20.2199 37.4214L20.2854 36.5762L3.95911 45.1735Z" fill="#FFDB56"/>
<path d="M19.9781 40.5414L19.8249 42.5175L2.8101 51.5043L0.0169984 66.8933C-0.0530329 67.2789 0.0965923 67.6716 0.405546 67.9132C0.594968 68.0612 0.824891 68.1376 1.05692 68.1376C1.20359 68.1376 1.35111 68.1071 1.48963 68.0449L18.4355 60.4426L19.9781 40.5414Z" fill="#A8EEFC"/>
<path d="M36.0043 38.8238L20.2855 36.5762L19.825 42.5175L36.0001 67.0818V58.1495L26.348 42.951L36.0043 44.106V38.8238Z" fill="#FFBB24"/>
<path d="M64.6801 34.3718L57.8408 30.5677L51.3661 32.0806L51.4471 33.1263L51.7669 37.2514L64.6801 34.3718Z" fill="#FFBB24"/>
<path d="M52.341 44.6592L51.7279 36.7492L51.366 32.0806L36.0043 38.8238V44.106L46.0387 39.7424L52.341 44.6592Z" fill="#FFDB56"/>
<path d="M71.9831 66.8933L70.5624 59.0653L51.7668 37.2514L52.3412 44.6592L71.6167 67.8935C71.9097 67.6506 72.0513 67.2692 71.9831 66.8933Z" fill="#FFBB24"/>
<path d="M36.0677 3.86227C27.9166 3.86227 21.2852 10.4883 21.2852 18.6327C21.2852 23.6707 23.6771 29.0798 28.3946 34.7093C31.8595 38.8441 35.2772 41.5034 35.4211 41.6147C35.6115 41.7619 35.8396 41.8355 36.0678 41.8355C36.2959 41.8355 36.5242 41.7619 36.7146 41.6147C36.8583 41.5034 40.2762 38.8441 43.741 34.7093C48.4586 29.0798 50.8505 23.6709 50.8505 18.6327C50.8502 10.4883 44.2187 3.86227 36.0677 3.86227ZM41.5422 18.6326C41.5422 21.6535 39.0911 24.1026 36.0677 24.1026C33.0442 24.1026 30.5931 21.6536 30.5931 18.6326C30.5931 15.6115 33.0442 13.1625 36.0677 13.1625C39.0911 13.1625 41.5422 15.6117 41.5422 18.6326Z" fill="#FF4A4A"/>
<path d="M36.0677 3.86227C35.4217 3.86227 34.7854 3.90418 34.161 3.9849C41.4149 4.92245 47.0369 11.1337 47.0369 18.6327C47.0369 23.6707 44.645 29.0798 39.9275 34.7093C37.6993 37.3682 35.4922 39.4156 34.1612 40.569C34.9 41.2091 35.37 41.575 35.4212 41.6147C35.6116 41.7619 35.8397 41.8355 36.0679 41.8355C36.296 41.8355 36.5242 41.7619 36.7146 41.6147C36.8583 41.5034 40.2762 38.8441 43.7411 34.7093C48.4587 29.0798 50.8506 23.6709 50.8506 18.6327C50.8503 10.4883 44.2188 3.86227 36.0677 3.86227Z" fill="#E7343F"/>
<path d="M36.4328 68.0449L42.8011 65.188L36 58.1495V68.1376C36 68.1376 36 68.1376 36.0001 68.1376C36.1471 68.1376 36.2946 68.1071 36.4328 68.0449Z" fill="#FFDB56"/>
<path d="M66.3264 35.7292C66.27 35.4182 66.0771 35.1487 65.8006 34.995L64.6798 34.3716L51.7666 37.2512L70.562 59.0651L66.3264 35.7292Z" fill="#1EA4E9"/>
<path d="M35.9999 68.1376C36 68.1376 36 68.1376 35.9999 68.1376V67.0818L19.8249 42.5175L18.4415 60.3621L35.567 68.045C35.7052 68.1071 35.8528 68.1376 35.9999 68.1376Z" fill="#1EA4E9"/>
</g>
<defs>
<clipPath id="clip0_437_6276">
<rect width="72" height="72" fill="white"/>
</clipPath>
</defs>
</svg>
