<svg width="137" height="146" viewBox="0 0 137 146" fill="none" xmlns="http://www.w3.org/2000/svg">
<g clip-path="url(#clip0_1825_8701)">
<path d="M116.935 122.924C143.686 96.1133 143.686 52.6453 116.935 25.835C90.1845 -0.975318 46.8127 -0.975311 20.0618 25.835C-6.6891 52.6453 -6.6891 96.1133 20.0618 122.924C46.8127 149.734 90.1845 149.734 116.935 122.924Z" fill="#22577A" fill-opacity="0.04"/>
<path d="M38.0847 88.299C37.9767 88.298 37.873 88.2564 37.7941 88.1825C37.2959 87.6915 36.806 87.1923 36.3327 86.6846C36.2951 86.6448 36.2657 86.5978 36.2462 86.5466C36.2267 86.4953 36.2174 86.4406 36.2189 86.3858C36.2205 86.3309 36.2328 86.2769 36.2551 86.2268C36.2775 86.1767 36.3095 86.1315 36.3493 86.0938C36.3891 86.0561 36.4359 86.0266 36.4871 86.0071C36.5383 85.9875 36.5928 85.9782 36.6475 85.9798C36.7023 85.9813 36.7562 85.9937 36.8062 86.0161C36.8562 86.0385 36.9012 86.0706 36.9388 86.1105C37.4038 86.6181 37.8854 87.109 38.3753 87.5834C38.435 87.6411 38.4761 87.7154 38.4933 87.7967C38.5105 87.8781 38.503 87.9628 38.4717 88.0398C38.4404 88.1168 38.3868 88.1827 38.3178 88.2289C38.2488 88.2751 38.1676 88.2995 38.0847 88.299Z" fill="#38A3A5"/>
<path d="M33.983 83.7056C33.9204 83.7065 33.8585 83.6927 33.8022 83.6653C33.746 83.6378 33.697 83.5974 33.6592 83.5475C32.8289 82.4657 31.9986 81.3339 31.2762 80.2189C31.2433 80.173 31.22 80.1209 31.2078 80.0658C31.1956 80.0107 31.1947 79.9536 31.2052 79.8981C31.2157 79.8426 31.2374 79.7898 31.2689 79.743C31.3004 79.6961 31.3411 79.6562 31.3886 79.6257C31.436 79.5951 31.4891 79.5746 31.5447 79.5653C31.6003 79.556 31.6572 79.5581 31.712 79.5716C31.7667 79.585 31.8182 79.6095 31.8632 79.6436C31.9082 79.6776 31.9458 79.7204 31.9737 79.7695C32.696 80.8929 33.4848 82.008 34.3151 83.0981C34.3649 83.159 34.396 83.233 34.4047 83.3112C34.4134 83.3894 34.3994 83.4684 34.3643 83.5388C34.3291 83.6092 34.2744 83.6678 34.2068 83.7078C34.1392 83.7477 34.0614 83.7672 33.983 83.7638V83.7056ZM107.166 81.5337C107.083 81.5321 107.002 81.5061 106.933 81.4588C106.888 81.4279 106.849 81.3882 106.819 81.3421C106.789 81.296 106.768 81.2443 106.758 81.1901C106.748 81.1359 106.749 81.0803 106.76 81.0264C106.772 80.9725 106.794 80.9215 106.825 80.8763C107.589 79.7695 108.303 78.6128 108.959 77.4395C109.017 77.3447 109.108 77.2754 109.214 77.246C109.321 77.2165 109.435 77.2292 109.532 77.2814C109.626 77.3371 109.695 77.4271 109.725 77.5325C109.754 77.638 109.742 77.7508 109.69 77.8473C109.017 79.0455 108.287 80.2189 107.506 81.3506C107.469 81.407 107.419 81.4533 107.359 81.4852C107.3 81.5172 107.233 81.5338 107.166 81.5337ZM29.5741 76.882C29.4973 76.882 29.422 76.8611 29.3562 76.8215C29.2904 76.7819 29.2366 76.7252 29.2005 76.6573C28.5694 75.4424 27.9799 74.1608 27.4568 72.9209C27.415 72.8183 27.4155 72.7032 27.4584 72.601C27.5012 72.4988 27.5827 72.4178 27.6851 72.3759C27.7875 72.334 27.9024 72.3345 28.0044 72.3774C28.1063 72.4203 28.1872 72.5021 28.229 72.6047C28.7438 73.8446 29.3167 75.1012 29.9394 76.2745C29.9721 76.3377 29.988 76.4082 29.9858 76.4793C29.9835 76.5504 29.963 76.6198 29.9264 76.6807C29.8897 76.7416 29.8381 76.7921 29.7764 76.8274C29.7147 76.8626 29.6451 76.8814 29.5741 76.882ZM111.16 74.3855C111.105 74.398 111.048 74.398 110.994 74.3855C110.943 74.3639 110.898 74.3324 110.86 74.2928C110.822 74.2532 110.793 74.2064 110.773 74.1551C110.754 74.1039 110.745 74.0492 110.747 73.9944C110.749 73.9397 110.763 73.8859 110.786 73.8363C111.334 72.6131 111.832 71.3399 112.272 70.075C112.288 70.0225 112.314 69.9739 112.35 69.9321C112.385 69.8903 112.429 69.8562 112.478 69.832C112.527 69.8078 112.58 69.794 112.635 69.7914C112.69 69.7889 112.744 69.7976 112.795 69.817C112.898 69.853 112.983 69.9282 113.031 70.0263C113.079 70.1244 113.087 70.2375 113.053 70.3413C112.613 71.6395 112.098 72.9293 111.542 74.1775C111.502 74.242 111.445 74.2945 111.378 74.3297C111.311 74.3648 111.235 74.3812 111.16 74.3772V74.3855ZM26.4688 69.3178C26.3789 69.3178 26.2916 69.2886 26.2197 69.2345C26.1478 69.1805 26.0953 69.1046 26.0702 69.0182C25.6633 67.72 25.3147 66.3803 25.0241 65.0322C25.0009 64.9219 25.0225 64.8068 25.084 64.7124C25.1455 64.618 25.2419 64.5519 25.352 64.5288C25.4621 64.5056 25.5769 64.5272 25.6711 64.5888C25.7653 64.6505 25.8312 64.7471 25.8544 64.8575C26.1367 66.1806 26.4771 67.4954 26.8756 68.7769C26.8934 68.8287 26.9004 68.8837 26.8961 68.9383C26.8918 68.993 26.8763 69.0462 26.8506 69.0946C26.8249 69.143 26.7895 69.1855 26.7467 69.2196C26.7039 69.2537 26.6545 69.2786 26.6016 69.2928C26.5566 69.31 26.5082 69.3157 26.4605 69.3094L26.4688 69.3178ZM113.825 66.6715H113.725C113.672 66.6598 113.622 66.6375 113.577 66.6058C113.532 66.5742 113.495 66.5338 113.466 66.4872C113.437 66.4406 113.418 66.3887 113.41 66.3346C113.402 66.2805 113.405 66.2253 113.418 66.1722C113.742 64.8658 113.999 63.5343 114.248 62.2029C114.257 62.1488 114.275 62.0968 114.303 62.0499C114.332 62.003 114.369 61.9622 114.413 61.9297C114.457 61.8973 114.507 61.8738 114.56 61.8607C114.613 61.8476 114.668 61.8451 114.722 61.8534C114.775 61.8615 114.827 61.8802 114.873 61.9086C114.92 61.937 114.96 61.9744 114.992 62.0186C115.024 62.0628 115.046 62.1129 115.058 62.166C115.07 62.2191 115.072 62.2741 115.062 62.3277C114.863 63.6841 114.589 65.0405 114.232 66.372C114.206 66.4604 114.15 66.5374 114.075 66.5903C114 66.6432 113.909 66.6689 113.817 66.6632L113.825 66.6715ZM24.7583 61.3375C24.6569 61.3364 24.5591 61.2989 24.4829 61.2317C24.4067 61.1645 24.3571 61.0721 24.3432 60.9713C24.1771 59.6149 24.0775 58.2336 24.0277 56.8605C24.0255 56.8052 24.0343 56.75 24.0536 56.6981C24.073 56.6462 24.1024 56.5988 24.1403 56.5585C24.1782 56.5182 24.2238 56.4859 24.2743 56.4634C24.3248 56.441 24.3793 56.4289 24.4345 56.4278C24.4895 56.4217 24.5451 56.4277 24.5975 56.4452C24.65 56.4628 24.698 56.4916 24.7383 56.5295C24.7785 56.5675 24.8101 56.6138 24.8308 56.6652C24.8514 56.7166 24.8607 56.7719 24.858 56.8272C24.858 58.1836 25.0074 59.54 25.1652 60.8632C25.1733 60.9174 25.1705 60.9727 25.1568 61.0258C25.1431 61.079 25.1189 61.1288 25.0856 61.1723C25.0522 61.2158 25.0105 61.2521 24.9628 61.2791C24.9152 61.306 24.8626 61.3231 24.8082 61.3292L24.7583 61.3375ZM115.046 58.5997C114.991 58.5965 114.938 58.5826 114.888 58.5587C114.839 58.5348 114.795 58.5014 114.759 58.4604C114.723 58.4194 114.695 58.3717 114.677 58.3199C114.659 58.2681 114.652 58.2133 114.655 58.1587C114.713 57.235 114.738 56.303 114.738 55.3627C114.738 54.9466 114.738 54.5305 114.738 54.1061C114.736 54.0508 114.745 53.9956 114.764 53.9437C114.784 53.8918 114.813 53.8444 114.851 53.8041C114.889 53.7638 114.934 53.7315 114.985 53.709C115.035 53.6866 115.09 53.6745 115.145 53.6734C115.253 53.6755 115.356 53.7188 115.434 53.7946C115.511 53.8704 115.556 53.9729 115.56 54.0812C115.56 54.5056 115.56 54.9133 115.56 55.3627C115.56 56.3196 115.56 57.2683 115.477 58.2086C115.467 58.3167 115.415 58.4167 115.333 58.4879C115.251 58.5591 115.145 58.5962 115.037 58.5914L115.046 58.5997ZM24.4926 53.1741C24.4381 53.1709 24.3847 53.157 24.3355 53.1331C24.2864 53.1092 24.2424 53.0758 24.2062 53.0348C24.1699 52.9938 24.1421 52.9461 24.1243 52.8943C24.1065 52.8425 24.099 52.7877 24.1024 52.7331C24.1854 51.36 24.3183 49.987 24.5175 48.6389C24.5252 48.5843 24.5435 48.5317 24.5714 48.4841C24.5993 48.4366 24.6363 48.395 24.6803 48.3618C24.7242 48.3286 24.7742 48.3043 24.8275 48.2905C24.8808 48.2766 24.9363 48.2735 24.9908 48.2811C25.0453 48.2887 25.0978 48.3071 25.1453 48.3351C25.1927 48.363 25.2342 48.4001 25.2674 48.4442C25.3005 48.4882 25.3247 48.5384 25.3385 48.5918C25.3523 48.6452 25.3555 48.7008 25.3478 48.7554C25.1569 50.0785 25.0157 51.4349 24.941 52.783C24.938 52.8389 24.9236 52.8936 24.8986 52.9436C24.8736 52.9937 24.8386 53.0381 24.7958 53.074C24.7529 53.1099 24.7032 53.1366 24.6496 53.1524C24.596 53.1682 24.5398 53.1727 24.4843 53.1658L24.4926 53.1741ZM114.821 50.4364C114.72 50.4353 114.622 50.3978 114.546 50.3306C114.47 50.2634 114.42 50.171 114.406 50.0702C114.257 48.7305 114.033 47.3907 113.759 46.0759C113.735 45.9656 113.757 45.8505 113.818 45.7561C113.88 45.6617 113.976 45.5956 114.086 45.5725C114.197 45.5493 114.311 45.5709 114.406 45.6325C114.5 45.6942 114.566 45.7908 114.589 45.9012C114.871 47.2409 115.087 48.614 115.253 49.9704C115.265 50.0805 115.233 50.1908 115.165 50.2779C115.097 50.3649 114.997 50.4218 114.888 50.4364H114.821ZM25.68 45.1023H25.5803C25.4746 45.073 25.3844 45.0037 25.3286 44.909C25.2729 44.8143 25.256 44.7016 25.2814 44.5947C25.597 43.2716 25.9789 41.9402 26.419 40.6337C26.4548 40.5304 26.5298 40.4455 26.6277 40.3972C26.7256 40.3489 26.8385 40.3412 26.9421 40.3757C26.9945 40.3917 27.0431 40.4181 27.0851 40.4534C27.127 40.4887 27.1615 40.5322 27.1863 40.5811C27.2111 40.6301 27.2258 40.6836 27.2294 40.7384C27.2331 40.7931 27.2258 40.8481 27.2078 40.9C26.776 42.1815 26.3774 43.4879 26.0868 44.7944C26.0609 44.8836 26.006 44.9616 25.9308 45.0159C25.8555 45.0702 25.7643 45.0977 25.6717 45.094L25.68 45.1023ZM113.144 42.4228C113.055 42.4233 112.969 42.3953 112.897 42.3429C112.825 42.2905 112.772 42.2164 112.746 42.1315C112.347 40.8417 111.915 39.5602 111.384 38.3203C111.343 38.2165 111.344 38.1007 111.388 37.9979C111.431 37.895 111.513 37.8136 111.616 37.7711C111.667 37.7508 111.721 37.7408 111.776 37.7415C111.83 37.7423 111.884 37.7538 111.934 37.7754C111.985 37.7971 112.03 37.8284 112.068 37.8677C112.106 37.9069 112.136 37.9533 112.156 38.0041C112.671 39.269 113.136 40.5754 113.534 41.8819C113.551 41.9344 113.557 41.9896 113.552 42.0444C113.548 42.0993 113.532 42.1526 113.507 42.2014C113.481 42.2501 113.446 42.2933 113.404 42.3285C113.362 42.3636 113.313 42.39 113.26 42.4062L113.144 42.4228ZM28.2871 37.3467C28.2324 37.3584 28.1758 37.3584 28.1211 37.3467C28.021 37.3011 27.9425 37.2184 27.9022 37.1159C27.862 37.0134 27.863 36.8992 27.9052 36.7975C28.4615 35.541 29.0842 34.3011 29.7485 33.1028C29.7744 33.0545 29.8098 33.0119 29.8526 32.9776C29.8953 32.9434 29.9445 32.9181 29.9972 32.9034C30.0499 32.8886 30.1051 32.8846 30.1593 32.8917C30.2136 32.8988 30.2659 32.9168 30.3131 32.9447C30.4087 32.9988 30.4791 33.0888 30.5086 33.1949C30.5382 33.301 30.5246 33.4145 30.4708 33.5105C29.8149 34.6838 29.2087 35.9071 28.669 37.1304C28.6342 37.2017 28.5797 37.2615 28.512 37.3028C28.4444 37.3441 28.3663 37.3651 28.2871 37.3633V37.3467ZM110.064 34.8503C109.987 34.8503 109.912 34.8294 109.846 34.7898C109.78 34.7502 109.726 34.6935 109.69 34.6256C109.076 33.4273 108.395 32.254 107.672 31.1223C107.639 31.0764 107.616 31.0243 107.604 30.9692C107.592 30.914 107.591 30.857 107.601 30.8015C107.612 30.746 107.634 30.6932 107.665 30.6464C107.697 30.5995 107.737 30.5596 107.785 30.5291C107.832 30.4985 107.885 30.478 107.941 30.4687C107.996 30.4594 108.053 30.4615 108.108 30.475C108.163 30.4884 108.214 30.5129 108.259 30.5469C108.304 30.581 108.342 30.6238 108.37 30.6729C109.109 31.8213 109.798 33.0279 110.429 34.2428C110.479 34.3413 110.489 34.4556 110.457 34.5613C110.424 34.667 110.352 34.7557 110.255 34.8087C110.196 34.8451 110.131 34.8705 110.064 34.8836V34.8503ZM32.2476 30.1986C32.1643 30.1981 32.0832 30.1719 32.0152 30.1237C31.9696 30.0928 31.9306 30.0531 31.9005 30.007C31.8704 29.9609 31.8497 29.9093 31.8396 29.8551C31.8296 29.8009 31.8304 29.7452 31.842 29.6913C31.8536 29.6374 31.8758 29.5864 31.9072 29.5412C32.6711 28.4095 33.5014 27.3027 34.3982 26.2126C34.432 26.1698 34.4741 26.1343 34.5219 26.1081C34.5697 26.0819 34.6223 26.0657 34.6765 26.0602C34.7307 26.0548 34.7854 26.0603 34.8374 26.0765C34.8895 26.0927 34.9377 26.1191 34.9794 26.1543C35.0637 26.2242 35.117 26.3246 35.1279 26.4336C35.1388 26.5427 35.1063 26.6517 35.0375 26.7368C34.2072 27.777 33.3769 28.8671 32.613 29.9822C32.5826 30.0547 32.532 30.1168 32.4671 30.1611C32.4023 30.2054 32.3261 30.23 32.2476 30.2319V30.1986ZM105.68 27.9767C105.615 27.9761 105.552 27.9608 105.494 27.932C105.437 27.9031 105.387 27.8615 105.348 27.8103C104.517 26.7452 103.687 25.7133 102.74 24.7231C102.699 24.6841 102.666 24.637 102.643 24.5846C102.62 24.5323 102.609 24.4758 102.609 24.4188C102.609 24.3617 102.621 24.3053 102.644 24.253C102.666 24.2007 102.699 24.1537 102.741 24.1148C102.783 24.0759 102.832 24.046 102.886 24.027C102.939 24.008 102.996 24.0002 103.053 24.0042C103.11 24.0082 103.165 24.0238 103.216 24.0501C103.266 24.0764 103.311 24.1129 103.347 24.1572C104.276 25.1641 105.173 26.2209 106.003 27.3027C106.07 27.39 106.1 27.5003 106.086 27.6094C106.072 27.7186 106.016 27.8178 105.929 27.8852C105.863 27.9555 105.775 27.9998 105.68 28.01V27.9767ZM37.4122 23.8826C37.3584 23.8834 37.3051 23.8735 37.2552 23.8535C37.2053 23.8335 37.1599 23.8038 37.1216 23.7661C37.0827 23.7274 37.0517 23.6814 37.0307 23.6307C37.0096 23.58 36.9987 23.5256 36.9987 23.4707C36.9987 23.4158 37.0096 23.3614 37.0307 23.3107C37.0517 23.26 37.0827 23.2139 37.1216 23.1753C38.0764 22.2017 39.0894 21.253 40.1273 20.3709C40.1687 20.3354 40.2167 20.3084 40.2685 20.2915C40.3203 20.2746 40.3751 20.2681 40.4294 20.2723C40.4838 20.2766 40.5367 20.2915 40.5853 20.3163C40.6339 20.3411 40.6772 20.3752 40.7126 20.4167C40.748 20.4582 40.775 20.5063 40.7919 20.5583C40.8087 20.6103 40.8153 20.665 40.811 20.7195C40.8068 20.774 40.7918 20.8271 40.7671 20.8758C40.7424 20.9245 40.7084 20.9678 40.6669 21.0034C39.6457 21.8355 38.6493 22.8008 37.7111 23.7578C37.6747 23.8033 37.6295 23.8408 37.578 23.868C37.5266 23.8952 37.4701 23.9115 37.4122 23.9159V23.8826ZM100.142 21.9853C100.091 21.9863 100.041 21.9773 99.9937 21.9587C99.9467 21.9402 99.9038 21.9124 99.8675 21.8771C98.8629 20.9701 97.8167 20.1046 96.7456 19.3058C96.6594 19.2383 96.6025 19.1399 96.587 19.0313C96.5715 18.9227 96.5986 18.8123 96.6626 18.7233C96.6946 18.6786 96.7352 18.641 96.7821 18.6125C96.829 18.584 96.8812 18.5653 96.9355 18.5575C96.9898 18.5497 97.0451 18.553 97.0981 18.5672C97.151 18.5814 97.2006 18.6062 97.2438 18.6401C98.3315 19.4722 99.4026 20.3044 100.424 21.2613C100.463 21.2993 100.493 21.3446 100.514 21.3946C100.535 21.4446 100.546 21.4983 100.546 21.5526C100.546 21.6068 100.535 21.6605 100.514 21.7105C100.493 21.7605 100.463 21.8059 100.424 21.8438C100.392 21.8916 100.35 21.9319 100.302 21.962C100.253 21.9922 100.198 22.0115 100.142 22.0186V21.9853ZM43.6228 18.5985C43.5565 18.5975 43.4913 18.5812 43.4323 18.5509C43.3732 18.5206 43.3219 18.4771 43.2824 18.4237C43.2506 18.379 43.2279 18.3284 43.2156 18.2748C43.2034 18.2213 43.2018 18.1658 43.2111 18.1116C43.2204 18.0575 43.2402 18.0057 43.2696 17.9593C43.2989 17.9129 43.3371 17.8727 43.382 17.8412C44.4946 17.0507 45.6571 16.3017 46.8444 15.6194C46.8914 15.5851 46.945 15.5612 47.0018 15.549C47.0586 15.5368 47.1174 15.5367 47.1742 15.5488C47.231 15.5608 47.2847 15.5846 47.3318 15.6187C47.3789 15.6528 47.4183 15.6964 47.4475 15.7467C47.4767 15.7971 47.495 15.853 47.5013 15.9109C47.5076 15.9687 47.5017 16.0273 47.4839 16.0827C47.4662 16.1382 47.4371 16.1893 47.3985 16.2328C47.3598 16.2762 47.3125 16.311 47.2595 16.335C46.0971 17.0091 44.9513 17.7414 43.8636 18.5236C43.7966 18.5839 43.7124 18.6218 43.6228 18.6318V18.5985ZM93.632 17.0756C93.556 17.0773 93.4811 17.057 93.4161 17.0174C92.2703 16.3101 91.083 15.6444 89.8873 15.0452C89.7905 14.9922 89.7176 14.9039 89.6836 14.7987C89.6496 14.6935 89.6572 14.5792 89.7046 14.4793C89.756 14.3829 89.8425 14.31 89.9462 14.2759C90.0498 14.2418 90.1626 14.2491 90.261 14.2963C91.4815 14.9121 92.6854 15.5861 93.8478 16.3101C93.8949 16.3383 93.936 16.3756 93.9686 16.4198C94.0012 16.464 94.0248 16.5143 94.0379 16.5677C94.0511 16.621 94.0535 16.6765 94.0451 16.7309C94.0367 16.7852 94.0176 16.8373 93.989 16.8842C93.9543 16.9497 93.903 17.0049 93.8404 17.0443C93.7777 17.0837 93.7059 17.106 93.632 17.1089V17.0756ZM50.6638 14.5043C50.5849 14.5047 50.5075 14.4822 50.4412 14.4393C50.3748 14.3965 50.3224 14.3352 50.2902 14.263C50.2664 14.2133 50.2526 14.1594 50.2498 14.1044C50.2469 14.0494 50.255 13.9943 50.2735 13.9425C50.292 13.8906 50.3207 13.8429 50.3578 13.8023C50.3948 13.7616 50.4396 13.7287 50.4894 13.7054C51.7266 13.1313 52.9804 12.607 54.2922 12.141C54.3949 12.1071 54.5067 12.1146 54.6039 12.1619C54.701 12.2093 54.776 12.2928 54.8127 12.3946C54.8495 12.4965 54.8452 12.6087 54.8007 12.7074C54.7562 12.8061 54.6751 12.8835 54.5745 12.9232C53.3125 13.3809 52.0836 13.8968 50.8381 14.4627C50.786 14.4998 50.7266 14.5254 50.6638 14.5376V14.5043ZM86.3668 13.4225C86.3177 13.4342 86.2665 13.4342 86.2174 13.4225C84.9636 12.9315 83.7265 12.4905 82.398 12.116C82.3435 12.1007 82.2925 12.0748 82.248 12.0398C82.2034 12.0047 82.1662 11.9613 82.1385 11.9118C82.1107 11.8624 82.093 11.8079 82.0862 11.7516C82.0794 11.6952 82.0838 11.6381 82.0991 11.5835C82.1143 11.5288 82.1402 11.4777 82.1751 11.4331C82.2101 11.3885 82.2535 11.3512 82.3029 11.3234C82.3522 11.2956 82.4065 11.2778 82.4627 11.271C82.519 11.2642 82.576 11.2686 82.6305 11.2839C83.9424 11.6667 85.2459 12.116 86.5163 12.6153C86.6264 12.6352 86.7241 12.6981 86.7879 12.7902C86.8518 12.8822 86.8765 12.996 86.8567 13.1063C86.8369 13.2167 86.7741 13.3146 86.6823 13.3786C86.5904 13.4426 86.477 13.4673 86.3668 13.4475V13.4225ZM58.3441 11.7582C58.2521 11.7581 58.1627 11.7281 58.0893 11.6725C58.0159 11.617 57.9625 11.539 57.9372 11.4503C57.9117 11.3434 57.9287 11.2307 57.9845 11.136C58.0402 11.0414 58.1305 10.972 58.2362 10.9427C59.5647 10.6015 60.918 10.3103 62.2631 10.1106C62.3166 10.1011 62.3715 10.1024 62.4245 10.1145C62.4775 10.1266 62.5275 10.1493 62.5716 10.1811C62.6157 10.2129 62.653 10.2532 62.6813 10.2997C62.7096 10.3462 62.7284 10.3979 62.7364 10.4518C62.7471 10.506 62.7467 10.5618 62.7352 10.6159C62.7237 10.67 62.7014 10.7211 62.6695 10.7663C62.6377 10.8114 62.597 10.8496 62.55 10.8785C62.5029 10.9074 62.4505 10.9264 62.396 10.9344C61.0758 11.1508 59.7473 11.4337 58.4438 11.7665L58.3441 11.7582ZM78.5537 11.1508H78.4707C77.1588 10.8928 75.8137 10.6931 74.4769 10.5516C74.4224 10.5461 74.3695 10.53 74.3212 10.504C74.2729 10.4781 74.2302 10.4428 74.1955 10.4003C74.1608 10.3578 74.1348 10.3089 74.119 10.2563C74.1031 10.2038 74.0978 10.1486 74.1033 10.0939C74.1087 10.0393 74.1248 9.98626 74.1507 9.93787C74.1766 9.88948 74.2118 9.84668 74.2542 9.81191C74.2966 9.77714 74.3454 9.75108 74.3979 9.73521C74.4504 9.71935 74.5054 9.714 74.5599 9.71946C75.9216 9.86093 77.2916 10.0606 78.6284 10.3269C78.6826 10.3369 78.7342 10.3576 78.7803 10.3877C78.8265 10.4179 78.8661 10.457 78.8971 10.5027C78.928 10.5484 78.9495 10.5998 78.9604 10.6539C78.9713 10.708 78.9713 10.7638 78.9605 10.8179C78.9428 10.917 78.8905 11.0066 78.8129 11.0707C78.7353 11.1347 78.6375 11.169 78.537 11.1674L78.5537 11.1508ZM66.3731 10.4268C66.2694 10.427 66.1695 10.3875 66.0939 10.3163C66.0183 10.2452 65.9726 10.1478 65.9663 10.044C65.9606 9.98911 65.966 9.93362 65.9824 9.88091C65.9987 9.8282 66.0255 9.77936 66.0612 9.73735C66.0969 9.69533 66.1408 9.66102 66.1901 9.63649C66.2395 9.61196 66.2932 9.59773 66.3482 9.59465C67.7016 9.49479 69.0882 9.45318 70.4582 9.47815C70.5123 9.47814 70.566 9.48895 70.6159 9.50996C70.6658 9.53097 70.711 9.56175 70.7489 9.6005C70.7868 9.63925 70.8166 9.68519 70.8365 9.73562C70.8565 9.78606 70.8662 9.83998 70.8651 9.89422C70.8651 10.0046 70.8213 10.1104 70.7435 10.1884C70.6656 10.2665 70.56 10.3103 70.4499 10.3103C69.1131 10.3103 67.7514 10.3103 66.4146 10.4268H66.3731Z" fill="#F55353"/>
<path d="M103.265 86.4183C103.161 86.4191 103.06 86.3805 102.983 86.3102C102.906 86.231 102.863 86.125 102.863 86.0147C102.863 85.9045 102.906 85.7985 102.983 85.7193C103.448 85.2201 103.896 84.6958 104.336 84.1715C104.371 84.1295 104.414 84.0947 104.462 84.0692C104.51 84.0437 104.563 84.028 104.618 84.023C104.672 84.018 104.727 84.0237 104.779 84.0399C104.831 84.0561 104.879 84.0825 104.921 84.1175C104.963 84.1524 104.998 84.1953 105.024 84.2437C105.049 84.2922 105.065 84.3451 105.07 84.3996C105.075 84.4541 105.069 84.509 105.053 84.5612C105.037 84.6135 105.01 84.662 104.975 84.7041C104.527 85.245 104.07 85.7693 103.597 86.2852C103.556 86.3313 103.504 86.3672 103.446 86.3903C103.389 86.4134 103.327 86.423 103.265 86.4183Z" fill="#38A3A5"/>
<path d="M112.53 124.048H27.0089C26.8988 124.048 26.7932 124.004 26.7154 123.926C26.6375 123.848 26.5938 123.742 26.5938 123.632C26.5938 123.522 26.6375 123.416 26.7154 123.338C26.7932 123.26 26.8988 123.216 27.0089 123.216H112.53C112.64 123.216 112.746 123.26 112.824 123.338C112.902 123.416 112.945 123.522 112.945 123.632C112.945 123.742 112.902 123.848 112.824 123.926C112.746 124.004 112.64 124.048 112.53 124.048Z" fill="#38A3A5"/>
<path opacity="0.5" d="M121.929 72.0717C129.005 70.3863 133.378 63.2712 131.696 56.1798C130.014 49.0883 122.915 44.706 115.839 46.3915C108.763 48.077 104.391 55.192 106.072 62.2834C107.754 69.3749 114.854 73.7572 121.929 72.0717Z" fill="#80ED99"/>
<path d="M129.277 63.2628C132.374 56.6676 129.55 48.8052 122.969 45.7017C116.388 42.5982 108.543 45.4289 105.447 52.0241C102.35 58.6194 105.175 66.4817 111.755 69.5852C118.336 72.6887 126.181 69.8581 129.277 63.2628Z" fill="#80ED99"/>
<path d="M117.353 45.2105C120.777 45.2134 124.065 46.5534 126.519 48.9461C128.973 51.3387 130.4 54.5956 130.497 58.0255C130.497 57.8924 130.497 57.7676 130.497 57.6427C130.541 55.8822 130.233 54.1307 129.592 52.4913C128.95 50.8519 127.987 49.3578 126.76 48.097C125.534 46.8362 124.067 45.8342 122.448 45.1501C120.829 44.466 119.09 44.1135 117.333 44.1135C115.575 44.1135 113.836 44.466 112.217 45.1501C110.598 45.8342 109.132 46.8362 107.905 48.097C106.678 49.3578 105.715 50.8519 105.074 52.4913C104.432 54.1307 104.124 55.8822 104.168 57.6427C104.168 57.7676 104.168 57.8924 104.168 58.0255C104.266 54.5884 105.698 51.3254 108.161 48.9316C110.624 46.5378 113.923 45.2026 117.353 45.2105Z" fill="white"/>
<path d="M117.354 71.2566C114.667 71.2599 112.039 70.4643 109.803 68.9704C107.567 67.4765 105.823 65.3514 104.793 62.8641C103.762 60.3768 103.491 57.6389 104.013 54.997C104.535 52.3551 105.828 49.9278 107.727 48.0222C109.626 46.1165 112.046 44.8183 114.682 44.2917C117.317 43.765 120.049 44.0336 122.532 45.0635C125.015 46.0935 127.138 47.8384 128.631 50.0775C130.124 52.3167 130.921 54.9494 130.921 57.6427C130.919 61.2498 129.49 64.7088 126.946 67.2609C124.403 69.8131 120.953 71.25 117.354 71.2566ZM117.354 44.861C114.831 44.8577 112.364 45.6045 110.264 47.007C108.165 48.4095 106.528 50.4046 105.56 52.7398C104.592 55.0751 104.337 57.6456 104.827 60.1261C105.317 62.6066 106.531 64.8857 108.314 66.6749C110.097 68.4641 112.369 69.6831 114.843 70.1777C117.318 70.6722 119.883 70.4201 122.214 69.4531C124.546 68.4862 126.539 66.8479 127.941 64.7456C129.343 62.6433 130.091 60.1714 130.091 57.6427C130.087 54.257 128.744 51.011 126.357 48.6154C123.97 46.2198 120.732 44.8698 117.354 44.861Z" fill="#38A3A5"/>
<path d="M120.733 63.1765H113.044C112.851 63.1808 112.663 63.1175 112.511 62.9975C112.36 62.8776 112.255 62.7084 112.214 62.5191L111.21 57.8175C111.163 57.5968 111.206 57.3667 111.329 57.1779C111.452 56.9891 111.645 56.8569 111.865 56.8106C112.086 56.7642 112.315 56.8075 112.504 56.9308C112.692 57.054 112.824 57.2473 112.87 57.468L113.7 61.5122H120.011L121.497 52.7997C121.531 52.6043 121.633 52.4273 121.785 52.3007C121.937 52.1741 122.129 52.1061 122.327 52.109H124.278C124.499 52.109 124.71 52.1966 124.866 52.3527C125.021 52.5088 125.109 52.7204 125.109 52.9411C125.109 53.1618 125.021 53.3735 124.866 53.5295C124.71 53.6856 124.499 53.7733 124.278 53.7733H123.033L121.555 62.4858C121.522 62.6798 121.421 62.8556 121.27 62.9821C121.12 63.1085 120.929 63.1774 120.733 63.1765Z" fill="white"/>
<path d="M121.532 58.4749H112.041C111.821 58.4749 111.61 58.3872 111.454 58.2312C111.298 58.0751 111.211 57.8635 111.211 57.6428C111.211 57.4221 111.298 57.2104 111.454 57.0543C111.61 56.8983 111.821 56.8106 112.041 56.8106H121.532C121.752 56.8106 121.963 56.8983 122.119 57.0543C122.274 57.2104 122.362 57.4221 122.362 57.6428C122.362 57.8635 122.274 58.0751 122.119 58.2312C121.963 58.3872 121.752 58.4749 121.532 58.4749Z" fill="white"/>
<path d="M121.108 60.963H112.572C112.352 60.963 112.141 60.8753 111.985 60.7193C111.83 60.5632 111.742 60.3516 111.742 60.1309C111.742 59.9102 111.83 59.6985 111.985 59.5425C112.141 59.3864 112.352 59.2987 112.572 59.2987H121.108C121.328 59.2987 121.539 59.3864 121.695 59.5425C121.851 59.6985 121.938 59.9102 121.938 60.1309C121.938 60.3516 121.851 60.5632 121.695 60.7193C121.539 60.8753 121.328 60.963 121.108 60.963Z" fill="white"/>
<path d="M115.977 65.0655C115.977 65.2301 115.928 65.391 115.837 65.5278C115.746 65.6646 115.616 65.7713 115.464 65.8343C115.313 65.8973 115.146 65.9138 114.985 65.8816C114.824 65.8495 114.676 65.7703 114.56 65.6539C114.443 65.5375 114.364 65.3893 114.332 65.2278C114.3 65.0664 114.317 64.8991 114.38 64.747C114.442 64.595 114.549 64.465 114.685 64.3736C114.822 64.2821 114.982 64.2334 115.147 64.2334C115.367 64.2334 115.578 64.321 115.734 64.4771C115.89 64.6331 115.977 64.8448 115.977 65.0655Z" fill="white"/>
<path d="M118.602 65.9309C119.079 65.9309 119.465 65.5435 119.465 65.0655C119.465 64.5875 119.079 64.2001 118.602 64.2001C118.125 64.2001 117.738 64.5875 117.738 65.0655C117.738 65.5435 118.125 65.9309 118.602 65.9309Z" fill="white"/>
<path d="M45.9002 9.31172C45.7901 9.31172 45.6845 9.26789 45.6067 9.18986C45.5288 9.11183 45.485 9.006 45.485 8.89565C45.4861 8.38406 45.3845 7.87748 45.1861 7.40611C44.9862 6.95343 44.7047 6.54157 44.3558 6.19118C44.0104 5.83645 43.5985 5.55365 43.1436 5.35903C42.6733 5.16021 42.1678 5.05833 41.6573 5.05946C41.5472 5.05946 41.4417 5.01562 41.3638 4.93759C41.286 4.85956 41.2422 4.75373 41.2422 4.64338C41.2422 4.53303 41.286 4.4272 41.3638 4.34918C41.4417 4.27115 41.5472 4.22731 41.6573 4.22731C42.1674 4.2243 42.6721 4.12258 43.1436 3.92774C44.057 3.53401 44.785 2.80437 45.1778 1.88898C45.3762 1.41761 45.4779 0.911028 45.4768 0.399441C45.4768 0.289091 45.5205 0.183261 45.5983 0.105233C45.6762 0.0272037 45.7818 -0.0166321 45.8919 -0.0166321C46.002 -0.0166321 46.1076 0.0272037 46.1854 0.105233C46.2633 0.183261 46.3071 0.289091 46.3071 0.399441C46.3059 0.911028 46.4076 1.41761 46.606 1.88898C46.8002 2.34483 47.0823 2.75772 47.4363 3.10392C47.7878 3.45133 48.1982 3.73312 48.6485 3.93606C49.12 4.1309 49.6247 4.23262 50.1348 4.23563C50.2449 4.23563 50.3504 4.27947 50.4283 4.3575C50.5061 4.43553 50.5499 4.54136 50.5499 4.65171C50.5499 4.76206 50.5061 4.86789 50.4283 4.94592C50.3504 5.02394 50.2449 5.06778 50.1348 5.06778C49.6243 5.06665 49.1188 5.16854 48.6485 5.36735C47.7333 5.75131 47.0056 6.48063 46.6225 7.39779C46.4242 7.86917 46.3225 8.37574 46.3236 8.88733C46.3248 8.94337 46.3146 8.99907 46.2937 9.05107C46.2729 9.10307 46.2417 9.1503 46.2022 9.18994C46.1626 9.22958 46.1154 9.2608 46.0636 9.28172C46.0117 9.30265 45.9561 9.31286 45.9002 9.31172ZM43.592 4.66003C44.1004 4.88931 44.5621 5.21095 44.9537 5.60868C45.3516 6.00026 45.6726 6.46317 45.9002 6.97339C46.3678 5.94977 47.1871 5.12873 48.2084 4.66003C47.7005 4.42992 47.2389 4.10839 46.8467 3.71138C46.4524 3.31677 46.1319 2.85456 45.9002 2.34666C45.4325 3.37029 44.6133 4.19133 43.592 4.66003Z" fill="#38A3A5"/>
<path d="M30.082 11.467V11.0592L30.1235 11.467H30.082ZM30.082 11.467C29.7847 11.4684 29.4886 11.4292 29.2018 11.3505L29.4094 10.5766C29.627 10.6293 29.8498 10.6572 30.0737 10.6598L30.082 11.467ZM30.9621 11.3505L30.7462 10.5683C30.9653 10.5135 31.1752 10.4266 31.3689 10.3103L31.7758 11.0093C31.5193 11.1554 31.246 11.2699 30.9621 11.3505ZM28.3882 11.0176C28.1307 10.8685 27.8934 10.6867 27.6824 10.4767L28.247 9.90253C28.4063 10.0662 28.588 10.2063 28.7867 10.3186L28.3882 11.0176ZM32.4816 10.4684L31.9086 9.89422C32.0675 9.73584 32.2044 9.5567 32.3155 9.36164L33.013 9.76107C32.868 10.0195 32.6893 10.2574 32.4816 10.4684ZM27.1427 9.77771C26.9893 9.51748 26.872 9.23753 26.794 8.94556L27.5745 8.72921C27.6343 8.9471 27.7207 9.15673 27.8319 9.35332L27.1427 9.77771ZM33.3534 8.94556L32.5729 8.73753C32.6322 8.52058 32.6629 8.29677 32.6642 8.07182H33.4945C33.4849 8.36519 33.4375 8.65608 33.3534 8.93725V8.94556ZM26.7109 8.11342C26.7123 7.83262 26.7485 7.55308 26.8189 7.28127L27.5994 7.48931C27.5427 7.70377 27.5148 7.92485 27.5164 8.14671L26.7109 8.11342ZM32.5978 7.39778C32.5416 7.17868 32.455 6.96859 32.3404 6.77367L33.0295 6.3576C33.18 6.61927 33.2972 6.89884 33.3783 7.18974L32.5978 7.39778ZM27.8484 6.80695L27.151 6.40752C27.299 6.15107 27.4773 5.91356 27.6824 5.7002L28.2636 6.27438C28.0929 6.4203 27.9421 6.58819 27.8153 6.77367L27.8484 6.80695ZM31.917 6.24109C31.7574 6.07999 31.5757 5.94268 31.3772 5.83334L31.7758 5.12602C32.0333 5.27511 32.2705 5.45692 32.4816 5.66691L31.917 6.24109ZM28.795 5.80838L28.3882 5.10938C28.6482 4.95636 28.9274 4.83882 29.2185 4.75987L29.4344 5.54209C29.2091 5.59813 28.9935 5.68791 28.795 5.80838ZM30.7545 5.53377C30.5433 5.47699 30.3255 5.449 30.1069 5.45055V4.61841C30.3866 4.61906 30.6653 4.65258 30.9372 4.71827L30.7545 5.53377Z" fill="#38A3A5"/>
<path d="M25.9066 19.6303C25.7961 19.6298 25.6896 19.5883 25.6077 19.5138C25.5311 19.4347 25.4883 19.3287 25.4883 19.2184C25.4883 19.1081 25.5311 19.0022 25.6077 18.923L26.7037 17.8246C26.7819 17.7462 26.8879 17.7022 26.9985 17.7022C27.109 17.7022 27.215 17.7462 27.2932 17.8246C27.3714 17.9029 27.4153 18.0092 27.4153 18.12C27.4153 18.2308 27.3714 18.337 27.2932 18.4154L26.1972 19.5138C26.1175 19.5864 26.0143 19.6277 25.9066 19.6303Z" fill="#38A3A5"/>
<path d="M24.3869 19.647C24.2747 19.6467 24.1672 19.6018 24.088 19.5221L22.9836 18.4237C22.9066 18.3465 22.8633 18.2417 22.8633 18.1324C22.8633 18.0232 22.9066 17.9184 22.9836 17.8412C23.0607 17.764 23.1652 17.7206 23.2742 17.7206C23.3832 17.7206 23.4878 17.764 23.5649 17.8412L24.6609 18.9313C24.6998 18.97 24.7307 19.016 24.7517 19.0667C24.7728 19.1174 24.7837 19.1718 24.7837 19.2267C24.7837 19.2816 24.7728 19.336 24.7517 19.3867C24.7307 19.4374 24.6998 19.4834 24.6609 19.5221C24.5883 19.5966 24.4906 19.6412 24.3869 19.647Z" fill="#38A3A5"/>
<path d="M23.3 22.2599C23.2187 22.2588 23.1396 22.2337 23.0724 22.1879C23.0052 22.1421 22.9528 22.0776 22.9219 22.0023C22.891 21.927 22.8827 21.8442 22.8983 21.7643C22.9138 21.6843 22.9525 21.6107 23.0094 21.5526L24.1053 20.4541C24.1829 20.3779 24.2873 20.3352 24.396 20.3352C24.5046 20.3352 24.6089 20.3779 24.6866 20.4541C24.7255 20.4928 24.7563 20.5388 24.7774 20.5895C24.7985 20.6402 24.8093 20.6946 24.8093 20.7496C24.8093 20.8045 24.7985 20.8589 24.7774 20.9096C24.7563 20.9603 24.7255 21.0063 24.6866 21.045L23.5989 22.1351C23.5197 22.2147 23.4122 22.2596 23.3 22.2599Z" fill="#38A3A5"/>
<path d="M27.0094 22.2516C26.8972 22.2513 26.7897 22.2064 26.7105 22.1268L25.6228 21.0366C25.5839 20.998 25.553 20.9519 25.5319 20.9012C25.5109 20.8505 25.5 20.7962 25.5 20.7412C25.5 20.6863 25.5109 20.6319 25.5319 20.5812C25.553 20.5305 25.5839 20.4845 25.6228 20.4458C25.6601 20.406 25.7051 20.3743 25.7551 20.3526C25.805 20.3309 25.859 20.3197 25.9134 20.3197C25.9679 20.3197 26.0218 20.3309 26.0717 20.3526C26.1217 20.3743 26.1667 20.406 26.204 20.4458L27.3 21.5359C27.3766 21.6151 27.4194 21.7211 27.4194 21.8313C27.4194 21.9416 27.3766 22.0476 27.3 22.1268C27.2234 22.2052 27.1189 22.25 27.0094 22.2516Z" fill="#38A3A5"/>
<path d="M103.836 136.455L101.495 129.798L102.325 115.485C102.732 108.476 101.686 101.457 99.253 94.873L91.5893 74.1192V104.667H54.0015C54.0015 104.667 53.4369 123.574 74.1696 139.451L76.5858 145.576L103.836 136.455Z" fill="white"/>
<path d="M76.5857 146C76.5025 146 76.4212 145.976 76.3518 145.93C76.2824 145.884 76.228 145.819 76.1954 145.742L73.8291 139.726C53.2541 123.915 53.5863 104.85 53.5863 104.659C53.5906 104.552 53.6362 104.45 53.7136 104.375C53.791 104.301 53.8941 104.259 54.0014 104.26H91.1741V74.1276C91.1728 74.03 91.2064 73.9353 91.2689 73.8604C91.3313 73.7856 91.4185 73.7357 91.5145 73.7198C91.6109 73.702 91.7105 73.719 91.7956 73.7678C91.8807 73.8165 91.9458 73.8938 91.9795 73.9861L99.6432 94.7315C102.107 101.375 103.162 108.46 102.74 115.535L101.91 129.765L104.235 136.297C104.271 136.408 104.262 136.528 104.21 136.632C104.158 136.735 104.067 136.814 103.957 136.851C103.902 136.869 103.845 136.876 103.787 136.871C103.73 136.867 103.674 136.852 103.623 136.826C103.519 136.774 103.441 136.682 103.404 136.572L101.063 129.965C101.047 129.91 101.047 129.852 101.063 129.798L101.893 115.485C102.308 108.532 101.271 101.568 98.8461 95.0394L91.9878 76.4659V104.692C91.9857 104.802 91.9412 104.907 91.8638 104.984C91.7864 105.062 91.6821 105.106 91.5726 105.108H54.4249C54.4996 107.921 55.7783 124.863 74.4186 139.151C74.4828 139.193 74.5321 139.255 74.5597 139.326L76.9676 145.451C76.9878 145.502 76.9979 145.556 76.9971 145.611C76.9964 145.665 76.9849 145.719 76.9633 145.77C76.9417 145.82 76.9104 145.865 76.8713 145.903C76.8321 145.941 76.7858 145.971 76.7351 145.992L76.5857 146Z" fill="#38A3A5"/>
<path d="M57.8058 63.6758C57.8058 63.6758 48.9631 61.3708 45.3513 60.9297C41.7395 60.4887 37.5797 68.3358 46.5635 71.1734C49.8132 72.2707 53.1199 73.1902 56.4691 73.9278H56.7181L57.8058 63.6758Z" fill="white"/>
<path d="M56.7166 74.3439H56.4676C53.0728 73.6081 49.7238 72.6745 46.4375 71.5479C42.452 70.2914 40.3431 67.7616 40.7997 64.7742C41.1817 62.2778 43.3488 60.239 45.3996 60.497C48.9948 60.9381 57.5469 63.1682 57.9123 63.2597C58.0098 63.2835 58.095 63.3425 58.1517 63.4255C58.2084 63.5084 58.2326 63.6094 58.2195 63.7091L57.1318 73.9528C57.1235 74.0581 57.0764 74.1565 56.9997 74.2288C56.9229 74.3011 56.822 74.3422 56.7166 74.3439ZM45.0426 61.3208C43.4899 61.3208 41.9206 62.9851 41.6217 64.9157C41.4391 66.139 41.5553 69.1513 46.6866 70.7407C52.7395 72.6547 55.6206 73.2954 56.3513 73.4452L57.356 63.9587C55.6954 63.5343 48.4385 61.6953 45.3 61.3042L45.0426 61.3208Z" fill="#38A3A5"/>
<path d="M57.0739 78.4131C57.0739 78.4131 48.2312 76.1081 44.6194 75.667C41.0076 75.226 36.8478 83.0731 45.84 85.9107C49.0867 87.0083 52.3906 87.9278 55.7372 88.6652H55.9946L57.0739 78.4131Z" fill="white"/>
<path d="M55.9864 89.0812H55.729C52.3392 88.3431 48.9934 87.4152 45.7072 86.3018C41.7134 85.0453 39.6128 82.5156 40.0695 79.5282C40.4514 77.0317 42.6185 74.993 44.661 75.2509C48.2645 75.692 56.8166 77.9221 57.1737 78.0137C57.2709 78.0389 57.356 78.098 57.4138 78.1803C57.4716 78.2626 57.4983 78.3628 57.4892 78.463L56.4015 88.7067C56.3894 88.809 56.3407 88.9034 56.2643 88.9723C56.1879 89.0412 56.0891 89.0799 55.9864 89.0812ZM44.3123 76.0581C42.7596 76.0581 41.1904 77.7224 40.8914 79.653C40.7005 80.8763 40.8167 83.8886 45.9563 85.478C52.0009 87.392 54.8903 88.0327 55.6127 88.1825L56.6257 78.696C54.9651 78.2716 47.7082 76.4326 44.5614 76.0415L44.3123 76.0581Z" fill="#38A3A5"/>
<path d="M58.7953 89.023C58.7953 89.023 49.9443 86.7179 46.3407 86.2686C42.7372 85.8192 38.5691 93.6747 47.553 96.5123C50.8009 97.6151 54.1079 98.5346 57.4585 99.2667H57.7159L58.7953 89.023Z" fill="white"/>
<path d="M57.7051 99.7077H57.4477C54.0529 98.9826 50.7037 98.0573 47.4176 96.9367C43.4322 95.6801 41.3315 93.1421 41.7882 90.1547C42.1618 87.6583 44.3289 85.6278 46.3798 85.8858C49.9833 86.3268 58.5354 88.5487 58.8924 88.6485C58.9883 88.6721 59.0724 88.7299 59.1289 88.8111C59.1854 88.8922 59.2106 88.9912 59.1996 89.0895L58.1203 99.3416C58.1063 99.4423 58.0567 99.5347 57.9805 99.602C57.9043 99.6692 57.8066 99.7067 57.7051 99.7077ZM46.031 86.693C44.4701 86.693 42.9091 88.3573 42.6102 90.2878C42.4192 91.5028 42.5354 94.5235 47.6667 96.1129C53.7196 98.0185 56.6091 98.6675 57.3315 98.8173L58.3361 89.3309C56.6755 88.8981 49.427 87.0591 46.2801 86.6763L46.031 86.693Z" fill="#38A3A5"/>
<path d="M20.3259 123.923H10.9933C10.8832 123.923 10.7776 123.879 10.6997 123.801C10.6218 123.723 10.5781 123.617 10.5781 123.507C10.5781 123.397 10.6218 123.291 10.6997 123.213C10.7776 123.135 10.8832 123.091 10.9933 123.091H20.3259C20.436 123.091 20.5416 123.135 20.6194 123.213C20.6973 123.291 20.741 123.397 20.741 123.507C20.7389 123.617 20.6945 123.721 20.6171 123.799C20.5397 123.877 20.4353 123.921 20.3259 123.923Z" fill="#38A3A5"/>
<path d="M120.868 124.048H117.696C117.586 124.048 117.481 124.004 117.403 123.926C117.325 123.848 117.281 123.742 117.281 123.632C117.281 123.522 117.325 123.416 117.403 123.338C117.481 123.26 117.586 123.216 117.696 123.216H120.868C120.978 123.218 121.082 123.263 121.159 123.34C121.237 123.418 121.281 123.522 121.283 123.632C121.283 123.742 121.24 123.848 121.162 123.926C121.084 124.004 120.978 124.048 120.868 124.048Z" fill="#38A3A5"/>
<path d="M94.34 102.387V80.119L91.5917 72.6879V103.228H54.0039C54.2331 106.59 54.8204 109.918 55.7558 113.155C56.063 113.155 56.3703 113.205 56.6775 113.205H83.5461C86.4088 113.205 89.1543 112.065 91.1786 110.037C93.2028 108.008 94.34 105.256 94.34 102.387Z" fill="#80ED99"/>
<path d="M83.5371 21.6191H56.6768C50.7154 21.6191 45.8828 26.4625 45.8828 32.437V100.948C45.8828 106.922 50.7154 111.766 56.6768 111.766H83.5371C89.4984 111.766 94.331 106.922 94.331 100.948V32.437C94.331 26.4625 89.4984 21.6191 83.5371 21.6191Z" fill="#80ED99"/>
<path d="M83.5453 110.326H56.6768C53.814 110.326 51.0685 109.186 49.0443 107.157C47.02 105.129 45.8828 102.377 45.8828 99.508V100.948C45.8828 103.817 47.02 106.568 49.0443 108.597C51.0685 110.626 53.814 111.766 56.6768 111.766H83.5453C86.4081 111.766 89.1536 110.626 91.1778 108.597C93.2021 106.568 94.3393 103.817 94.3393 100.948V99.508C94.3393 102.377 93.2021 105.129 91.1778 107.157C89.1536 109.186 86.4081 110.326 83.5453 110.326Z" fill="#8FB5FF"/>
<path d="M83.5453 21.6191H56.6768C53.814 21.6191 51.0685 22.7589 49.0443 24.7876C47.02 26.8164 45.8828 29.568 45.8828 32.437V33.161C45.8828 30.2919 47.02 27.5403 49.0443 25.5116C51.0685 23.4828 53.814 22.3431 56.6768 22.3431H83.5453C86.4081 22.3431 89.1536 23.4828 91.1778 25.5116C93.2021 27.5403 94.3393 30.2919 94.3393 33.161V32.437C94.3393 29.568 93.2021 26.8164 91.1778 24.7876C89.1536 22.7589 86.4081 21.6191 83.5453 21.6191Z" fill="white"/>
<path d="M89.0234 33.6353H51.2031C50.2539 33.6353 49.4844 34.4066 49.4844 35.3579V101.863C49.4844 102.814 50.2539 103.586 51.2031 103.586H89.0234C89.9726 103.586 90.7421 102.814 90.7421 101.863V35.3579C90.7421 34.4066 89.9726 33.6353 89.0234 33.6353Z" fill="#F2F7FA"/>
<path d="M89.0157 104.002H51.212C50.6461 104.002 50.1033 103.776 49.7031 103.375C49.303 102.974 49.0781 102.43 49.0781 101.863V35.3579C49.0781 34.7907 49.303 34.2467 49.7031 33.8457C50.1033 33.4446 50.6461 33.2193 51.212 33.2193H89.024C89.5899 33.2193 90.1327 33.4446 90.5329 33.8457C90.933 34.2467 91.1579 34.7907 91.1579 35.3579V101.863C91.1579 102.145 91.1024 102.423 90.9946 102.683C90.8869 102.943 90.729 103.179 90.53 103.378C90.331 103.577 90.0947 103.734 89.8348 103.841C89.575 103.948 89.2967 104.003 89.0157 104.002ZM51.212 34.0514C50.8663 34.0514 50.5347 34.1891 50.2902 34.4341C50.0458 34.6791 49.9084 35.0114 49.9084 35.3579V101.863C49.9084 102.209 50.0458 102.542 50.2902 102.787C50.5347 103.032 50.8663 103.169 51.212 103.169H89.024C89.3697 103.169 89.7013 103.032 89.9458 102.787C90.1902 102.542 90.3276 102.209 90.3276 101.863V35.3579C90.3276 35.0114 90.1902 34.6791 89.9458 34.4341C89.7013 34.1891 89.3697 34.0514 89.024 34.0514H51.212Z" fill="#38A3A5"/>
<path d="M83.5464 112.182H56.6778C53.7057 112.179 50.8559 110.995 48.7542 108.889C46.6526 106.782 45.4709 103.926 45.4688 100.948V32.437C45.4731 29.459 46.6555 26.6041 48.7567 24.4983C50.8578 22.3925 53.7064 21.2075 56.6778 21.2031H75.7748C75.8849 21.2031 75.9905 21.2469 76.0683 21.3249C76.1462 21.403 76.19 21.5088 76.19 21.6191C76.19 21.7295 76.1462 21.8353 76.0683 21.9133C75.9905 21.9914 75.8849 22.0352 75.7748 22.0352H56.6778C53.9266 22.0396 51.2892 23.1369 49.3438 25.0867C47.3983 27.0365 46.3034 29.6797 46.2991 32.437V100.948C46.3034 103.705 47.3983 106.348 49.3438 108.298C51.2892 110.248 53.9266 111.345 56.6778 111.349H83.5464C86.2977 111.345 88.9351 110.248 90.8805 108.298C92.826 106.348 93.9208 103.705 93.9252 100.948V32.437C93.9208 29.6797 92.826 27.0365 90.8805 25.0867C88.9351 23.1369 86.2977 22.0396 83.5464 22.0352H79.5444C79.4343 22.0352 79.3287 21.9914 79.2508 21.9133C79.1729 21.8353 79.1292 21.7295 79.1292 21.6191C79.1292 21.5088 79.1729 21.403 79.2508 21.3249C79.3287 21.2469 79.4343 21.2031 79.5444 21.2031H83.5464C86.5179 21.2075 89.3665 22.3925 91.4676 24.4983C93.5688 26.6041 94.7511 29.459 94.7555 32.437V100.948C94.7533 103.926 93.5717 106.782 91.47 108.889C89.3684 110.995 86.5186 112.179 83.5464 112.182Z" fill="#38A3A5"/>
<path d="M71.4822 26.3457C71.4822 26.6173 71.4018 26.8828 71.2513 27.1086C71.1007 27.3343 70.8868 27.5103 70.6364 27.6143C70.3861 27.7182 70.1107 27.7454 69.8449 27.6924C69.5792 27.6394 69.335 27.5086 69.1434 27.3166C68.9518 27.1246 68.8214 26.8799 68.7685 26.6136C68.7157 26.3472 68.7428 26.0712 68.8465 25.8203C68.9502 25.5694 69.1258 25.355 69.3511 25.2041C69.5764 25.0532 69.8412 24.9727 70.1122 24.9727C70.4755 24.9727 70.824 25.1173 71.0809 25.3748C71.3378 25.6323 71.4822 25.9816 71.4822 26.3457Z" fill="#38A3A5"/>
<path d="M75.4903 30.1653H64.6964C64.5863 30.1653 64.4807 30.1214 64.4029 30.0434C64.325 29.9654 64.2812 29.8596 64.2812 29.7492C64.2812 29.6389 64.325 29.533 64.4029 29.455C64.4807 29.377 64.5863 29.3331 64.6964 29.3331H75.4903C75.6004 29.3331 75.7061 29.377 75.7839 29.455C75.8618 29.533 75.9055 29.6389 75.9055 29.7492C75.9055 29.8596 75.8618 29.9654 75.7839 30.0434C75.7061 30.1214 75.6004 30.1653 75.4903 30.1653Z" fill="#38A3A5"/>
<path d="M52.5316 36.0402C52.5316 36.1587 52.4965 36.2746 52.4308 36.3731C52.3651 36.4716 52.2718 36.5484 52.1625 36.5938C52.0533 36.6391 51.9331 36.651 51.8171 36.6279C51.7012 36.6048 51.5947 36.5477 51.5111 36.4639C51.4274 36.3801 51.3705 36.2734 51.3474 36.1571C51.3243 36.0409 51.3362 35.9204 51.3815 35.811C51.4267 35.7015 51.5033 35.6079 51.6016 35.5421C51.6999 35.4762 51.8155 35.4411 51.9338 35.4411C52.0923 35.4411 52.2443 35.5042 52.3565 35.6166C52.4686 35.7289 52.5316 35.8813 52.5316 36.0402Z" fill="#38A3A5"/>
<path d="M54.3333 36.0402C54.3349 36.1607 54.3008 36.279 54.2352 36.38C54.1696 36.481 54.0755 36.5601 53.9649 36.6074C53.8543 36.6546 53.7322 36.6679 53.6141 36.6454C53.496 36.6229 53.3872 36.5657 53.3016 36.4811C53.216 36.3965 53.1574 36.2882 53.1334 36.1702C53.1093 36.0521 53.1208 35.9296 53.1664 35.8181C53.2121 35.7066 53.2897 35.6112 53.3896 35.5441C53.4894 35.477 53.607 35.4411 53.7272 35.4411C53.8865 35.4411 54.0394 35.5039 54.1528 35.6161C54.2663 35.7282 54.3311 35.8806 54.3333 36.0402Z" fill="#38A3A5"/>
<path d="M56.1292 36.0402C56.1292 36.1587 56.0942 36.2746 56.0285 36.3731C55.9628 36.4716 55.8694 36.5484 55.7602 36.5938C55.6509 36.6391 55.5307 36.651 55.4148 36.6279C55.2988 36.6048 55.1923 36.5477 55.1087 36.4639C55.0251 36.3801 54.9682 36.2734 54.9451 36.1571C54.922 36.0409 54.9338 35.9204 54.9791 35.811C55.0243 35.7015 55.101 35.6079 55.1993 35.5421C55.2976 35.4762 55.4132 35.4411 55.5314 35.4411C55.6099 35.4411 55.6877 35.4566 55.7602 35.4867C55.8327 35.5168 55.8986 35.5609 55.9541 35.6166C56.0096 35.6722 56.0537 35.7383 56.0837 35.811C56.1138 35.8837 56.1292 35.9616 56.1292 36.0402Z" fill="#38A3A5"/>
<path d="M62.7782 36.4563H58.2198C58.1097 36.4563 58.0041 36.4125 57.9263 36.3345C57.8484 36.2564 57.8047 36.1506 57.8047 36.0402C57.8047 35.9299 57.8484 35.8241 57.9263 35.746C58.0041 35.668 58.1097 35.6242 58.2198 35.6242H62.7782C62.8883 35.6242 62.9939 35.668 63.0718 35.746C63.1496 35.8241 63.1933 35.9299 63.1933 36.0402C63.1933 36.1506 63.1496 36.2564 63.0718 36.3345C62.9939 36.4125 62.8883 36.4563 62.7782 36.4563Z" fill="#38A3A5"/>
<path d="M86.9728 37.0555H83.4191C83.309 37.0555 83.2034 37.0116 83.1255 36.9336C83.0477 36.8556 83.0039 36.7497 83.0039 36.6394V35.4411C83.0039 35.3307 83.0477 35.2249 83.1255 35.1469C83.2034 35.0689 83.309 35.025 83.4191 35.025H86.9728C87.0829 35.025 87.1884 35.0689 87.2663 35.1469C87.3442 35.2249 87.3879 35.3307 87.3879 35.4411V36.6394C87.3879 36.7497 87.3442 36.8556 87.2663 36.9336C87.1884 37.0116 87.0829 37.0555 86.9728 37.0555ZM83.8342 36.2233H86.5576V35.8572H83.8342V36.2233Z" fill="#38A3A5"/>
<path d="M87.7199 35.6658H86.9727V36.4147H87.7199V35.6658Z" fill="#38A3A5"/>
<path d="M71.1808 53.9397C71.0707 53.9397 70.9651 53.8959 70.8873 53.8178C70.8094 53.7398 70.7656 53.634 70.7656 53.5236V50.7443C70.7656 50.6339 70.8094 50.5281 70.8873 50.4501C70.9651 50.372 71.0707 50.3282 71.1808 50.3282C71.2902 50.3303 71.3946 50.3748 71.472 50.4524C71.5494 50.53 71.5938 50.6346 71.5959 50.7443V53.5153C71.5959 53.6264 71.5525 53.7331 71.4749 53.8125C71.3972 53.8918 71.2916 53.9375 71.1808 53.9397Z" fill="#38A3A5"/>
<path d="M68.6511 54.6553C68.5434 54.6528 68.4402 54.6114 68.3605 54.5388L66.2432 52.4086C66.2045 52.3698 66.1738 52.3237 66.1528 52.273C66.1319 52.2223 66.1211 52.168 66.1211 52.1131C66.1211 52.0583 66.1319 52.004 66.1528 51.9533C66.1738 51.9026 66.2045 51.8565 66.2432 51.8177C66.2819 51.7789 66.3279 51.7482 66.3784 51.7272C66.429 51.7062 66.4832 51.6954 66.538 51.6954C66.5927 51.6954 66.6469 51.7062 66.6975 51.7272C66.748 51.7482 66.794 51.7789 66.8327 51.8177L68.9334 53.9231C69.01 54.0022 69.0528 54.1082 69.0528 54.2185C69.0528 54.3288 69.01 54.4347 68.9334 54.5139C68.8595 54.5938 68.7592 54.644 68.6511 54.6553Z" fill="#38A3A5"/>
<path d="M73.722 54.6553C73.614 54.6543 73.5103 54.6127 73.4314 54.5388C73.3925 54.5002 73.3616 54.4541 73.3405 54.4034C73.3194 54.3527 73.3086 54.2984 73.3086 54.2434C73.3086 54.1885 73.3194 54.1341 73.3405 54.0834C73.3616 54.0327 73.3925 53.9867 73.4314 53.948L75.532 51.8427C75.6096 51.7665 75.714 51.7238 75.8227 51.7238C75.9313 51.7238 76.0356 51.7665 76.1132 51.8427C76.1522 51.8814 76.183 51.9274 76.2041 51.9781C76.2252 52.0288 76.236 52.0832 76.236 52.1381C76.236 52.193 76.2252 52.2474 76.2041 52.2981C76.183 52.3488 76.1522 52.3948 76.1132 52.4335L74.0209 54.5388C73.939 54.6133 73.8325 54.6548 73.722 54.6553Z" fill="#38A3A5"/>
<path d="M57.5419 24.1822H56.5206C56.4112 24.18 56.3068 24.1355 56.2294 24.0579C56.152 23.9804 56.1076 23.8758 56.1055 23.7661C56.1055 23.6557 56.1492 23.5499 56.227 23.4719C56.3049 23.3938 56.4105 23.35 56.5206 23.35H57.5419C57.652 23.35 57.7576 23.3938 57.8355 23.4719C57.9133 23.5499 57.957 23.6557 57.957 23.7661C57.957 23.8764 57.9133 23.9823 57.8355 24.0603C57.7576 24.1383 57.652 24.1822 57.5419 24.1822Z" fill="white"/>
<path d="M65.0973 24.1822H59.5675C59.4581 24.18 59.3537 24.1355 59.2763 24.0579C59.1989 23.9804 59.1545 23.8758 59.1523 23.7661C59.1523 23.6557 59.1961 23.5499 59.2739 23.4719C59.3518 23.3938 59.4574 23.35 59.5675 23.35H65.0973C65.2074 23.35 65.313 23.3938 65.3909 23.4719C65.4687 23.5499 65.5124 23.6557 65.5124 23.7661C65.5124 23.8764 65.4687 23.9823 65.3909 24.0603C65.313 24.1383 65.2074 24.1822 65.0973 24.1822Z" fill="white"/>
<path d="M73.1511 107.571H67.1066C66.9965 107.571 66.8908 107.528 66.813 107.45C66.7351 107.372 66.6914 107.266 66.6914 107.155C66.6914 107.045 66.7351 106.939 66.813 106.861C66.8908 106.783 66.9965 106.739 67.1066 106.739H73.1511C73.2612 106.739 73.3669 106.783 73.4447 106.861C73.5226 106.939 73.5663 107.045 73.5663 107.155C73.5663 107.266 73.5226 107.372 73.4447 107.45C73.3669 107.528 73.2612 107.571 73.1511 107.571Z" fill="#38A3A5"/>
<path opacity="0.5" d="M71.5555 81.4005C78.1726 81.4005 83.5368 76.0244 83.5368 69.3926C83.5368 62.7609 78.1726 57.3848 71.5555 57.3848C64.9384 57.3848 59.5742 62.7609 59.5742 69.3926C59.5742 76.0244 64.9384 81.4005 71.5555 81.4005Z" fill="#80ED99"/>
<path d="M70.7742 79.8361C77.3913 79.8361 82.7555 74.46 82.7555 67.8282C82.7555 61.1964 77.3913 55.8203 70.7742 55.8203C64.1572 55.8203 58.793 61.1964 58.793 67.8282C58.793 74.46 64.1572 79.8361 70.7742 79.8361Z" fill="#57CC99"/>
<path d="M70.7737 56.7107C73.878 56.7065 76.8627 57.9099 79.0992 60.0675C81.3357 62.2252 82.6493 65.1685 82.7633 68.2776C82.7633 68.1278 82.7633 67.9863 82.7633 67.8365C82.7633 64.6518 81.501 61.5976 79.2541 59.3457C77.0072 57.0938 73.9597 55.8287 70.782 55.8287C67.6044 55.8287 64.5569 57.0938 62.31 59.3457C60.0631 61.5976 58.8008 64.6518 58.8008 67.8365C58.8008 67.9863 58.8008 68.1278 58.8008 68.2776C58.9147 65.1714 60.226 62.2305 62.4589 60.0733C64.6918 57.9162 67.6723 56.7108 70.7737 56.7107Z" fill="white"/>
<path d="M70.7763 80.2605C68.3225 80.2621 65.9234 79.5344 63.8824 78.1693C61.8413 76.8042 60.2501 74.8632 59.3099 72.5916C58.3698 70.32 58.1229 67.8201 58.6006 65.4079C59.0783 62.9957 60.2591 60.7797 61.9936 59.0402C63.7281 57.3007 65.9384 56.1158 68.3449 55.6354C70.7514 55.1551 73.246 55.4008 75.5131 56.3415C77.7803 57.2822 79.7181 58.8757 81.0816 60.9204C82.445 62.965 83.1727 65.369 83.1727 67.8282C83.1596 71.12 81.8496 74.2733 79.5279 76.6017C77.2062 78.9301 74.0608 80.2451 70.7763 80.2605ZM70.7763 56.2364C68.4864 56.2348 66.2474 56.9139 64.3428 58.1879C62.4381 59.4619 60.9533 61.2735 60.0762 63.3935C59.1991 65.5135 58.9692 67.8466 59.4156 70.0976C59.8619 72.3485 60.9644 74.4162 62.5836 76.039C64.2029 77.6619 66.266 78.7668 68.512 79.2142C70.758 79.6615 73.0859 79.4311 75.2012 78.552C77.3165 77.673 79.124 76.1849 80.3952 74.276C81.6664 72.3671 82.3441 70.1232 82.3424 67.8282C82.338 64.7552 81.1181 61.8094 78.9499 59.6364C76.7818 57.4635 73.8425 56.2408 70.7763 56.2364Z" fill="#38A3A5"/>
<path d="M70.7732 77.7557C68.8137 77.7574 66.8978 77.1765 65.2677 76.0867C63.6377 74.9968 62.3668 73.4469 61.6158 71.6331C60.8648 69.8192 60.6674 67.8229 61.0487 65.8966C61.43 63.9703 62.3727 62.2006 63.7577 60.8114C65.1427 59.4222 66.9076 58.4758 68.8293 58.0921C70.7511 57.7084 72.7432 57.9045 74.5536 58.6556C76.3641 59.4068 77.9117 60.6792 79.0005 62.3119C80.0893 63.9447 80.6704 65.8644 80.6704 67.8282C80.6682 70.459 79.625 72.9816 77.7696 74.8427C75.9143 76.7037 73.3982 77.7513 70.7732 77.7557ZM70.7732 58.3251C68.8962 58.3268 67.0618 58.8862 65.502 59.9327C63.9423 60.9792 62.7271 62.4658 62.0104 64.2044C61.2936 65.943 61.1073 67.8556 61.4751 69.7003C61.8429 71.545 62.7483 73.239 64.0767 74.568C65.4051 75.897 67.0969 76.8014 68.9381 77.1668C70.7794 77.5322 72.6875 77.3422 74.421 76.6208C76.1545 75.8994 77.6356 74.679 78.677 73.1139C79.7185 71.5488 80.2735 69.7094 80.2719 67.8282C80.2675 65.3063 79.2647 62.8892 77.4839 61.1075C75.703 59.3258 73.2895 58.3251 70.7732 58.3251Z" fill="white"/>
<path d="M76 65.9573V67.7196H70.6318V71.3725C70.6318 71.6716 70.6754 71.8959 70.7627 72.0454C70.85 72.1842 71.0464 72.2537 71.3519 72.2537C71.6028 72.2537 71.8483 72.2163 72.0884 72.1415C72.3284 72.0561 72.5466 71.9493 72.743 71.8211C72.9394 71.6822 73.0977 71.522 73.2177 71.3405C73.3377 71.1589 73.3977 70.972 73.3977 70.7797C73.3977 70.6836 73.3541 70.5928 73.2668 70.5073C73.1795 70.4219 73.0104 70.3792 72.7594 70.3792C72.563 70.3792 72.3884 70.3952 72.2357 70.4272L71.9738 68.7931C72.1702 68.7397 72.3884 68.7023 72.6285 68.6809C72.8794 68.6595 73.1358 68.6489 73.3977 68.6489C74.0415 68.6489 74.5597 68.7931 74.9525 69.0814C75.3453 69.3698 75.5417 69.8184 75.5417 70.4272C75.5417 71.004 75.4053 71.5167 75.1326 71.9653C74.8598 72.4139 74.4997 72.7877 74.0524 73.0868C73.605 73.3858 73.114 73.6155 72.5794 73.7757C72.0556 73.9252 71.5428 74 71.0409 74C70.5827 74 70.1953 73.9466 69.8789 73.8398C69.5734 73.733 69.3279 73.5941 69.1424 73.4232C69.0224 73.3057 68.9078 73.1722 68.7987 73.0227C68.7005 72.8732 68.6187 72.6649 68.5532 72.3979C68.4986 72.1308 68.4714 71.773 68.4714 71.3244V67.7196H67.0966V65.9573H76ZM68.3077 62C68.6678 62 68.9842 62.0427 69.257 62.1282C69.5297 62.2136 69.7589 62.3471 69.9444 62.5287C70.1626 62.7316 70.3317 63.0147 70.4517 63.3778C70.5717 63.741 70.6318 64.2537 70.6318 64.9159V66.0214H68.4714V64.996C68.4714 64.729 68.4495 64.5047 68.4059 64.3231C68.3622 64.1415 68.275 64.008 68.144 63.9226C68.0131 63.8264 67.8167 63.7784 67.5548 63.7784C67.413 63.7784 67.2602 63.7944 67.0966 63.8264C66.9438 63.8585 66.7856 63.9065 66.6219 63.9706L66 62.4326C66.4255 62.283 66.8074 62.1762 67.1457 62.1121C67.4839 62.0374 67.8712 62 68.3077 62Z" fill="white"/>
<path d="M98.8575 106.59C98.8575 106.59 94.0334 89.464 91.5923 87.2588C89.1513 85.0536 77.0454 80.7348 74.3054 79.7695C70.1539 78.2384 65.7782 84.9954 71.1835 89.1395C75.9743 92.8259 80.2089 96.8951 80.2089 96.8951L81.1056 108.895C78.3942 112.307 76.5998 116.359 75.8934 120.663C75.187 124.967 75.5922 129.381 77.0703 133.485L98.8575 106.59Z" fill="white"/>
<path d="M77.0622 133.901C76.9768 133.901 76.8936 133.874 76.8238 133.825C76.7539 133.776 76.7009 133.706 76.6719 133.626C75.2007 129.478 74.7962 125.026 75.4957 120.68C76.1952 116.334 77.9761 112.235 80.674 108.761L79.8437 97.0449C79.1379 96.3708 75.2521 92.726 70.9595 89.4307C67.7545 86.9343 67.8873 83.7555 68.9833 81.7583C70.179 79.5781 72.4374 78.5879 74.4799 79.3368L75.1525 79.5781C81.3382 81.8332 89.8073 85.0536 91.8997 86.9426C94.3906 89.2144 99.0901 105.774 99.2894 106.481C99.3191 106.592 99.3039 106.709 99.247 106.808C99.1902 106.908 99.0964 106.98 98.9863 107.01C98.8762 107.04 98.7588 107.024 98.6599 106.967C98.561 106.91 98.4888 106.816 98.4591 106.706C97.1223 101.971 93.2447 89.3142 91.3101 87.5667C89.0932 85.5529 78.3657 81.6502 74.837 80.3603L74.1644 80.119C72.2381 79.4117 70.4861 80.6765 69.6808 82.1578C68.7425 83.8637 68.6429 86.6264 71.4327 88.7733C76.1903 92.4264 80.4581 96.5123 80.4996 96.5539C80.5721 96.6245 80.6164 96.7192 80.6241 96.8202L81.5126 108.87C81.5172 108.982 81.4786 109.093 81.4046 109.178C78.7691 112.54 77.0247 116.515 76.3337 120.735C75.6427 124.954 76.0275 129.28 77.4524 133.31C77.4868 133.414 77.4791 133.527 77.4309 133.625C77.3828 133.723 77.298 133.798 77.195 133.834C77.1556 133.865 77.1104 133.888 77.0622 133.901Z" fill="#38A3A5"/>
<path opacity="0.5" d="M36.3426 35.025H8.7765C7.50628 35.025 6.47656 36.057 6.47656 37.3301V53.8066C6.47656 55.0796 7.50628 56.1116 8.7765 56.1116H36.3426C37.6128 56.1116 38.6425 55.0796 38.6425 53.8066V37.3301C38.6425 36.057 37.6128 35.025 36.3426 35.025Z" fill="#80ED99"/>
<path d="M34.8152 33.4855H7.24916C5.97894 33.4855 4.94922 34.5176 4.94922 35.7906V52.2671C4.94922 53.5401 5.97894 54.5721 7.24916 54.5721H34.8152C36.0854 54.5721 37.1152 53.5401 37.1152 52.2671V35.7906C37.1152 34.5176 36.0854 33.4855 34.8152 33.4855Z" fill="white"/>
<path d="M34.8152 53.0327H7.24912C6.63914 53.0327 6.05415 52.7898 5.62283 52.3575C5.1915 51.9253 4.94922 51.339 4.94922 50.7276V52.2671C4.94922 52.8784 5.1915 53.4647 5.62283 53.897C6.05415 54.3293 6.63914 54.5721 7.24912 54.5721H34.8152C35.4252 54.5721 36.0102 54.3293 36.4415 53.897C36.8728 53.4647 37.1152 52.8784 37.1152 52.2671V50.7443C37.1108 51.3527 36.8665 51.9347 36.4357 52.3634C36.0048 52.7921 35.4223 53.0327 34.8152 53.0327Z" fill="#EFF8FF"/>
<path d="M34.8163 54.9882H7.25023C6.89367 54.9882 6.54064 54.9178 6.21123 54.7811C5.88182 54.6443 5.58247 54.4439 5.33035 54.1912C5.07823 53.9385 4.87828 53.6386 4.74183 53.3084C4.60539 52.9783 4.53517 52.6244 4.53517 52.2671V35.7656C4.53408 35.4076 4.60349 35.0529 4.73945 34.7218C4.87541 34.3907 5.07518 34.0897 5.32741 33.8361C5.57964 33.5826 5.87935 33.3814 6.20931 33.2441C6.53926 33.1068 6.89297 33.0362 7.25023 33.0362H34.8163C35.5371 33.0384 36.2277 33.3269 36.7367 33.8386C37.2456 34.3502 37.5314 35.0432 37.5314 35.7656V52.2338C37.5347 52.5936 37.4669 52.9506 37.332 53.2841C37.1972 53.6176 36.9978 53.921 36.7455 54.177C36.4932 54.433 36.1928 54.6365 35.8617 54.7757C35.5306 54.9149 35.1753 54.9871 34.8163 54.9882ZM7.25023 33.9016C7.00201 33.9016 6.75627 33.9508 6.52705 34.0462C6.29784 34.1417 6.08969 34.2815 5.91456 34.4578C5.73944 34.6341 5.60074 34.8433 5.50651 35.0735C5.41228 35.3036 5.36438 35.5501 5.36547 35.7989V52.2671C5.36547 52.7681 5.56404 53.2485 5.9175 53.6028C6.27097 53.957 6.75035 54.1561 7.25023 54.1561H34.8163C35.3162 54.1561 35.7956 53.957 36.149 53.6028C36.5025 53.2485 36.7011 52.7681 36.7011 52.2671V35.7656C36.7011 35.2639 36.5028 34.7826 36.1495 34.427C35.7963 34.0714 35.3169 33.8705 34.8163 33.8683L7.25023 33.9016Z" fill="#38A3A5"/>
<path d="M36.7343 41.4825H4.95031C4.8402 41.4825 4.73459 41.4386 4.65673 41.3606C4.57888 41.2826 4.53516 41.1768 4.53516 41.0664C4.53516 40.9561 4.57888 40.8502 4.65673 40.7722C4.73459 40.6942 4.8402 40.6503 4.95031 40.6503H36.7343C36.8444 40.6503 36.95 40.6942 37.0279 40.7722C37.1057 40.8502 37.1494 40.9561 37.1494 41.0664C37.1473 41.1761 37.1029 41.2807 37.0255 41.3583C36.9481 41.4358 36.8437 41.4803 36.7343 41.4825Z" fill="#38A3A5"/>
<path d="M13.1526 47.3574H8.86828C8.75817 47.3574 8.65256 47.3136 8.5747 47.2356C8.49684 47.1575 8.45312 47.0517 8.45312 46.9413C8.45312 46.831 8.49684 46.7252 8.5747 46.6471C8.65256 46.5691 8.75817 46.5253 8.86828 46.5253H13.1859C13.296 46.5253 13.4015 46.5691 13.4794 46.6471C13.5572 46.7252 13.601 46.831 13.601 46.9413C13.601 47.0517 13.5572 47.1575 13.4794 47.2356C13.4015 47.3136 13.296 47.3574 13.1859 47.3574H13.1526Z" fill="#38A3A5"/>
<path d="M19.514 47.3574H15.1964C15.0863 47.3574 14.9807 47.3136 14.9028 47.2356C14.825 47.1575 14.7812 47.0517 14.7812 46.9413C14.7812 46.831 14.825 46.7252 14.9028 46.6471C14.9807 46.5691 15.0863 46.5253 15.1964 46.5253H19.514C19.6241 46.5253 19.7297 46.5691 19.8075 46.6471C19.8854 46.7252 19.9291 46.831 19.9291 46.9413C19.9291 47.0517 19.8854 47.1575 19.8075 47.2356C19.7297 47.3136 19.6241 47.3574 19.514 47.3574Z" fill="#38A3A5"/>
<path d="M25.8733 47.3574H21.5558C21.4457 47.3574 21.3401 47.3136 21.2622 47.2356C21.1843 47.1575 21.1406 47.0517 21.1406 46.9413C21.1406 46.831 21.1843 46.7252 21.2622 46.6471C21.3401 46.5691 21.4457 46.5253 21.5558 46.5253H25.8733C25.9834 46.5253 26.089 46.5691 26.1669 46.6471C26.2447 46.7252 26.2885 46.831 26.2885 46.9413C26.2885 47.0517 26.2447 47.1575 26.1669 47.2356C26.089 47.3136 25.9834 47.3574 25.8733 47.3574Z" fill="#38A3A5"/>
<path d="M32.2327 47.3574H27.9152C27.805 47.3574 27.6994 47.3136 27.6216 47.2356C27.5437 47.1575 27.5 47.0517 27.5 46.9413C27.5 46.831 27.5437 46.7252 27.6216 46.6471C27.6994 46.5691 27.805 46.5253 27.9152 46.5253H32.2327C32.3428 46.5253 32.4484 46.5691 32.5263 46.6471C32.6041 46.7252 32.6479 46.831 32.6479 46.9413C32.6479 47.0517 32.6041 47.1575 32.5263 47.2356C32.4484 47.3136 32.3428 47.3574 32.2327 47.3574Z" fill="#38A3A5"/>
</g>
<defs>
<clipPath id="clip0_1825_8701">
<rect width="137" height="146" fill="white"/>
</clipPath>
</defs>
</svg>
