<svg width="128" height="132" viewBox="0 0 128 132" fill="none" xmlns="http://www.w3.org/2000/svg">
<path d="M81.9398 78.6343H81.9429C83.2482 76.829 84.7138 75.1051 86.3425 73.4766C93.7352 66.0839 103.172 61.9822 112.833 61.1649V47.75V39.3269V28.9384C112.833 23.82 108.686 19.6731 103.568 19.6731H9.79078C4.67235 19.6731 0.525391 23.82 0.525391 28.9384V53.3654V61.7884V69.3692C0.525391 74.4876 4.67235 78.6346 9.79078 78.6346H20.1792L14.5639 92.6731L31.921 78.6346H81.9398V78.6343Z" fill="#22577A"/>
<path d="M11.7447 106.711C14.0723 106.711 15.9563 108.598 15.9563 110.923C15.9563 113.248 14.0723 115.134 11.7447 115.134C9.41997 115.134 7.5332 113.248 7.5332 110.923C7.5332 108.598 9.41997 106.711 11.7447 106.711Z" fill="#94C634"/>
<path d="M44.0436 120.75C46.3683 120.75 48.2551 122.636 48.2551 124.961C48.2551 127.286 46.3683 129.173 44.0436 129.173C41.7188 129.173 39.832 127.286 39.832 124.961C39.832 122.636 41.7188 120.75 44.0436 120.75Z" fill="#94C634"/>
<path d="M112.833 61.1649C103.171 61.9819 93.7347 66.0839 86.3421 73.4766C84.7133 75.1051 83.2477 76.829 81.9424 78.6343H81.9393C79.8336 81.5431 78.1408 84.6596 76.8602 87.9025L76.8574 87.9053C83.0172 96.0142 84.8422 106.36 82.3437 115.797C82.3378 115.82 82.3352 115.837 82.3324 115.845C82.3296 115.856 82.3265 115.862 82.3265 115.862C94.5231 117.016 107.119 112.928 116.457 103.589C127.601 92.4459 124.049 75.3047 127.474 62.4598C122.693 61.1817 117.735 60.7524 112.833 61.1649Z" fill="#94C634"/>
<path d="M82.3274 115.856V115.862C71.5177 118.748 59.5064 115.96 51.0244 107.478C43.2387 99.6895 44.8812 88.0569 43.1825 78.6346C43.0309 77.7951 42.854 76.9753 42.6406 76.1751C50.3253 74.1254 58.6164 74.9422 65.8153 78.6346C68.7437 80.1339 71.4925 82.1105 73.9436 84.5616C75.0046 85.6227 75.9792 86.7404 76.858 87.9053C83.0178 96.0142 84.8428 106.36 82.3442 115.797C82.3414 115.814 82.3358 115.828 82.333 115.845C82.3304 115.847 82.3304 115.853 82.3274 115.856Z" fill="#A7E340"/>
<path d="M121.937 25.3724C123.44 25.7486 124.355 27.2732 123.979 28.7781C123.603 30.2802 122.078 31.1956 120.573 30.8193C119.071 30.4431 118.156 28.9185 118.532 27.4136C118.908 25.9118 120.433 24.9962 121.937 25.3724Z" fill="#80ED99"/>
<path d="M116.322 118.026C117.825 118.402 118.74 119.927 118.364 121.432C117.987 122.934 116.463 123.849 114.958 123.473C113.456 123.097 112.541 121.572 112.916 120.068C113.293 118.565 114.818 117.65 116.322 118.026Z" fill="#80ED99"/>
<path d="M113.516 78.7185C115.018 79.0948 115.933 80.6196 115.557 82.1243C115.181 83.6267 113.656 84.5417 112.151 84.1658C110.649 83.7895 109.734 82.2647 110.11 80.76C110.486 79.2576 112.011 78.3423 113.516 78.7185Z" fill="#70993F"/>
<path d="M91.0527 2.91086C92.5551 3.28709 93.4701 4.81166 93.0941 6.31659C92.7179 7.8187 91.193 8.73401 89.6884 8.35778C88.186 7.98155 87.271 6.45697 87.6469 4.95205C88.0232 3.45021 89.548 2.53462 91.0527 2.91086Z" fill="#80ED99"/>
<path d="M88.2458 36.6032C89.7507 36.9794 90.6632 38.504 90.2873 40.0089C89.9111 41.511 88.3862 42.4263 86.8844 42.0501C85.3794 41.6739 84.4641 40.1493 84.8404 38.6444C85.2163 37.1425 86.7412 36.2269 88.2458 36.6032Z" fill="#57CC99"/>
<path d="M77.0153 126.449C78.5203 126.826 79.4328 128.35 79.0568 129.852C78.6806 131.357 77.1557 132.272 75.6539 131.896C74.149 131.52 73.2337 129.995 73.6099 128.491C73.9858 126.986 75.5107 126.073 77.0153 126.449Z" fill="#80ED99"/>
<path d="M59.4874 8.44229C61.0372 8.44229 62.2951 9.70014 62.2951 11.25C62.2951 12.7998 61.0372 14.0577 59.4874 14.0577C57.9375 14.0577 56.6797 12.7998 56.6797 11.25C56.6797 9.70014 57.9375 8.44229 59.4874 8.44229Z" fill="#80ED99"/>
<path d="M34.8978 59.0647C36.4027 59.441 37.318 60.9627 36.9418 62.4676C36.5655 63.9726 35.041 64.8879 33.536 64.5116C32.0311 64.1354 31.1186 62.6108 31.4948 61.1059C31.8711 59.601 33.3928 58.6885 34.8978 59.0647Z" fill="#57CC99"/>
<path d="M30.6777 103.988C32.1799 104.364 33.0952 105.889 32.7189 107.394C32.3427 108.898 30.8181 109.811 29.3132 109.435C27.8111 109.059 26.8958 107.534 27.272 106.032C27.6482 104.527 29.1728 103.612 30.6777 103.988Z" fill="#80ED99"/>
<path d="M76.4512 42.4347L78.1077 40.7136L82.6028 47.1124H86.7863L80.4322 38.319L86.3848 31.2264H82.2684L76.4512 38.0716V31.2264H72.7812V47.1124H76.4512V42.4347Z" fill="white"/>
<path d="M81.0868 59.5058C81.0868 60.087 81.0309 60.657 80.9183 61.2185C80.806 61.7772 80.6179 62.2714 80.3484 62.7066C80.0788 63.139 79.7307 63.4843 79.2983 63.7454C78.8631 64.0065 78.3353 64.1357 77.7094 64.1357C77.0833 64.1357 76.5554 64.0093 76.1315 63.7566C75.7072 63.504 75.3594 63.1614 75.0926 62.729C74.8231 62.2938 74.6294 61.8025 74.5086 61.2522C74.3907 60.6991 74.3318 60.1179 74.3318 59.5058V51.3831H70.6621V59.5058C70.6621 60.5503 70.7913 61.5498 71.0527 62.5044C71.3138 63.459 71.7237 64.2985 72.2824 65.0201C72.844 65.7445 73.5712 66.3229 74.464 66.7553C75.3597 67.1876 76.4406 67.4038 77.71 67.4038C78.9313 67.4038 79.9867 67.1989 80.8742 66.789C81.7615 66.3793 82.4946 65.8147 83.0673 65.099C83.6429 64.383 84.0669 63.5492 84.3448 62.5945C84.6197 61.6399 84.7576 60.6095 84.7576 59.5061V51.3834H81.0879V59.5058H81.0868Z" fill="white"/>
<path d="M66.0685 40.5564L58.6646 31.2264H55.8008V47.1124H59.4704V38.0269L66.7845 47.1124H69.7382V31.2264H66.0685V40.5564Z" fill="white"/>
<path d="M66.6111 53.8227C65.926 53.0619 65.0977 52.4498 64.1291 51.9865C63.1576 51.5261 62.0851 51.293 60.9059 51.293C59.7575 51.293 58.699 51.5148 57.7304 51.9556C56.7589 52.3936 55.9194 52.9832 55.2119 53.7217C54.5043 54.4601 53.9512 55.3136 53.5553 56.2823C53.1622 57.2537 52.9629 58.2589 52.9629 59.3034C52.9629 60.3338 53.1538 61.3333 53.5329 62.302C53.9147 63.2706 54.4482 64.1326 55.1332 64.8851C55.8211 65.6403 56.6466 66.2468 57.618 66.7101C58.5867 67.173 59.662 67.4036 60.8385 67.4036C61.9868 67.4036 63.0453 67.1789 64.0168 66.7325C64.9854 66.283 65.8221 65.6909 66.5212 64.9524C67.2232 64.214 67.7707 63.3605 68.1665 62.3918C68.5624 61.4232 68.7587 60.4152 68.7587 59.3707C68.7587 58.3712 68.5737 57.3885 68.2002 56.4171C67.8268 55.4484 67.299 54.5836 66.6111 53.8227ZM64.7664 61.0613C64.5954 61.634 64.3369 62.1506 63.9943 62.6055C63.6518 63.0603 63.2194 63.4281 62.6972 63.7117C62.1752 63.9953 61.5629 64.1357 60.8609 64.1357C60.1899 64.1357 59.5947 64.0037 59.0724 63.7342C58.5502 63.4646 58.1122 63.1081 57.764 62.6588C57.4131 62.2124 57.1492 61.7014 56.9695 61.1286C56.7898 60.5531 56.6999 59.9606 56.6999 59.3486C56.6999 58.7533 56.787 58.1665 56.9582 57.5938C57.1295 57.0182 57.3906 56.5072 57.7416 56.0608C58.0897 55.6115 58.5249 55.2521 59.0387 54.9742C59.5525 54.699 60.1618 54.5614 60.8609 54.5614C61.532 54.5614 62.1272 54.6906 62.641 54.9517C63.1545 55.2128 63.5928 55.5638 63.9491 56.0046C64.3085 56.4426 64.5752 56.9508 64.7549 57.5264C64.9349 58.0991 65.0216 58.6916 65.0216 59.3036C65.0219 59.9014 64.9377 60.4854 64.7664 61.0613Z" fill="white"/>
<path d="M49.4719 51.3829L46.0043 58.6772L42.5818 51.3829H38.5977L43.2753 60.1344L44.1709 61.8109V67.2688H47.8153V61.8558L48.7362 60.1544L53.4784 51.3829H49.4719Z" fill="white"/>
<path d="M44.3008 43.5522H49.2451L50.4749 47.1124H54.2344L48.4393 31.2264H45.1263L39.334 47.1124H43.0907L44.3008 43.5522ZM46.7828 35.4099L48.6415 41.0253H44.882L46.7828 35.4099Z" fill="white"/>
<path d="M34.0987 37.3784H27.7673V31.2264H24.0977V47.1124H27.7673V40.6016H34.0987V47.1124H37.7683V31.2264H34.0987V37.3784Z" fill="white"/>
<path d="M8.94922 34.4471H13.8037V47.1124H17.4734V34.4471H22.3054V31.2264H8.94922V34.4471Z" fill="white"/>
<path d="M15.2461 5.71856C16.7482 6.0948 17.6635 7.61937 17.2873 9.1243C16.9111 10.6264 15.3865 11.5417 13.8816 11.1655C12.3795 10.7893 11.4641 9.26468 11.8404 7.75976C12.2166 6.25792 13.7412 5.34233 15.2461 5.71856Z" fill="#80ED99"/>
<path d="M82.3254 118.67C81.8677 118.67 81.4042 118.558 80.9746 118.322C79.8038 117.678 79.2737 116.321 79.628 115.088C79.6328 115.07 79.6379 115.051 79.6432 115.033C80.3176 112.648 86.7453 91.4675 104.445 82.3542C105.824 81.6447 107.516 82.1866 108.226 83.5652C108.936 84.9438 108.394 86.6368 107.015 87.3469C91.3959 95.3892 85.4683 115.097 85.0615 116.509C85.0612 116.51 85.0612 116.51 85.0612 116.51C85.0008 116.758 84.909 116.995 84.7877 117.215C84.2767 118.144 83.3159 118.67 82.3254 118.67Z" fill="#70993F"/>
<path d="M82.3277 118.664C81.2142 118.664 80.1602 117.997 79.7208 116.901C79.6697 116.774 74.4861 104.148 61.8015 99.1664C60.3581 98.5996 59.6478 96.97 60.2146 95.5268C60.7815 94.0834 62.4111 93.3728 63.8542 93.9399C78.7718 99.7987 84.6887 114.201 84.9333 114.811C85.5103 116.251 84.8109 117.885 83.3716 118.462C83.0291 118.6 82.6756 118.664 82.3277 118.664Z" fill="#80AF52"/>
<path d="M93.1797 39.3269C93.1797 40.8776 94.437 42.1346 95.9874 42.1346H112.834V39.3269V36.5192H95.9874C94.4367 36.5192 93.1797 37.7762 93.1797 39.3269Z" fill="#57CC99"/>
<path d="M112.833 44.9423H101.603C100.052 44.9423 98.7949 46.1993 98.7949 47.75C98.7949 49.3007 100.052 50.5577 101.603 50.5577H112.833V47.75V44.9423Z" fill="#57CC99"/>
<path d="M28.6023 61.7885C28.6023 60.2378 27.3453 58.9808 25.7946 58.9808H0.525391V61.7885V64.5961H25.7946C27.3453 64.5961 28.6023 63.3389 28.6023 61.7885Z" fill="#57CC99"/>
<path d="M11.7562 53.3654C11.7562 51.8147 10.4992 50.5577 8.94847 50.5577H0.525391V53.3654V56.1731H8.94847C10.4992 56.1731 11.7562 54.9158 11.7562 53.3654Z" fill="#57CC99"/>
<path d="M51.0631 14.0577H31.4093C29.8586 14.0577 28.6016 12.8007 28.6016 11.25C28.6016 9.6993 29.8586 8.44229 31.4093 8.44229H51.0631C52.6138 8.44229 53.8708 9.6993 53.8708 11.25C53.8708 12.8007 52.6138 14.0577 51.0631 14.0577Z" fill="#80ED99"/>
<path d="M70.7186 5.63461H42.6417C41.091 5.63461 39.834 4.37761 39.834 2.82692C39.834 1.27623 41.091 0.0192261 42.6417 0.0192261H70.7186C72.269 0.0192261 73.5263 1.27623 73.5263 2.82692C73.5263 4.37761 72.269 5.63461 70.7186 5.63461Z" fill="#80ED99"/>
</svg>
