<svg width="104" height="104" viewBox="0 0 104 104" fill="none" xmlns="http://www.w3.org/2000/svg">
<path d="M52 100.75C66.6487 93.4255 78.9685 82.1666 87.5788 68.2348C96.1892 54.303 100.75 38.2487 100.75 21.8709V21.125C82.9127 21.1248 65.6528 14.8024 52.0357 3.28088L52 3.25L51.9643 3.28088C38.3472 14.8024 21.0873 21.1248 3.25 21.125V21.8709C3.2501 38.2487 7.81083 54.303 16.4212 68.2348C25.0315 82.1666 37.3513 93.4255 52 100.75Z" fill="#3B5892"/>
<path d="M30.9497 86.0503L16.25 100.75V87.7501H3.25L18.9312 72.0688C22.438 77.1364 26.4661 81.8225 30.9497 86.0503Z" fill="#F0AE42"/>
<path d="M85.0687 72.0688L100.75 87.7501H87.75V100.75L73.0502 86.0503C77.5358 81.8249 81.5661 77.141 85.0752 72.0754L85.0687 72.0688Z" fill="#F0AE42"/>
<path d="M52 92.625L65.5184 81.9244C73.4634 75.6347 79.8827 67.6292 84.2955 58.5073C88.7083 49.3853 91.0003 39.3833 91 29.25C79.4093 29.25 68.1436 25.4182 58.9566 18.3511L52 13L45.0434 18.3527C35.8562 25.4193 24.5906 29.2505 13 29.25C12.9999 39.383 15.2921 49.3847 19.7049 58.5064C24.1177 67.6281 30.5368 75.6333 38.4816 81.9228L52 92.625Z" fill="#F2F2F2"/>
<path d="M58.9566 18.3511L52 13L45.0434 18.3527C35.8562 25.4193 24.5906 29.2505 13 29.25C12.9999 39.383 15.2921 49.3847 19.7049 58.5064C24.1177 67.628 30.5368 75.6333 38.4816 81.9227L47.3167 88.9102L59.0509 79.625C66.7851 73.4977 73.1646 65.833 77.7864 57.1151C82.4081 48.3972 85.1716 38.8155 85.9024 28.9754C76.1023 28.0292 66.7654 24.3479 58.9566 18.3511Z" fill="white"/>
<path d="M52 74.75C64.5645 74.75 74.75 64.5645 74.75 52C74.75 39.4355 64.5645 29.25 52 29.25C39.4355 29.25 29.25 39.4355 29.25 52C29.25 64.5645 39.4355 74.75 52 74.75Z" fill="#559B2D"/>
<path d="M69.875 48.7498C69.8755 45.5015 69.1784 42.2911 67.8307 39.3356C66.4831 36.3801 64.5164 33.7486 62.0636 31.619C57.1128 29.1659 51.4377 28.6005 46.1002 30.0285C40.7626 31.4566 36.1282 34.7803 33.0637 39.378C29.9993 43.9756 28.7148 49.5322 29.4506 55.0083C30.1864 60.4844 32.892 65.5048 37.0614 69.1305C40.5271 70.8514 44.3749 71.6583 48.2399 71.4747C52.105 71.2911 55.859 70.1232 59.146 68.0816C62.433 66.04 65.1439 63.1926 67.0216 59.8093C68.8993 56.4261 69.8815 52.6192 69.875 48.7498Z" fill="#6BC13B"/>
<path d="M35.75 55.25L45.5 65L66.625 43.875L61.75 39L45.5 55.25L40.625 50.375L35.75 55.25Z" fill="#F2F2F2"/>
</svg>
