<svg width="104" height="104" viewBox="0 0 104 104" fill="none" xmlns="http://www.w3.org/2000/svg">
<g clip-path="url(#clip0_104_910)">
<path d="M59.4352 87.9191C59.4299 87.9053 59.4244 87.8913 59.4187 87.8775C59.1327 87.1826 58.463 86.7339 57.7119 86.7339C57.7113 86.7339 57.7104 86.7339 57.7098 86.7339C56.9579 86.7347 56.2882 87.185 56.0036 87.8809C55.9989 87.8925 55.9945 87.9037 55.99 87.9155L50.6508 101.934C50.3514 102.72 50.7459 103.6 51.5322 103.9C52.3187 104.2 53.1986 103.805 53.498 103.018L54.4542 100.508H60.9294L61.8751 103.014C62.1055 103.624 62.685 104 63.3009 104C63.4794 104 63.6614 103.968 63.8383 103.902C64.6254 103.605 65.023 102.726 64.7258 101.938L59.4352 87.9191ZM55.6146 97.4613L57.7068 91.9684L59.7797 97.4613H55.6146Z" fill="#70DA40"/>
<path d="M59.4352 87.9191C59.4299 87.9053 59.4244 87.8913 59.4187 87.8775C59.1327 87.1826 58.463 86.7339 57.7119 86.7339C57.7113 86.7339 57.7105 86.7339 57.7098 86.7339C56.9579 86.7347 56.2882 87.185 56.0036 87.8809C55.9989 87.8925 55.9945 87.9037 55.99 87.9155L52 98.3916V103.997C52.6411 104.029 53.2573 103.651 53.498 103.018L54.4542 100.508H60.9294L61.8751 103.014C62.1049 103.623 62.6817 103.998 63.2956 104H63.3098C63.4855 103.999 63.6645 103.967 63.8385 103.902C64.6256 103.605 65.0232 102.726 64.726 101.939L59.4352 87.9191ZM55.6146 97.4613L57.7068 91.9684L59.7797 97.4613H55.6146Z" fill="#00A78E"/>
<path d="M78.3656 86.7344C77.5243 86.7425 76.8489 87.4313 76.857 88.2724L76.9488 97.7661L69.8031 87.4187C69.4243 86.8701 68.7324 86.6322 68.0962 86.83C67.4596 87.0285 67.0262 87.6178 67.0262 88.2844V102.477C67.0262 103.318 67.7083 104 68.5496 104C69.391 104 70.0731 103.318 70.0731 102.477V93.1712L76.8922 103.046C77.35 103.707 78.1097 103.99 78.8271 103.765C79.5618 103.536 80.0367 102.842 80.0365 101.983L79.9037 88.243C79.8956 87.4018 79.2062 86.7336 78.3656 86.7344Z" fill="#00A78E"/>
<path d="M48.0608 93.844H43.8074C42.966 93.844 42.2839 94.5258 42.2839 95.3674C42.2839 96.2089 42.966 96.8908 43.8074 96.8908H46.3938C45.9859 98.9985 44.6682 100.953 41.9236 100.953C38.8434 100.953 36.3376 98.4474 36.3376 95.3674C36.3376 92.2874 38.8434 89.7815 41.9236 89.7815C43.0432 89.7815 44.1228 90.1109 45.0456 90.7343C45.7427 91.2056 46.6899 91.0221 47.161 90.325C47.632 89.6277 47.4488 88.6807 46.7517 88.2099C45.3233 87.2446 43.6538 86.7344 41.9238 86.7344C37.1635 86.7344 33.291 90.607 33.291 95.3672C33.291 100.127 37.1635 104 41.9238 104C46.4344 104 49.5844 100.45 49.5844 95.3672C49.5842 94.5258 48.9021 93.844 48.0608 93.844Z" fill="#70DA40"/>
<path d="M102.135 99.3023C101.49 98.7616 100.529 98.8459 99.9889 99.491C99.8571 99.648 99.7147 99.7951 99.566 99.9276C98.8016 100.608 97.8297 100.953 96.6773 100.953C93.5972 100.953 91.0914 98.4474 91.0914 95.3674C91.0914 92.2874 93.5972 89.7815 96.6773 89.7815C97.797 89.7815 98.8766 90.1109 99.7994 90.7343C100.497 91.2056 101.443 91.0221 101.915 90.325C102.386 89.6277 102.203 88.6807 101.505 88.2099C100.077 87.2446 98.4076 86.7344 96.6775 86.7344C91.9173 86.7344 88.0447 90.607 88.0447 95.3672C88.0447 100.127 91.9173 104 96.6775 104C98.5727 104 100.272 103.378 101.593 102.203C101.851 101.972 102.097 101.718 102.324 101.448C102.864 100.804 102.78 99.8428 102.135 99.3023Z" fill="#00A78E"/>
<path d="M31.5703 91.9531C31.5703 89.0754 29.1354 86.7344 26.1424 86.7344H22.3641C22.3632 86.7344 22.3624 86.7344 22.3618 86.7344C22.3612 86.7344 22.3604 86.7344 22.3596 86.7344C21.5183 86.7344 20.8362 87.4163 20.8362 88.2578V102.477C20.8362 103.318 21.5183 104 22.3596 104C23.2009 104 23.883 103.318 23.883 102.477V97.7789L28.9035 103.483C29.2045 103.825 29.625 104 30.0477 104C30.4052 104 30.7641 103.875 31.0535 103.62C31.6851 103.064 31.7466 102.102 31.1907 101.47L27.3012 97.0511C29.7389 96.5392 31.5703 94.4485 31.5703 91.9531ZM26.1424 94.1251C25.6248 94.1251 24.7053 94.1291 23.905 94.133C23.9009 93.3489 23.8968 92.4542 23.8968 91.9533C23.8968 91.5293 23.8944 90.6019 23.8922 89.7815H26.1426C27.4332 89.7815 28.5236 90.776 28.5236 91.9533C28.5236 93.1306 27.433 94.1251 26.1424 94.1251Z" fill="#70DA40"/>
<path d="M9.95312 86.7344C5.19289 86.7344 1.32031 90.607 1.32031 95.3672C1.32031 100.127 5.19289 104 9.95312 104C14.7134 104 18.5859 100.127 18.5859 95.3672C18.5859 90.607 14.7134 86.7344 9.95312 86.7344ZM9.95312 100.953C6.87294 100.953 4.36719 98.4472 4.36719 95.3672C4.36719 92.2872 6.87294 89.7812 9.95312 89.7812C13.0333 89.7812 15.5391 92.2872 15.5391 95.3672C15.5391 98.4472 13.0333 100.953 9.95312 100.953Z" fill="#70DA40"/>
<path d="M84.0938 86.7344C83.2524 86.7344 82.5703 87.4163 82.5703 88.2578V102.477C82.5703 103.318 83.2524 104 84.0938 104C84.9351 104 85.6172 103.318 85.6172 102.477V88.2578C85.6172 87.4163 84.9351 86.7344 84.0938 86.7344Z" fill="#00A78E"/>
<path d="M67.666 81.0082C66.8903 80.6826 66.5253 79.7899 66.8509 79.0139L74.4985 60.7912C74.8241 60.0154 75.7171 59.6504 76.4928 59.976C77.2685 60.3016 77.6336 61.1944 77.308 61.9703L69.6603 80.1931C69.3347 80.9688 68.4418 81.3336 67.666 81.0082Z" fill="#616173"/>
<path d="M26.9742 62.0547H23.501C22.6596 62.0547 21.9775 62.7366 21.9775 63.5781C21.9775 64.4197 22.6596 65.1016 23.501 65.1016H25.4508V79.8281C25.4508 80.6697 26.1328 81.3516 26.9742 81.3516C27.8155 81.3516 28.4976 80.6697 28.4976 79.8281V63.5781C28.4976 62.7366 27.8155 62.0547 26.9742 62.0547Z" fill="#7A7A93"/>
<path d="M66.7916 59.0078C64.0882 59.0078 61.8889 61.4526 61.8889 64.4579C61.8889 67.4631 64.0882 69.9081 66.7916 69.9081C69.495 69.9081 71.6942 67.4631 71.6942 64.4579C71.6942 61.4526 69.4948 59.0078 66.7916 59.0078ZM66.7916 66.8612C65.7857 66.8612 64.9358 65.7607 64.9358 64.4579C64.9358 63.1552 65.7857 62.0547 66.7916 62.0547C67.7974 62.0547 68.6473 63.1552 68.6473 64.4579C68.6473 65.7607 67.7974 66.8612 66.7916 66.8612Z" fill="#616173"/>
<path d="M77.1199 71.4668C74.4167 71.4668 72.2174 73.9118 72.2174 76.917C72.2174 79.9223 74.4167 82.3671 77.1199 82.3671C79.8232 82.3671 82.0225 79.9223 82.0225 76.917C82.0225 73.9118 79.8232 71.4668 77.1199 71.4668ZM77.1199 79.3202C76.114 79.3202 75.2643 78.2197 75.2643 76.917C75.2643 75.6142 76.1142 74.5137 77.1199 74.5137C78.1257 74.5137 78.9756 75.6142 78.9756 76.917C78.9756 78.2197 78.1259 79.3202 77.1199 79.3202Z" fill="#616173"/>
<path d="M37.5828 62.0547C34.2532 62.0547 31.5445 64.7634 31.5445 68.093V75.3135C31.5445 78.6431 34.2532 81.3518 37.5828 81.3518C40.9122 81.3518 43.6211 78.6431 43.6211 75.3135V68.093C43.6211 64.7634 40.9122 62.0547 37.5828 62.0547ZM40.5742 75.3133C40.5742 76.9626 39.2324 78.3047 37.5828 78.3047C35.9332 78.3047 34.5914 76.9628 34.5914 75.3133V68.0928C34.5914 66.4434 35.9332 65.1014 37.5828 65.1014C39.2322 65.1014 40.5742 66.4432 40.5742 68.0928V75.3133Z" fill="#7A7A93"/>
<path d="M52.7055 62.0547C49.3758 62.0547 46.6672 64.7634 46.6672 68.093V75.3135C46.6672 78.6431 49.3758 81.3518 52.7055 81.3518C56.0351 81.3518 58.7438 78.6431 58.7438 75.3135V68.093C58.7438 64.7634 56.0349 62.0547 52.7055 62.0547ZM55.6969 75.3133C55.6969 76.9626 54.355 78.3047 52.7055 78.3047C51.0559 78.3047 49.714 76.9628 49.714 75.3133V68.0928C49.714 66.4434 51.0559 65.1014 52.7055 65.1014C54.355 65.1014 55.6969 66.4432 55.6969 68.0928V75.3133Z" fill="#7A7A93"/>
<path d="M52.7055 62.0547C52.4668 62.0547 52.2316 62.0701 52 62.0971V65.1889C52.2267 65.1339 52.4621 65.1014 52.7055 65.1014C54.355 65.1014 55.6969 66.4432 55.6969 68.0928V75.3133C55.6969 76.9626 54.355 78.3047 52.7055 78.3047C52.4621 78.3047 52.2267 78.2722 52 78.2171V81.3089C52.2316 81.3359 52.4666 81.3514 52.7055 81.3514C56.0351 81.3514 58.7438 78.6427 58.7438 75.3131V68.0926C58.7438 64.7634 56.0349 62.0547 52.7055 62.0547Z" fill="#616173"/>
<path d="M102.924 2.47119C102.716 1.39037 101.94 0.506163 100.896 0.157398C99.8522 -0.191165 98.7008 0.0511634 97.8851 0.790132C97.7772 0.887835 86.9594 10.6135 75.4971 14.4344C64.6258 18.0582 56.5794 25.5306 52.2283 36.0439C52.1497 36.2336 52.0747 36.4221 52 36.6104C51.9252 36.4221 51.8501 36.2336 51.7717 36.0439C47.4205 25.5306 39.3741 18.0582 28.5029 14.4344C17.072 10.6242 6.28222 0.94146 6.11606 0.791351C5.30051 0.0507572 4.149 -0.191977 3.10433 0.156585C2.05965 0.504945 1.28412 1.38976 1.07592 2.47119C0.853701 3.62576 -4.20472 30.9065 9.71503 45.1181C17.7001 53.2705 30.2083 55.0627 39.6658 55.0627C45.6092 55.0627 50.3473 54.3548 52 54.0725C53.6524 54.3548 58.3895 55.0627 64.3341 55.0627C73.7912 55.0627 86.3009 53.2695 94.2849 45.1181C108.205 30.9065 103.146 3.62576 102.924 2.47119Z" fill="#B2FA09"/>
<path d="M102.924 2.47052C102.716 1.38969 101.941 0.505485 100.896 0.156719C99.8522 -0.191844 98.7009 0.0504845 97.8851 0.789453C97.7773 0.887156 86.9594 10.6128 75.4971 14.4338C64.6258 18.0575 56.5795 25.5299 52.2283 36.0432C52.1497 36.2329 52.0747 36.4214 52 36.6097V54.0716C53.6524 54.3539 58.3895 55.0618 64.3342 55.0618C73.7912 55.0618 86.3009 53.2686 94.2849 45.1172C108.205 30.9058 103.146 3.62508 102.924 2.47052Z" fill="#70DA40"/>
<path d="M52.001 54.0239C52 54.0239 51.999 54.0239 51.9978 54.0239C51.0532 54.0229 50.1615 53.5854 49.5855 52.8367C49.4914 52.715 39.8355 40.3766 26.7881 36.6488C25.17 36.1867 24.2332 34.5002 24.6955 32.8821C25.1578 31.264 26.8448 30.327 28.4621 30.7895C39.4503 33.929 48.0222 41.9882 52 46.3066C55.9778 41.9882 64.5497 33.929 75.5379 30.7895C77.1554 30.3272 78.8424 31.2638 79.3045 32.8821C79.7668 34.5002 78.83 36.1867 77.2119 36.6488C64.1645 40.3768 54.5084 52.7152 54.4125 52.8393C53.8356 53.5858 52.9443 54.0239 52.001 54.0239Z" fill="#70DA40"/>
<path d="M79.3047 32.882C78.8424 31.2637 77.1554 30.3271 75.5381 30.7894C64.5497 33.9289 55.9778 41.9881 52 46.3066V54.0239H52.001C52.9443 54.0239 53.8356 53.5857 54.4127 52.8393C54.5088 52.7152 64.1648 40.3765 77.2121 36.6488C78.83 36.1867 79.767 34.5001 79.3047 32.882Z" fill="#00A78E"/>
</g>
<defs>
<clipPath id="clip0_104_910">
<rect width="104" height="104" fill="white"/>
</clipPath>
</defs>
</svg>
