<svg width="104" height="104" viewBox="0 0 104 104" fill="none" xmlns="http://www.w3.org/2000/svg">
<path d="M95.7273 40.1816H57.9091C57.5957 40.1816 57.2951 40.3062 57.0734 40.5278C56.8518 40.7494 56.7273 41.05 56.7273 41.3635V55.5453C56.7273 55.8587 56.8518 56.1593 57.0734 56.381C57.2951 56.6026 57.5957 56.7271 57.9091 56.7271H95.7273C96.0407 56.7271 96.3413 56.6026 96.563 56.381C96.7846 56.1593 96.9091 55.8587 96.9091 55.5453V41.3635C96.9091 41.05 96.7846 40.7494 96.563 40.5278C96.3413 40.3062 96.0407 40.1816 95.7273 40.1816ZM59.0909 47.2726H94.5455V49.6362H59.0909V47.2726ZM59.0909 42.5453H94.5455V44.9089H59.0909V42.5453ZM94.5455 54.3635H59.0909V51.9998H94.5455V54.3635Z" fill="#70B6FC"/>
<path d="M76.8182 9.45459H27.1818L2.36365 30.7273V93.3637C2.36365 93.6771 2.48816 93.9777 2.70979 94.1993C2.93143 94.421 3.23203 94.5455 3.54547 94.5455H57.9091C58.2225 94.5455 58.5231 94.421 58.7448 94.1993C58.9664 93.9777 59.0909 93.6771 59.0909 93.3637V40.1819H94.5455V93.3637C94.5455 93.6771 94.67 93.9777 94.8916 94.1993C95.1133 94.421 95.4138 94.5455 95.7273 94.5455H100.455C100.768 94.5455 101.069 94.421 101.29 94.1993C101.512 93.9777 101.636 93.6771 101.636 93.3637V30.7273L76.8182 9.45459Z" fill="#B3D8F4"/>
<path d="M76.8182 9.45459L52 30.7273H2.36365L27.1818 9.45459H76.8182Z" fill="#3F97EF"/>
<path d="M88.6364 76.8184H65C64.3473 76.8184 63.8182 77.3475 63.8182 78.0002V93.3638C63.8182 94.0165 64.3473 94.5456 65 94.5456H88.6364C89.2891 94.5456 89.8182 94.0165 89.8182 93.3638V78.0002C89.8182 77.3475 89.2891 76.8184 88.6364 76.8184Z" fill="#FCCC97"/>
<path d="M88.6364 59.0908H65C64.3473 59.0908 63.8182 59.6199 63.8182 60.2726V77.9999C63.8182 78.6526 64.3473 79.1817 65 79.1817H88.6364C89.2891 79.1817 89.8182 78.6526 89.8182 77.9999V60.2726C89.8182 59.6199 89.2891 59.0908 88.6364 59.0908Z" fill="#FCCC97"/>
<path d="M73.2727 59.0908H65C64.6866 59.0908 64.386 59.2153 64.1643 59.437C63.9427 59.6586 63.8182 59.9592 63.8182 60.2726V66.1817H73.2727C73.5862 66.1817 73.8868 66.0572 74.1084 65.8356C74.33 65.614 74.4545 65.3134 74.4545 64.9999V60.2726C74.4545 59.9592 74.33 59.6586 74.1084 59.437C73.8868 59.2153 73.5862 59.0908 73.2727 59.0908Z" fill="#FFB655"/>
<path d="M88.6364 59.0908H80.3636C80.0502 59.0908 79.7496 59.2153 79.528 59.437C79.3063 59.6586 79.1818 59.9592 79.1818 60.2726V64.9999C79.1818 65.3134 79.3063 65.614 79.528 65.8356C79.7496 66.0572 80.0502 66.1817 80.3636 66.1817H89.8182V60.2726C89.8182 59.9592 89.6937 59.6586 89.472 59.437C89.2504 59.2153 88.9498 59.0908 88.6364 59.0908Z" fill="#FFB655"/>
<path d="M63.8182 76.8179H74.4545V83.9088H63.8182V76.8179Z" fill="#FFB655"/>
<path d="M79.1818 76.8179H89.8182V83.9088H79.1818V76.8179Z" fill="#FFB655"/>
<path d="M2.36365 30.7275V93.3639C2.36365 93.6773 2.48816 93.9779 2.70979 94.1996C2.93143 94.4212 3.23203 94.5457 3.54547 94.5457H52V30.7275H2.36365Z" fill="#70B6FC"/>
<path d="M37.8182 61.4546H16.5455C16.232 61.4546 15.9314 61.5791 15.7098 61.8007C15.4882 62.0224 15.3636 62.323 15.3636 62.6364V94.5455H39V62.6364C39 62.323 38.8755 62.0224 38.6539 61.8007C38.4322 61.5791 38.1316 61.4546 37.8182 61.4546Z" fill="#3F97EF"/>
<path d="M34.2727 79.1819C33.9593 79.1819 33.6587 79.0574 33.4371 78.8357C33.2154 78.6141 33.0909 78.3135 33.0909 78V75.6364C33.0909 75.323 33.2154 75.0224 33.4371 74.8007C33.6587 74.5791 33.9593 74.4546 34.2727 74.4546C34.5862 74.4546 34.8868 74.5791 35.1084 74.8007C35.33 75.0224 35.4545 75.323 35.4545 75.6364V78C35.4545 78.3135 35.33 78.6141 35.1084 78.8357C34.8868 79.0574 34.5862 79.1819 34.2727 79.1819Z" fill="#2484D3"/>
<path d="M23.6364 40.1816H9.45455C9.14112 40.1816 8.84052 40.3062 8.61888 40.5278C8.39725 40.7494 8.27274 41.05 8.27274 41.3635V53.1816C8.27274 53.4951 8.39725 53.7957 8.61888 54.0173C8.84052 54.2389 9.14112 54.3635 9.45455 54.3635H23.6364C23.9498 54.3635 24.2504 54.2389 24.472 54.0173C24.6937 53.7957 24.8182 53.4951 24.8182 53.1816V41.3635C24.8182 41.05 24.6937 40.7494 24.472 40.5278C24.2504 40.3062 23.9498 40.1816 23.6364 40.1816ZM22.4546 46.0907H17.7273V42.5453H22.4546V46.0907ZM15.3636 42.5453V46.0907H10.6364V42.5453H15.3636ZM10.6364 48.4544H15.3636V51.9998H10.6364V48.4544ZM17.7273 51.9998V48.4544H22.4546V51.9998H17.7273Z" fill="#3F97EF"/>
<path d="M44.9091 40.1816H30.7273C30.4139 40.1816 30.1133 40.3062 29.8916 40.5278C29.67 40.7494 29.5455 41.05 29.5455 41.3635V53.1816C29.5455 53.4951 29.67 53.7957 29.8916 54.0173C30.1133 54.2389 30.4139 54.3635 30.7273 54.3635H44.9091C45.2225 54.3635 45.5231 54.2389 45.7448 54.0173C45.9664 53.7957 46.0909 53.4951 46.0909 53.1816V41.3635C46.0909 41.05 45.9664 40.7494 45.7448 40.5278C45.5231 40.3062 45.2225 40.1816 44.9091 40.1816ZM43.7273 46.0907H39V42.5453H43.7273V46.0907ZM36.6364 42.5453V46.0907H31.9091V42.5453H36.6364ZM31.9091 48.4544H36.6364V51.9998H31.9091V48.4544ZM39 51.9998V48.4544H43.7273V51.9998H39Z" fill="#3F97EF"/>
<path d="M81.5455 76.8184H72.0909V86.2729C72.091 86.4868 72.149 86.6967 72.2589 86.8802C72.3689 87.0637 72.5265 87.2139 72.7151 87.3148C72.9037 87.4158 73.1162 87.4636 73.3298 87.4533C73.5435 87.443 73.7503 87.3748 73.9283 87.2562L76.8182 85.3295L79.7081 87.2558C79.8861 87.3745 80.0929 87.4426 80.3065 87.4529C80.5201 87.4633 80.7325 87.4155 80.9211 87.3146C81.1097 87.2137 81.2674 87.0635 81.3773 86.8801C81.4873 86.6966 81.5454 86.4868 81.5455 86.2729V76.8184Z" fill="#F49227"/>
<path d="M72.0909 59.0908V68.5454C72.091 68.7593 72.149 68.9692 72.2589 69.1526C72.3689 69.3361 72.5265 69.4864 72.7151 69.5873C72.9037 69.6882 73.1162 69.7361 73.3298 69.7257C73.5435 69.7154 73.7503 69.6473 73.9283 69.5286L76.8182 67.6019L79.7081 69.5283C79.8861 69.6469 80.0929 69.715 80.3065 69.7254C80.5201 69.7357 80.7325 69.6879 80.9211 69.587C81.1097 69.4861 81.2674 69.336 81.3773 69.1525C81.4873 68.9691 81.5454 68.7592 81.5455 68.5454V59.0908H72.0909Z" fill="#F49227"/>
</svg>
