<svg width="104" height="104" viewBox="0 0 104 104" fill="none" xmlns="http://www.w3.org/2000/svg">
<path d="M98.9248 8.92224V60.2462C98.9248 63.4857 96.2986 66.1118 93.0592 66.1118H10.9408C7.70134 66.1118 5.07523 63.4857 5.07523 60.2462V8.92224C5.07523 5.68276 7.70134 3.05664 10.9408 3.05664H93.0592C96.2986 3.05664 98.9248 5.68276 98.9248 8.92224Z" fill="#70C1F9"/>
<path d="M5.07458 11.9614H98.9239V24.2564H5.07458V11.9614Z" fill="#4F5D99"/>
<path d="M34.777 36.6884V50.9905C34.777 52.8221 33.2786 54.3205 31.447 54.3205H17.1449C15.3132 54.3205 13.8149 52.8221 13.8149 50.9905V36.6884C13.8149 34.8567 15.3132 33.3584 17.1449 33.3584H31.447C33.2786 33.3584 34.777 34.8567 34.777 36.6884Z" fill="#FDC72E"/>
<path d="M22.906 33.3594H25.6865V54.3215H22.906V33.3594Z" fill="#F9AC00"/>
<path d="M13.8182 38.8589H24.2993V41.6394H13.8182V38.8589Z" fill="#F9AC00"/>
<path d="M24.2962 42.4497H34.7773V45.2302H24.2962V42.4497Z" fill="#F9AC00"/>
<path d="M13.8182 46.0396H24.2993V48.82H13.8182V46.0396Z" fill="#F9AC00"/>
<path d="M92.2672 34.0955V35.6937C92.2672 36.0896 91.9443 36.4268 91.534 36.4268H43.5095C43.1135 36.4268 42.7763 36.0896 42.7763 35.6937V34.0955C42.7763 33.6845 43.1135 33.3623 43.5095 33.3623H91.534C91.9443 33.3623 92.2672 33.6845 92.2672 34.0955Z" fill="#E9E9FF"/>
<path d="M92.2673 42.4544V44.0525C92.2673 44.4628 91.9443 44.7857 91.5341 44.7857H69.1719C68.7759 44.7857 68.4387 44.4628 68.4387 44.0525V42.4544C68.4387 42.0577 68.7759 41.7212 69.1719 41.7212H91.5341C91.9443 41.7212 92.2673 42.0577 92.2673 42.4544Z" fill="#E9E9FF"/>
<g opacity="0.2">
<g opacity="0.2">
<path opacity="0.2" d="M70.2804 66.1061H36.8374L15.6354 3.06152H49.0624L70.2804 66.1061Z" fill="white"/>
</g>
<g opacity="0.2">
<path opacity="0.2" d="M88.3599 66.1061H78.8832L57.6651 3.06152H67.1735L88.3599 66.1061Z" fill="white"/>
</g>
</g>
<path d="M67.6095 71.3294H36.3905V57.2492C36.3905 48.642 43.3928 41.6396 52 41.6396C60.6071 41.6396 67.6095 48.642 67.6095 57.2492V71.3294ZM41.4312 66.2887H62.5688V57.2492C62.5688 51.4216 57.8275 46.6804 52 46.6804C46.1725 46.6804 41.4312 51.4216 41.4312 57.2492V66.2887Z" fill="#4F5D99"/>
<path d="M72.6219 68.6853V97.2221C72.6219 99.2758 70.9547 100.943 68.8836 100.943H35.1161C33.0453 100.943 31.3781 99.2758 31.3781 97.2221V68.6853C31.3781 66.6316 33.0453 64.9644 35.1161 64.9644H68.8836C70.9547 64.9644 72.6219 66.6316 72.6219 68.6853Z" fill="#FDC72E"/>
<path d="M56.0328 89.7366C56.1081 90.1322 55.8068 90.4901 55.4111 90.4901H48.5713C48.1757 90.4901 47.8744 90.1322 47.9498 89.7366L49.3814 82.4446C48.3077 81.5213 47.7423 80.0139 48.1191 78.4126C48.477 77.0183 49.5888 75.8876 50.9831 75.5486C53.6401 74.8889 55.9951 76.8863 55.9951 79.4297C55.9951 80.6547 55.4677 81.7288 54.6006 82.4446L56.0328 89.7366Z" fill="#4F5D99"/>
<g opacity="0.2">
<g opacity="0.2">
<path opacity="0.2" d="M62.0732 100.942H44.5382L32.7231 65.8262C33.3701 65.2815 34.1986 64.9634 35.118 64.9634H49.9747L62.0732 100.942Z" fill="white"/>
</g>
<g opacity="0.2">
<path opacity="0.2" d="M71.2661 100.09C70.6194 100.624 69.7909 100.942 68.8829 100.942H66.5903L54.4804 64.9634H59.4627L71.2661 100.09Z" fill="white"/>
</g>
</g>
</svg>
