<svg width="104" height="104" viewBox="0 0 104 104" fill="none" xmlns="http://www.w3.org/2000/svg">
<path d="M26 32.5C26 30.706 24.544 29.25 22.75 29.25H3.25C1.456 29.25 0 30.706 0 32.5C0 34.294 1.456 35.75 3.25 35.75H22.75C24.544 35.75 26 34.294 26 32.5Z" fill="#FFC107"/>
<path d="M22.75 42.25H9.75C7.956 42.25 6.5 43.706 6.5 45.5C6.5 47.294 7.956 48.75 9.75 48.75H22.75C24.544 48.75 26 47.294 26 45.5C26 43.706 24.544 42.25 22.75 42.25Z" fill="#FFC107"/>
<path d="M22.75 55.25H16.25C14.456 55.25 13 56.706 13 58.5C13 60.294 14.456 61.75 16.25 61.75H22.75C24.544 61.75 26 60.294 26 58.5C26 56.706 24.544 55.25 22.75 55.25Z" fill="#FFC107"/>
<path d="M103.538 53.5795L93.7885 37.3295C93.2035 36.348 92.144 35.75 91 35.75H68.25C66.456 35.75 65 37.206 65 39V71.5C65 73.294 66.456 74.75 68.25 74.75H100.75C102.544 74.75 104 73.294 104 71.5V55.25C104 54.6585 103.844 54.08 103.538 53.5795Z" fill="#F44336"/>
<path d="M78 42.25H89.1605L96.9605 55.25H78V42.25Z" fill="#FAFAFA"/>
<path d="M68.25 22.75H22.75C20.956 22.75 19.5 24.206 19.5 26V71.5C19.5 73.294 20.956 74.75 22.75 74.75H71.5V26C71.5 24.206 70.044 22.75 68.25 22.75Z" fill="#FFC107"/>
<path d="M87.75 78C91.3399 78 94.25 75.0899 94.25 71.5C94.25 67.9101 91.3399 65 87.75 65C84.1601 65 81.25 67.9101 81.25 71.5C81.25 75.0899 84.1601 78 87.75 78Z" fill="#FAFAFA"/>
<path d="M87.75 81.25C82.3745 81.25 78 76.8755 78 71.5C78 66.1245 82.3745 61.75 87.75 61.75C93.1255 61.75 97.5 66.1245 97.5 71.5C97.5 76.8755 93.1255 81.25 87.75 81.25ZM87.75 68.25C85.9625 68.25 84.5 69.7125 84.5 71.5C84.5 73.2875 85.9625 74.75 87.75 74.75C89.5375 74.75 91 73.2875 91 71.5C91 69.7125 89.5375 68.25 87.75 68.25Z" fill="#455A64"/>
<path d="M71.5 74.75H22.75C20.956 74.75 19.5 73.294 19.5 71.5V61.75H71.5V74.75Z" fill="#F44336"/>
<path d="M42.25 78C45.8399 78 48.75 75.0899 48.75 71.5C48.75 67.9101 45.8399 65 42.25 65C38.6601 65 35.75 67.9101 35.75 71.5C35.75 75.0899 38.6601 78 42.25 78Z" fill="#FAFAFA"/>
<path d="M42.25 81.25C36.8745 81.25 32.5 76.8755 32.5 71.5C32.5 66.1245 36.8745 61.75 42.25 61.75C47.6255 61.75 52 66.1245 52 71.5C52 76.8755 47.6255 81.25 42.25 81.25ZM42.25 68.25C40.456 68.25 39 69.7125 39 71.5C39 73.2875 40.456 74.75 42.25 74.75C44.044 74.75 45.5 73.2875 45.5 71.5C45.5 69.7125 44.044 68.25 42.25 68.25Z" fill="#455A64"/>
</svg>
