<svg width="104" height="104" viewBox="0 0 104 104" fill="none" xmlns="http://www.w3.org/2000/svg">
<path d="M50.297 4.36316L32.2961 12.7778C30.7657 13.4928 29.8261 15.1235 29.937 16.8671C30.2498 21.7649 31.4364 31.8049 35.9296 39.2946C41.5972 48.7419 48.6346 51.2143 51.0981 51.8128C51.6925 51.9562 52.308 51.9562 52.9019 51.8128C55.365 51.2143 62.4029 48.7419 68.0704 39.2946C72.564 31.8053 73.7502 21.7645 74.063 16.8671C74.174 15.1235 73.2335 13.4928 71.7039 12.7778L53.703 4.36316C52.62 3.85616 51.3797 3.85616 50.297 4.36316Z" fill="#FFA91A"/>
<path d="M42.7115 44.8829C42.5059 44.8829 42.3004 44.8057 42.1423 44.6505C40.3593 42.9004 38.738 40.8167 37.323 38.4585C34.1591 33.1853 32.7267 26.5598 32.082 21.9298C32.0202 21.4853 32.3302 21.075 32.7746 21.0133C33.2199 20.9475 33.6294 21.2611 33.6915 21.7059C34.3155 26.1856 35.6935 32.5833 38.7164 37.622C40.0607 39.8629 41.5963 41.8372 43.2807 43.4903C43.6012 43.8047 43.6057 44.319 43.2912 44.6396C43.1324 44.8017 42.9219 44.8829 42.7115 44.8829ZM32.5142 19.4009C32.099 19.4009 31.7448 19.0844 31.7062 18.6627L31.6826 18.4007C31.644 17.9534 31.9755 17.5602 32.4224 17.5216C32.8664 17.4769 33.2629 17.8141 33.3015 18.2609L33.3243 18.514C33.3653 18.9609 33.0362 19.3562 32.5894 19.3972C32.5642 19.3997 32.539 19.4009 32.5142 19.4009Z" fill="#FFC91D"/>
<path d="M71.704 12.778L64.7018 9.50488C65.5464 10.3442 66.0181 11.5439 65.938 12.8049C65.6248 17.7022 64.439 27.7431 59.9455 35.2323C54.2779 44.6796 47.2404 47.1521 44.7769 47.7505C44.2744 47.8719 43.7572 47.8841 43.2494 47.8C46.6387 50.465 49.6543 51.4624 51.0981 51.813C51.6925 51.9564 52.308 51.9564 52.9019 51.813C55.365 51.2146 62.4029 48.7417 68.0705 39.2948C72.564 31.8052 73.7502 21.7647 74.063 16.8674C74.174 15.1237 73.2335 13.493 71.704 12.778Z" fill="#F79219"/>
<path d="M71.704 12.7776L68.4633 11.2627C69.4968 12.1012 70.0903 13.4317 70.001 14.8357C69.6877 19.733 68.5019 29.7739 64.0084 37.2631C58.3408 46.7104 51.3033 49.1829 48.8398 49.7813C48.2459 49.9247 47.6304 49.9247 47.0361 49.7813C46.5892 49.6728 45.99 49.5014 45.2774 49.2389C47.81 50.8473 49.9509 51.5339 51.0986 51.8125C51.6929 51.9559 52.3084 51.9559 52.9023 51.8125C55.3654 51.2141 62.4033 48.7413 68.0709 39.2944C72.5644 31.8047 73.7507 21.7643 74.0635 16.8669C74.174 15.1233 73.2335 13.4926 71.704 12.7776Z" fill="#EF7816"/>
<path d="M50.8016 11.3488L38.1314 17.2715C37.0541 17.7748 36.3931 18.9225 36.4707 20.1498C36.6909 23.5972 37.5261 30.6639 40.6888 35.9354C44.6782 42.5849 49.6312 44.3253 51.365 44.7466C51.7835 44.8477 52.2165 44.8477 52.6346 44.7466C54.3684 44.3253 59.3219 42.5849 63.3108 35.9354C66.4735 30.6639 67.3083 23.5968 67.5289 20.1498C67.6069 18.9225 66.9451 17.7748 65.8682 17.2715L53.1984 11.3488C52.4363 10.9925 51.5633 10.9925 50.8016 11.3488Z" fill="#F1F2F2"/>
<path d="M65.8686 17.2715L58.6528 13.8984C59.1695 14.4798 59.4563 15.263 59.4039 16.0873C59.1837 19.5343 58.3489 26.6015 55.1858 31.873C51.1964 38.5225 46.2434 40.2628 44.5096 40.6837C44.4848 40.6898 44.4596 40.6918 44.4348 40.6971C47.3655 43.5096 50.1524 44.4517 51.3646 44.7462C51.7831 44.8474 52.2161 44.8474 52.6342 44.7462C54.368 44.3249 59.3214 42.5846 63.3104 35.9355C66.4731 30.664 67.3079 23.5968 67.5285 20.1498C67.6069 18.9229 66.9451 17.7749 65.8686 17.2715Z" fill="#E6E7E8"/>
<path d="M51.1631 36.0797C50.659 36.0797 50.1707 35.892 49.7949 35.5495L43.9668 30.2374C43.1377 29.4818 43.078 28.1972 43.834 27.368C44.5892 26.5389 45.8742 26.4792 46.7033 27.2352L50.8885 31.0499L57.8586 21.8625C58.5362 20.9692 59.8106 20.7941 60.7047 21.4721C61.5981 22.1502 61.7732 23.4246 61.0951 24.3183L52.7812 35.2769C52.4363 35.7311 51.9163 36.0199 51.3484 36.0719C51.2866 36.0768 51.2249 36.0797 51.1631 36.0797Z" fill="#414042"/>
<path d="M61.4067 69.6936C62.0982 69.441 62.7083 68.9547 63.1048 68.2673L65.3567 64.3669C65.4688 64.1727 65.4022 63.9241 65.208 63.812L48.6342 54.2431C46.6911 53.1215 44.2065 53.7869 43.0848 55.73L41.6187 58.2691L61.4067 69.6936Z" fill="#FCC4AE"/>
<path d="M72.9426 52.1714L41.5582 70.2914L55.547 94.5209L68.9865 86.7615C71.5837 85.2621 73.7307 83.0927 75.2034 80.4801L85.7655 74.3823L72.9426 52.1714Z" fill="#F2AD97"/>
<path d="M74.0359 78.459L84.5976 72.361L85.7634 74.38L75.2016 80.478L74.0359 78.459Z" fill="#E59076"/>
<path d="M90.402 75.9113L100.75 69.937L84.2839 41.417L73.9359 47.3913C72.3816 48.2887 71.849 50.2765 72.7464 51.8308L85.9625 74.7218C86.8599 76.2761 88.8477 76.8087 90.402 75.9113Z" fill="#377DE2"/>
<path d="M73.9359 47.3911L74.15 47.2676L85.5997 67.0995C86.2436 68.2146 87.6696 68.5965 88.7847 67.953L96.8996 63.2677L100.75 69.9367L90.402 75.911C88.8477 76.8085 86.8599 76.2759 85.9625 74.7215L72.7464 51.8306C71.849 50.2763 72.3816 48.2885 73.9359 47.3911Z" fill="#2266D3"/>
<path d="M74.0383 78.4604L75.2042 80.4795C73.7316 83.0921 71.5845 85.2615 68.9874 86.7609L55.5478 94.5203L54.3819 92.5013L67.8214 84.7419C70.4186 83.2424 72.5656 81.073 74.0383 78.4604Z" fill="#E59076"/>
<path d="M78.2161 79.3983L31.0574 52.1714L18.2341 74.3815L28.7962 80.4793C30.2689 83.0919 32.4159 85.2613 35.0131 86.7607L45.8027 92.9902L57.1602 99.5474C58.8327 100.513 60.9716 99.9403 61.9377 98.2674C62.9034 96.5948 62.3305 94.4559 60.6576 93.4903L66.7148 96.9873C68.3873 97.9529 70.5262 97.3801 71.4919 95.7072C72.4575 94.0346 71.8847 91.8957 70.2118 90.9301L73.2404 92.6786C74.9129 93.6442 77.0518 93.0714 78.0175 91.3985C78.9831 89.7255 78.4099 87.587 76.7374 86.621L74.7183 85.4555C76.3908 86.4211 78.5298 85.8479 79.4954 84.1754C80.4619 82.5028 79.8887 80.3643 78.2161 79.3983Z" fill="#FCC4AE"/>
<path d="M13.598 75.9113L3.25 69.937L19.7161 41.417L30.0641 47.3913C31.6184 48.2887 32.151 50.2765 31.2536 51.8308L18.0375 74.7218C17.1401 76.2761 15.1523 76.8087 13.598 75.9113Z" fill="#377DE2"/>
<path d="M30.0641 47.3911L29.85 47.2676L18.4003 67.0995C17.7564 68.2146 16.3304 68.5965 15.2153 67.953L7.10044 63.2677L3.25 69.9367L13.598 75.911C15.1523 76.8085 17.1401 76.2759 18.0375 74.7215L31.2536 51.8306C32.151 50.2763 31.6184 48.2885 30.0641 47.3911Z" fill="#2266D3"/>
<path d="M71.9018 94.5366C70.8082 95.4389 69.2335 95.627 67.9335 94.8766L54.5569 87.1538L53.3382 89.2647L66.7148 96.9875C68.3873 97.9531 70.5262 97.3803 71.4923 95.7074C71.7072 95.3345 71.8348 94.9376 71.9018 94.5366Z" fill="#F2AD97"/>
<path d="M78.4278 90.2279C77.3342 91.1302 75.7595 91.3183 74.4595 90.5679L58.0544 81.0962L56.8356 83.2071L73.2408 92.6788C74.9133 93.6444 77.0522 93.0716 78.0179 91.3987C78.2332 91.0258 78.3604 90.6289 78.4278 90.2279Z" fill="#F2AD97"/>
<path d="M79.9057 83.0048C78.8121 83.9071 77.2375 84.0952 75.9375 83.3448L61.5514 75.0391L60.3326 77.1499L74.7187 85.4557C76.3913 86.4214 78.5302 85.8482 79.4958 84.1756C79.7111 83.8027 79.8387 83.4058 79.9057 83.0048Z" fill="#F2AD97"/>
<path d="M18.2322 74.3818L19.3979 72.3628L29.9597 78.4608L28.7939 80.4799L18.2322 74.3818Z" fill="black"/>
<path d="M58.379 97.4368L36.179 84.7419C33.5819 83.2424 31.4348 81.073 29.9622 78.4604L28.7962 80.4795C30.2689 83.0921 32.4159 85.2615 35.0131 86.7609L57.1602 99.5477C58.8327 100.513 60.9716 99.9401 61.9377 98.2676C62.153 97.895 62.2802 97.4977 62.3472 97.0968C61.2536 97.999 59.6785 98.1871 58.379 97.4368Z" fill="black"/>
<path d="M46.8398 99.5475L52.1402 96.4877C53.8127 95.522 54.3859 93.3831 53.4203 91.7106C52.4546 90.038 50.3157 89.4648 48.6432 90.4305L43.3428 93.4903C41.6703 94.456 41.0971 96.5949 42.0627 98.2674C43.0284 99.94 45.1673 100.513 46.8398 99.5475Z" fill="#F2AD97"/>
<path d="M50.9742 94.4685L45.6739 97.5284C44.3572 98.2885 42.7599 98.0833 41.665 97.151C41.7353 97.5328 41.8568 97.9119 42.0623 98.2678C43.028 99.9403 45.1669 100.514 46.8394 99.5478L52.1398 96.488C53.8123 95.5223 54.3855 93.3834 53.4199 91.7109C53.2143 91.355 52.9474 91.0601 52.6516 90.8086C52.912 92.2219 52.2913 93.708 50.9742 94.4685Z" fill="#E59076"/>
<path d="M37.2852 96.9874L47.6332 91.0131C49.3058 90.0474 49.879 87.9085 48.9133 86.236C47.9477 84.5634 45.8088 83.9902 44.1362 84.9559L33.7882 90.9302C32.1157 91.8958 31.5425 94.0347 32.5081 95.7073C33.4738 97.3798 35.6127 97.953 37.2852 96.9874Z" fill="#F2AD97"/>
<path d="M46.4677 88.9939L36.1197 94.9682C34.8031 95.7283 33.2057 95.5231 32.1108 94.5908C32.1811 94.9727 32.3026 95.3517 32.5082 95.7076C33.4738 97.3801 35.6127 97.9533 37.2852 96.9877L47.6332 91.0134C49.3058 90.0477 49.879 87.9088 48.9133 86.2363C48.7078 85.8804 48.4409 85.5855 48.1451 85.334C48.4055 86.7473 47.7844 88.2334 46.4677 88.9939Z" fill="#E59076"/>
<path d="M30.7592 92.6787L43.1263 85.5384C44.7988 84.5728 45.372 82.4339 44.4064 80.7613C43.4407 79.0888 41.3018 78.5156 39.6293 79.4813L27.2622 86.6215C25.5897 87.5872 25.0165 89.7261 25.9821 91.3986C26.9478 93.0711 29.0867 93.6443 30.7592 92.6787Z" fill="#F2AD97"/>
<path d="M41.9608 83.5192L29.5937 90.6594C28.2771 91.4195 26.6797 91.2144 25.5848 90.2816C25.6551 90.6635 25.7766 91.0425 25.9822 91.3984C26.9478 93.0709 29.0867 93.6442 30.7592 92.6785L43.1263 85.5383C44.7988 84.5726 45.3721 82.4337 44.4064 80.7612C44.2008 80.4053 43.9339 80.1104 43.6382 79.8589C43.8986 81.273 43.2774 82.7591 41.9608 83.5192Z" fill="#E59076"/>
<path d="M29.2813 85.4556L38.6198 80.0638C40.2923 79.0982 40.8655 76.9593 39.8999 75.2867C38.9342 73.6142 36.7953 73.041 35.1228 74.0066L25.7843 79.3984C24.1118 80.364 23.5385 82.503 24.5042 84.1755C25.4699 85.848 27.6084 86.4212 29.2813 85.4556Z" fill="#F2AD97"/>
<path d="M37.4542 78.0446L28.1158 83.4359C26.7991 84.196 25.2017 83.9909 24.1069 83.0585C24.1772 83.4404 24.2987 83.8194 24.5042 84.1753C25.4699 85.8478 27.6088 86.4211 29.2813 85.4554L38.6198 80.0641C40.2923 79.0984 40.8655 76.9595 39.8999 75.2866C39.6943 74.9307 39.4274 74.6357 39.1317 74.3843C39.3917 75.7984 38.7709 77.2845 37.4542 78.0446Z" fill="#E59076"/>
<path d="M37.4786 79.3768L38.2968 78.9044C39.2681 78.3433 39.6013 77.101 39.0402 76.1297L38.74 75.6097C38.179 74.6383 36.9367 74.3052 35.9653 74.8662L35.1471 75.3387C34.7584 75.563 34.6255 76.0598 34.8498 76.4486L36.3687 79.0795C36.593 79.4678 37.0898 79.6011 37.4786 79.3768Z" fill="#FFD2C0"/>
<path d="M41.9856 84.851L42.8037 84.3785C43.7751 83.8175 44.1082 82.5752 43.5472 81.6038L43.247 81.0838C42.6859 80.1125 41.4436 79.7793 40.4723 80.3404L39.2917 81.0221C39.1032 81.1309 39.0386 81.3718 39.1475 81.5603L40.8757 84.5536C41.0999 84.9424 41.5968 85.0756 41.9856 84.851Z" fill="#FFD2C0"/>
<path d="M46.4921 90.3256L47.3103 89.8531C48.2816 89.2921 48.6147 88.0498 48.0537 87.0784L47.7535 86.5584C47.1924 85.5871 45.9501 85.2539 44.9788 85.815L44.1606 86.2874C43.7718 86.5117 43.639 87.0085 43.8632 87.3973L45.3822 90.0282C45.6064 90.4166 46.1037 90.5498 46.4921 90.3256Z" fill="#FFD2C0"/>
<path d="M50.999 95.8002L51.8172 95.3277C52.7886 94.7667 53.1217 93.5244 52.5607 92.553L52.2604 92.033C51.6994 91.0617 50.4571 90.7286 49.4857 91.2896L48.6676 91.7621C48.2788 91.9863 48.1459 92.4831 48.3702 92.8719L49.8891 95.5028C50.1134 95.8912 50.6102 96.0244 50.999 95.8002Z" fill="#FFD2C0"/>
<path d="M48.501 67.6289L62.9635 59.2788L60.9148 55.7302C59.7931 53.7871 57.3085 53.1213 55.3654 54.2433L38.7916 63.8121C38.5974 63.9243 38.5308 64.1729 38.6429 64.3671L39.0666 65.1012C40.974 68.4044 45.1978 69.5362 48.501 67.6289Z" fill="#F2AD97"/>
<path d="M44.5486 64.3858L46.4031 63.3149C46.9605 62.9932 47.1518 62.2802 46.8297 61.7224L45.7247 59.8086L40.4589 62.849L40.7599 63.3706C41.5261 64.697 43.2222 65.1516 44.5486 64.3858Z" fill="#FFD2C0"/>
</svg>
