<svg width="56" height="56" viewBox="0 0 56 56" fill="none" xmlns="http://www.w3.org/2000/svg">
<g opacity="0.2">
<path d="M39.9126 27.4827C38.8552 27.4827 37.998 26.6254 37.998 25.5679V24.8916C37.998 23.834 38.8552 22.9768 39.9126 22.9768C40.97 22.9768 41.8271 23.834 41.8271 24.8916V25.5679C41.8272 26.6254 40.97 27.4827 39.9126 27.4827Z" fill="#FBFCFC"/>
<path d="M31.3437 14.2004H16.813C15.7555 14.2004 14.8984 13.3432 14.8984 12.2856C14.8984 11.2281 15.7557 10.3708 16.813 10.3708H31.3437C32.4011 10.3708 33.2582 11.2281 33.2582 12.2856C33.2582 13.3432 32.4011 14.2004 31.3437 14.2004Z" fill="#FBFCFC"/>
<path d="M10.4002 14.2004C11.4561 14.2004 12.3121 13.3431 12.3121 12.2856C12.3121 11.2281 11.4561 10.3708 10.4002 10.3708C9.34427 10.3708 8.48828 11.2281 8.48828 12.2856C8.48828 13.3431 9.34427 14.2004 10.4002 14.2004Z" fill="#FBFCFC"/>
<path d="M31.3437 23.7675H16.813C15.7555 23.7675 14.8984 22.9103 14.8984 21.8528C14.8984 20.7952 15.7557 19.938 16.813 19.938H31.3437C32.4011 19.938 33.2582 20.7952 33.2582 21.8528C33.2582 22.9103 32.4011 23.7675 31.3437 23.7675Z" fill="#FBFCFC"/>
<path d="M10.4002 23.7746C11.4561 23.7746 12.3121 22.9173 12.3121 21.8598C12.3121 20.8023 11.4561 19.9451 10.4002 19.9451C9.34427 19.9451 8.48828 20.8023 8.48828 21.8598C8.48828 22.9173 9.34427 23.7746 10.4002 23.7746Z" fill="#FBFCFC"/>
<path d="M10.4002 33.4543C11.4561 33.4543 12.3121 32.597 12.3121 31.5395C12.3121 30.482 11.4561 29.6248 10.4002 29.6248C9.34427 29.6248 8.48828 30.482 8.48828 31.5395C8.48828 32.597 9.34427 33.4543 10.4002 33.4543Z" fill="#FBFCFC"/>
<path d="M10.4002 43.0214C11.4561 43.0214 12.3121 42.1642 12.3121 41.1067C12.3121 40.0492 11.4561 39.1919 10.4002 39.1919C9.34427 39.1919 8.48828 40.0492 8.48828 41.1067C8.48828 42.1642 9.34427 43.0214 10.4002 43.0214Z" fill="#FBFCFC"/>
<path d="M47.1458 27.9718C44.5086 27.8099 42.1338 28.8174 40.4566 30.7082C39.8525 30.0272 39.1716 29.4524 38.4282 29.0005C35.4366 27.182 31.5763 27.5093 28.824 29.625H16.8132C15.7557 29.625 14.8986 30.4822 14.8986 31.5397C14.8986 32.5973 15.7559 33.4545 16.8132 33.4545H25.9179C25.1809 35.268 25.0474 37.2728 25.3824 39.1921H16.8132C15.7557 39.1921 14.8986 40.0493 14.8986 41.1069C14.8986 42.1644 15.7559 43.0216 16.8132 43.0216H26.6525C27.7937 45.3723 29.439 47.4537 31.2694 49.3044H3.82918V3.82942H37.998V19.3469C37.998 20.4045 38.8551 21.2617 39.9126 21.2617C40.97 21.2617 41.8271 20.4045 41.8271 19.3469V3.5901C41.8271 1.61048 40.2167 0 38.2374 0H3.58986C1.61036 0 0 1.61048 0 3.5901V49.5436C0 51.5232 1.61036 53.1337 3.58986 53.1337H35.6819C36.8245 53.9994 38.0556 54.8564 39.376 55.703C40.1353 56.1897 41.1665 56.067 41.791 55.4168C47.2846 52.0049 51.2527 48.4372 53.5884 44.8084C56.2968 40.6005 56.2399 37.2009 55.7152 35.09C54.7358 31.1495 51.212 28.2224 47.1458 27.9718C51.212 28.2224 44.5085 27.8099 47.1458 27.9718ZM34.1501 31.6272C36.101 31.6272 37.7618 32.8667 38.7506 35.0846C39.4299 36.608 41.6879 36.5499 42.2863 34.9915C43.1169 32.8296 44.8028 31.6652 46.91 31.794C48.8862 31.9159 51.3217 33.2884 51.9991 36.0137C53.1277 40.5545 48.798 46.4031 40.3789 51.7805C32.2319 46.2955 28.0244 40.3132 29.2133 35.6716C29.6757 33.8668 31.7793 31.6272 34.1501 31.6272Z" fill="#FBFCFC"/>
</g>
</svg>
