<svg width="56" height="56" viewBox="0 0 56 56" fill="none" xmlns="http://www.w3.org/2000/svg">
<g opacity="0.2" clip-path="url(#clip0_283_2837)">
<path d="M55.1686 20.2416C54.4292 19.3139 53.3198 18.7816 52.1247 18.7816H41.3399L35.4918 5.39052C35.1292 4.56026 34.1621 4.18084 33.3317 4.54363C32.5013 4.90621 32.1221 5.87341 32.4848 6.70379L37.7594 18.7817H18.2406L23.5152 6.70379C23.8778 5.87341 23.4987 4.90632 22.6683 4.54363C21.838 4.18084 20.8708 4.56004 20.5083 5.39052L14.6601 18.7817H3.87527C2.68024 18.7817 1.57085 19.3139 0.831366 20.2417C0.105444 21.1526 -0.162415 22.3235 0.0964757 23.4547L5.85584 48.6109C6.25801 50.3675 7.8119 51.5942 9.63463 51.5942H46.3654C48.1881 51.5942 49.742 50.3675 50.1442 48.6109L55.9035 23.4546C56.1624 22.3234 55.8946 21.1524 55.1686 20.2416ZM46.3654 48.3129H9.63463C9.35605 48.3129 9.11204 48.1302 9.0544 47.8784L3.29504 22.7224C3.24987 22.525 3.32566 22.3765 3.39741 22.2867C3.46391 22.2031 3.61452 22.063 3.87527 22.063H13.2272L12.7974 23.047C12.4348 23.8774 12.8139 24.8445 13.6443 25.2072C13.858 25.3006 14.0807 25.3448 14.3 25.3448C14.9324 25.3448 15.5351 24.977 15.8044 24.3604L16.8077 22.0632H39.1926L40.1959 24.3604C40.4651 24.9771 41.0678 25.3448 41.7002 25.3448C41.9194 25.3448 42.1422 25.3006 42.3559 25.2072C43.1863 24.8446 43.5655 23.8774 43.2028 23.047L42.7731 22.063H52.125C52.3857 22.063 52.5363 22.2031 52.6028 22.2867C52.6745 22.3766 52.7504 22.5251 52.7052 22.7223L46.9458 47.8786C46.8881 48.1302 46.644 48.3129 46.3654 48.3129Z" fill="#FBFCFC"/>
<path d="M18.1562 29.1724C17.2502 29.1724 16.5156 29.9069 16.5156 30.813V42.8442C16.5156 43.7503 17.2502 44.4849 18.1562 44.4849C19.0623 44.4849 19.7969 43.7503 19.7969 42.8442V30.813C19.7969 29.9069 19.0624 29.1724 18.1562 29.1724Z" fill="#FBFCFC"/>
<path d="M28 29.1724C27.0939 29.1724 26.3594 29.9069 26.3594 30.813V42.8442C26.3594 43.7503 27.0939 44.4849 28 44.4849C28.9061 44.4849 29.6406 43.7503 29.6406 42.8442V30.813C29.6406 29.9069 28.9061 29.1724 28 29.1724Z" fill="#FBFCFC"/>
<path d="M37.8438 29.1724C36.9377 29.1724 36.2031 29.9069 36.2031 30.813V42.8442C36.2031 43.7503 36.9377 44.4849 37.8438 44.4849C38.7498 44.4849 39.4844 43.7503 39.4844 42.8442V30.813C39.4843 29.9069 38.7498 29.1724 37.8438 29.1724Z" fill="#FBFCFC"/>
</g>
<defs>
<clipPath id="clip0_283_2837">
<rect width="56" height="56" fill="white"/>
</clipPath>
</defs>
</svg>
