<svg width="56" height="56" viewBox="0 0 56 56" fill="none" xmlns="http://www.w3.org/2000/svg">
<g opacity="0.2">
<path d="M44.399 7.33703H39.3328V5.07058C39.3328 4.33729 38.5329 4.00402 37.7996 4.00402H33.8666C32.9334 1.33755 30.6002 0.00431623 27.9338 0.00431623C25.2966 -0.0948246 22.898 1.52218 22.0009 4.00402H18.1345C17.4012 4.00402 16.6679 4.33729 16.6679 5.07058V7.33703H11.6016C8.59926 7.36906 6.14307 9.73747 6.00195 12.7366V50.9336C6.00195 53.8667 8.66842 55.9999 11.6016 55.9999H44.399C47.3322 55.9999 49.9986 53.8667 49.9986 50.9336V12.7367C49.8575 9.73747 47.4013 7.36906 44.399 7.33703ZM19.3343 6.67048H23.0007C23.6407 6.59239 24.1548 6.10549 24.2673 5.47058C24.6621 3.75138 26.1704 2.51729 27.9338 2.47084C29.6808 2.52379 31.1664 3.76171 31.5334 5.47058C31.653 6.12744 32.201 6.62059 32.8667 6.67048H36.6664V12.0034H19.3343V6.67048ZM47.3322 50.9337C47.3322 52.4003 45.8656 53.3335 44.399 53.3335H11.6016C10.135 53.3335 8.66842 52.4003 8.66842 50.9337V12.7367C8.80443 11.2102 10.0691 10.0316 11.6016 10.0036H16.6678V13.4034C16.7382 14.1503 17.3852 14.7091 18.1344 14.67H37.7995C38.5625 14.7117 39.2297 14.1607 39.3327 13.4034V10.0035H44.3989C45.9312 10.0316 47.196 11.21 47.3321 12.7366V50.9337H47.3322Z" fill="#FBFCFC"/>
<path d="M22.8673 29.8021C22.3673 29.275 21.5371 29.2453 21.0007 29.7355L16.7344 33.8018L14.9345 31.9352C14.4345 31.4082 13.6044 31.3786 13.0679 31.8686C12.5516 32.4096 12.5516 33.2608 13.0679 33.8018L15.801 36.6016C16.0376 36.8665 16.3793 37.013 16.7342 37.0016C17.0859 36.9967 17.4213 36.8529 17.6675 36.6016L22.8671 31.6687C23.3825 31.1958 23.417 30.3945 22.944 29.8792C22.9198 29.8523 22.8941 29.8266 22.8673 29.8021Z" fill="#FBFCFC"/>
<path d="M41.9993 32.6685H26.6672C25.9309 32.6685 25.334 33.2653 25.334 34.0017C25.334 34.738 25.9309 35.3349 26.6672 35.3349H41.9993C42.7357 35.3349 43.3326 34.738 43.3326 34.0017C43.3326 33.2653 42.7357 32.6685 41.9993 32.6685Z" fill="#FBFCFC"/>
<path d="M22.8673 19.1361C22.3673 18.609 21.5371 18.5793 21.0007 19.0695L16.7344 23.1358L14.9345 21.2692C14.4345 20.7421 13.6044 20.7124 13.0679 21.2026C12.5516 21.7436 12.5516 22.5948 13.0679 23.1358L15.801 25.9356C16.0376 26.2005 16.3793 26.347 16.7342 26.3356C17.0859 26.3306 17.4213 26.1868 17.6675 25.9356L22.8671 21.0027C23.3825 20.5298 23.417 19.7285 22.944 19.2132C22.9198 19.1863 22.8941 19.1606 22.8673 19.1361Z" fill="#FBFCFC"/>
<path d="M41.9993 22.0027H26.6672C25.9309 22.0027 25.334 22.5996 25.334 23.3359C25.334 24.0723 25.9309 24.6692 26.6672 24.6692H41.9993C42.7357 24.6692 43.3326 24.0723 43.3326 23.3359C43.3326 22.5996 42.7357 22.0027 41.9993 22.0027Z" fill="#FBFCFC"/>
<path d="M22.8673 40.4678C22.3673 39.9408 21.5371 39.9111 21.0007 40.4012L16.7344 44.4675L14.9345 42.601C14.4345 42.0739 13.6044 42.0443 13.0679 42.5344C12.5516 43.0754 12.5516 43.9265 13.0679 44.4675L15.801 47.2673C16.0376 47.5322 16.3793 47.6787 16.7342 47.6674C17.0859 47.6624 17.4213 47.5186 17.6675 47.2673L22.8671 42.3344C23.3825 41.8616 23.417 41.0603 22.944 40.5449C22.9198 40.5181 22.8941 40.4925 22.8673 40.4678Z" fill="#FBFCFC"/>
<path d="M41.9993 43.3342H26.6672C25.9309 43.3342 25.334 43.9311 25.334 44.6675C25.334 45.4038 25.9309 46.0007 26.6672 46.0007H41.9993C42.7357 46.0007 43.3326 45.4038 43.3326 44.6675C43.3326 43.9311 42.7357 43.3342 41.9993 43.3342Z" fill="#FBFCFC"/>
</g>
</svg>
