<svg width="255" height="67" viewBox="0 0 255 67" fill="none" xmlns="http://www.w3.org/2000/svg">
<path fill-rule="evenodd" clip-rule="evenodd" d="M0 18.0226C0 16.4051 0.974201 14.9468 2.46848 14.3274L6.1625 12.7964C12.1125 10.2423 24.225 5.13403 36.3375 6.41109C48.6625 7.68815 60.775 15.3505 72.8875 20.4588C85 25.567 97.1125 28.1211 109.225 23.0129C121.338 17.9046 133.663 5.13403 145.775 1.30284C157.888 -2.52834 170 2.57991 182.113 10.2423C194.225 17.9046 206.338 28.1211 218.663 29.3982C230.775 30.6753 242.888 23.0129 248.838 19.1817C251.502 17.5252 255 19.4098 255 22.5473V63C255 65.2091 253.209 67 251 67H248.838C242.888 67 230.775 67 218.663 67C206.338 67 194.225 67 182.113 67C170 67 157.888 67 145.775 67C133.663 67 121.338 67 109.225 67C97.1125 67 85 67 72.8875 67C60.775 67 48.6625 67 36.3375 67C24.225 67 12.1125 67 6.1625 67H4C1.79086 67 0 65.2091 0 63V18.0226Z" fill="#2196F3" fill-opacity="0.5"/>
</svg>
