<svg width="255" height="67" viewBox="0 0 255 67" fill="none" xmlns="http://www.w3.org/2000/svg">
<path fill-rule="evenodd" clip-rule="evenodd" d="M0 62.5008C0 60.6513 1.26788 59.043 3.06621 58.6113L5.3125 58.072C10.625 56.7966 21.25 54.2457 31.875 44.0423C42.5 33.8389 53.125 15.9829 63.75 7.0549C74.375 -1.8731 85 -1.8731 95.625 4.50404C106.25 10.8812 116.875 23.6355 127.5 24.9109C138.125 26.1863 148.75 15.9829 159.375 14.7075C170 13.432 180.625 21.0846 191.25 26.1863C201.875 31.288 212.5 33.8389 223.125 30.0126C233.75 26.1863 244.375 15.9829 249.688 10.8812C251.682 8.96555 255 10.3793 255 13.1449V63C255 65.2091 253.209 67 251 67H249.688C244.375 67 233.75 67 223.125 67C212.5 67 201.875 67 191.25 67C180.625 67 170 67 159.375 67C148.75 67 138.125 67 127.5 67C116.875 67 106.25 67 95.625 67C85 67 74.375 67 63.75 67C53.125 67 42.5 67 31.875 67C21.25 67 10.625 67 5.3125 67H4C1.79086 67 0 65.2091 0 63V62.5008Z" fill="#F06D01" fill-opacity="0.5"/>
</svg>
