<svg width="255" height="67" viewBox="0 0 255 67" fill="none" xmlns="http://www.w3.org/2000/svg">
<path fill-rule="evenodd" clip-rule="evenodd" d="M0 42.2367C0 39.3835 2.90175 37.4477 5.5362 38.5435L6.1625 38.804C12.1125 41.3673 24.225 46.4938 36.3375 40.0856C48.6625 33.6774 60.775 15.7345 72.8875 10.608C85 5.48141 97.1125 13.1712 109.225 20.8611C121.338 28.5509 133.663 36.2407 145.775 32.3958C157.888 28.5509 170 13.1712 182.113 5.48141C194.225 -2.20842 206.338 -2.20842 218.663 8.04468C230.775 18.2978 242.888 38.804 248.838 49.0571L254.428 58.3592C254.802 58.9814 255 59.6937 255 60.4198V63C255 65.2091 253.209 67 251 67H248.838C242.888 67 230.775 67 218.663 67C206.338 67 194.225 67 182.113 67C170 67 157.888 67 145.775 67C133.663 67 121.338 67 109.225 67C97.1125 67 85 67 72.8875 67C60.775 67 48.6625 67 36.3375 67C24.225 67 12.1125 67 6.1625 67H4C1.79086 67 0 65.2091 0 63V42.2367Z" fill="#57CC99" fill-opacity="0.5"/>
</svg>
