<svg width="72" height="72" viewBox="0 0 72 72" fill="none" xmlns="http://www.w3.org/2000/svg">
<path d="M0 27L34.668 49.0635C35.064 49.356 35.532 49.5 36 49.5C36.468 49.5 36.936 49.356 37.332 49.0635L72 27L37.35 0.450004C36.549 -0.148496 35.451 -0.148496 34.65 0.450004L0 27Z" fill="#64B5F6"/>
<path d="M58.5 0H13.5C11.0205 0 9 2.0205 9 4.5V54C9 55.242 10.008 56.25 11.25 56.25H60.75C61.992 56.25 63 55.242 63 54V4.5C63 2.0205 60.984 0 58.5 0Z" fill="#ECEFF1"/>
<path d="M20.25 13.5H51.75C52.992 13.5 54 12.492 54 11.25C54 10.008 52.992 9 51.75 9H20.25C19.008 9 18 10.008 18 11.25C18 12.492 19.008 13.5 20.25 13.5Z" fill="#90A4AE"/>
<path d="M51.75 18H20.25C19.008 18 18 19.008 18 20.25C18 21.492 19.008 22.5 20.25 22.5H51.75C52.992 22.5 54 21.492 54 20.25C54 19.008 52.992 18 51.75 18Z" fill="#90A4AE"/>
<path d="M38.25 27H20.25C19.008 27 18 28.008 18 29.25C18 30.492 19.008 31.5 20.25 31.5H38.25C39.492 31.5 40.5 30.492 40.5 29.25C40.5 28.008 39.492 27 38.25 27Z" fill="#90A4AE"/>
<path d="M37.332 49.0635C36.936 49.356 36.468 49.5 36 49.5C35.532 49.5 35.064 49.356 34.668 49.0635L0 27V67.5C0 69.984 2.016 72 4.5 72H67.5C69.984 72 72 69.984 72 67.5V27L37.332 49.0635Z" fill="#1E88E5"/>
<path d="M67.5 72H4.5C1.9755 72 0 70.0245 0 67.5C0 66.7845 0.342 66.1095 0.918 65.6865L34.668 43.1865C35.064 42.894 35.532 42.75 36 42.75C36.468 42.75 36.936 42.894 37.332 43.1865L71.082 65.6865C71.658 66.1095 72 66.7845 72 67.5C72 70.0245 70.0245 72 67.5 72Z" fill="#2196F3"/>
</svg>
