<svg width="28" height="28" viewBox="0 0 28 28" fill="none" xmlns="http://www.w3.org/2000/svg">
<path d="M10.4344 13.4257L1.90307 4.86172C1.67344 4.63203 1.31245 4.5664 1.01719 4.68125C0.835844 4.74179 0.446305 5.11421 0.262445 5.53443C0.0820312 5.86244 0 6.23979 0 6.61719V21.3828C0 21.7601 0.0820312 22.1374 0.262445 22.4656C0.377289 22.7281 0.557867 22.9578 0.771039 23.1546C1.84937 24.0172 2.24 22.7699 10.4343 14.5742C10.7625 14.2624 10.7625 13.7374 10.4344 13.4257Z" fill="#C5C9F7"/>
<path d="M18.7143 13.4257C18.4189 13.114 17.8611 13.114 17.5659 13.4257L14.5361 16.3625C14.3721 16.5101 14.1588 16.5921 13.9455 16.5921C13.7322 16.5921 13.5189 16.5101 13.3549 16.3625L10.4346 13.4257C10.1393 13.0977 9.5815 13.0977 9.28613 13.4257C8.40025 14.3117 1.21431 21.514 0.262695 22.4656C0.377539 22.7281 0.558117 22.9578 0.771289 23.1546C0.853375 23.2203 0.935406 23.2859 1.03384 23.3187C1.46041 23.6304 1.93619 23.8437 2.46119 23.8437H25.5393C26.0643 23.8437 26.5401 23.6304 26.9667 23.3187C27.262 23.2203 27.6065 22.7608 27.7378 22.4655C26.7861 21.514 19.6002 14.3117 18.7143 13.4257Z" fill="#E1E4FB"/>
<path d="M27.7378 5.53443C27.4153 4.7973 26.6637 4.29499 26.0972 4.86172L17.5659 13.4257C17.2378 13.7374 17.2378 14.2624 17.5659 14.5742C18.4434 15.4518 25.1952 22.2325 26.0972 23.1383C26.6335 23.7343 27.4151 23.2031 27.7378 22.4656C27.9183 22.1374 28.0002 21.7601 28.0002 21.3828V6.61719C28.0002 6.23979 27.9182 5.86244 27.7378 5.53443Z" fill="#A8AFF1"/>
<path d="M27.7376 22.4656C27.6063 22.7609 27.2617 23.2203 26.9664 23.3187C26.5398 23.6305 26.0641 23.8437 25.5391 23.8437H13.9453V16.5921C14.1586 16.5921 14.3719 16.5101 14.5359 16.3625L17.5657 13.4257C17.861 13.114 18.4187 13.114 18.7141 13.4257C19.6 14.3117 26.7859 21.514 27.7376 22.4656Z" fill="#C5C9F7"/>
<path d="M26.9826 4.68125C26.9826 4.66484 26.9662 4.66484 26.9662 4.66484C26.5396 4.35313 26.0638 4.15625 25.5388 4.15625H2.4607C1.9357 4.15625 1.45992 4.35313 1.03336 4.66484C1.03336 4.66484 1.01695 4.66484 1.01695 4.68125C0.836481 4.74682 0.442785 5.10781 0.262207 5.53443C11.6646 16.9531 9.35133 14.6398 12.206 17.5109C12.6653 18.0031 13.3052 18.2327 13.9451 18.2327C14.585 18.2327 15.2248 18.0031 15.6841 17.5109C18.5061 14.6726 16.2037 17.0844 27.7373 5.53437C27.5567 5.10787 27.163 4.74687 26.9826 4.68125Z" fill="#18A7FC"/>
<path d="M27.7376 5.53443C16.2039 17.0844 18.5063 14.6726 15.6844 17.5109C15.2251 18.0031 14.5852 18.2327 13.9453 18.2327V4.15625H25.5391C26.0641 4.15625 26.5398 4.35313 26.9664 4.66484C26.9664 4.66484 26.9828 4.66484 26.9828 4.68125C27.1633 4.74687 27.557 5.10787 27.7376 5.53443Z" fill="#1689FC"/>
</svg>
