<svg width="96" height="96" viewBox="0 0 96 96" fill="none" xmlns="http://www.w3.org/2000/svg">
<g clip-path="url(#clip0_467_7195)">
<path d="M44.5436 56.8436C44.4454 59.6839 42.2203 61.986 39.3637 62.1966C36.7037 62.3908 34.0177 62.4913 31.3834 62.4913C28.749 62.4913 26.0655 62.3908 23.4052 62.1966C20.5485 61.986 18.3212 59.6839 18.2254 56.8436C17.7996 44.4109 17.7996 31.8167 18.2231 19.4121C18.3214 16.5694 20.5464 14.2697 23.403 14.0591C26.0631 13.8649 28.749 13.7644 31.3834 13.7644C34.0177 13.7644 36.7037 13.8649 39.3662 14.0591C42.2205 14.2697 44.4478 16.5696 44.5461 19.4121C44.6092 21.2464 44.6606 23.0829 44.7051 24.9242H55.4089C55.3644 22.959 55.3082 21.0007 55.2405 19.0447C54.9574 10.7297 48.4697 3.99637 40.1499 3.38568C37.2277 3.17043 34.2799 3.06281 31.3834 3.06281C28.4893 3.06281 25.539 3.17043 22.6192 3.38568C14.2997 3.99637 7.81181 10.7297 7.52643 19.0447C7.09368 31.6927 7.09368 44.5324 7.52868 57.2085C7.81181 65.5258 14.2995 72.2569 22.6192 72.8698C25.539 73.0851 28.4893 73.1927 31.3834 73.1927C34.2799 73.1927 37.2277 73.0851 40.1499 72.8698C48.4672 72.2569 54.9549 65.5258 55.2405 57.2085C55.2756 56.1626 55.3084 55.1145 55.3387 54.0641H44.6302C44.6046 54.993 44.5764 55.9194 44.5436 56.8436Z" fill="#38A3A5"/>
<path d="M39.3658 14.0591C37.6088 13.9305 35.8401 13.8486 34.083 13.8041C34.986 13.7807 35.8892 13.7644 36.783 13.7644C39.4174 13.7644 42.1033 13.8649 44.7634 14.0591C47.6201 14.2697 49.845 16.5696 49.9433 19.4121C50.0064 21.2464 50.0578 23.0829 50.1023 24.9242H44.7047C44.6603 23.0829 44.6087 21.2464 44.5457 19.4121C44.4474 16.5696 42.2224 14.2697 39.3658 14.0591Z" fill="#57CC99"/>
<path d="M28.0172 72.8696C19.6987 72.2574 13.211 65.5251 12.9266 57.2094C12.4929 44.5337 12.4924 31.6935 12.9251 19.0457C13.2099 10.7295 19.6978 3.99731 28.0168 3.38606C30.0349 3.23775 32.0657 3.14362 34.0835 3.09731C33.1807 3.07668 32.2796 3.06262 31.3847 3.06262C28.4895 3.06262 25.5403 3.17137 22.619 3.38606C14.3002 3.9975 7.81217 10.7295 7.52736 19.0457C7.09461 31.6937 7.09498 44.5339 7.52886 57.2094C7.81348 65.5251 14.301 72.2574 22.6194 72.8696C25.5401 73.0845 28.4891 73.1934 31.3845 73.1934C32.2796 73.1934 33.1805 73.1794 34.0834 73.1586C32.0655 73.1122 30.035 73.0179 28.0172 72.8696Z" fill="#57CC99"/>
<path d="M31.3837 86.0653C24.3005 86.0653 17.1575 85.8598 10.0263 85.4522C4.90116 85.1593 0.803157 81.0816 0.47897 75.9583C-0.158718 65.8834 -0.159843 55.7741 0.47672 45.7164C0.800907 40.5934 4.89909 36.516 10.0238 36.2233C17.1487 35.8164 24.3008 35.6109 31.3837 35.6109C38.4665 35.6109 45.6188 35.8164 52.7435 36.2233C57.8684 36.516 61.9664 40.5936 62.2906 45.7164C62.9272 55.7741 62.926 65.8834 62.2883 75.9583C61.964 81.0816 57.8662 85.1593 52.741 85.4522C45.6098 85.8598 38.4668 86.0653 31.3837 86.0653Z" fill="#80ED99"/>
<path d="M12.4552 85.5806C11.6445 85.5431 10.8337 85.4977 10.0258 85.4522C4.90198 85.1606 0.802854 81.0829 0.479041 75.9589C-0.157896 65.8824 -0.160521 55.7737 0.476229 45.7159C0.800041 40.5947 4.89917 36.5169 10.023 36.2226C10.8337 36.177 11.6417 36.1316 12.4524 36.0941C9.44229 37.86 7.36592 41.0415 7.13323 44.7366C6.45354 55.4473 6.45635 66.2115 7.13585 76.9382C7.36873 80.6334 9.4451 83.8147 12.4552 85.5806Z" fill="#38A3A5"/>
<path d="M87.6606 90.984C68.7985 91.6894 49.9362 91.6894 31.074 90.984C27.9359 90.8666 25.3339 88.5403 24.8228 85.4419C23.938 80.0781 23.938 74.7144 24.8228 69.3508C25.3339 66.2524 27.9359 63.9261 31.074 63.8087C49.9362 63.1033 68.7985 63.1033 87.6606 63.8087C90.7988 63.9261 93.4009 66.2524 93.9118 69.3508C94.7967 74.7144 94.7967 80.0782 93.9118 85.4419C93.4009 88.5403 90.7988 90.8666 87.6606 90.984Z" fill="#FBFCFC"/>
<path d="M59.3677 92.9375C49.8967 92.9375 40.4257 92.7617 31.0211 92.4101C27.2344 92.2686 24.0354 89.4356 23.415 85.674C22.5088 80.1812 22.5088 74.6111 23.415 69.1183C24.0354 65.3567 27.2344 62.5237 31.0211 62.3822C49.8307 61.6789 68.9051 61.6789 87.7144 62.3822C91.5011 62.5237 94.7001 65.3567 95.3205 69.1183C96.2267 74.6111 96.2267 80.1812 95.3205 85.674C94.7001 89.4356 91.5013 92.2686 87.7144 92.4101C78.3096 92.7619 68.8387 92.9375 59.3677 92.9375ZM87.6609 90.984H87.6628H87.6609ZM59.3677 64.7092C49.9324 64.7092 40.4972 64.8844 31.1278 65.2346C28.6912 65.3257 26.6321 67.1544 26.2314 69.5829C25.3761 74.7675 25.3761 80.025 26.2314 85.2095C26.6321 87.6381 28.6912 89.4667 31.128 89.5579C49.8669 90.2586 68.8693 90.2586 87.6079 89.5579C90.0444 89.4667 92.1037 87.6381 92.5042 85.2095C93.3596 80.025 93.3596 74.7675 92.5042 69.5829C92.1037 67.1544 90.0444 65.3257 87.6079 65.2346C78.2383 64.8844 68.8029 64.7092 59.3677 64.7092Z" fill="#57CC99"/>
<path d="M42.3022 73.4315C41.9081 72.7489 41.0353 72.515 40.3526 72.9092L36.8627 74.924V70.8941C36.8627 70.1059 36.2237 69.4669 35.4354 69.4669C34.6472 69.4669 34.0082 70.1059 34.0082 70.8941V74.924L30.518 72.909C29.8354 72.5147 28.9624 72.7489 28.5684 73.4314C28.1743 74.114 28.4081 74.9869 29.0908 75.381L32.5809 77.396L29.0908 79.4111C28.4081 79.8052 28.1743 80.678 28.5684 81.3607C28.8328 81.8186 29.3124 82.0745 29.8057 82.0745C30.0478 82.0745 30.2932 82.0129 30.518 81.8831L34.0082 79.868V83.898C34.0082 84.6862 34.6472 85.3252 35.4354 85.3252C36.2237 85.3252 36.8627 84.6862 36.8627 83.898V79.868L40.3526 81.8829C40.5774 82.0127 40.8229 82.0744 41.0649 82.0744C41.5581 82.0744 42.0379 81.8182 42.3022 81.3605C42.6964 80.6779 42.4626 79.805 41.7799 79.4109L38.2897 77.3959L41.7799 75.3808C42.4626 74.987 42.6964 74.1142 42.3022 73.4315Z" fill="#57CC99"/>
<path d="M58.0075 73.4315C57.6134 72.7489 56.7404 72.515 56.0579 72.9092L52.5678 74.9242V70.8943C52.5678 70.106 51.9288 69.467 51.1405 69.467C50.3523 69.467 49.7133 70.106 49.7133 70.8943V74.9242L46.2231 72.9092C45.5404 72.5149 44.6676 72.749 44.2735 73.4315C43.8794 74.1142 44.1132 74.987 44.7959 75.3812L48.286 77.3962L44.7959 79.4113C44.1132 79.8054 43.8794 80.6782 44.2735 81.3609C44.5379 81.8188 45.0175 82.0747 45.5108 82.0747C45.7529 82.0747 45.9983 82.013 46.2231 81.8833L49.7133 79.8682V83.8982C49.7133 84.6864 50.3523 85.3254 51.1405 85.3254C51.9288 85.3254 52.5678 84.6864 52.5678 83.8982V79.8682L56.0579 81.8833C56.2827 82.013 56.5281 82.0747 56.7702 82.0747C57.2633 82.0747 57.7431 81.8186 58.0075 81.3609C58.4016 80.6782 58.1678 79.8054 57.4851 79.4113L53.995 77.3962L57.4851 75.3812C58.1676 74.987 58.4016 74.1142 58.0075 73.4315Z" fill="#57CC99"/>
<path d="M73.7126 73.4315C73.3185 72.7489 72.4455 72.515 71.763 72.9092L68.2728 74.9242V70.8943C68.2728 70.106 67.6338 69.467 66.8456 69.467C66.0573 69.467 65.4183 70.106 65.4183 70.8943V74.9242L61.9282 72.9092C61.2455 72.5149 60.3727 72.749 59.9786 73.4315C59.5845 74.1142 59.8183 74.987 60.501 75.3812L63.9911 77.3962L60.501 79.4113C59.8183 79.8054 59.5845 80.6782 59.9786 81.3609C60.243 81.8188 60.7226 82.0747 61.2159 82.0747C61.458 82.0747 61.7034 82.013 61.9282 81.8833L65.4183 79.8682V83.8982C65.4183 84.6864 66.0573 85.3254 66.8456 85.3254C67.6338 85.3254 68.2728 84.6864 68.2728 83.8982V79.8682L71.763 81.8833C71.9878 82.013 72.2332 82.0747 72.4753 82.0747C72.9684 82.0747 73.4482 81.8186 73.7126 81.3609C74.1067 80.6782 73.8729 79.8054 73.1902 79.4113L69.7001 77.3962L73.1902 75.3812C73.8729 74.987 74.1069 74.1142 73.7126 73.4315Z" fill="#57CC99"/>
<path d="M88.8951 79.4111L85.405 77.396L88.8951 75.381C89.5778 74.9869 89.8116 74.114 89.4175 73.4314C89.0233 72.7487 88.1505 72.5149 87.4678 72.909L83.9779 74.9239V70.8939C83.9779 70.1057 83.3389 69.4667 82.5507 69.4667C81.7624 69.4667 81.1234 70.1057 81.1234 70.8939V74.9239L77.6333 72.9088C76.9508 72.5145 76.0778 72.7487 75.6837 73.4312C75.2895 74.1139 75.5233 74.9867 76.206 75.3808L79.6962 77.3959L76.206 79.4109C75.5233 79.805 75.2895 80.6779 75.6837 81.3605C75.948 81.8184 76.4277 82.0744 76.921 82.0744C77.163 82.0744 77.4085 82.0127 77.6333 81.8829L81.1234 79.8679V83.8978C81.1234 84.686 81.7624 85.325 82.5507 85.325C83.3389 85.325 83.9779 84.686 83.9779 83.8978V79.8679L87.4678 81.8827C87.6927 82.0125 87.9381 82.0742 88.1802 82.0742C88.6733 82.0742 89.1531 81.818 89.4175 81.3604C89.8116 80.678 89.5778 79.8052 88.8951 79.4111Z" fill="#57CC99"/>
<path d="M60.4744 27.8846C60.2699 27.8846 60.0623 27.8405 59.8651 27.7472C59.1526 27.4102 58.8483 26.5594 59.1852 25.8467L61.9381 20.0265C62.275 19.314 63.1255 19.0093 63.8386 19.3466C64.5511 19.6835 64.8554 20.5344 64.5184 21.2471L61.7656 27.0673C61.5218 27.5827 61.0092 27.8846 60.4744 27.8846Z" fill="#80ED99"/>
<path d="M69.0719 38.4004C68.8673 38.4004 68.6597 38.3563 68.4627 38.2629L62.6425 35.5101C61.93 35.1731 61.6255 34.3222 61.9626 33.6097C62.2996 32.8971 63.1504 32.5924 63.8629 32.9299L69.6831 35.6827C70.3956 36.0197 70.7001 36.8706 70.363 37.5831C70.1192 38.0983 69.6066 38.4004 69.0719 38.4004Z" fill="#80ED99"/>
<path d="M63.4716 31.1908C62.8856 31.1908 62.3364 30.8273 62.1278 30.2439C61.8623 29.5018 62.2485 28.6851 62.9908 28.4194L69.0529 26.2504C69.7948 25.9843 70.6119 26.3713 70.8774 27.1134C71.1429 27.8556 70.7567 28.6723 70.0144 28.938L63.9523 31.107C63.7933 31.1638 63.6311 31.1908 63.4716 31.1908Z" fill="#80ED99"/>
</g>
<defs>
<clipPath id="clip0_467_7195">
<rect width="96" height="96" fill="white"/>
</clipPath>
</defs>
</svg>
