<svg width="96" height="96" viewBox="0 0 96 96" fill="none" xmlns="http://www.w3.org/2000/svg">
<path d="M48 96C74.5097 96 96 74.5097 96 48C96 21.4903 74.5097 0 48 0C21.4903 0 0 21.4903 0 48C0 74.5097 21.4903 96 48 96Z" fill="#80ED99"/>
<path d="M96 48C96 47.7506 95.9944 47.5028 95.9906 47.2543L62.2603 13.5242C62.2603 13.5242 37.5 4.5 34.6875 26.8125C31.875 49.125 25.2236 80.0576 25.2236 80.0576L40.6603 95.4418C43.0532 95.8091 45.5042 96 48 96C74.5097 96 96 74.5097 96 48Z" fill="#57CC99"/>
<path d="M67.1588 39.9403H59.5447V26.3049C59.5447 19.9389 54.3655 14.7598 47.9993 14.7598C41.6332 14.7598 36.454 19.9389 36.454 26.3049V39.9403H28.8398V26.3049C28.8398 15.7404 37.4348 7.14545 47.9993 7.14545C58.5638 7.14545 67.1588 15.7403 67.1588 26.3049V39.9403Z" fill="#F4F2EF"/>
<path d="M67.1587 26.3044V39.9413H59.5444V26.3044C59.5444 19.9388 54.3656 14.76 48 14.76V7.14563C58.5638 7.14563 67.1587 15.7406 67.1587 26.3044Z" fill="#E5E1DC"/>
<path d="M61.9518 83.625H34.0473C27.0346 83.625 21.3496 77.94 21.3496 70.9273V39.1324H74.6495V70.9273C74.6495 77.94 68.9645 83.625 61.9518 83.625Z" fill="#22577A"/>
<path d="M74.6494 39.1331V70.9275C74.6494 77.94 68.9644 83.625 61.9519 83.625H48V39.1331H74.6494Z" fill="#80ED99"/>
<path d="M55.0208 56.2785C55.0208 52.4008 51.8773 49.2574 47.9996 49.2574C44.122 49.2574 40.9785 52.4008 40.9785 56.2785C40.9785 58.9016 42.418 61.1871 44.5489 62.3925V74.0044H51.4502V62.3925C53.5813 61.1871 55.0208 58.9015 55.0208 56.2785Z" fill="#80ED99"/>
<path d="M55.0219 56.2781C55.0219 58.9013 53.5819 61.1869 51.45 62.3925V74.0044H48V49.2581C51.8775 49.2581 55.0219 52.4006 55.0219 56.2781Z" fill="#22577A"/>
</svg>
