<svg width="72" height="73" viewBox="0 0 72 73" fill="none" xmlns="http://www.w3.org/2000/svg">
<g clip-path="url(#clip0_225_2745)">
<path d="M45.0989 8.13313V64.0078C45.0989 68.4918 41.4498 72.1409 36.9658 72.1409H8.20345C3.71941 72.1409 0.0703125 68.4918 0.0703125 64.0078V8.13313C0.0703125 3.64909 3.71941 0 8.20345 0H36.9658C41.4498 0 45.0989 3.64909 45.0989 8.13313V8.13313Z" fill="#80ED99"/>
<path d="M45.098 8.13313V64.0078C45.098 68.4918 41.4489 72.1409 36.9649 72.1409H22.582V0H36.9649C41.4489 0 45.098 3.64909 45.098 8.13313Z" fill="#22577A"/>
<path d="M36.9658 0H8.20345C3.71941 0 0.0703125 3.64909 0.0703125 8.13313V64.0078C0.0703125 68.4918 3.71941 72.1409 8.20345 72.1409H36.9658C41.4498 72.1409 45.0989 68.4918 45.0989 64.0078V8.13313C45.0989 3.64909 41.4498 0 36.9658 0V0ZM40.8703 64.0078C40.8703 66.1603 39.1184 67.9122 36.9658 67.9122H8.20345C6.05087 67.9122 4.29897 66.1603 4.29897 64.0078V8.13313C4.29897 5.98055 6.05087 4.22866 8.20345 4.22866H12.0655V6.49242C12.0655 8.72921 13.8851 10.5488 16.1219 10.5488H29.0473C31.2841 10.5488 33.1037 8.72921 33.1037 6.49242V4.22866H36.9658C39.1184 4.22866 40.8703 5.98055 40.8703 8.13313V64.0078Z" fill="#22577A"/>
<path d="M28.8483 61.8794C28.8483 63.0479 27.9011 63.994 26.7337 63.994H18.4349C17.2675 63.994 16.3203 63.0479 16.3203 61.8794C16.3203 60.7126 17.2675 59.7654 18.4349 59.7654H26.7337C27.9011 59.7654 28.8483 60.7126 28.8483 61.8794Z" fill="#22577A"/>
<path d="M45.098 8.13313V64.0078C45.098 68.4918 41.4489 72.1409 36.9649 72.1409H22.582V67.9122H36.9649C39.1174 67.9122 40.8693 66.1603 40.8693 64.0078V8.13313C40.8693 5.98055 39.1174 4.22866 36.9649 4.22866H33.1028V6.49242C33.1028 8.72921 31.2832 10.5488 29.0464 10.5488H22.582V0H36.9649C41.4489 0 45.098 3.64909 45.098 8.13313V8.13313Z" fill="#57CC99"/>
<path d="M28.8477 61.8794C28.8477 63.0479 27.9005 63.994 26.7331 63.994H22.582V59.7654H26.7331C27.9005 59.7654 28.8477 60.7126 28.8477 61.8794Z" fill="#57CC99"/>
<path d="M65.1506 28.9853V36.8691C65.1506 42.187 60.8245 46.513 55.5066 46.513H36.8318L30.0306 49.9464C29.6277 50.183 29.1753 50.303 28.7212 50.303C28.314 50.303 27.9039 50.2056 27.5258 50.0097C26.665 49.5616 26.1289 48.6805 26.1289 47.7107V28.9853C26.1289 23.6674 30.4561 19.3413 35.7729 19.3413H55.5066C60.8245 19.3413 65.1506 23.6674 65.1506 28.9853V28.9853Z" fill="#80ED99"/>
<path d="M65.1515 28.9853V36.8691C65.1515 42.187 60.8254 46.513 55.5075 46.513H45.0996V19.3413H55.5075C60.8254 19.3413 65.1515 23.6674 65.1515 28.9853V28.9853Z" fill="#80ED99"/>
<path d="M57.0058 29.0106C57.0058 30.179 56.0585 31.1252 54.8917 31.1252H36.3914C35.2229 31.1252 34.2773 30.179 34.2773 29.0106C34.2773 27.8437 35.2229 26.8965 36.3914 26.8965H54.8917C56.0585 26.8965 57.0058 27.8437 57.0058 29.0106V29.0106Z" fill="white"/>
<path d="M57.0064 36.2317C57.0064 37.3985 56.0592 38.3458 54.8924 38.3458H45.6414C45.4537 38.3458 45.2737 38.3221 45.1004 38.2753C44.1955 38.0375 43.5273 37.2114 43.5273 36.2317C43.5273 35.2509 44.1955 34.4259 45.1004 34.1881C45.2737 34.1413 45.4537 34.1177 45.6414 34.1177H54.8924C56.0592 34.1177 57.0064 35.0632 57.0064 36.2317V36.2317Z" fill="white"/>
<path d="M57.0057 36.2317C57.0057 37.3985 56.0585 38.3458 54.8916 38.3458H45.6406C45.453 38.3458 45.273 38.3221 45.0996 38.2753V34.1881C45.273 34.1413 45.453 34.1176 45.6406 34.1176H54.8916C56.0585 34.1176 57.0057 35.0632 57.0057 36.2317V36.2317Z" fill="#FBFCFC"/>
<path d="M54.8916 31.1252H45.0996V26.8965H54.8916C56.0585 26.8965 57.0057 27.8437 57.0057 29.0106C57.0057 30.179 56.0585 31.1252 54.8916 31.1252Z" fill="#FBFCFC"/>
</g>
<defs>
<clipPath id="clip0_225_2745">
<rect width="72" height="72.1409" fill="white"/>
</clipPath>
</defs>
</svg>
