<svg width="24" height="24" viewBox="0 0 24 24" fill="none" xmlns="http://www.w3.org/2000/svg">
<path d="M11.5 12.244C14.5376 12.244 17 9.78157 17 6.744C17 3.70644 14.5376 1.244 11.5 1.244C8.46243 1.244 6 3.70644 6 6.744C6 9.78157 8.46243 12.244 11.5 12.244Z" fill="#202020"/>
<path d="M12.925 21.756C11.886 20.64 11.25 19.144 11.25 17.5C11.25 15.817 11.917 14.288 13.001 13.164C12.511 13.126 12.01 13.106 11.5 13.106C8.178 13.106 5.237 13.937 3.411 15.182C2.018 16.132 1.25 17.339 1.25 18.606V20.056C1.25 20.507 1.429 20.94 1.748 21.258C2.067 21.577 2.499 21.756 2.95 21.756H12.925Z" fill="#202020"/>
<path fill-rule="evenodd" clip-rule="evenodd" d="M12.25 17.5C12.25 14.602 14.602 12.25 17.5 12.25C20.398 12.25 22.75 14.602 22.75 17.5C22.75 20.398 20.398 22.75 17.5 22.75C14.602 22.75 12.25 20.398 12.25 17.5ZM16.8336 17.1558C16.3395 17.4012 16 17.911 16 18.5V19.5C16 20.3284 16.6716 21 17.5 21C18.3284 21 19 20.3284 19 19.5V18.5C19 17.911 18.6605 17.4012 18.1664 17.1558C17.9657 17.0561 17.7394 17 17.5 17C17.2606 17 17.0343 17.0561 16.8336 17.1558ZM18.5 15.25C18.5 14.698 18.052 14.25 17.5 14.25C16.948 14.25 16.5 14.698 16.5 15.25C16.5 15.802 16.948 16.25 17.5 16.25C18.052 16.25 18.5 15.802 18.5 15.25Z" fill="#202020"/>
</svg>
