<svg width="48" height="48" viewBox="0 0 48 48" fill="none" xmlns="http://www.w3.org/2000/svg">
<path d="M43.0067 39.5829L40.8631 12.5721C40.7295 10.8319 39.2578 9.46866 37.5125 9.46866H33.2785V9.27834C33.2785 4.16222 29.1163 0 24.0002 0C18.884 0 14.7218 4.16222 14.7218 9.27834V9.46866H10.4879C8.74254 9.46866 7.27076 10.8318 7.13763 12.5684L4.99338 39.5866C4.82745 41.7499 5.57791 43.9036 7.05223 45.4953C8.52654 47.087 10.6165 48 12.7862 48H35.2141C37.3836 48 39.4737 47.0871 40.9481 45.4953C42.4224 43.9035 43.1728 41.7499 43.0067 39.5829ZM17.5334 9.27834C17.5334 5.71256 20.4345 2.81156 24.0002 2.81156C27.5659 2.81156 30.4669 5.71266 30.4669 9.27834V9.46866H17.5334V9.27834ZM38.8853 43.5848C37.9274 44.6189 36.6237 45.1884 35.2141 45.1884H12.7863C11.3766 45.1884 10.0729 44.6189 9.11501 43.5848C8.15716 42.5507 7.68898 41.2071 7.7966 39.8053L9.94066 12.787C9.96241 12.5028 10.2028 12.2802 10.4879 12.2802H14.7218V15.7429C14.7218 16.5192 15.3513 17.1487 16.1276 17.1487C16.9039 17.1487 17.5334 16.5192 17.5334 15.7429V12.2802H30.4669V15.7429C30.4669 16.5192 31.0964 17.1487 31.8727 17.1487C32.6491 17.1487 33.2785 16.5192 33.2785 15.7429V12.2802H37.5125C37.7975 12.2802 38.0379 12.5029 38.06 12.7908L40.2036 39.8016C40.3114 41.2071 39.8432 42.5506 38.8853 43.5848Z" fill="#22577A"/>
<path d="M30.3344 23.8392C29.7855 23.2902 28.8954 23.2902 28.3465 23.8392L22.0694 30.1163L19.6557 27.7026C19.1068 27.1536 18.2166 27.1536 17.6676 27.7026C17.1186 28.2516 17.1186 29.1417 17.6676 29.6907L21.0753 33.0984C21.3498 33.3729 21.7096 33.5103 22.0693 33.5103C22.4289 33.5103 22.7888 33.373 23.0632 33.0984L30.3343 25.8274C30.8834 25.2783 30.8834 24.3882 30.3344 23.8392Z" fill="#22577A"/>
</svg>
