<svg width="48" height="48" viewBox="0 0 48 48" fill="none" xmlns="http://www.w3.org/2000/svg">
<g clip-path="url(#clip0_244_3300)">
<path d="M41 12.8937H7.00003C3.13997 12.8937 0 16.0337 0 19.8936V39.8936C0 43.7536 3.13997 46.8936 7.00003 46.8936H41.0001C44.86 46.8936 48.0001 43.7537 48.0001 39.8936V19.8936C48 16.0337 44.86 12.8937 41 12.8937ZM46 39.8937C46 42.6497 43.758 44.8937 41.0001 44.8937H7.00003C4.242 44.8937 2.00006 42.6497 2.00006 39.8937V19.8936C2.00006 17.1377 4.24209 14.8937 7.00003 14.8937H41.0001C43.7581 14.8937 46 17.1377 46 19.8936V39.8937Z" fill="#22577A"/>
<path d="M39 26.8937C37.346 26.8937 36 28.2396 36 29.8937C36 31.5477 37.346 32.8937 39 32.8937C40.654 32.8937 42 31.5477 42 29.8937C42 28.2396 40.654 26.8937 39 26.8937ZM39 30.8937C38.45 30.8937 38 30.4457 38 29.8937C38 29.3417 38.45 28.8936 39 28.8936C39.55 28.8936 40 29.3417 40 29.8937C40 30.4457 39.55 30.8937 39 30.8937Z" fill="#22577A"/>
<path d="M47 22.8936H39C35.1401 22.8936 32 26.0336 32 29.8937C32 33.7536 35.14 36.8937 39 36.8937H47C47.552 36.8937 48 36.4457 48 35.8937V23.8937C48 23.3417 47.552 22.8936 47 22.8936ZM46.0001 34.8936H39C36.242 34.8936 34.0001 32.6496 34.0001 29.8937C34.0001 27.1377 36.2421 24.8937 39 24.8937H46.0001V34.8936Z" fill="#22577A"/>
<path d="M40.8938 13.4457L36.6598 4.97765C35.8058 3.26962 34.3318 2.01169 32.5118 1.43569C30.6919 0.861655 28.7638 1.04165 27.0799 1.94569L6.52582 13.0137C6.03982 13.2737 5.85785 13.8817 6.11979 14.3677C6.38182 14.8537 6.98979 15.0357 7.47382 14.7738L28.0318 3.70969C29.2318 3.06169 30.6138 2.93165 31.9098 3.34369C33.2098 3.75365 34.2618 4.65366 34.8718 5.87372L39.1058 14.3417C39.2818 14.6917 39.6338 14.8937 39.9998 14.8937C40.1498 14.8937 40.3018 14.8597 40.4458 14.7877C40.9398 14.5397 41.1398 13.9397 40.8938 13.4457Z" fill="#22577A"/>
<path d="M36.8824 5.42167C36.6184 4.9337 36.0104 4.7537 35.5264 5.01367L20.6684 13.0136C20.1824 13.2757 20.0004 13.8817 20.2624 14.3677C20.4424 14.7037 20.7863 14.8937 21.1424 14.8937C21.3024 14.8937 21.4664 14.8557 21.6184 14.7757L36.4763 6.7757C36.9623 6.51367 37.1444 5.90767 36.8824 5.42167Z" fill="#22577A"/>
<path d="M18 6.89371H11C4.93603 6.89371 0 11.8277 0 17.8937V19.8936C0 20.4456 0.448031 20.8937 1.00003 20.8937C1.55203 20.8937 2.00006 20.4456 2.00006 19.8936V17.8937C2.00006 12.9317 6.03806 8.89368 11.0001 8.89368H18C18.552 8.89368 19 8.44564 19 7.89364C19 7.34164 18.552 6.89371 18 6.89371Z" fill="#22577A"/>
<path d="M37 6.89371C36.448 6.89371 36 7.34174 36 7.89374C36 8.44574 36.448 8.89377 37 8.89377C41.962 8.89377 46 12.9318 46 17.8938V19.8937C46 20.4457 46.4481 20.8938 47.0001 20.8938C47.5521 20.8938 48.0001 20.4457 48.0001 19.8937V17.8938C48 11.8277 43.064 6.89371 37 6.89371Z" fill="#22577A"/>
</g>
<defs>
<clipPath id="clip0_244_3300">
<rect width="48" height="48" fill="white"/>
</clipPath>
</defs>
</svg>
