<svg width="48" height="48" viewBox="0 0 48 48" fill="none" xmlns="http://www.w3.org/2000/svg">
<path d="M5.00029 44H43.0003C43.3469 44 43.6683 43.8204 43.8509 43.5254C44.0335 43.2304 44.0501 42.8624 43.8949 42.5528L35.8949 26.5528C35.7249 26.2138 35.3793 26 35.0003 26H31.1369L33.1693 23.6484C37.3011 18.8672 37.0375 11.623 32.5697 7.15521C27.8451 2.43061 20.1557 2.43061 15.4311 7.15521C10.9633 11.623 10.6997 18.8672 14.8315 23.6484L16.8637 26H13.0003C12.6213 26 12.2757 26.2138 12.1057 26.5528L4.10569 42.5528C3.95049 42.8624 3.96709 43.2306 4.14969 43.5254C4.33229 43.8202 4.65369 44 5.00029 44ZM16.8451 8.56941C18.7561 6.65821 21.2981 5.60541 24.0003 5.60541C26.7025 5.60541 29.2445 6.6582 31.1555 8.5692C34.8859 12.2996 35.1057 18.3484 31.6555 22.3398L24.0003 31.1982L16.3451 22.3398C12.8949 18.3486 13.1145 12.2998 16.8451 8.56941ZM13.6185 28H18.5647C18.5731 28 18.5797 27.9954 18.5881 27.9952L23.2435 33.3818C23.4339 33.6016 23.7103 33.7276 24.0003 33.7276C24.2903 33.7276 24.5667 33.6016 24.7571 33.3818L29.4083 28H34.3821L41.3821 42H6.61849L13.6185 28Z" fill="#22577A"/>
<path d="M28 16C28 13.794 26.206 12 24 12C21.794 12 20 13.794 20 16C20 18.206 21.794 20 24 20C26.206 20 28 18.206 28 16ZM22 16C22 14.8974 22.8974 14 24 14C25.1026 14 26 14.8974 26 16C26 17.1026 25.1026 18 24 18C22.8974 18 22 17.1026 22 16Z" fill="#22577A"/>
<path d="M13 36H19C19.5528 36 20 35.5528 20 35C20 34.4472 19.5528 34 19 34H13C12.4472 34 12 34.4472 12 35C12 35.5528 12.4472 36 13 36Z" fill="#22577A"/>
<path d="M23 38H11C10.4472 38 10 38.4472 10 39C10 39.5528 10.4472 40 11 40H23C23.5528 40 24 39.5528 24 39C24 38.4472 23.5528 38 23 38Z" fill="#22577A"/>
</svg>
