<svg width="24" height="24" viewBox="0 0 24 24" fill="none" xmlns="http://www.w3.org/2000/svg">
<path fill-rule="evenodd" clip-rule="evenodd" d="M12 0C5.24002 0 0 4.95169 0 11.64C0 15.1384 1.43377 18.1615 3.76866 20.2495C3.96469 20.425 4.083 20.6707 4.09102 20.9338L4.15636 23.0683C4.17722 23.7492 4.88053 24.1922 5.50359 23.9172L7.88541 22.8657C8.0873 22.7767 8.31356 22.7601 8.52633 22.8187C9.62086 23.1196 10.7857 23.28 12 23.28C18.7599 23.28 24 18.3283 24 11.64C24 4.95164 18.7599 0 12 0V0Z" fill="url(#paint0_radial_126_767)"/>
<path fill-rule="evenodd" clip-rule="evenodd" d="M4.79406 15.0441L8.31906 9.45164C8.87978 8.56196 10.0805 8.34043 10.9218 8.97141L13.7254 11.0741C13.9826 11.2671 14.3365 11.266 14.5927 11.0716L18.3791 8.19802C18.8845 7.81449 19.5442 8.41932 19.206 8.95603L15.681 14.5486C15.1203 15.4382 13.9195 15.6598 13.0783 15.0287L10.2746 12.926C10.0174 12.7331 9.66344 12.7341 9.40731 12.9285L5.62089 15.8021C5.11549 16.1856 4.45577 15.5808 4.79406 15.0441Z" fill="white"/>
<defs>
<radialGradient id="paint0_radial_126_767" cx="0" cy="0" r="1" gradientUnits="userSpaceOnUse" gradientTransform="translate(4.62188 23.7086) scale(26.1375 26.1375)">
<stop stop-color="#0099FF"/>
<stop offset="0.6098" stop-color="#A033FF"/>
<stop offset="0.9348" stop-color="#FF5280"/>
<stop offset="1" stop-color="#FF7061"/>
</radialGradient>
</defs>
</svg>
