<svg width="56" height="56" viewBox="0 0 56 56" fill="none" xmlns="http://www.w3.org/2000/svg">
<g clip-path="url(#clip0_0_3)">
<path d="M28.007 0H27.993C12.5545 0 0 12.558 0 28C0 34.125 1.974 39.802 5.3305 44.4115L1.841 54.8135L12.6035 51.373C17.031 54.306 22.3125 56 28.007 56C43.4455 56 56 43.4385 56 28C56 12.5615 43.4455 0 28.007 0Z" fill="#4CAF50"/>
<path d="M44.2995 39.5395C43.624 41.447 40.943 43.029 38.8045 43.491C37.3415 43.8025 35.4305 44.051 28.9975 41.384C20.769 37.975 15.47 29.6135 15.057 29.071C14.6615 28.5285 11.732 24.6435 11.732 20.6255C11.732 16.6075 13.7725 14.651 14.595 13.811C15.2705 13.1215 16.387 12.8065 17.458 12.8065C17.8045 12.8065 18.116 12.824 18.396 12.838C19.2185 12.873 19.6315 12.922 20.174 14.2205C20.8495 15.848 22.4945 19.866 22.6905 20.279C22.89 20.692 23.0895 21.252 22.8095 21.7945C22.547 22.3545 22.316 22.603 21.903 23.079C21.49 23.555 21.098 23.919 20.685 24.43C20.307 24.8745 19.88 25.3505 20.356 26.173C20.832 26.978 22.477 29.6625 24.899 31.8185C28.0245 34.601 30.5585 35.49 31.465 35.868C32.1405 36.148 32.9455 36.0815 33.439 35.5565C34.0655 34.881 34.839 33.761 35.6265 32.6585C36.1865 31.8675 36.8935 31.7695 37.6355 32.0495C38.3915 32.312 42.392 34.2895 43.2145 34.699C44.037 35.112 44.5795 35.308 44.779 35.6545C44.975 36.001 44.975 37.6285 44.2995 39.5395Z" fill="#FAFAFA"/>
</g>
<defs>
<clipPath id="clip0_0_3">
<rect width="56" height="56" fill="white"/>
</clipPath>
</defs>
</svg>
