<svg width="24" height="24" viewBox="0 0 24 24" fill="none" xmlns="http://www.w3.org/2000/svg">
<path d="M12 24C18.6274 24 24 18.6274 24 12C24 5.37258 18.6274 0 12 0C5.37258 0 0 5.37258 0 12C0 18.6274 5.37258 24 12 24Z" fill="#FFDD55"/>
<path d="M16.6597 5.32389L15.9333 4.59747L14.8286 5.39941C14.8286 5.39941 15.5644 6.14899 16.185 6.77322L16.1847 6.77388L15.1606 7.79805L12.0078 4.64533L9.99011 5.39941L11.345 6.75433L10.6159 7.48347L7.76608 4.63366L5.75585 5.39941L7.13304 6.7766L5.47258 8.05324L6.94005 10.818L3.03625 16.3218L10.637 23.9225C11.0845 23.9731 11.5391 24 12 24C18.6274 24 24 18.6274 24 12C24 11.9336 23.9985 11.8675 23.9974 11.8013L16.872 4.67575L16.6597 5.32389Z" fill="#EDBE00"/>
<path d="M18.1053 9.06669H13.9202L13.6835 8.40078L15.7761 6.69843H16.2494L18.342 8.40078L18.1053 9.06669ZM14.9754 8.31669H17.0502L16.0128 7.47275L14.9754 8.31669Z" fill="#544F56"/>
<path d="M16.3538 6.98932H15.6038V5.79963H15.9788C16.1994 5.79963 16.379 5.6201 16.379 5.39941C16.379 5.17872 16.1994 4.99915 15.9788 4.99915C15.7581 4.99915 15.5785 5.17872 15.5785 5.39941H14.8285C14.8285 4.76515 15.3445 4.24915 15.9788 4.24915C16.613 4.24915 17.129 4.76515 17.129 5.39941C17.129 5.90238 16.8045 6.33105 16.3538 6.48686V6.98932Z" fill="#544F56"/>
<path d="M16.3538 6.7833V6.48686C16.8045 6.33105 17.129 5.90238 17.129 5.39941C17.129 4.76515 16.613 4.24915 15.9788 4.24915C15.3445 4.24915 14.8285 4.76515 14.8285 5.39941H15.5785C15.5785 5.17872 15.7581 4.99915 15.9788 4.99915C16.1995 4.99915 16.379 5.17872 16.379 5.39941C16.379 5.6201 16.1995 5.79963 15.9788 5.79963H15.6038V6.83861L13.6835 8.40082L13.9202 9.06672H18.1053L18.342 8.40082L16.3538 6.7833ZM14.9754 8.31668L16.0128 7.47274L17.0502 8.31668H14.9754Z" fill="#544F56"/>
<path d="M16.3538 6.48687C16.8045 6.33106 17.1291 5.90239 17.1291 5.39942C17.1291 4.77655 16.6314 4.26809 16.0128 4.25V5.00084C16.2176 5.01819 16.3791 5.19017 16.3791 5.39937C16.3791 5.60858 16.2176 5.78052 16.0128 5.79786V7.4727L17.0502 8.31664H16.0128V9.06664H18.1054L18.342 8.40073L16.3538 6.78327V6.48687Z" fill="#403B41"/>
<path d="M14.6268 7.61957L12.9868 8.81258V8.8131L10.7606 11.0394L12.4417 12.7206L13.4556 11.7066L12.9868 20.3595H15.544L16.0128 15.203V8.22299C15.4654 8.22299 14.9727 7.99063 14.6268 7.61957Z" fill="#6C67D2"/>
<path d="M17.3988 7.61957L19.0387 8.81258V8.8131L21.265 11.0394L19.5838 12.7206L18.57 11.7066L19.0388 20.3595H16.4816L16.0128 15.203V8.22299C16.5601 8.22299 17.0529 7.99063 17.3988 7.61957Z" fill="#534DCA"/>
<path d="M11.5153 6.7833V6.48686C11.966 6.33105 12.2906 5.90238 12.2906 5.39941C12.2906 4.76515 11.7746 4.24915 11.1403 4.24915C10.5061 4.24915 9.99006 4.76515 9.99006 5.39941H10.7401C10.7401 5.17872 10.9196 4.99915 11.1403 4.99915C11.361 4.99915 11.5406 5.17872 11.5406 5.39941C11.5406 5.6201 11.361 5.79963 11.1403 5.79963H10.7653V6.83861L8.84509 8.40082L9.08176 9.06672H13.2669L13.5036 8.40082L11.5153 6.7833ZM10.1369 8.31668L11.1743 7.47274L12.2117 8.31668H10.1369Z" fill="#544F56"/>
<path d="M11.5153 6.48687C11.966 6.33106 12.2906 5.90239 12.2906 5.39942C12.2906 4.77655 11.7929 4.26809 11.1744 4.25V5.00084C11.3792 5.01819 11.5406 5.19017 11.5406 5.39937C11.5406 5.60858 11.3792 5.78052 11.1744 5.79786V7.4727L12.2118 8.31664H11.1744V9.06664H13.2669L13.5036 8.40073L11.5153 6.78327V6.48687Z" fill="#403B41"/>
<path d="M9.99013 7.4693L11.1744 9.06666V18.3564H7.99902V8.59791L9.99013 7.4693Z" fill="#9CD29A"/>
<path d="M12.3586 7.4693L11.1744 9.06666V18.3564H14.3497V8.59791L12.3586 7.4693Z" fill="#00A963"/>
<path d="M7.28107 6.7833V6.48686C7.73178 6.33105 8.05634 5.90238 8.05634 5.39941C8.05634 4.76515 7.54034 4.24915 6.90607 4.24915C6.27181 4.24915 5.75581 4.76515 5.75581 5.39941H6.50581C6.50581 5.17872 6.68539 4.99915 6.90607 4.99915C7.12676 4.99915 7.30634 5.17872 7.30634 5.39941C7.30634 5.6201 7.12676 5.79963 6.90607 5.79963H6.53107V6.83861L4.61084 8.40082L4.84751 9.06672H9.03265L9.26932 8.40082L7.28107 6.7833ZM5.90267 8.31668L6.94006 7.47274L7.97745 8.31668H5.90267Z" fill="#544F56"/>
<path d="M7.28109 6.48687C7.7318 6.33106 8.05636 5.90239 8.05636 5.39942C8.05636 4.77655 7.55869 4.26809 6.94012 4.25V5.00084C7.14492 5.01819 7.30636 5.19017 7.30636 5.39937C7.30636 5.60858 7.14492 5.78052 6.94012 5.79786V7.4727L7.97751 8.31664H6.94012V9.06664H9.03267L9.26934 8.40073L7.28109 6.78327V6.48687Z" fill="#403B41"/>
<path d="M8.10466 12.4687L6.94005 8.05322H4.52107L5.20193 12.0634C3.9183 12.8422 3.03625 14.4564 3.03625 16.3217H6.94005L8.10466 12.4687Z" fill="#FF5B5B"/>
<path d="M8.67825 12.0634L9.35911 8.05322H6.94012V16.3217H10.8439C10.8439 14.4564 9.96187 12.8423 8.67825 12.0634Z" fill="#C8001C"/>
</svg>
