<svg width="24" height="24" viewBox="0 0 24 24" fill="none" xmlns="http://www.w3.org/2000/svg">
<path d="M22.9688 12.5156C22.9688 18.8582 17.827 24 11.4844 24C5.14178 24 0 18.8582 0 12.5156C0 6.17303 5.14178 1.03125 11.4844 1.03125C17.827 1.03125 22.9688 6.17303 22.9688 12.5156Z" fill="#2E4C89"/>
<path d="M13.2839 1.08838C13.0616 0.454468 12.4583 0 11.7488 0C10.8503 0 10.1221 0.72821 10.1221 1.62671C10.1221 2.41022 10.6761 3.06427 11.4139 3.21863C11.8055 2.33221 12.4623 1.58807 13.2839 1.08838Z" fill="#BF7E52"/>
<path d="M11.7488 2.40967C11.7935 2.40967 11.8372 2.40491 11.8799 2.39777C12.0705 2.12878 12.2888 1.88068 12.5303 1.65747C12.5306 1.64722 12.5317 1.63715 12.5317 1.62671C12.5317 1.19495 12.1805 0.84375 11.7488 0.84375C11.317 0.84375 10.9658 1.19495 10.9658 1.62671C10.9658 2.05847 11.317 2.40967 11.7488 2.40967Z" fill="#FFDD8D"/>
<path d="M11.7488 2.40967C11.7933 2.40967 11.8369 2.40546 11.8795 2.39832C11.8916 2.38129 11.9039 2.36444 11.9163 2.34741C11.6353 2.22858 11.4375 1.95044 11.4375 1.62671C11.4375 1.27716 11.6678 0.98053 11.9846 0.880188C11.9101 0.856567 11.831 0.84375 11.7488 0.84375C11.317 0.84375 10.9658 1.19495 10.9658 1.62671C10.9658 2.05847 11.317 2.40967 11.7488 2.40967Z" fill="#FFC987"/>
<path d="M19.7014 0C18.9917 0 18.3885 0.454468 18.1664 1.08838C18.9877 1.58807 19.6448 2.33221 20.0363 3.21863C20.774 3.06427 21.3281 2.41022 21.3281 1.62671C21.3281 0.72821 20.5999 0 19.7014 0Z" fill="#BF7E52"/>
<path d="M19.5705 2.39777C19.613 2.40491 19.6567 2.40967 19.7014 2.40967C20.1332 2.40967 20.4844 2.05847 20.4844 1.62671C20.4844 1.19495 20.1332 0.84375 19.7014 0.84375C19.2697 0.84375 18.9185 1.19495 18.9185 1.62671C18.9185 1.63715 18.9196 1.64722 18.9201 1.65747C19.1614 1.88068 19.3797 2.12878 19.5705 2.39777Z" fill="#FFDD8D"/>
<path d="M19.5705 2.39777C19.613 2.40491 19.6567 2.40967 19.7014 2.40967C19.7866 2.40967 19.8684 2.39539 19.9453 2.37012C19.6328 2.2674 19.4062 1.97314 19.4062 1.62671C19.4062 1.28027 19.6328 0.986023 19.9453 0.883118C19.8684 0.857849 19.7866 0.84375 19.7014 0.84375C19.2697 0.84375 18.9185 1.19495 18.9185 1.62671C18.9185 1.63715 18.9196 1.64722 18.9201 1.65747C19.1614 1.88068 19.3797 2.12878 19.5705 2.39777Z" fill="#FFC987"/>
<path d="M2.69862 13.1111L2.69533 12.914V12.6797C2.69533 11.8009 3.41035 11.0859 4.28908 11.0859H5.07387L5.08302 11.0509C5.20277 10.5967 5.39851 10.1676 5.66493 9.7758L5.6783 9.75603L5.67024 9.73369C5.54408 9.38029 5.47102 9.01591 5.44813 8.6508C4.57765 8.61638 3.696 8.93095 3.03151 9.59544C2.35622 10.2707 2.04201 11.1705 2.0887 12.0547L2.69862 13.1111Z" fill="#37C47A"/>
<path d="M2.69859 13.1111L2.6953 12.914V12.6797C2.6953 12.2981 2.83024 11.9478 3.05455 11.673C3.10362 10.9164 3.41636 10.1737 3.99461 9.59544C4.41429 9.17595 4.92058 8.89616 5.45579 8.75536C5.45268 8.72057 5.4503 8.68578 5.4481 8.65099C4.57762 8.61656 3.69615 8.93095 3.03148 9.59544C2.35618 10.2707 2.04216 11.1705 2.08867 12.0547L2.69859 13.1111Z" fill="#2BB381"/>
<path d="M9.1172 7.94531C10.3076 7.94531 11.4049 8.45032 12.1756 9.2796C12.3113 9.08514 12.4614 8.90039 12.6257 8.72681L12.659 8.69147L12.6224 8.65924C11.6007 7.76404 11.0147 6.47241 11.0147 5.11542C11.0147 4.97388 11.0213 4.83398 11.0336 4.69574C9.55867 4.05286 7.77797 4.33337 6.5713 5.54004C5.41902 6.69232 5.1114 8.36829 5.64589 9.80164C6.40376 8.66693 7.69429 7.94531 9.1172 7.94531Z" fill="#69CDFF"/>
<path d="M12.6257 8.72683L12.659 8.69149L12.6224 8.65926C11.8337 7.96822 11.3051 7.04098 11.1048 6.02969L9.43469 4.35976C8.90112 4.35793 8.36737 4.46212 7.86713 4.67104L12.3029 9.10659C12.4036 8.97512 12.5109 8.84805 12.6257 8.72683Z" fill="#3EB7FF"/>
<path d="M12.5914 8.69458C12.4297 8.8656 12.28 9.0498 12.1434 9.24554C12.6147 9.74121 12.9683 10.3561 13.1514 11.051L13.1605 11.0859H13.3828C13.6633 11.0859 13.927 11.1592 14.1562 11.2868V10.4531C14.1562 10.2204 14.3454 10.0312 14.5781 10.0312H18.7969C19.0294 10.0312 19.2188 10.2204 19.2188 10.4531V14.0625H19.721L20.0436 13.5035C20.1539 13.0814 20.213 12.6359 20.213 12.1754C20.213 10.8109 19.6941 9.5777 18.8586 8.69458C19.8538 7.82263 20.4824 6.54236 20.4824 5.11542C20.4824 2.48804 18.3525 0.358154 15.7251 0.358154C13.0977 0.358154 10.9678 2.48804 10.9678 5.11542C10.9678 6.54236 11.5964 7.82263 12.5914 8.69458Z" fill="#EAAC68"/>
<path d="M12.5914 8.69458C12.4297 8.8656 12.28 9.0498 12.1434 9.24554C12.3917 9.50647 12.6068 9.8009 12.7819 10.1223C13.0128 9.58612 13.3312 9.10291 13.7173 8.69458C12.7222 7.82263 12.0938 6.54236 12.0938 5.11542C12.0938 2.67865 13.9261 0.669983 16.288 0.391479C16.1034 0.36969 15.9155 0.358154 15.7251 0.358154C13.0977 0.358154 10.9678 2.48804 10.9678 5.11542C10.9678 6.54236 11.5964 7.82263 12.5914 8.69458Z" fill="#DB9652"/>
<path d="M9.11719 7.94531C9.39404 7.94531 9.66577 7.97296 9.92981 8.02533L7.04114 5.13684C6.87689 5.25714 6.71979 5.39172 6.57129 5.54004C6.39972 5.71179 6.24792 5.89581 6.11353 6.08807L8.09729 8.07184C8.42542 7.98926 8.76727 7.94531 9.11719 7.94531Z" fill="white"/>
<path d="M6.09561 9.24078C6.40597 8.91541 6.76706 8.64166 7.16476 8.43091L5.6644 6.93054C5.46426 7.44617 5.37417 7.9942 5.39413 8.53931L6.09561 9.24078Z" fill="#3EB7FF"/>
<path d="M14.9766 12.6797V12.9141C14.9766 13.3649 14.7881 13.7723 14.4862 14.0625H19.2656V10.4531C19.2656 10.1953 19.0547 9.98438 18.7969 9.98438H14.5781C14.3203 9.98438 14.1094 10.1953 14.1094 10.4531V11.2619C14.6237 11.5265 14.9766 12.0626 14.9766 12.6797Z" fill="#60D882"/>
<path d="M14.9766 12.6797V12.9141C14.9766 13.1664 14.9174 13.4052 14.8125 13.6174V14.0625H18.5625V10.9219C18.5625 10.7924 18.4576 10.6875 18.3281 10.6875H15.0469C14.9174 10.6875 14.8125 10.7924 14.8125 10.9219V11.9764C14.9174 12.1886 14.9766 12.4274 14.9766 12.6797Z" fill="#37C47A"/>
<path d="M14.9766 12.6797V12.9141C14.9766 13.1664 14.9174 13.4052 14.8125 13.6174V14.0625H15.2812V10.9219C15.2812 10.7924 15.3862 10.6875 15.5156 10.6875H15.0469C14.9174 10.6875 14.8125 10.7924 14.8125 10.9219V11.9764C14.9174 12.1886 14.9766 12.4274 14.9766 12.6797Z" fill="#2BB381"/>
<path d="M17.415 13.8224C17.3924 13.8224 17.3701 13.8171 17.3494 13.8063L16.6875 13.4583L16.0256 13.8063C16.0051 13.817 15.9825 13.8224 15.96 13.8224C15.9309 13.8224 15.902 13.8133 15.8774 13.7955C15.834 13.7642 15.8124 13.7108 15.8214 13.658L15.9477 12.9208L15.4123 12.399C15.3741 12.3616 15.3602 12.3058 15.3766 12.2549C15.3933 12.204 15.4372 12.1668 15.4903 12.1591L16.2303 12.0515L16.5613 11.3809C16.585 11.3329 16.634 11.3026 16.6875 11.3026C16.741 11.3026 16.7898 11.3329 16.8135 11.3809L17.1445 12.0515L17.8846 12.1591C17.9376 12.1668 17.9817 12.204 17.9982 12.2549C18.0146 12.3058 18.0009 12.3616 17.9625 12.399L17.4271 12.9208L17.5534 13.658C17.5624 13.7108 17.5408 13.7642 17.4975 13.7955C17.473 13.8133 17.4441 13.8224 17.415 13.8224Z" fill="white"/>
<path d="M16.3513 13.6137C16.3079 13.5824 16.2863 13.5289 16.2953 13.4762L16.4216 12.7392L15.8862 12.2172C15.8564 12.1882 15.8417 12.1479 15.8443 12.1077L15.4903 12.1591C15.4372 12.1668 15.3933 12.204 15.3768 12.2549C15.3601 12.3058 15.3741 12.3616 15.4125 12.399L15.9479 12.9208L15.8216 13.658C15.8126 13.7108 15.8342 13.7642 15.8774 13.7955C15.902 13.8133 15.9309 13.8224 15.9602 13.8224C15.9825 13.8224 16.005 13.8171 16.0256 13.8063L16.37 13.6252C16.3636 13.6219 16.3572 13.6181 16.3513 13.6137Z" fill="#EEF6FF"/>
<path d="M16.5399 4.32294C16.5461 4.35059 16.5504 4.37878 16.5504 4.40771C16.5504 4.71716 16.1803 4.96875 15.7251 4.96875C15.2701 4.96875 14.8998 4.71716 14.8998 4.40771C14.8998 4.37878 14.9041 4.35059 14.9103 4.32294C14.1174 4.64502 13.558 5.42249 13.558 6.33124C13.558 7.52802 14.5281 8.49829 15.7251 8.49829C16.9221 8.49829 17.8923 7.52802 17.8923 6.33124C17.8923 5.42249 17.3329 4.64502 16.5399 4.32294Z" fill="white"/>
<path d="M14.5312 6.33105C14.5312 5.73889 14.7691 5.20276 15.154 4.81183C14.9976 4.70966 14.8998 4.56647 14.8998 4.40771C14.8998 4.37878 14.9041 4.35059 14.9103 4.32294C14.1172 4.64502 13.5579 5.42249 13.5579 6.33105C13.5579 7.52802 14.5281 8.49829 15.7251 8.49829C15.8925 8.49829 16.0552 8.4787 16.2118 8.44281C15.2492 8.2218 14.5312 7.36066 14.5312 6.33105Z" fill="#D9EAFC"/>
<path d="M16.5972 4.40771C16.5972 4.07208 16.2068 3.7998 15.7251 3.7998C15.2433 3.7998 14.853 4.07208 14.853 4.40771C14.853 4.74353 15.2433 5.01562 15.7251 5.01562C16.2068 5.01562 16.5972 4.74353 16.5972 4.40771Z" fill="#994334"/>
<path d="M15.5056 4.40771C15.5056 4.15265 15.7315 3.93439 16.0516 3.8443C15.9507 3.81592 15.8406 3.7998 15.7251 3.7998C15.2435 3.7998 14.853 4.07208 14.853 4.40771C14.853 4.74353 15.2433 5.01562 15.7251 5.01562C15.8406 5.01562 15.9505 4.99951 16.0516 4.97131C15.7315 4.88104 15.5056 4.66296 15.5056 4.40771Z" fill="#7C2E24"/>
<path d="M14.1129 3.87323C14.1129 4.20886 13.8408 4.48114 13.5049 4.48114C13.1693 4.48114 12.8972 4.20886 12.8972 3.87323C12.8972 3.53741 13.1693 3.26532 13.5049 3.26532C13.8408 3.26532 14.1129 3.53741 14.1129 3.87323Z" fill="#994334"/>
<path d="M18.5532 3.87323C18.5532 4.20886 18.2809 4.48114 17.9453 4.48114C17.6094 4.48114 17.3373 4.20886 17.3373 3.87323C17.3373 3.53741 17.6094 3.26532 17.9453 3.26532C18.2809 3.26532 18.5532 3.53741 18.5532 3.87323Z" fill="#994334"/>
<path d="M3.24774 14.0625H14.554C14.8442 13.7666 15.0234 13.3612 15.0234 12.9141V12.6797C15.0234 11.7737 14.2888 11.0391 13.3828 11.0391H13.1966C12.7202 9.23145 11.0744 7.89844 9.11719 7.89844C7.15997 7.89844 5.51422 9.23145 5.03778 11.0391H4.28906C3.38306 11.0391 2.64844 11.7737 2.64844 12.6797V12.9141C2.64844 12.954 2.65027 12.9933 2.6532 13.0325L3.24774 14.0625Z" fill="#FE3745"/>
<path d="M9.11719 7.89844C7.15997 7.89844 5.51422 9.23145 5.03778 11.0391H4.28906C3.38306 11.0391 2.64844 11.7737 2.64844 12.6797V12.8203H3.17871C3.33966 12.0831 3.99591 11.5312 4.78125 11.5312H5.52997C6.00641 9.72363 7.65216 8.39062 9.60938 8.39062C10.6485 8.39062 11.5997 8.76636 12.3349 9.38928C11.5611 8.47742 10.4068 7.89844 9.11719 7.89844Z" fill="#EA2A3D"/>
<path d="M7.61993 14.0625C7.47601 13.5357 6.99426 13.1484 6.42188 13.1484C5.84949 13.1484 5.36774 13.5357 5.22382 14.0625H7.61993Z" fill="#FFAF10"/>
<path d="M6.84869 14.0625C6.75 13.9345 6.59564 13.8516 6.42188 13.8516C6.24811 13.8516 6.09393 13.9345 5.99506 14.0625H6.84869Z" fill="#FFDD8D"/>
<path d="M12.8699 14.0625C12.726 13.5357 12.2443 13.1484 11.6719 13.1484C11.0995 13.1484 10.6177 13.5357 10.4738 14.0625H12.8699Z" fill="#FFAF10"/>
<path d="M12.0985 14.0625C11.9998 13.9345 11.8456 13.8516 11.6719 13.8516C11.4981 13.8516 11.3439 13.9345 11.2451 14.0625H12.0985Z" fill="#FFDD8D"/>
<path d="M6.30488 11.1797C6.22633 11.1797 6.15309 11.1403 6.10969 11.0751C6.06629 11.0098 6.05842 10.927 6.08863 10.8547C6.5951 9.64728 7.81202 8.83594 9.1172 8.83594C9.26753 8.83594 9.42097 8.84711 9.57295 8.86945C9.68812 8.88611 9.77345 8.98499 9.77345 9.10126V10.9453C9.77345 11.0748 9.66853 11.1797 9.53907 11.1797H6.30488Z" fill="#D9EAFC"/>
<path d="M7.07063 11.0751C7.02723 11.0098 7.01936 10.927 7.04957 10.8547C7.49232 9.79907 8.47798 9.04651 9.59108 8.87366C9.58485 8.87238 9.57917 8.87036 9.57295 8.86945C9.42097 8.84711 9.26753 8.83594 9.1172 8.83594C7.81202 8.83594 6.59492 9.64728 6.08863 10.8547C6.05842 10.927 6.06629 11.0098 6.10969 11.0751C6.15309 11.1403 6.22633 11.1797 6.30488 11.1797H7.26582C7.18727 11.1797 7.11402 11.1403 7.07063 11.0751Z" fill="#C3DDF4"/>
<path d="M10.6641 11.1797C10.5346 11.1797 10.4297 11.0748 10.4297 10.9453V9.50208C10.4297 9.41766 10.4751 9.33984 10.5483 9.2981C10.5842 9.27777 10.6241 9.2677 10.6641 9.2677C10.7056 9.2677 10.7472 9.27869 10.7842 9.30066C11.3947 9.66467 11.8782 10.2166 12.1458 10.8547C12.1761 10.927 12.1683 11.0098 12.1247 11.0751C12.0813 11.1403 12.0081 11.1797 11.9295 11.1797H10.6641Z" fill="#D9EAFC"/>
<path d="M10.9219 10.9453V9.50208C10.9219 9.46729 10.9299 9.43378 10.9442 9.4032C10.8918 9.36768 10.8386 9.33325 10.7842 9.30066C10.7472 9.27869 10.7056 9.2677 10.6641 9.2677C10.6241 9.2677 10.5842 9.27777 10.5483 9.2981C10.4749 9.33984 10.4297 9.41766 10.4297 9.50208V10.9453C10.4297 11.0748 10.5346 11.1797 10.6641 11.1797H11.1562C11.0268 11.1797 10.9219 11.0748 10.9219 10.9453Z" fill="#C3DDF4"/>
<path d="M9.77344 12.1406C9.77344 12.3349 9.61597 12.4922 9.42188 12.4922H8.66473C8.47046 12.4922 8.31317 12.3349 8.31317 12.1406C8.31317 11.9464 8.47046 11.7891 8.66473 11.7891H9.42188C9.61597 11.7891 9.77344 11.9464 9.77344 12.1406Z" fill="#B7092B"/>
<path d="M14.2734 12.3984V13.1953C14.2734 13.3248 14.3784 13.4297 14.5078 13.4297H14.9403C14.994 13.2675 15.0234 13.0942 15.0234 12.9141V12.6797C15.0234 12.4995 14.994 12.3263 14.9403 12.1641H14.5078C14.3784 12.1641 14.2734 12.269 14.2734 12.3984Z" fill="#FF9518"/>
<path d="M3.07196 13.7578H3.63281C3.76227 13.7578 3.86719 13.6529 3.86719 13.5234V13.0547C3.86719 12.9252 3.76227 12.8203 3.63281 12.8203H2.64844V12.9141C2.64844 12.9536 2.6499 12.9928 2.65265 13.0318L3.07196 13.7578Z" fill="white"/>
<path d="M20.3906 14.25C20.3906 14.2397 20.389 14.23 20.3875 14.2203L22.728 10.1667C22.7271 10.1629 22.7263 10.1592 22.7254 10.1554C22.6571 9.82855 22.5747 9.50702 22.4793 9.19098L19.6939 14.0156H3.27484L0.489441 9.19098C0.392944 9.51068 0.309448 9.83606 0.240784 10.1667L2.58105 14.2203C2.57977 14.23 2.57812 14.2397 2.57812 14.25V19.7657C4.68402 22.3495 7.8913 24 11.4844 24C15.0775 24 18.2847 22.3495 20.3906 19.7657V14.25Z" fill="#BF7E52"/>
<path d="M3.55609 14.0156H3.27484L0.489441 9.19098C0.392944 9.51068 0.309448 9.83606 0.240784 10.1667L2.58105 14.2203C2.57977 14.23 2.57812 14.2397 2.57812 14.25V19.7657C2.88171 20.1381 3.20874 20.4906 3.55609 20.822V14.0156Z" fill="#A8683D"/>
<path d="M14.4769 19.1175C14.4769 20.7702 13.1371 22.11 11.4844 22.11C9.83167 22.11 8.49188 20.7702 8.49188 19.1175C8.49188 17.4648 9.83167 16.1252 11.4844 16.1252C13.1371 16.1252 14.4769 17.4648 14.4769 19.1175Z" fill="#FFAF10"/>
<path d="M9.14062 19.1175C9.14062 17.5745 10.3087 16.3044 11.8088 16.1428C11.7023 16.1314 11.5941 16.125 11.4844 16.125C9.83167 16.125 8.49188 17.4648 8.49188 19.1175C8.49188 20.7702 9.83167 22.11 11.4844 22.11C11.5941 22.11 11.7023 22.1038 11.8088 22.0922C10.3087 21.9304 9.14062 20.6605 9.14062 19.1175Z" fill="#EF9614"/>
<path d="M10.6595 18.542C10.6595 18.7963 10.4535 19.0025 10.1992 19.0025C9.94501 19.0025 9.73883 18.7963 9.73883 18.542C9.73883 18.2878 9.94501 18.0817 10.1992 18.0817C10.4535 18.0817 10.6595 18.2878 10.6595 18.542Z" fill="#DB722C"/>
<path d="M13.2301 18.542C13.2301 18.7963 13.0239 19.0023 12.7694 19.0023C12.5153 19.0023 12.3093 18.7963 12.3093 18.542C12.3093 18.2878 12.5153 18.0817 12.7694 18.0817C13.0239 18.0817 13.2301 18.2878 13.2301 18.542Z" fill="#DB722C"/>
<path d="M11.4844 21.208C10.7741 21.208 10.1145 20.8436 9.76334 20.2573C9.66355 20.0907 9.71775 19.8748 9.88419 19.775C10.0508 19.6752 10.2667 19.7294 10.3665 19.8959C10.5915 20.2716 11.0198 20.5049 11.4844 20.5049C11.9489 20.5049 12.3774 20.2716 12.6024 19.8959C12.7022 19.7293 12.9183 19.6752 13.0847 19.775C13.2511 19.8748 13.3053 20.0907 13.2055 20.2573C12.8542 20.8436 12.1946 21.208 11.4844 21.208Z" fill="#DB722C"/>
<path d="M19.3594 15.75C19.3594 15.8789 19.2539 15.9844 19.125 15.9844H17.3906C17.2617 15.9844 17.1562 15.8789 17.1562 15.75V15.1875C17.1562 15.0586 17.2617 14.9531 17.3906 14.9531H19.125C19.2539 14.9531 19.3594 15.0586 19.3594 15.1875V15.75Z" fill="#FFCA51"/>
<path d="M18.0938 15.75V15.1875C18.0938 15.0586 18.1992 14.9531 18.3281 14.9531H17.3906C17.2617 14.9531 17.1562 15.0586 17.1562 15.1875V15.75C17.1562 15.8789 17.2617 15.9844 17.3906 15.9844H18.3281C18.1992 15.9844 18.0938 15.8789 18.0938 15.75Z" fill="#FFAF10"/>
</svg>
